<mxfile host="app.diagrams.net" modified="2021-05-27T11:53:59.900Z" agent="5.0 (Macintosh; Intel Mac OS X 10_15_7) AppleWebKit/537.36 (KHTML, like Gecko) Chrome/90.0.4430.212 Safari/537.36" etag="ZNUE_S29-V_LBPkPvcfI" version="14.6.10" type="github">
  <diagram id="ttmD2Rr4vhXcJ7KCLjd5" name="第 1 页">
    <mxGraphModel dx="908" dy="3530" grid="1" gridSize="10" guides="1" tooltips="1" connect="1" arrows="1" fold="1" page="1" pageScale="1" pageWidth="1169" pageHeight="827" math="0" shadow="0">
      <root>
        <mxCell id="0" />
        <mxCell id="1" parent="0" />
        <mxCell id="bPniwDqRxFUgS_rV1Idj-2" value="&lt;font style=&quot;font-size: 25px&quot;&gt;收到客户请求&lt;/font&gt;" style="rounded=1;whiteSpace=wrap;html=1;strokeWidth=2;fillWeight=4;hachureGap=8;hachureAngle=45;sketch=1;fillColor=#dae8fc;strokeColor=#6c8ebf;" parent="1" vertex="1">
          <mxGeometry x="90" y="-1430" width="310" height="100" as="geometry" />
        </mxCell>
        <mxCell id="bPniwDqRxFUgS_rV1Idj-4" value="&lt;div style=&quot;text-align: left&quot;&gt;&lt;span&gt;2021.05.18&amp;nbsp;&lt;/span&gt;&lt;/div&gt;&lt;div style=&quot;text-align: left&quot;&gt;&lt;span&gt;Phone：&lt;/span&gt;&lt;span&gt;15249914621&lt;/span&gt;&lt;/div&gt;&lt;div style=&quot;text-align: left&quot;&gt;&lt;span&gt;SessionID：&lt;/span&gt;&lt;span&gt;3a3668fd-6218-18ad-e42c-d7a6de206263&lt;/span&gt;&lt;/div&gt;" style="text;strokeColor=none;fillColor=none;html=1;fontSize=24;fontStyle=1;verticalAlign=middle;align=center;" parent="1" vertex="1">
          <mxGeometry x="210" y="-1530" width="330" height="40" as="geometry" />
        </mxCell>
        <mxCell id="bPniwDqRxFUgS_rV1Idj-13" style="edgeStyle=orthogonalEdgeStyle;rounded=1;orthogonalLoop=1;jettySize=auto;html=1;exitX=0.5;exitY=1;exitDx=0;exitDy=0;entryX=0.5;entryY=0;entryDx=0;entryDy=0;strokeWidth=2;" parent="1" source="bPniwDqRxFUgS_rV1Idj-5" target="bPniwDqRxFUgS_rV1Idj-6" edge="1">
          <mxGeometry relative="1" as="geometry" />
        </mxCell>
        <mxCell id="bPniwDqRxFUgS_rV1Idj-5" value="&lt;span style=&quot;font-size: 20px&quot;&gt;&lt;b&gt;13:59:40.938&lt;/b&gt;&lt;/span&gt;" style="ellipse;whiteSpace=wrap;html=1;strokeWidth=2;fillWeight=2;hachureGap=8;fillStyle=auto;sketch=1;strokeColor=#b85450;shadow=0;" parent="1" vertex="1">
          <mxGeometry x="130" y="-1350" width="220" height="50" as="geometry" />
        </mxCell>
        <mxCell id="bPniwDqRxFUgS_rV1Idj-6" value="&lt;span style=&quot;font-size: 25px&quot;&gt;PushMsg -&amp;gt; Controller&lt;/span&gt;" style="rounded=1;whiteSpace=wrap;html=1;strokeWidth=2;fillWeight=4;hachureGap=8;hachureAngle=45;sketch=1;fillColor=#dae8fc;strokeColor=#6c8ebf;" parent="1" vertex="1">
          <mxGeometry x="85" y="-1230" width="310" height="100" as="geometry" />
        </mxCell>
        <mxCell id="bPniwDqRxFUgS_rV1Idj-12" style="edgeStyle=orthogonalEdgeStyle;rounded=1;orthogonalLoop=1;jettySize=auto;html=1;exitX=0.5;exitY=1;exitDx=0;exitDy=0;entryX=0.5;entryY=0;entryDx=0;entryDy=0;strokeWidth=2;" parent="1" source="bPniwDqRxFUgS_rV1Idj-7" target="bPniwDqRxFUgS_rV1Idj-8" edge="1">
          <mxGeometry relative="1" as="geometry" />
        </mxCell>
        <mxCell id="bPniwDqRxFUgS_rV1Idj-7" value="&lt;span style=&quot;font-size: 20px&quot;&gt;&lt;b&gt;13:59:41.579&lt;/b&gt;&lt;/span&gt;" style="ellipse;whiteSpace=wrap;html=1;strokeWidth=2;fillWeight=2;hachureGap=8;fillStyle=auto;sketch=1;strokeColor=#b85450;shadow=0;" parent="1" vertex="1">
          <mxGeometry x="130" y="-1140" width="220" height="50" as="geometry" />
        </mxCell>
        <mxCell id="njifUeXzZiw9oMGgmkFQ-1" style="edgeStyle=orthogonalEdgeStyle;rounded=1;orthogonalLoop=1;jettySize=auto;html=1;exitX=1;exitY=0.5;exitDx=0;exitDy=0;strokeColor=#FF3333;strokeWidth=2;entryX=0;entryY=0.5;entryDx=0;entryDy=0;" edge="1" parent="1" source="bPniwDqRxFUgS_rV1Idj-8" target="njifUeXzZiw9oMGgmkFQ-2">
          <mxGeometry relative="1" as="geometry">
            <mxPoint x="540" y="-965" as="targetPoint" />
          </mxGeometry>
        </mxCell>
        <mxCell id="bPniwDqRxFUgS_rV1Idj-8" value="&lt;span style=&quot;font-size: 25px&quot;&gt;Controller 服务写入 t_sms_record 表&lt;/span&gt;" style="rounded=1;whiteSpace=wrap;html=1;strokeWidth=2;fillWeight=4;hachureGap=8;hachureAngle=45;sketch=1;fillColor=#dae8fc;strokeColor=#6c8ebf;" parent="1" vertex="1">
          <mxGeometry x="85" y="-1020" width="310" height="110" as="geometry" />
        </mxCell>
        <mxCell id="bPniwDqRxFUgS_rV1Idj-18" style="edgeStyle=orthogonalEdgeStyle;rounded=1;orthogonalLoop=1;jettySize=auto;html=1;exitX=0.5;exitY=1;exitDx=0;exitDy=0;entryX=0;entryY=0.5;entryDx=0;entryDy=0;strokeWidth=3;strokeColor=#FF3333;" parent="1" source="bPniwDqRxFUgS_rV1Idj-9" target="bPniwDqRxFUgS_rV1Idj-15" edge="1">
          <mxGeometry relative="1" as="geometry" />
        </mxCell>
        <mxCell id="bPniwDqRxFUgS_rV1Idj-9" value="&lt;span style=&quot;font-size: 20px&quot;&gt;&lt;b&gt;13:59:43&lt;/b&gt;&lt;/span&gt;" style="ellipse;whiteSpace=wrap;html=1;strokeWidth=2;fillWeight=2;hachureGap=8;fillStyle=auto;sketch=1;strokeColor=#b85450;shadow=0;" parent="1" vertex="1">
          <mxGeometry x="130" y="-928" width="220" height="50" as="geometry" />
        </mxCell>
        <mxCell id="bPniwDqRxFUgS_rV1Idj-15" value="&lt;font style=&quot;font-size: 14px&quot;&gt;&amp;nbsp; &amp;nbsp; &amp;nbsp; t_sms_record.create_time 是服务&amp;nbsp; &amp;nbsp; 处理时间，而非落库时间&lt;/font&gt;" style="ellipse;shape=doubleEllipse;whiteSpace=wrap;html=1;shadow=0;fillColor=#ffffff;" parent="1" vertex="1">
          <mxGeometry x="470" y="-810" width="270" height="70" as="geometry" />
        </mxCell>
        <mxCell id="bPniwDqRxFUgS_rV1Idj-19" value="" style="shape=singleArrow;direction=south;whiteSpace=wrap;html=1;shadow=0;strokeColor=#b85450;gradientColor=#ffffff;fillColor=none;strokeWidth=3;" parent="1" vertex="1">
          <mxGeometry x="575" y="-720" width="60" height="100" as="geometry" />
        </mxCell>
        <mxCell id="bPniwDqRxFUgS_rV1Idj-20" value="&lt;span style=&quot;font-size: 14px&quot;&gt;问题：&lt;br&gt;为什么数据处理的时间间隔是秒级&lt;br&gt;&lt;/span&gt;" style="ellipse;shape=doubleEllipse;whiteSpace=wrap;html=1;shadow=0;fillColor=#ffffff;" parent="1" vertex="1">
          <mxGeometry x="470" y="-600" width="270" height="70" as="geometry" />
        </mxCell>
        <mxCell id="bPniwDqRxFUgS_rV1Idj-21" value="" style="shape=image;verticalLabelPosition=bottom;labelBackgroundColor=#ffffff;verticalAlign=top;aspect=fixed;imageAspect=0;image=data:image/png,iVBORw0KGgoAAAANSUhEUgAAAyMAAAFCCAYAAADi5AITAAAgAElEQVR4Aex9d3wUV5auwzjbg1FLgFo5p7GNyQJEMjmJJIHIOQcRhMjRYHLOmJyNiSYYm2AwMDl6x54Zj+2Ju2/n7Xtv33u7++a3Yc77fbd1qm+XqqTuVkvqbp0/+ne7qm6qc7+6db864T6Rk5ND4fhr2bJlWN5XOI6V3FN4PoMyrjKuggHBgGBAMCAYEAxUhoEnKssQqteFjAj4QxW70m/BrmBAMCAYEAwIBgQDdQUDQkbCVDNUVwAs9ymTtWBAMCAYEAwIBgQDgoHQxYCQkRAkI/0Lh9GE6XNp3JTisDRF69Gnv7o/3GObvA4hfY8lXZJpa348reud4NN9+FOufcfONH7aHFqyZistWLnRp/aCYRIfOX4qrd68j2aVLqd+BUUh1/9gkKH0IXRfxjJ2MnaCAcFAXcWAkJEQJCNrth6gczcf05nrD8NywVay7B11f7jH4WMmh/Q9/nxKfaLFT9C/lD7r0334Uq5X/kB6Z8chOv3BA0Nue45f8qm9YJgA5y5+2+g/xn7vics0aWZJyN1HMMhS+iCLGsGAYEAwIBgIFQwIGREy4tNib+k722njnmPq63t1gVzISA55S0awgD919b62iH9Eh8/fopUb9/g0rtU1lr7UO3ZKMe07eYVOX3OTKpCSbQfPhryGzBc5SF5ZQAgGBAOCAcFAXcKAkBEhIz4tWvefuqoWvvhqXV0PipAR78hI6fL1dPbGQzUeZ288om0Hz9CgopHVNi7VNd7menPb5NHit7fQiSv3DJK1+9gFghmaOa8cywtbMCAYEAwIBgQDoY0BISNCRnxa4AkZ8e2B91bDYZ5IKys3be5iAgGB5gDp7EWrfBpHc3vBeNyz7wCl5cE9Kg3Ju2fD7h6DUe7SJ9+ecZGXyEswIBgQDFQNA0JGhIz4tMATMuLbA1cZqbCbwCoql9e+Ex15/yNDa7B220GfxtCuzWA8D6d23Rdm5vxlYXuvwSh/6ZNvz7vIS+QlGBAMCAZ8x4CQkTAhI4OHj6V3th+iPccu0tYDp2nekjWVLtqGjZ6kfD/g/Lx+1xEVyQiRmBat3qwiGlk9UFUhI/mDimjhqk20cc9xgoP15v0nadk7O2janEWEr+DcnpWZFsyPsOiGuQ7ub/6yd6rNbGdZ9yS6PqIhfW+Cg344MYLuj41Uxx8Mb0hHC2KMfnJ/OS1+K4WuDG9Ej8c76EcTI+jBuEj6xzkvVurA7ms5RJxibQHM5Vq0yrXtU/LokdRw83qKXuvSnCRNGEf1jx+i+scOUfKoEapceo9uFLVnB71y4azKl92sWbn64ufNJsfh/VTv7Al6+fJ5lUbu26XyJ06eUC4/ywRpyvCh1GjTOnIc3EsRRw9S5P5d1HDbprJ+ra6wLMpjrPl+j174WPxHQnDO0vEg/31/UYvMRGaCAcFAOGNAyEgIvtjN0bRWrN+lImvxgo3TrQfOUJOm5ReW+LIOp2A28+H8err/9AfGInFW6QoqXrhS/eAcjXyHzt00zvE1pMPHWke/mrtkjYcPgN4W/uuRwcxkBO2fvvapsSDlsiAm8C8I1APau0UmfT6tHv1t0ZOKQCAKlvn359kvWbb3/QkR9B8Lny6Xn8vbRdPytRzG8/ilu0oWxy/frTQErnPNKnri8Sf07J2blDBzGj394I46xrkXbl6lzA7t6ZVL7xnncD56rZsggJjUO3fS4zry6L+Xrl6wlAnGJeLwAXr6U3ebejn8f/buh7Zl9XHdtPe4Mf5zFrv7p+eR//KyFgwIBgQDggHBQOhhQMhIiJMRJiZYoB+7eIcOnL7mQTJKV2wot9jbsv+UsbBD5KJ9p67StnfPErQeHMmIyQgW+7z49yZdv+toufZWbNhl1HHm+qcqYtLbW/YT+r7j8HvKDMeOjMCRmYkIFuE7j7zvQWpWbNhdrj1/J6LPprxqkIl/X/g0/an4JfpiWj36c/FLhGMQCysycm9MlFHuPxc9Rf9tzouK1Pyx+GX664Jn1DUrMuJPuRklSw1ZemOeZZCRux/Sizcu05OP7tEzn3ykyAT+R+7frf7j3FMP76n/r550j2GDXdsM4vHsvVuKmETt3UH1Txyhl65dom89uE12ZAT5mHw89fAuvXj9kkuzcuV9euaTj9U1b8kINGNMnncePh+wMfcXK1Iu9F52MmYyZoIBwYBgIDgxIGQkhMkIyIFrgfZImVixuQ42vGPiAN8C/eFbvm6ncQ3kY8Dg4R7XYfaDskxGUOeh9z6kw2U/JgZI+Zyegnjo7Y0YN8UgEyA6E2fM87iOvJ269PBwwNY1I3wfG3Yfo45vdVVli0aON/wIEApWb8/f/x+NamAQCpAPmE7pdf1h1suWZOTkYKehSfkf816g1T0TPcrZ+X74W27zvpPG+I2eNMOjLb2//J/JCJOCqF3bKG1APwI54HPQkKTl91VEAee+/f4Zo96Xy7QmICqJUyYa57l+aE7SBrpN7Pi8c9VyRXxQ3wu3PqDEqZ4as/onj/hERlAvMAk8AHuhvhkmy0nS4HwxyrjIuAgGBAOCgZrDgJCRECcjWJyt23G43CLx4NkbauEGsgKzLDxUMKHiULAwt7IycTKTEfPD6KvPyO5jF43Fs7cRn8xkBFobcz+4XtyH+Zqvxyt7JNJ/LXpKkQ0Qis5NM8vVaUVGhrdNp78u+JYq9/8WPEPj26WVK2dFRvwth/sC+cKYn7z6Sbm2rO5bJyPP37pG7A8CjQSIArQj8SVzVF3wCcG5Vy6eM+qGf4iRb26xcd6qLT6X3rc3feu+S/MBjYsVWfGHjMC3icnp0NHliRG3L2nNvUBE1iJrwYBgQDAgGKgqBoSMhDgZsXNgxsaEvHCDdgJA0U26Zi+0DgUbaDKCRTP6ceTCx14tZNFPnYy8e+6m0pyYgQ6fF9QLh2bzNV+PH46LNLQiJwqdlvVZkZGLwxoZ5W6PbmBZzoqM+FsO9wU54r69JWE6GWm0Ya3Rx+du31Ak4+Ur7xvnHAf3lCMjcDQHGcEPvh/1jx+mhBnTjDJWskY7XAZmXlZ5/CEjCHbAmJ4xb6llvVZtyTl5UQoGBAOCAcGAYCB4MSBkJKTJyCPq3a/AclEGfwJeuI2b4vqi7TZzeWBZBg9qIMkI7Py5D1baDbuJQScj46e5vtqb82454PJ7OXbxtu29mMvYHcMPBP4g8Auxy2NFRj6fWs8gIyVdki3LWpERf8uhb0zu2IzOrr98nskINBRZue6oW0xGGm1cZ/TbiozAfItNtZhgIH3x5hUVEQuRuLgtTuudOW6QEY7Yxdc49YeMlK5Yb+AJGOG6JA3eF4yMjYyNYEAwIBgQDFSGASEjIUxGdKdv80BjN24mAv0KitTC7eiF2+pcRV/VA0lG4B/CfYCJjbmPdsc6GRk+xtPXgMuwE34gyMj/LnlOkQqYaHH95tSKjPA5RNEy5+djKzLibznUibGDTM2+QNyeOWUygmha+jUmI7FLFxrnrcgIysC0C/XAYV0nJPj/zL1b5Fy9wqgD+dm0C5oUvU39vz9kBFHjGE9TihfY1q23I//lJSgYEAwIBgQDgoHgxoCQkTAlIwfPXFcLt1NX7xvhffmrOiJuWT2Y/QuHGZGq7L68++IzUjB0lLF43HnE+whINU1GOOLV39uE7Z3ZKYX+rdQVFUuPpvWXsj1E/rX0WUt5FuSmEwgOtC56NC1/y2HMsD8LFuTYCNAqbLN5XANBRvQ64+fMIkTbQhQtJibwO4ldVGrI4MUbV9Q1RN/Sy/J/aFPg1I7y3kbTQllEamMyUjBstGXd3Iakwf3ikfGR8REMCAYEA4IBxoCQkTAkI1PnLDIWbdCQ8GDzrt3QkPA5ThGdiIkGFnx2ZIQ1JwfOWBMarg8pInExAUIEJHPkLj2v/r+mycj/nPe8IgzQkOj9wP8ezTNVaF/eL0QnI9/MfEWVg/M79igxl8WeJVxOJyP+lkP92JySF+TeaAcCTUb4HuGUjo0TmZBgLxK+Bgd4nEcErsxOHY3zfB0bJ3I5X8gIorbh3oEpjhzHdUoqLzXBgGBAMCAYEAyEJgaEjIQZGYEPCTYkxKINZlwTps81FoP8VR3XJs0sMc7j4dUd3nEd0bisHurth875tCDU693+7jmvFpGBIiOIFlaydC2t2rS3QiL0+7KwvSAOO/rFedz3TybVNwgFrmNHdZbLTye7r10a1sg4j+u3tFDBKKeTEX/Lod7xU+cYZAQ72XNf7NKqkBFoMJLGjbFtA0Tj6U9dIYJhmsV9gJM7kw3daR7XG+zYYlxDHm/JyMjxU4373rzfTXy4TUlD8wUk4ybjJhgQDAgGBANCRkKYjCBM78jx01To3l75A2nOotUEHwqQCfwWrd5sLBDxsOubD0JLAufwMZNmEjaRQ37Uh1298d/OJ0G324cTuf6FetrcxYrU6BOLIkdlX7RR755jF2nyrFIjQlbh8DGEjQ1BcrhcoMiI7sSPDSH1vnJbSG+Pdm9a+L9KnqctfeNpXe8E+nL6tw3NB8gESAWuc1nsFYJz+MGM69CgWEKY4J9Oqm/sPcKhf3Uy4m85bpf9RrBvy+iJFe81UhUykjBrugr9+8qFsxS7ZCFl5rU17h1+JJH7dhrEIuLIQeMa9hhhMvLMvY8odukiSpw8keofP2TsPcKhf82+LHyPegpzNOAG+MEPmj/9uvyXF5lgQDAgGBAMCAZCFwNCRkKYjPDijDc+5GOkG3a7d9HmBxT7jbATu54X/1EHQqeu23lYLfjsNpbrO3Cw4USNcvBdgCaGzbFOXL5XbqGYP6jIowy3B80N90N3xg8UGWENEbdhF5kLJlbsxM7kgtO/LXpSaTm+PyFCkQ44q8N0i2WKXdo5rzn90cQIsnJgR1l/y6EsSCbfE0hjlx69jf5wvzitKhlhUoEUZlfPfXxd7eQOfxC+ht3UkyaM8+gDdmXn6+Y04uhB5XeC88+ZHOu533q6evM+4369MQ/Uy8r/0H05ydjJ2AkGBAOCgbqBASEjYUBGeGGKFPtQLF27zVYLMHTUBMLeHR5l3v+IZpUuV4vJJWu2GtegNbGaCKCFge+IiwS5vlajPhAYOxOagUNGKA0Mb7qot3/80l3CJobc1ryla40+2G1uh3ZQh5X/C9eja0aOX7LXjCD/0u5J9Je5L3oQC/iSHC2IUf26PqKhcQ1aE25jcodU+t0sl+8Ik5F/mf8sXR7uMtv6eZkp1/+d7+nk7m85bnffqauGjHStEl/n1Pn2CkUKzIt+kAqQgdjF7qhUkQc89xlBWF/Hof30wocuZ3MzqcAx9imJt9gMMbVwEL1Stns7l4NJFocS/vb506r95z+q2PcI+4kwzoAdO0zy/UpaN15cMs4yzoIBwYBgIHwwIGQkBMkIP4AwX4HWAZsajp40g7r17GsskjmPVQpzJew9gn0b4DviTVQmq3q698qn6fOWUOmKDYRFY0Vf6Lk8+jt97mJVBqndPimcvyop+4ys3Li7Qp8RbqNDkyza1CeBLgxtpHxHct/I9kqeKL+6ZyJdGBpN+wfEWjqzcxvm1N9y8KE49cF9g5BAe+DvOJr7ZHWcMnwoxc2fq0L8Rq9fQ7GL5lPymFGVyidx6mRy5S/1cGZ/8borTDA0KFbt4dyYybOM6G4gnti00y6vnA+fl5KMpYylYEAwIBioWxgQMhLCZEQe1rr1sJrHG/u4sHkcFuvQeBUvXEmdu/Ws1UV7RU7vuIf4ebMN3xGYbJnva9SE6bRp7wnlw8QaNJgPmvPJcd3Gv4y/jL9gQDAgGAgPDAgZETIii7wQxgC0B2bfGJgzbdp3otbG9aVrFwmaDziyZ3R+y6MfMcsXKz8RmG7BByVp0njj+rQ5izzIFYgIfJIQeEFeOOHxwpFxlHEUDAgGBAOCATMGhIyE8ELUPJhyXDcfcJhnwekf4ZjZJwdhnGsLDyAj7CcCwoENDuFbAr8VPo+NEqP27PDo49zFbxtmZ4jqhj1VEDChtu5D2q2bz5OMu4y7YEAwIBioWQwIGREyIou9MMJA+46d1V4kCJ9cW5Opc9UyevnSe4YpFhMQTl+4eVX5npj7h00xZ81frvygzNfkuGZfDCJvkbdgQDAgGBAM1BQGhIyE6EK0a2YGFaanUmFGmvxEBkGJgfxe3ajnhNHUdfZ06jp/NnWfNpF6Dy0Myr4G63NUkJ5KAzPSqEV2Vq2Ry5p6GUk7svARDAgGBAN1EwNCRkKQjBSnJtHPYiLpV9ER9IX8RAaCgbDGAJ7zq7ENKS/Lvb+NvLDr5gtbxl3GXTAgGAhHDAgZCTEy8kZ2Nt2KbUDfOCMUGcFCRX4iA8FAeGPgd84IKklNFO1IiM3X4bhokHuSxbBgQDAQaAyELRkJtKCCpb4m2dl0JyaKvnS6tSJfOSPoa6dDfiIDwUAYYeA3msbra2cELU2OFzIiZEQwIBgQDAgGwg4DQkZCDNQgI7c1MvK500FX4xrS+fhoel9+IgPBQFhg4L24RvQgJop+XUZIFBlJSQi7F1CwfOSRfsiXXsGAYEAwUHsYEDISwmQEC5WfOR3UOStDFikhNo4y6dXepBcqsl+TFE+/czqUP4yQEcFLqOBW+ilYFQwIBnzFgJCREFvE6poRISPywPv6wEv+0MGMkJHQGSt5rmSsBAOCAcGA/xgQMhIGZKSLaEZEMxRiOJZJu/JJW8hI5TISHImMBAOCAcFA6GNAyEiILeKsNCNCRkL/QZTJVMbQjAEhI4IJMybkWDAhGBAMhCMGhIwIGRGtQohhIBwnIrmn8i9YISPlZSI4EZkIBgQDgoHww4CQkRBbiIpmJPweQplYZUytMCBkRHBhhQs5J7gQDAgGwg0DQkaEjIhmpJYx0GnIDBq06BB1Hb2gVsbi9TebWbbbqnN/6jxirvo1ye1gmSdYJsQOgyapfiKt7T691iw7IH0QMmK94JiclkybkuJoWHoqtcnOCoisA42Z9lmZVJieSj0y0y37l5eVSVPSkml5cgLNTU2kPhnW+bhfyD85NUnln+NFfi4nqTWGRC4iF8FAcGFAyEgtL0R9fSBEMxLYB6jvzI00sHQf9Zqyxlg0tOjYW53D+S4jS4zzGKsBJbvVtTY9izzO+zqOev7RW2/RhH2Padzu+wQCoF+rjv/t+o2hwqXHaNSWD2n87gfqN2LDB+pcr6luOfSe9o7qF/rWoWBytferKvc6YsNV1dfh6y7XeD9bj0mm/GMRVPjhCzT0wdPqV/DBS+pc1zVOv/sjZMT6WZ+VmkR/cDoIm0I+jImiEwnRVJKaRPkZafRmTmCIYFWwOCEtiT6NiaTfOiPo/bhG9Fq2Z5/GpKfQpzFR9OcYB/0pxkH/EOOgXzojaH1iLL1h0f8xacnqPs3519nkr0rfpaw15kQuIhfBQPViQMiIkBG/F0vh8HCOWH9FLWKR8v10HVVqLMIHLz9hnG/eoadxPpBf4Mds+1jVO37Pp9S6e6HRHvfHKu03ZzsVLjtG+cVbvcrPdfSbs4PG731o3AeIhv4bu+OuUZ+Qkcon3547GtDQh0/RsMdPWP6G3H3WkCePgbepkBFr+Q/JSKNfOh1qQ8gvoyPoK6dD7cfy8+gIuhUbRdsTY2lcWjJ1yqzZ/ZdaZWfR5sRY+o0zQvXnK2cEXTaRkT6Z6fTjmEj6vdNBZ+Mb0ZyURNqcFEefOR2KYC1NjvfAS5+MNPpJWf4zZfk3JcbSZ9ERrvyyEaaHvLx9tiSf9bMlchG51BYGhIwIGanTk3nRqjNqMT5628eGHLDA5wX6yI3XjPMdB09znd/7iJq07mScr+rDC/IzZMVJ6jl5tdd1+qMJGDB/r3FfID4Fiw8pzU/n4XOoz/T1NPydizRmxx2jD0JGKn4x9dobZRCQoZ8+TX0OOahDSRy1nxNP3dY3ooEXX6Ehd4SMVPX5MJfvnJlJP3c66Fdlu9N/UZZi3yVoI75xOghE4AcxkfR+fCNl2lSQnkotqtGkCxrrC/HRSssBrcf2xBjVP52MvJaTQ4cSYujvYxx0KiGaGmtaEGh7vnQ66AdOB3UoI1Gu/E6VH9ofPX9xahL9tix/x6xM45k1y0qOK36GRT4iH8FAcGBAyIiQkTr9Ihu06F21QIe5Ek9Kg5cdNxbt43Y/IPap6DFxhTqvaw+4TE2nvpKRTkUzDI0IiAgIkFWfdc2MkBH7SbrdjARDIwIi0rE0zlKeLQtTLc9byd58TjQj1vIHqfheTJTSjDARsUphxgWtCcjJ59ER9ElsFL2b4KTpqYnUIyOdvmMynzLL35fjllmZ9DOng84lRCuNTEFGOkFro5ORtllZ9GNnJH3hdFD/jDQPXLyWk02X4xrSn50Omp2apK7lZWXRj9B3p0OZoOn9eT0nm66U5QcxwbW3sjKUL82U1CTqnplB25Ni6Ux8tEr7l/mudM7KoDXJ8YoMHU9wUnFaUjkzMmiUFqUk0KEEJx2Lj6ZVKQnU28b3Re+T/LfGq8hF5CIYqBwDQkaEjHi8FOvaQ6NrQXghzqZbrB1hf4n82S6NyciN12tdZr6SEfhS8P30m73Nq/4LGbGfQAddftnQivTY1tArefr6bAkZsZY/SMT12Ab0pTOCrEiI1TloUUAOvi4jJz+Jdqg6tibFUj8TMfB1nJC/WXY2TU9LNrQXQ9NTy5GREWkp6tzt2AaWviGrkuOVFmRPYozC08iy/B/HRlnmf7ss/+4EV/7h6anK/OtebBQ9iImiPzod6n7ha/IDZyTNS0lQ5/9UpjnC9d85HbQ2KZ6+U/YeHJyeRo9iolQ//s4ZoTRQ0OT8NCaSJqYmVwvO/ZG3lLF+NkQuIpdQxUCdICNFHRrT5qIWdGJ8Ll2e1oZOTcylHcNb0uJ+zWhA3hu2E+ykbm/S1mEt6PDYVnR0XC7tG9VKHW8Z2oJWDLSOQFTSp6nKf25ya7oyvQ2dndSa9o9qRWsLm9Pkbm/attX8je+oPKcmuPp4ZlJr1Udz/0LFgT0vfzT1nbWZek9dq+65/cAJBI0D/Bzy8kepc83b96ABJXto2NoLKh9rIMwPE/wzQBpgVlSw5AgNKN2njlF/jwnLVV3N8rqq9nAOPxyb68Fxz0mrjHwwtUJ5XqR3HjZblRm7855xDtd6T1+nzqN9HA99+z3Lur3pJ/qQ13ek0QfuL1L0zarPVud8ISNwtp+w95Hq+5htt8nbyFhWZAR9H7TwoBqzIStPE/I0bdvZtt8YUzjFD15xkoavu0RDVp4h+K206jLAtgzfL/rdd+YmhRtVdsVJVbbb2EXlylcmj7eKZhkyZ0xyO76mrYpSaNijJxUZGXz7OWrcwT8zmb4DB9Pa7e/S9kPnaEpx+UhqdZ2MNM/OUl/7oUUYlZ6i/CveSYqjQ4kxSmMAsywr4uHNOSzCQVBQV/dKIln5ig/ktyIj8A+B4/3hBOugBhPSkhV5OB/XSD0bnP/deOv8E8vyv1eWH21CA/SNM4KuxjWkwRmpNCAjjc7FNaKvyrRE92MiaWxaMvXMTKcNSXEqCMCPox0ELczr2dl0JbahIjF7EmOpc2a60vKAJMHH5XsxkdVq6uaPnKWMLL4FA+GBgbAnI2sKm9Mnc/Pou6XtLH+P5rcrtyjq1Pw1RSIez7cug7quzWjjUQ5k4r3JrS3b4LY/MJXhhyi/zRt0c1Zby7J35uTR3N5NjbZqgowMGDycNuw+phZJ3EdfUyxAsXCHD0KnopkqYhMv+kdtvqkWxMPfueS56C8jLtwWyELRqrPGQprL6ymiQHF+kBq+NmTlKeM8X8dif8I+16J82Jr31XXDD2TfY+WzoRbuiGy16xMas/2Oqq9g8WGVV/Vl32NFiLhOpL7209UPT8dx9Bty0es1/4eZWM9JK9WPI3ChDJ/TU9bmoI784i2GXHSHfHP95mMzGUH7MPFiGXMKub/ZMq9c31u+lU+jNt0olx/lQIrgq2Juk48R3cxMCrk9pHDC57xIKyIj3cYsUpHKuByTS728L/+7b2loaEXyT9T36Icv9Wzae4LO3XysfievfkKduvTwqCvcyUjL7CzqkplBgzLS1AK5JCVRLZCPJjjpWlxDwhf+78dE0mfRri/8IBAuf5Dy/iLeEBDkgU8JzLewQEfoXV/Gy5e8VmQEzunQUsDB3qquoow01bebsQ3UdeSHVmJ7krUJYFGZ9gVaItSHYxAsaDFgssVtgGz9XRn5Gp2eYpxvnJ1NH8U2UOZug9NT6c3sbBXlC3IaaNIWzUxJopKUBGqeFZyhlPleJQ2PhamMY90bx7AmI7tHtjQW+A/nt6Or09vQgdGt6OCYVnR+Smv6tCSPrMjI6Ym5RrlPS9oRSAQ0HUhxbEVGdo9wt3Vvbp7Kv3dUSzo5IZeuz0S5PFXe/JDlNX1NaVCYsFyc2oZQDn1gMnR3Th6BIKFsdZIRJiGnr32qFkh7jl00Xlzmfld2zGQE/hUj1YL0kVrguxaUj2jggv1qkYpFP0d3ghO3Xu+QFaeMhSx8OrDgBCFAimPUpZOR3K4D1SLX1cZjtQjn+tr1H2e0j4Uw8uKaHiELX+y7j1uq6oXjOhy6URe+yiMv2sIx8nG9SH3tJ8IFwxSMf5AB6q2IjGCxz/flTVq45KjRR90Hpt8c70y0cF86GQGhYSKCMR265n0PstC/ZLfRHsqiv7ppGAgLHOiVrFhLs+OOZSCA/vN2GfeKNiEn4GXQwgNKKwU/Hm/JSPfxSw2soIwewlkfQ1/+5x+vb5CRHttcC0FfynPed8/eMMgISMm4KcUeMgxlMgLn69ysTOW7gEX/hNRkWpicoKJNwRn7RlwDehDbQJkPITIWzKdANpDCzwOkAWZVIA5V0YAwSUE9XzsRbauB2t8DPhc8DtWRWpGRJSkJiozsqISM3CgjF0vKyMgOGzKCNnBfOhmBzOBLwmZXuDdE+YJj/I+ckdRWIym4djI+WhG8kekpqszZ+GgVbvijuAZKE4XoX7rjfHXISuqsewtPGXMZczMGwpZwtHMAACAASURBVJaMTOnehB6WEQcQCJhPmW++R6vXafWg5h7nd2qkAuRjeKfGHtdhemVFRmD+hfMgN2jb3BY0J4MsTMJAVpiIoG293PZhboIDszJcqw4yYiYhWBgdv3SH5i93mSfpffL2P5MRXjhjgQnTHCYevPjG13PWOLC2Am30n7vTWJCCfLTtPdxDNrzQ1ckIyuFrOy+akeIYZknw80CbaL/LiHkedTEZgAak/zxXuyBG7NyOL/Soe8z226oO3ZzK337qchz69nlVb0VkpHHzXLUvCPYGUfuDlGkocI98Tk8hb26D68f9+7Kxok5GeByxPwmbwLUfMJ5ADHANhIHbQwoNDJeBjPRr8Fnha2Zi17Fginv8dj8oN1aoB+Z9+hjgnJVmBJoiHQs9J6706IfeJ1/+Dzj/bYOMdFxg/dXam/qWrNlK524+UoTk4JnyfkjBTEawdwYcsuEIXpSRStiIcGlKgooiBafpW3ENlX8CwtjCdAhEw45smKNiMYHAeSy2QUxAUlxEJUL5iuA856soBZGB2dJ3YyJpcQ1+2bciI7PLzLSO2JhpucyuIui9uGiFU85/2MZMa1Jasro3aHmAN7QJWZ2Oj/YgI7nZWfR9p4N+6IykXJNm40S80yAjqAOhhD+MbajOQSvzy2iHGssVSfGKXHqDa8kjC03BgGDAVwyELRm5VEYOsNA3Ew47IYFEgEygzEfFbQlaC3NeOzLC56HNmGtBfMz14Lhzi9cIGhu0B62NOQ/IC/eHrweSjFiRkGMX79DStdsor33VQtfqZAQmRewPgq/qroXoI2NDQZAAnIMmAjKAiRGTltFbblmaANmREZTXzZKgBeHwvWij31xPrQbygwTgGkgRazmwgNbvAb4S3CdEpgpEP1EHfkwWKiIjnJdTq8U3XzOnnBf36MumimYyAvmY6x5Wpj3CGPM1+JAwCTCTFOSBVoplab7O9aGvZsLB9VulfI/ABa5j7LgNaNGg8bIq58+5QVdfMshI8/6eUZF8rW/EuCk0s2QZtWiVW65/tUlG8DUcu34jihIWuVPLdv/enRhL8FH4KDZKbcT34zLzHzahYsLAmg2QATuygWv4ks8Rr7gsa0QQnep+TJQy2cIX/F2JsSpML4jPwpQEtdeIXd04D00IQgDDSb1jDe85YkVG4GCOe7sdE2W5OSMc0rEBImQMHI1AfmcE3Y6NstROvJ0cp/LvSnLlZzICMqhrRnQy0roSMoJ2YYoFc64dSbF0Pa6hGj+Yl2HcmwYwApmvz4rklwWuYCB8MRC2ZOT+PJefyO3Zbcu95O0ADfMt1lKsMmlMuAyTDrPPiK7FgEbmxIRcmtmzvIaE60G6IL+p0R5Ms0Z2alzud2Omy5eE7yMQZMSOhOBLrR0JwYJp455jFf7WbD1gyFpfyPeZscE4D3KAhaa+CIVDNM4xGYE5Do4rWpBWREYgWzhKcx2cDl1z3uiHPg68AMaCFuZZyN993BKC0z2X1aNuYYd2lA9EP1FPdZMR3Ten/cCJljLQ5cH/dTICogSNBF/jlLVa2LiRz0H7wnKDaRaInPk3cpNLU6Xv74LyrKUyn+e67VKdjABvTESwq70v2iC7+vXzAy+9YpCRthNdYVX164H6X51kpEl2FmF/ir4Z6WrROzM1iVYnx9O+hBh6P64hIeLTI2ck/bRsc0FPsuE2o/KVbDBJAVkAkbkX20CZFR0vC0G7JDmB8MUfTutdsjKpTVam8mUwyxQharHJoRUZwR4jOH8iPpr6V4NzurkvVsdWZKR1VqbSTvzK6aCB6Z4kFs7jH8Q1VCZSGAvU2UaF9nWFAh5gyo+d2uFXgx3cZ5TlDwQZQT/0+2mck0MgUT9UoZQd1epno7cr/8N30SljK2NrhYGwJCNY1DOpgK+H1Y1bnQPBQDmYdVldxzk7MgIndDbV4raRwjEdRAUmYeY6QUD0vBX9B8FB+aqQEWsScptAQtrkdSjXP72/IBrsbGuXHr/s3r2byQgWlzAx4rqYjPSdudE4ZyYj7JuBL9pczpxWRkawcIbZEi+KYWplpxVgkyIsqMftuq/KwJEdbfIxO8fjfrgvgegn6qpuMqJrhjAu3P/KUp2M2DmbI1AAZAwTNq5P31yR5W+XQoPC5UBYOJ+VFobzWaVMRlT5Mp8UEBL451jlr8q5/mfqGWSk6xrrSEdVqZ/LVoWMINRsp8xMtRgflZZCMPlZmxRHBxOcau+LOzFRynQJmgN8rfckG25HbzuygcW+lWaDyQZMp34Y46A7sQ3oUlxDglM6dg5fkJJI49JSKD8jXTlZw6/EH58EOL/DDwJ9YDMtl5YlQn3NH5OWTPBbYVnWdGpFRqCt2J8Yo/xGoL3AXM79mpuaqCJewWG/fZYrOhvyH0hwqvwwvdLzz0N+Z4SKcNWuLH9VyMiw9FTl33M3tgFdiG+kSCD3DVi6Exul2huhOcDzdUlrD2cie5F9uGAgLMkI/EN4YY+wvN4OFiJXoRxMtOzK2JER5OfwvHBY5/Y5RUSvtws8/VN0R/mPZ7elW8X2vw+L2yondn/JyPAxk+nklXsehOLg2RvUpYfrK7/d/fL5GSVLacPuoxX+3t6y35AbkxF9R2/UxWREN5sxkxHOAxMtbt+cVkZGYCrE5ldYoGJh2n3sYsv6zItn9hFBm7zIZYd53ZQqEP1EG9VNRtj3BXKArM2ytDvWyYgenUvPz2ZtOhlhgoL2Rm/9yNKnRfdv4d3s4cujyAQili0+5HU/0R8eJ+CNtSuoCxotvb+B+N/nXYdBRvocdAS8fu6jP2QEIVsvxzZUG/x9PyaKfqHMoMqTDTaFqohs6P4aHMWKyQb8QOCH8HHZ4hU7i69PjCNExAL5gXkXTKPgPG3+2s73V5UUkaDgjI77wD3AJOvTmEgqSUkKClMiKzKC+4WPzQ9jIukPMQ46H99I7f2BzQl/6YxQ4XNhfqbLpafK71D5YSaFvUKQ/3Ona0wXpiYa+atCRmASBhMskNR/iIkkONGDOOJ3Ob6hCkmMsTb7nOh9lf+yMBYMCAb8xUBYkpHRb7k1I+9P8V4zwqZdZhMsFu6wjo2NMMF2eTgvwvFiPxNE0WJC8ri0ndrbhPMc0szCFvWz3reE83LqLxlB+f6FwxSZOH3tgUFK4KgeCB8R7h+nVSEjvJiEyRTXp6dteg8zIjmZHdg5nx5Bihe4IBlmR3jk7zN9vbEIRl7dhAz7onB5pNCQcBuB6Cfqqm4ygtC2fA96//k+7FJ/yYhOftC2Xf3m89h/hvtpZ1JnLsPHTEZAUruOLjUiaGF/FV+0QVxfRWmnRbEGGRl44RWv76+iOq2u+UNGemSmK1+K31YSiQqaDTuygfOIcAWnbziiYxGML/TYHA8aFixcQXo6ZGWqfSdqQwOBNs/GNVJag5/ERNK65DjKy/Zvvxcr2Vf1HMLsYgz0Hdi5Tpg9YTd47DkCXwyYWn3mdBB8RhAYgPNxOiKjfP5fOB3KrE7PjzZByqx8RjialplMwIEde4ggmhba65aZQYioBXxgU0T8oHk6E9+Iutaw3w3fv6SywBUMhD8GwpKM5L75HWJiAfMmc0QsO2BDOwHiAA2JOU+HZq+p0LxMLCojI1weTujHx7sjZulmY+8UNjeICjZU5DIVpVUhI1yvFSkJlOM6t1EVMoKv6ViUQvPA9XGKyFi88EQeKzKCTe30RS3C3PIxyupmY6hX93FAPhAZbg+b7nFZ87Wq9pPb8IeMsGbIjrBx3UhxvyBi6D80RNicUb9u999fMqLLH1onu/rN59FPJngw37IijuYyfMyYgFxwDs7v7DeCunRNHJfxN30jN4uK7j2jCMnQh09R20nV4zfiDxlxmS9FKo1BebLhjkT1mTNC7bSNL+BYfO5LjFGLW/grFKWnKZMdmP80r+YQuP6OAcrBoR2LaRCjqtRTHWWhZYBWA6ZyVvW3ysqk8WkpVJqSqHw+Ktt4EeZsev4eFsQA7wbIAr5AepsgLCAZ+OnkBXlAKHtlpqsd5LkM/FFAPEampxLMt7AXTHVot7g9ScN/oSljLGNcGQbCkozgps0EAASlMmHoPh/z+3qGAtbrAyG5McttygV/kPFd7HdXxx4hHDULZl7cj24tXzdIE/YmGdvZvo4+rV0+J4EgI9y+HSnxxoeE67BLq0JGsK8HEwCzzb9ZU4E9TPQ+YKHNfh4gMwgn7Art63JMR728iSGXa9dvjNEeriP0LF97a2ixxzV9P42q9JPrR+oPGSlafU71C4t3M7nS6+b/A0v3GfeBQAHelPGXjCD0L5MKRE9r13+sIU/uD6ccDICP9fHFPXrTT5Q1kxGcw672vMklQhDb+b1w27lt8qhk6VpatWkvwb+Kz1ulvfdFurUjF18hEBSrfBWdq6w9f8gIHI5hTvN30RH0ICZSOUWf0iJRTU1NpoL0VLXYzMvOCgqTpopkVNE1OITXhlamoj7JNVl0CQYEA4IB3zEQtmSkoN0bBD8L1mQg1G9pflPDkRwL/y1DW6hd0xk4+iaJ0JLA1GpWzyYEUy/UgzC7IA34j+tcblavJmqDwotTW9PS/s08QgLDjwRaD+7H0XFuZ26UXze4ubG5IXxV5vRuqnxPcA2hhVEf6uX2AklGuP/WpOS2WphxHl/TqpARfdM7aB+wiMQu7rxoxxdvDhGM69w33U8EeXQiAxMg1g5ggYov51wOC17+ig4yokdfApHhMLW4hq/+XM7ffnJ5Tvm+cC961Cmr6FVcRm8bPhr6or3b2MWERT3nRQq/DNbk4D7gIG526O80ZAaBtHA5f8kIyquyZY7kCPvbedhsI7wzNkSEpgImY/r4oVxutwKPwAMgTl1HlRqRvEAcEboZRIX7idSKjOC87g+E8bfzfUHetdsOGuaL0BRahdvlNt/slEmDP3reICT9z9Yjc5jfdjMSCKSFy5jTytrzh4zA6blbZjp1zsywjURl7occ+/7iFJmJzAQDggHBQOAwELZkBCAp6tBYOaMzEUCKfUB47w4c4z8DChoMdmLXy3A5bDx4ZKyLWMD8C6ZbKAsyoudHnQjFC+0Jkxdch+nYxK7ltR86CUI+OLuDfOj9rE4ywvdvJiWB2IHdHwd2LJzZORwLZ4/f3kdqB3TemwREAYQB96D7ieib/vH99ZiwjOBDgPrw5R6b9vE19JPbMS/SdUf4ziPmGmX87Se3ySmTEW6f04pMnFr3GExw8Oe8+PKPfhoaibKNGrkNpFiII2IYl8HiHL4ZWNi77vGRInlcpipkBHXohAltoj2QD534mckIyiGSGQgM91Olex95lEMd3E+kdmQE13RtCxztQfj0svz/0LmbBhlBxLjx0+ZY5uP8bScn0uCPnzMICUy3sCFi/3P1qPDmizTs0ZM05O6ztnVU1p4/ZIT7JmngXpIiS5GlYEAwIBioXgyENRkBeBDmF5oNfWHPxAFEARoTHWQgCwjHy3mQggisGOhyMN86rIVxDVoTlEVYX0TtuqVpYvTy+I9NCyvaDBFhftnPRS+LMMPwM1nS39V+dWhG9PvHfyYl2w95fn0256vouNeUt9Vicsz2Ox7y5cWwHtmK9+vAfh9cJ/b40EkAFqRYuPaYsNwl8+KtxmIVWpMeE1cYxxU5aXNbqE/3t+D9RczkCf0ZsvK0UTdIAPcRqa/91Mvy/6Fvv2fUry/AB5Ts9miL83OKzQOV70gZweKyIGjYQZ7z6Smc/6EV0QkBl1My0czedN8Pu/1J0A7KWfn3oF0QKiZIejuIToZ+6DjQ+9m2zwilCbPqJ7RiOlZQDkEHUD/7jOh1YcNNXcaI5KVrkjivrqlAYIeKNCNcptWwFIJWBL4jwx4/Ue5XcONFy3FA+craEzJSvS8/HkNJRc6CAcGAYKB2MRD2ZIQBBi0JFvQbhrRQKcy4+Jo5hX/J7N5NVV74jsDUypzH7hjO8iiztrA5rR/SghAlqyJfEL2enrmvq/ybilrQmoLmSuMCvxI9T02QEb292vyPBeNbw4pVtCuYXPEu7rXZJ6u2a7ufLd/KV5s0YrM/mD+Z/TCs+pyXP5qw1wvIGcL9wmytTS/X3ipW+atyrnmHnoSoWmgPJPWtolkEvxJv6oSWBIRF3dvYxcqMy5ty/uRhH46VG3dX6jNirr/16GTqtrER9T4QSQj322WVk1oVuSIUmfPycWXtCRmp3Zcjj5OkMg6CAcGAYKB6MVBnyEi4AKkukZFwGTO5j+qdxMJVvkJGBDfhim25L8G2YEAwoGNAyEgt7tKrD4S3/4WMyAPsLVYkX2hjRchIaI+fPH8yfoIBwYBgwDsMCBkRMuKVuYw8UN49UCInkVOgMCBkRLAUKCxJPYIlwYBgIJgxIGREyIiQkRDDQDBPKNK3wL3whIwETpaCS5GlYEAwIBgIXgwIGQmxhaiYaQXvwyQTnYxNIDEgZETwFEg8SV2CJ8GAYCBYMSBkRMiIaEZCDAPBOplIvwL7ohMyElh5Cj5FnoIBwYBgIDgxIGQkxBaiohkJzgdJJjgZl0BjYE1yAv3O6aAvoiPoa2cELUlJkA8HITZfBxoTUp/MM4IBwUA4YiBsyUjLli3D8sUtZEQmonCciMLlnpplZ1PzAPyaZmfThqQ4DzKyMjme8PwHon6pQ+QoGAg9DDTLyiLMMeEyX8p9yHqGMSBkJMS+tFmRkQ5ZGTI5hdg48gMoaXhMxu2yMulUfCN6GNuA7sdEVfn3SWwD+rEzkn4VHaE0I0h/5IwknA9E/VJH1cdIZCgyrA0MYI45Hd+IOmTKe1/en+Hx/sQ4ChkJsUWsTkawQPksOoJWJcXR7JREmis/kYFgoMYxUJySqBYHv3c66MvoiID9fl1GRGCmhR+OA1m/1CXyFAyEJgb+FOOgbYmx8hEyxNZvQp7syZOQkRADs05GeJHyjdOhzDlgXy4/kYFgoGYxABLyW6eLMPAzWR0pPj6AkMhPZCAYqHsYYC0p5pavnA46lRAtZCTE1m9CRoSMhM1D2zg7m+7GRNXI4qc6FlRSZ/UvWkXG4SdjLD5/4YygH8dEyk9kIBiogxj4WVkwCyYjJ4SMhM26TkiKmGmFJJh3J8XSH2IcBI2I/EQGgoHaxwDIgk4CoSkJ1LhA04WFyKj0FOqQlSk/kYFgoA5iYHpKktKKChmx/7oui/rQlY2YaYWgmq95TjYtTEmkrUlxtEV+IgPBQK1j4F5sFP1GIySn4qNpc4DGZVNSHBWlpYbkhxNZHITu4kDGLrjGbnh6qpCREFyvyXPk3XMkZETALYscwYBgoIoYOJQYQ187HUb0q5HpKSLTKspUXuLevcRFTnVDTiPTUoSMyJwStu8VISNhAO4ZPZvQobGtaGF+M7+BOvqtxrRxSAs6Oi6X9o9qRZuHtqD5fZv6XR9ekP0Lh9GE6XNp3JTiKtUTrC/bHn36q/vDPbbJ6xCW91gdsm/fsTONnzaHlqzZSgtWbjTkNnL8VFq9eR/NKl1O/QqKjPPV0YdA13kkwelBRsamJYdU/72VR/KoHGq0IYcijuRQ5L4carQ5h+JKQnsx2G5GAvU55KCOC+LCcsy8Hduazte8fxp1mBuvfo07ZIaM7GsLL/6SEbyb5ixeTcvW7aB3dhyijXuO08Y9x6jjW11DRuY1jU1pr+bndCEjYUBGPipuS98tbUcPSvKof9s3fJpgins1oduzXeVRh/67Or2NT3WZH+A1Ww/QuZuP6cz1h1Wqx1xvsByXLHtH3R/ucfiYyWF5j4GUda/8geplePqDB4bc9hy/ZMht7uK3jfOQ6d4Tl2nSzBLjeiD7Eui6wp2MJBTn0PMf59ATj8v/Xr5S8y+ut5bFUO99kT79eu2NssTS4FvP07DHT1DR/W8RFsiBxoa/9TXPTyt3fz13RVGPrQ2pyxon5Y4Ibe1b13eildwh+7aTE72Se/eNjZRMcP8s12a90w05dSiJN87jeq/dUepaq6LAyaq28OIPGcGHsqMXbnvMq5hb8evdr8BDVixPSWt+PhOZiwN7WDyMTCYelrSjwvbek5Gxnd+ke3PzFAF5PL8dfVjclt6b3JquzWhDD+blUSiTkaXvbFdff/D1vboedCEj3k/aIBqnrt7XXoqP6PD5W7Ry4x5jfMZOKaZ9J6/Q6WtusoKX5raDZ4Ne8xTOZCR5bA49e9dFQp58lEMvfJhD9c7l0Esf5NC37udQbZCR/BP1jYUsFrPe/IY+fMrAmj4nDP74OVV+6KdPU8vC4PHNaTMhqdL76nskgl5rFvgduXtsb0D5x+or4qPLKpD//SEjg668rGSClPvSsTTOkBNwweeb9kw3zredlGSc5+v+pv7gJRDy9IeMvHvupjHnYr7ddvCMei9u2C2aEX/HX8p5/973RVaiGQkDzUhpflM6NTGXVhc092nCBdmAJgREZMOQFuXK9m3zerlzvoCrNjUj+09dVZMwvq770mdf8goZ8W5SKl2+ns7eeKjG4+yNR+qFOKhopO245LbJo8Vvb6ETV+4ZL9Ldxy4QzLt8GZ+azBvOZARkAxoREJFG68uPeXrf8ueqW/bQihR++ILHjxeJSsvxyTMe11Temy9a4geL2X4nX6Uuq91f26u7/97Ur5ORwR89T/3fq0cDL75ChTdfpGGPnjQW2iAk3tTnS55BV19yLfovuxf9vpT3Jq8/ZKT/mXqqX4M/ft64Z2iKmIwWXHvJOJ83LdF1/tGT9GanwJmB+YOXQMjTVzLSs+8AY/48cPqaIRdvxkby1PycVtdlLmQkDMiIPyDOb/MGPZrvMss6MT63WiYqISMyoU2bu5hAQKDhQDp70SqvsYaXKb7msVnBtnfPel3Wn2eiKmXClYyk5efQUw9dZKT+8eDGc9uJbk1Cn8OOoMWKtzjTyUjfw56EA34L0PRgET7kznMBv9dALJ4ru09/yEifdx3qnoc+eNq45/zjbi3Z0AffMjRFnVfEuORz91kjb2V9qq7rgZCnr2SkT/9CY+5cs+1grcugumQr9Qb3vOzt+AgZqaNkZFavJoZ/yJpC3zQq3oJLyEh4TBLejrc5X177TnTk/Y+MF+JaP16IcGrXfUxmzl8WlC/VcCUjCbPcPiLONcGN57pERvCsDXj/264v/4+foNajAxswIRCLZ/N8YD72h4zoWhA2qWPTLdaOsP8J5y24bq0RM/enOo8DIU9fyQju59QHLtPYYP6QU51yl7qDe87Wx0fISAiSkZGdGtOWoS3K/VYP8p5ULO7fzCAjVYnCpYPJ/N+KjAwePpbe2X6I9hy7SFsPnKZ5S9ZUurgcNnqSiryESCDrdx1REZfgC7Jo9WYVecncLo6rYqaVP6iIFq7apKKOwMF68/6TtOydHTRtziLC13puz8pMC+ZHWHTDrAj3N3/ZO9VmXrSsexJdH9GQvjfBQT+cGEH3x0aq4w+GN6SjBTFGP7m/nBa/lUJXhjeix+Md9KOJEfRgXCTdGNmQUO5cUbRludw3sunsECf9fEp9+v2sl+mXU1+lW6Ma0Nh29g6/iIzFWg2Yy7Vo5Z8GDjLkeo5e+Dgo/Ud8JSPbt8fT97/voC++qEe///3L9Pnn9ej+/Ug6dy6aVqzwzpmXx9PbNKUohxptyiFoOF6+lEOvnsyhBjtyKHZRDqUNsH5pxS52k5G4BdZ57NpPGe5qz3EwhyKO5lDk/hxquC2HGm7Ooei1vtVl14Z+3lsykjsymbpvblju12WVvZkWFvso03Wt6/mA1gJf5OFX0XqUiwg07ZFOvfZE0cALr6h8Vr4cONd1jZP6naxPAy+9TP3OvEo9dzSgFgPKP0cVaUZw39D+qAX4oycrdLyHvwQW5ogYBpMumLjhGPfTebn1PFGVxTOcxbtvaqTko+7xpOseOy2K9bhPKzKCselz0KFk2O/0q4Q8TTpnGHMS+suko/1sl7P6kHvPGudwres61xjhfnE84L1vG+U98OKlXPzBi94O/ldFnlyXP2RkX5m5Mj4KcT2SBn7uEZlWXaZCRkKQjIB06FGv+P+Hs9pWOOH0af06rRrUXP0Ojmll1LFrREvjPF8H4anqA2YmIyvW71KRtXhhyenWA2eoSdPyYYnxZR3Oy2zmw/n1dP/pD4x+zipdQcULV6ofm/ccOnfTOMfXkA4fax39au6SNR6+Cnpb+K9HBjOTEbR/+tqnxsKZy4KYwA+iqvLk8r1bZNLn0+rR3xY9SbT4Ccvfn2e7bae5HNLvT4ig/1j4tGUZ1PUvpeVNGka2TaO/zHnRssz/LnmOtvT1jGCDdjCexy/dVbI4fvlulUP1btp73JArwlTq91Td/wcMHk5w+Nx+6Jxtu96SkdzcbPrVr+oR0RO2vz/9yXrsqnKf0Go8c89NLMxRsWCKxfWn986hmJWuX+QBd5kGO93n+XrySHc5Lo804nAOPf2pu6y5PTjE6/kD8d9bMgLSwQtaPS28+YJtn0AgkHfInWep3cwEgpkQl0U5hKYdeOkV4xyuMXHhe0N0rMIbL3rk4ToG336OOszxfI4qIyP44o/yKMtt6Cn8JPqfrefhX8LtcVrwgRtrMGvqvNL144hRuDc+p6esfdDbw39EuSq694zlPaJNPYiAmYygfQQR4L5xCnLXOM/l82H4gTx+Qvn4gPggX9EnzyhzNfxnEz1174+fUARM76evcvEHL2gvEPLU++0PGcHHO7yH8A6V8POBn3P08ZH/VZOvkJEQJCMlfZuqSFdwQMfv/jxXRKzKyMic3k0NAsIExi6F5qWqD5dORvg/JsZjF+8QHOp0klG6YkO59rbsP2UsQBFhCV95oG6G1oMjLjEZwWKfF//epOt3HS3X3ooNu4w6zlz/VEV2envLfkLfdxx+T5kL2ZEROFwzEcEifOeR9z1IzYoNu8u15698P5vyqkEM/n3h0/Sn4pfoi2n16M/FLxGOQSqsyMi9MVFGuf9c9BT9tzkvKlLzx+KX6a8LnlHXzGSkc9NMpQlh0vP1zFcI9aAPTIb+evS46wAAIABJREFU7/xnCQRJv58ZJUsNWfpjnqXXhf/QODFedh4+79GWOW+gjpmE8LhCm2dXt7dk5PbtBgYJ+dd/fVYRk3v3oujnP69P//APL9G///u3KNBkJGqXmxSAIMAhHVoKEI1vv5dD33rg8gvhe4uf7c5vJhHm44Zbyr+Aova6y4PkvHg9h+qddbX7zCeua7VJRhD+FaY9/MNCFotYr8jI3WepAITi0ZNqAawWzI+epN77I41FMftywCmeZYrF9KDLrkhQKIMFNkIN9zv1qkEWQHR0R+uKyAjKqrYfP0HdtzQ02uH2kKq6yyKNgTzh6zwW6EiZTDEZQf+4Pm/Svkc9fVjQHsIOc1mQCsgXcul9IFJpJ+DPYUdGcA9MRIbcfVaZoOmkBiF60YYeIQsapbeWxqo24bgO5360D20M8uLecIx8OOafL3JBGX/wEgh5cn859YeM4L3E70NYGHBdkrrxILIIDlkIGdEmqVAF5ftTWiuSURkZmdK9Cd0qbqt+d+e4CAzIyJ05ecZ5vv62j5G5rGSnExDXQvKRMrFicx1seMcTpVmNvHzdTuMayAcWhnobMPtBWSYjqPPQex/S4bIfLyCR8jk9BfHQ6xsxbopBJkB0Js6Y53EdeTt16eHhgK1rRvg+9JCJRSPHG/4OCFmrt+fv/49GNTAIBcgHTK70uv4w62VLMnJysNMgD/9j3gu0uqenKRDMr6w0Iz+f7DqPa2hbbwumXUxSYLKlX9u876QxfqMnzfC4pufz5T/GGnLGmFbnVz4zCUGbxy/dofnL19neh7dkBCZZ0Ir81389RatWeY4BZAHNyfjx5U12fJGTnjdxiltD8fSDHIqfV/7Fk94jh5yr3OcTJ7vC977wYQ49e8dNLJ677T6Pa/g5V7vLoV3Ug6hbIC0v3MqhxKme1+ufrH0yossH/wecd/leeENGeLGNhTdMq5h44DzKQ/vBX+Th08Ft6aGIe+70fFZ6bHNHg9IXzjoZQR+hmejyttMw+UGbIDxW5mBog/sK8pE73HOeYGLEZOSN3CyP6GNMDJCao5bhGPfP94Y0b0qiQSZAdDrM89TyIA/M2HRTOF0zwn3NPxZBTbq6zLLajE8iEBhcA7Hh9pg8QgPC9wk5sHM7zLaQd8htV8jmzpr5HedXdXohF25TT73BS1XlqbfH//0hI/h4x+8m2VfEcy5iuUoaHHIRMlKHyIj+0K3UTL2gMdGvBeq/TkYwIa7bcbhcOwfP3lCTJcgKzLLQNkyoOBQszK2sTJzMZMTcZ199RnYfu2hM2t5GfDKTESsnQa4X92Huo6/HK3sk0n8tekoRABAKaC3MdViRkeFt0+mvC76lyv2/Bc/QeAs/Dysykt8yg/5zkUvTAu2JuS3Uw/0xXwf5wpifvPpJuXLmerw9hs8Qv1iHjp4YsHq5fSsSAi3e0rXbDGxyXnPqKxn529+epK1byy/YzPVW9fiVi24yoRMOb+uFORZrQ6AxqagcQvxi3xHkhwYkbWD5/OFARmDCxAQAX/HVQvrRk+oLOuTDvhz4Uo9j+Dzw4l5fVLMsWwx0kxr9uk5GeLGup8ir+1NwfTChYpJUeOsFw8SJryM1kxH9mrruY2hf1kqgfzrhMNerH5vJCEicfh3/uV7InK+B9KEd5GctB0hG1zJTOlyDnwfLAJHHUDYQckE93pAR7iunteEzgn2bTpeZDfNHO+6PpOXnJpFJ7cpEyIiQEaoJMmLnwLxxzzFjgQntBCYEncTMXmgdCjbQZASLZix0j1z42HjpVTY56WQEm0tBc2IuA58X1AvHa/M1X48fjos0NBEnCq2dba3IyMVhjYxyt0d7fpXlPliRkT3944xyMM2a2zm53A+mXtCO/HOJe7GAOiFH3HcgSBj3EUEEmIzMmLe0yvLkeu1ICIIkMEHmvHapt2Tkxo2GhpnWf/zH0/TTn9andetciyW7uqtyns2isHu6P/X4QkYabXATlwa7rNsLBzLSbUMjQ5bw18DiVycRcMDGOSYjHRe4N+WDeRUWyuaf4f+h7Z+hkxFoA9AWawVQP374+s+LbR5fmEXxdV0rwNeRBpqMcL/0/T/09qz+62QEe6dAc2LOx1om7CHD15igYIEP8yzc61tLYkmXF0fSwjXs0I6ygZAL6glmMrJ8/U7adfR9wkc+NmuF1YGYaFnPR4wpSWtfPkJGhIzUABl5RHYqYvgT8AJz3JRi9dJwm+M8MF5A5skikGQE/gjcByvthrltPtbJyPhpcyz7uuWAy+/l2MXblte5Lm9S+IFg4Q+/ELv8VmTk86n1DFJR0sU6BKgVGdF9TNgcyy6FU7zeJyZ3gfwiV7pivTFOkL3enj//rUnIbRW5zVczMG/JyMiRaSp6ltmB/S9/eZFAVAoKyi/I/Lk3lIFzOWs14LPhTz2+kJF6Z9ztJY+ybi/UyQgW3TDBYVkyGem+0U1QzGRE9+9gkmCXQoPCdeuLa32fkdZjk0k3+4JZUvP+btM+9pWAuRTXZU4DSUZArPh+rLQb5rb5WCcjZud9zsOaD5AuPsf3DoJSdN9lxgVHdlznY/jkoE8YLy4XCLmgrmAmI/BV5HcZp6MnBsZMluUoqfXcJnKpmlyEjAgZqXYyojt9mx/YbQfPGJNnv4Ii9eI4euG2OlfRV/VAkhH4h/DEDVMgcx/tjnUyMnyMdXQudsIPBBlB5CqQAZho2fXJiozwOTNh0OuwIiO6o/z/Knme/mnuCxX+dCd2jB1kavYF0tv09T+isfE4TSleYCsDb+rFeJ3UdnhHvfia2KVHb7/q9ZaMoG/wCzl71qkc1s2k5N/+7Rk6fdpa6+XNfel54B/CZMRxyL8XhS9k5OXLrvbgJK/3Q/8f6mQETub6/TAZgSM1nzeTEV5QY3GMndStfDD0c+zEbkdGuB2d5HRb7w7JzX2CiRbnNaeBJCPwD2EygnC65rbsjnUyYhedi2WnkxH9vhXhuOcmHGwOxQ76uh9QIOSCewlmMjJn0WpC0BWEoz9RNr9hr5Gqzpd2Yyjn7ec6kY1vshEyImSkVsnIwTPX1QLz1NX7Rnhf/qqOiFtWD3T/wmHGRGv35d0Xn5GCoaOMRe7OI95HaqppMsIRr/7eJmzvzE4p9G+lrqhYejQtDsv7rxZheyHfgtx0RXBAdPRoWt8d7zA0KvsGuBdbVmNiPof9WbDAx4aFVmGbzfm9OUYENCYjBcNGW2LDm3o4D3C0YfdRIzIb6oajujc+IlwHp76QES6DdMuWePrFL15VUbSYmMCfZP9+3+St18n/oZ1gMvLt8769GLgOX8jIizdc7T17z7otOMrDqR19qs1oWnxvnHqzuGR/BH/ICDtWY+GMvTa43crSyshIi4JUIxJX/3Nufws2mYIJk1UbrYalGOF32YHdnI8X9SAt5mvmY+yzwmQEsjRftzv2l4x0W9/IaA/t6iZy2PeF+4IUGhJuPxByQV3e4IXb5NQXeXIZc+qrA3uPPv2N92QgPwqZ+yXH1vOdyMU3uQgZETJSa2Rk6pxFxuISGhJ+eDFxYmEIDQmf4xTmM0w0kMeOjLDm5MAZa0LD9SFFJC4mQHD4g/mOft3uf02Tkf8573lFDqAhMfepR/NMFdqXzah0MvLNzFdUOTib69oLrgN7lnA5nYxgA0Q+/8lYz+g5XNYu5fj2GKNAfZVDNDTUh7HiiGx27fty3oqUeOu4zu34S0a4PCJo/eQn9Q1/EuxFwtf8TbNyXY7kWPxDW4FNCH2tyxcyws7yCOeb2al8WzAVY3JUl8gI9hvhBTK+6ns7BpWREZiLWTnGQ/uC9qAJMLeF/VB4YYw8tmSkLAyxHaHR60U/eKGP/pgjd+l59f/+khHdBwf3gM0nuV5stsiyNl8LhFzQjl9kxAd58r2YU1/JCMrjYwvmTPwGDhlhyMlctxyXn69EJjUrEyEjQkZqhYzAhwQbEmKShBnXhOlzjYmSv6rj2qSZJcZ5TA66wzuuw7TGatLABnW47u3CVa93+7vnvFrsBoqMIFpYydK1tGrT3gqJEHY+Z3Kwo1+cx33/ZJI7BC/y/OOcF43rP9XC814a5rZth9wQkpfrRPov891mKANaZXjsP7Kgq7W/CeoZ2sbT12H81DnGS3DjnuNGX6zGyptzI8dPNeqDCYI3ZXzNY0dK4MhemQ+JN2QE/iCLFiXZ9r1370z6z/98WhGSP/zB/ou0t3jB/dc/5iYA9c7lEAiKL3LxhYxgZ3cmG3Bm19vBTu98DWlFZMSX+9Pb8HbTQ70M/nuzuKyKZgShanmxjuhb8Pkw94GP2dkax5WREd1JG7uqcx3YZ4MX5B1KPOcJs+YAe6ZwOT2FpgV1oN+6j4yeR/+v14uy3pTxl4y0HuPWxKCPCI3MfWlfnGDcO67x/iS4Hgi5oB5v8ML94dRXeXI5PfWHjGDuwnsQv8HDxxpy0uuV/55zlcijduQhZCSMyMjHs9sSdk7nX49Wr9tOPjUZ2hdhekeOn6YiE/XKH0iwa4UPBU+Si1Zv9uinvvkgtCRwDh8zaSZhszuUQX3Y1Rv/7dTPun8BnMj1L+nT5i5WpEafdBQ5Kvvyjnqxwd3kWaVGhKzC4WMIG0jpu3AHiozoTvz4Iq/3Ve/j7dHuTQvhw4Gdz9f1TqAvp39bEQpoPqDZAKnAdS6LPUaYcMCM69CgWEKY4J9Oqm/sPcKhf7GBIZdDer4o2sgDzczmvvGU+0a2yoPQwu8OiqWvZrxCuKaXw3/2G8G+LVVxooSZF8aD8QKNmrmtQB5bk5LbijDateMNGVm/PoFggvXVV6/QwYOx1LmzOzQz/Eju3480NCM//GH5TeW4bW/xgvypBa79QJgIQHsRV5pDMJnC9eQxOYSNC0FUuH499YWMIHQwt4Pd3mOX5hD2LAFJ4b1HOPQv9i/R29H/+3J/ermqkhF8OdejXOnRnapCRtBHtfB+9KRaKCNMbfvZ8UZ4YGyQB58TmBShD3xPOhmB0zb6BiIDUy/sx8Gha5HqEbX0zQdRH5zDsWs8L6KRn0MS6+1xu0h77nLvUwK/DZ1cdFqM9t3aCOSHyRj8XpgEIeJVx9I4I0IWCAQ2NtTNyfwlI+gL3zvag6aE+w7ND2uLcA1aKb4WCLmgLpZjRXjhNjn1VZ5cTk/9ISOb9p1Q8yY++Nm9V/Q25L/9vCSyqV7ZCBkJIzJi3k1976iWxkRsfpBqkozwIpI3PuRjpFAjm/uGcKrsxK7nxX/UgRCv63YeVpMszKqsvlr3HTjYWAyjHHwXoIlhc6wTl++Vazd/UJFHGW4PEzn3Q3fGDxQZYQ0Rt2EXmQsmVuzEzuSCU+yGDi3H9ydEKOIBZ3WYbrFssUs75zWnP5oYQb8o29X9/8wvb9qhkyCUBaEB+cAu7lyXTn64TZBMvieQRn+dw1dv3mfU443ZHbdf1dRMSqq6AzvICPuFIMXGh//8z8/RP/7ji4Td2PnaX//6DC1daq9B8RYvfP8pRTn0fJmvBpMFkAOYU/Ex/nN+PfWFjKDcS1fddXLdnEYczaFXyzY9fK4CMuLr/XF/q0pGeCHNqW5SVVUygj7qi2G0gR3GsaDVF9Y6OdDJCPfJnGLhbd7XAw7w7Kxtzo+d47GxIqJz4RrKYwHPMuS05eBUggM8l8fmg3AGNzQ8ZRsLcn6kiGgFosVlVProSY/7w71yGX/JCMrDd4fb0SOJ4RrCBPO1DnPde/kEQi6on8kIt8Gpjhe+R079kSeX5dQfMsL7eCH0PNcjqfVcJ3KpXbkIGQkDMnK+bAd2MxnZM9KejKwY2Ezt2o4yxb2aVMtEpe8XwotSTrEPBRyF7b7WDB01gTCBcn6kWNDOKl2u+qqrn6E1sZpIoIWB7wjHW+e6QGDsTH1gVwsNDG+6yGWQHr90l7CJIbc1b+lao392m/ChHZS18n/hevQvwXCgtpMJ8i/tnkR/meva24OJAIjB0YIY1a/rI9y7okNrwm1M7pBKv5vl8h3hcjDJujzcZbb15QyXdsVKw4E6EOaXHei5PFKEGf5iWj06ONDaMXffqauGjHStEvershT7ifD4YUzsxrqyeqpynUlJRf33RjOCsL7f+56D/umfXjCIBxMQTv/4x5cr3QzRF7zwfaeMyCE4sesEhEkCTKagMeG8ehqz3E0uEoqt8+j5Uwtz6JVL7jJoA/U32ugqiz7g3PMf2dflz/2hD9ixmxeGvkR1GvCeawd2LsupbuKDnc9xfsgdT7KO8LI4D20By4H3s+B9Rvg8UixYeUHP7SBF9CeExdXraTPOfT9G3kdPqvC1iC4FLYOuFdDbAZHRF+UoD6LTeblrntBNvKA10cvyf2zGqKJulWl0uA8gMNjxnPPpae6IFLVY1wkWl4M2RpeJ7ksDIqnXw//Rjuq7yf+F9xcxBxRAuX6nXWVQDiSA60IaCLl4gxe9Tf7vjzy5LFJfyQg0ymeuf6rmX1gH6HXJf/v5R2RTO7IRMhIGZCTYHx5MitA6YFPD0ZNmULeefb2aGLEox94j2F8CviP+RmXq3iufps9bQqUrNhAWt958oUd/p89drMogtdsnJRCyZxv5lRt3V+gzwm11aJJFm/ok0IWhjQi+I2w2xdcrSlf3TKQLQ6Np/4BYD2d23rwQGhS78oNbpxOial0e1ohOD3HS+t4JBL8Su/w4D18PhJZkUgcth7fjOGbyLCMaDMqD3FbUVm1e84aM6P0rLk6hnTvjVIjfCxeiad++WCottfcl0Mv6ihe9LLQksYtzCD4dSGHGpV8P1P/EqTkUvT6HYhd5OrO/eN1FRqBBsWurKvdnV2cwnW/aM12ZWnXb2IhActrNSiD4lQS6jzBngg8Fok/Bd4R3jfe1neb5aWpTQWz2CHMy3a/Fri5oSUCsUAYpzLjs8tb0+UDJxd9++yNPtOUrGcFHFJ53125/N2jk76/cpJz9nBkOshEyImREJqkwx8CibtZfHXkC254fT39b/KQyuYLJFp8PVIp9XNg8Di9HaLyKF66kzt16WrY1asJ02rT3hId2CmZ5gepPddTjKxmpjj7Udp1J4yp+WWLfE/YdgclWbfdX2pcxCCUM+EpGML+yVhlWBQj1G0r3K32tW8+nkJEwX4jKA123Hmir8ca+JNB8wJE9v6XnF9gjBTEEPxGYXMEBfln3iomLVf3enIOWw+wLALMrOFhy+WlzFnmQFhAX+PogoAHnCdZUyEgOvXQth6D5gCN7RmfP5w7mXvATgYkWTMWSJnleD9ZxlX7JOAULBnwlI+i3HpkSgUQwB8N0dt/JK15ZCATLvUs/wv85FDIiZCToF3oyEVVtIgIZYT8PEA7s4P7H4pcNEoJr0IzAL6Q6ZQ3zLDj9w6mSfXLwsuQ25y5+2zArQLQ07FWCQAR8PZhTISMuMsJ+KCAc2ODw5StuEoJr0IxE7akanoMZB9I3GdvqwoA/ZARRIHcfu2DMq2y2hbQ6TY+rSwZSb/g+X0JGhIyExGJPJiH/J6EThU7CHiWIuMWkRE//+9wX6OwQZ43ioH3HzoS9SBA+mccWm03Omr9c+RfxuVBJhYy4NCIvX3KbYjEx4fSFmznkXOM/jkMFC9JPGePqwIA/ZIT7UTBstJprEXRl4aqN6mcVhZLzSyoYrmkMCBkRMmIsBmsafNJezU54MzulqD1Gro1oSLdHNyDssA4ndBmHqo+DkBG3DFOGufYYwf4lDXblUPTaHEqY5b4ueBNZCAZ8x0BVyIjI23d5i8xqVmZCRoSMyGJUMCAYqCIGhIzU7ItLFgoi77qGASEjgvlwxryQkSouQsIZHHJvMvkJBrzDgJmMjEjzLkyvyNc7+YqcRE51HQND01Pp19ER9EV0BH3ldNCJBPfu8nVdNnL/oT8/CBkJUTLSsqX9hobyYIb+gyljGFpjaCYjW5NiaXpqovxEBoIBwUBAMLA5KY5+JWREtPghumatbE0jZCREB1bISGgtVit7EOV6aI8nkxF8tXR9uYyg3zkd8hMZCAYEAwHBwFdO19wimpHQflfIu956/ISMCBmRLw0higGZ1KwntdqQC8jIN06HIiJMSCR1L55EFiILwUDgMPC1mGnJuiXM1i1CRkJ0QEUzEjwL0dpY/EqbwTX+pSmJ6uvn7+UrcEC+AotWSbRqggFrDPAcsyBZIiHKezC43oNVGQ8hI0JG5AtDiGKgKg++lA3sJP56djbNSU2k3YmxtEt+IgPBgGCgmjCAOWZuaiJhzpF5PLDzuMiz9uQpZCREF6KiGam9h0YmLJG9YEAwIBgQDAgGBAOCgcBgQMiIkBH5uhKiGJBJMDCToMhR5CgYEAwIBgQDgoHaw4CQkRBdiIpmpPYeGpmwRPaCAcGAYEAwIBgQDAgGAoMBISNCRkQzUssYmNGzCR0a24oW5jeTsajlsZAXS2BeLCJHkaNgQDAgGBAMeIsBISMhuvgRzUj4POQfFbel75a2owcledS/7RtCSEL0mfR20pV84fPsyljKWAoGBAOCgapjQMhIiC58hIxUHfyBnEB2DG9Jx8fn0tZhLXwmE7dnu8jIw5J2VNheyEggx0XqCq7nRMZDxkMwIBgQDAgGzBgQMiJkxOfFsxlEcpxDH8xoo7QbV6a38VmepflN6dTEXFpd0NznsiJ7mdQFA+GDgR6Z6TQoI40a50jYVsF1+OBaxlLGsjIMCBkRMiIL4ABgoCpkpLKHVK7LRC4YqBsYOJjgpN86HfRhXENakxRHb2VlyvwcgPlZnp+68fzIOIfuOAsZCdGJTsy0guuhEzISXOMhLyUZj1DDQMvsLHoUE0VfRkfQV9ER9LUzgorSU4WMhOg7OtTwJ/2VObM2MSBkJEQnurpERoo6NKbNRS3oxPhcujytjTJpgo/G4n7NaECetY9Fca8mtHtkSzo3uTVdmtaGDo9tRWsLm1Ne09fKvdzHdn6TtgxtoX59Wr+uro/s1JjeHdOKLk5tQ6cn5qqy3Vq6rlk9sL6QEdTN7enp6kEVm2n528+ZPZuo9jYV2fuzLB/QTOVZNsA6olfzN76jZHBqgmsMzkxqTRgDO/lbyUjOyctOMGCPgTFpKfTr6Aj6IjpCEZK7MVHUVHbZLjdfC4bsMSSyEdmEKgaEjAgZCerJfk1hc/pkbp7yx0DEKfPv0fx2Hv3Honn/6FaE8+a8OL42ow1hUa8/sOsGNzfyTu72Jq0c2IzgTG4u//6U1h7lkG/VoObqxxGxPpzV1jjH15BO6d7EKAvSYa4bxyir98v8399+7h/VSrX3uNRTVnr9V6e7fF6Q6ufxP7/NG3RzlsvJ3tzvO3PyaG7vpuXKmOuQY3lJCgYqxsDuxFj6xulQZATppqQ4ea5C9P0sWK8Y6yIfkY8ZA0JGQnSyqwuaEWg2ePH7cH47wkL5wOhWdHBMKzo/pTV9WpKnSIcO6pMTco0yd+fk0bHxuYqcwLGc6wK50aNW6Yt8aCqYiNybm0cXprT2IEPQBqA9aFi4Pm/So+NyjYVFSd+m6l5wP/jdn+ciW76QEW/7ib5WhYzgPnXZQVO0d1RLpS16XEb4IOdOzctrnPRxkf/y8hEM2GOgWXYWfRITRb9xRtCvol2/YWKiZcyZgh177IhsRDbhgAEhI0JGgnLChyaBScGnJe2opE/5r+89Wr1OumkTTLN4gXxjZlsa0r6xx71hEc3E4cQENznQyQhfB4lhs6zxXd5UxAfXLk51aUdy3/wOfVjclm6V/bivSPmcnoJY2U0Y0Ligbl/IiLf9RJtVISM6uds5wvMetg9zy5NJmt09ynl5YQoG7DEwIj1VaURARH4THUH3YyKpWVaW7ZwhsrSXpchGZCMYCD0MCBkRMhKULzz4efCCWyccFU0y0GJwmTk2pkM3ysyNYMY1vJOLrJjJCPxMzO1wf2CuZL6GY198Rszl/SUj3vbTXzLSucVrBI0UZGplvjUo7w3DHM7quvk+5Tj0XhAyZjUzZtuT4jxMtLYnxlrOMzIeNTMeImeRs2CgZjEgZETISFC+9Nh0CRsCejspwH8BC2cQDrsy2JSQCcvygS5nbZ2MgGxA42Iuf3aSi+h8bNOfmiYjvvTTXzKyIL+pIStoleB4b/5BAwV5+jJOZtnKcc1O+iLv4JI3nNTvIIpWmYkWnNhHi4lWuTlYcBtcuJXxkPEIJAaEjAgZCbpJHwteJgxWX/+tHgCYVLGJ1nkLzQaXWdK/mVH3rjKzI52M2DljI6IW+gTCw3XpaU2TEV/66S8Z0c3aeDzsUpin6fKQ//KiEgx4h4Gi9DT6vCyKFky0EN63VbaYaAl+vMOPyEnkFA4YEDIiZCToFpHwD+FFL0LyevOg6QQG4Wftyszu7a770BhX3ToZQTQtq7LBRkZ86ae/ZITvGWMBjdAtzUfG/B/+M+LELi9Fq2dHzlWMC0TNQvQshPRFujsxxnIOEjlWLEeRj8hHMBC6GBAyImQk6F58o99ya0bM4XTtJhuE9IWjOxbOiPhkl08Pq4u9S5Av3MmIruGAnMyyKWj3BiFyGGSn+36ArDEpXNTPev8Rc11yHLovAxm7mh+7N7Oz6FZMA2WipfYXcTpoXFpKuWdUxqbmx0ZkLjIXDNQcBoSMCBkJuhcfIlWxzwjMf9jRvLKJAdGosHhGqFmrzQ1RHhsZ8gJ7fl9XhK5AkBEOf3t9pj0Rsuu/Pw7svmhGEAWL79nsDwNZc9+RRycj7xS690PZN8o7DZXdPcr5mpvURdahI+uBGTDRcqhwvvAV+W5MJLXOygy6OVkwFTqYkrGSsQpFDAgZETISlC++4+Pd+4XAbwSL5soeMJh08aJ789Dyu433bfO6QXJAWDh0byDIyHuTXQ7uIFHe9FW/l+omI5AFy2VWL/fmi+jDEU1mZjIC+TAphObEvFmkfg+8c71+Tv7LS1EwUDEG1plMtA4kiImWYKZizIh8RD7hiAEhI0JGKl3k1wbwYToEPwReRCO0bml+UyPSFRbG2PgPJID7h53C2dwIJlu0eNH7AAAgAElEQVRrC5sb1+BTcr0s8hPq3FRmooWygSAjuzXtA3wtdEKyuH8zArnifppTJiPwy9CjVZm1GP72ExogliM0H8M6NqaJXd8kkDych+M/71iva0ZYNhwYALvMI2Qym3pB+7S0fzO194pdlDHzvcqxvEgFAy4MvJmTTTdiG9Bvy/xFkE5KS7adJ0Ru8uwIBgQD4YoBISNCRoL25VfUoTFhAcwLafPCGcdYROsP5+qC5sYGhbj+ybw8FQGLF9Q4pxMYlPV3ka+3iw0W9b5id3iYjemaBT2//p/JCPqm/+Droefzt58dmr1GMB/T6+b/j0vbETZkBAnBOTMZQfu4zvmRYgd7kA8mMDgnZERekjpW5X/leMjPTKNflu22DhOtHzgjqa2YaHnMeYKjynEkMhIZhQMGhIwIGQnqyR+aAizW9YUvL4yhBYHGxPwgTuvRhLAPB+fj9MG8PLLaKRwaFM4DjYG5PhyfqiS0L/JgE0D4X+jEB/XC7wXlrerFufPaZo3cD6R7TLu2V6Wf0IaYZQJTNdYeMRlB/636CWLExErvIzRQ0LAgZLJVOTknL0rBgDUGVifH09dlWpGvnRF0JMEpz1CIvo8F49YYF7mIXLzFgJCREJ38Wrb0/Gru7YCHaj5oSbDg3TCkhUphxlXZvSDPsgHNaE1hc5rSvYlhXlRZuapeh7kYzJfQV6TB5E8xvsubtH5IC1qY38zWyd/u/nvmvk6IqgUTtzUFzQn+J+x3Y1dGzsvLSDBQHgNvZGfT1biGHiZa09OSKp3TRJblZSkyEZkIBkIfA0JGhIzICzBEMSATcOhPwDKGdXMMe2am0y+0Hdd/5IykDmKiJe8ieRcJBuooBoSMhOjA1zXNiCza6uaiTcZdxj0cMbDcZKJ1Kj6avhOi76JwHB+5J5l3BAM1iwEhIyH6AhAyUrMPikxMIm/BgGAgEBh4LTubLsU1oq8MfxEHFaeKiVYgZCt1yDMqGAhNDAgZETIiatEQxYBMuqE56cq41e1x66ZMtByECFr4/cTpoLeyMmQelnlYMCAYqLMYEDISouAXzUjdXtDIglbGXzAQmhhYlJJgaEW+ckbQ2bhG9FqIvocEg6GJQRk3Gbdgw4CQkRB9CQgZkckk2CYT6Y9gUjBQMQZgovVeXCMtpK+DSlIT6+zXUMFLxXgR+Yh86goGhIwIGZEXYYhioK5MUnKf8kIOFwx0zsqgnzpdJlq/io6gnzkd1C1TTLTCZXzlPmSuEgz4hwEhI7IQFTIiGBAMCAYEAzWAgZKUBGNvka+iI+j9uIb0nexskX0NyF4Wif4tEkVuIreawICQEZkE5UUoGBAMCAYEA9WMAfiFnI6PNky0vnE6aEFygsi9muVeEwspaUMW7IKBqmFAyIhMhPIyFAwIBgQDgoFqxgA2NfyxZqL1C2ckYfNDWcRUbREj8hP5CQZCHwNCRqr5BSQPSeg/JDKGMoaCAcFAVTFQnJJIX0ZH0BfREfTb6Ai6EttQomjJ+1fIqGBAMJCTQ0JG5EGQB0EwIBgQDAgGqhEDMNE6YTLRWiImWoK5asRcVcmzlJcPMDWJASEjMhnIC0EwIBgQDAgGqhEDbbMy6QfOSLXJIaJofeZ0UN8MMdGqycWOtCWLa8FA8GJAyEg1voAE+MELfBkbGRvBgGCgpjAwIy2JvnS6TLRgqnU9tgG9IVG0hADL+kMwIBhQGBAyIkCQyUAwIBgQDAgGqgkD38nJocPxTkL0LPiL/M7poJVJ8SLvapJ3TRFMaUc+ZggGAocBISMhOCEuXLWRNu45Tht2H6VVm/bSgpUbaciIcfJyC8GxlMkscJOZyFJkGYwYaJ2VSd+LcZto/dLpoAEZaTJfy3wtGBAMCAbKMCBkJAQfhp1HztO5m489fmeuP6Q1Ww8IsENwPINxASV9koW9YCAwGJiUlky/0Uy0bsU2oMYyT8m7SjAgGBAMGBgQMhKCYIBmZMPuY7R530nac+wigYi4yMkjmjRzvjG4spgIzGJC5ChyFAwIBvzFwP4ETxOttUlxMkeH4HvX3/GXcjJ3CAYqx4CQkTCYFGGmxZqS1Zv3yYsuDMZUJq/KJy+Rkcgo2DHQKjuLHjoj6TfREYQoWl84HVSYkSpztMzRggHBgGBAw4CQEU0Ywf5is+vfgMHDDTIiplqyQLPDiZwXbAgGahYDY9OSVThfOK4jitadmChqIlG0ZBEWBusOmUtqdi4Jd3kLGQmDSWFK8QKDjCxYuUEm+jAY03CfeOT+5EVWFzCw22SitVFMtOT9JO8nwYBgoBwGhIyEAShWbNhlkJHhYyeXG+S68NKXe5TFrWBAMBBMGGienUUPYqKU8zpMtH7ldNDQdDHRCqYxkr7InCEYCA4MCBkJAzKy5cApRUZOXb0vRCQMxlMmx+CYHGUcZByqgoER6SkuP5HoCOUzcj82iprnZMscLXO0YEAwIBgwYUDIiEkgVXn51FbZvScuKzJy8Ox1AXgYjGdt4UjalcW3YCBwGNieGOux0eG2pFiZn2V+FgwIBgQDFhgQMmIhlFB7Ie84/J4iI6evfUo9+w4QoIfBmIYaBqW/gVvEiixDR5Y9sjJoZmoidczKIOy0zmPXNDuL7sZG0Zdl+4v8OjqCRqalGNc5n6RumYksRBaCgbqLASEj2gskVB+E0hUbDJ+RdTsPU4tWufLSC4NxDVU8Sr/r7gulro19YXqq8gn5idNBpxOiaXZqInXKzKAR6an0eVk4X4T1fRgTRS2ys2RelnlZMCAYEAxYYEDIiIVQQvGFumnvCYOQHLt4h/Ycv0Q7Dr1Hnbv1FOCHyRiHIi6lz0JMwhkDXTMz6LMyn5CvnA7C78fOSHocE2n4i3zjdNBWMdGS95C8hwQDggFbDAgZCRNw5LbJo/2nPzAICW+C2Kd/oe3gh/MiQe5NFsGCAcFAdWOgTXYm/dTpMIgH9hOBSRZ++I/fb50RtD8xhvpkplNjcWCX91GYrDmq+9mS+uvW/C1kJAwmhjZ5HWj/qatlROQR7T52gdbtOEyrNu2l9h07y+QfBmMsE3PdmphlvENjvFtkZdHDGNcO60w+rFJseAgNyrW4hrQiJYH6Z6ZT0+xsDz8TGfPQGHMZJxknwUDgMSBkJAwWqvo+I4vf3iLkIwzGVCa7wE92IlORaaAxgN3Ub8U2MBzVrYgIn8NeI9CSwGzrN04HHU1w0huyG7u8r+R9JRgQDJCQkTAAATQhMMs6efUT6vhWV3mww2BMA71okvpkIS4YCDwGXs/OpotxjZSvCJOOylJoSeBXMjAjTeZqmasFA4IBwUBOjpCRcHhBw1kdZOTdszcE1DKxCQYEA4KBGsTAyfho+trpMHxEKiIj8CX5pdNBYyTMr2C0BjEaDuscuYfAf0wJJpmKZiQMJoRN+1yRtLDPCBzZgwlg0pfwnkBkfGV86zoG4JwO06uKSAiuwUwL5lnzUxJkjg6D925dx73cv8z9gcSAkJEwmBSXrNlqRNEaN6VYXnRhMKaBfMilLnlpCAaqDwNbkmLp916Qka+dEbQxKU7mZ5mfBQOCAcGACQNCRkwCCcWX9oTpcw0yIg7s1bfoCEVsSJ8FD4KB6sXAyqR4+qZsp3U77Qg0J0cSnPSmhPaVRVgYrDlkTqneOaUuylfISBhMDIOKRhpkZO32d2WyD4MxrYuTkdyzvOBCEQMlKYn0W21fETMhgT/JlbiGlCs7sMu7Sd5NggHBgCUGhIyEATDWbD1gkJEVG3ZbDnQovuSlz7I4FQwIBoIdA5NTk5U/CHxCzEQEoXzvx0RR58wMmZfD4F0b7FiU/sl8GaoYEDISghMkyMe+U1fp4JnrdPzSHYOInLn+kEaOnyovvRAc01CdQKTf8vKr6xgYmpZKvyxzUNfJyG+iI+gnMZE0KCNV5mSZkwUDggHBQAUYEDJSgXCC9SW788h5g4AgpC9+xy7eofnL3hGwh+B4BivOpF9CNAQDlWOgT0YafRbtUNoRJiMI4fuFM4ImpCXLnCxzsmBAMCAYqAQDQkYqEVAwvoynzllEC1dtpAUrN9DM+cto9KQZlNe+k4A9BMcyGPElfap8ASoyEhkxBjpkZdIvnG4y4tpp3UGLkiWEL8tIUnleBAOCgYowIGREFrBCYgQDggHBgGDATwy0ys6iHzgdpLQh0RGEEL5bE2PpNT/rq+iFLddkQScYEAyEIwaEjMgLQxYhggHBgGBAMOAnBpplZ9O9mAYEHxGE8MWO7E2ys0WefsozHBdack9CIAQDFWNAyIhMmPLSFAwIBgQDggE/MYC9Q67FNaQ/Oh10Pa4htc76/+2deZhU1Zn/NUYTNW6AAs2igLhg5pc8ZnRkDKMo7ijKvomsskNLAw3NYgMiOwjIvtnsqKCCYGLcUMkymdGYTJZJxslETTIxmRlnJsn4mMTze763eS+nbt/qruquppb+/FHPuXXvPfvnVp3vPed9zxW0ZS3bkgFb9QM22of2KVQGECP8aPLHCQMwAAMwUEsGtBxrf6um7u9bXOhuw4UvHNWSo0IdZFIvBFQqDCBG+OHgzwMGYAAGYKAODKy5pKUb2L4dbViHNkxlwMI9DGxhoDAZQIzw48kfKAzAAAzAQC0Z+OJVV7mvsrs6/NSSHwbXhTm4pl/T61fECD8g/InAAAzAAAzAAAzAAAzAQFYYQIwAXlbA461Bem8NaC/aCwZgAAZgAAZgoBAZQIwgRhAjMAADMAADMAADMAADMJAVBhAjgJcV8ApR2VMn3ljBAAzAAAzAAAzAQHoMIEYQI4gRGIABGIABGIABGIABGMgKA4gRwMsKeLw1SO+tQV3aa3Cn9m5Ft9bB545rMrch2w2du7jhYye5mfNXuGlzloQc3dd7gBsxrsQNG10cnqtL+XMt7h133xfUT3W8vtONKddx0PAxbt6y9W5i6cPu3l79Uo6Xa/WnPCfv2aWtaWsYgIGGwABiBDHS4AdFg77a3h0d2iTh89LgC93h+5u6PX2L3KSb83v/gCf7NXduxinBp/yOS+rc33d16+EWrNridh963e174ZvBZ+32Z8J056/YGJzbc/jN8Fwh/ZhOmb0grPfAIaNSrmPJjEfCeGq3dTuedSMnTEk5fiG1IXVhgAUDMAADMGAMIEYQIw1+MDTr9jbhYN0G7dHwuw82ch2/1CHjbfW1By5yb428IBA+9lBmOsykGNGAetfBo96g+pjb+tTX3Zwla8O2yaYYmbVgpVuytiKYrcl0O1p6tRUjQ0cXu/U7n3O7nz8h4iRKHtu0N60ZFisHIX/kMAADMAADhcAAYgQxEg4iCwHo2tTBFyP/NeXz7p/Hned+PuEc92HJWe7TslNDoSJBUpv0q4vzy+Kzg/R/MfELGU/b8s2UGCl9eJHbe+TNQIjsPXLMPbZpj+vZb1CVcmdTjGzYdTAon2YdrP6ZDmsrRqwcHa/v5GY8stzteO7VUNStqdjvtOzN7iFkgAEDMAADMNBQGECMIEYa/ADIFyPfGZEoOBZ2vdj9pewzgWD4n6mfy3hb5YsYGVsyw0mA6E2+wofK5iZtC8RIan+gd97TPZhVsqVuj23em7RNG8ofEvVMjR3aiXaCARgoJAYQI4iRBj8Aqk6M6GF/d/y54ezIlFvaZrS98kGMdLrhJrft6RfDt/iPPrap2jZAjKT+Jymjdt/2ZsLU2dW2bSH9+VCX1DmhrWgrGICBQmYAMZLnYmTlytbuO99p7H784/PcL37xBfejH53njh5t4vbta+7Ky+turByFf2W31u47Ixq7H489z2lp0Y/GnhcYfu/r19zVZBw9+/Y2gW3Et0c0dlryJKNxGYkfGtjUPdGrRTAI29qzRfD9uYHNarTRmHPHJcG9it//+ssSBnGy79jbt8i9M/qCoJw/HHO++/oDF7mhf9c+4T7VryYxovrKhuTTGac6eaaKtol9T6V+dq+FdREj4zq3c2qnt0dW1vH7oyvruKF7y4R6xi3TKunS1n1zeGP3rxPOcf805nz3VL/mrtvfXB5bN3mAsrf3Wv507XUdY++zOsWJkT4Dh7oFK7e4tRUH3IqNu93kmfOrTUNpDRg8MrD9kLH8ose3BZ6o5LmrbN6ywCOV5eeHdVmm1a1nPzd97lK3ZO12J4P8ZRt2utkLVrmxk8qcZjEsn7hlWlquJpGm5Vaq39TZC1JedqV7rX2f2P8N7Efy/DfZOCFk8AgDMAADqTGAGMnTP76OHTu4n/zkPOfcKUk/H3xwdjiAqusDocH9T8aeF84QRA289f2D4vj8ul57RSBafPuLaPxfPlQZVwNku7a7T1G15X93/DnBvb8vPcP5LmvlHevDSWeF6Vh6Cv97yufc8ntaJ6Rbkxj59+NpKW5cO6ZTP8Wv6NXCbe9d+fnPyZ8PyvnbkjPDc3ZNoQRXXJ7y8vXH0tNj66h6/rnsM2G8qBhR/n+aflqVuBImXb6S6Pr36q/8tdv+zCvBYHn7s6+k5JI2KkbKFz3u5FnLBtwWrti4xyn9aP00EyOjblsWZvf74Ybdh8J4E0vLXfH0OcFHxvS6b8u+F8Jzdk3hwKHx3q9KZs5PsOHw89Kx7xksKkaU/+7n36hSPwkT2YdE6xf3fem67WH8STPmpRQnLh3OpfbHRzvRTjAAAzCQOwwgRvJUjLz00kWhCPnDH84IhMmrr17o3nnnAvfrX5/tPvnksy6TYuSlwReFg9c/lJ4RCJNXh1zo3hl1gfv1Q2e7T6Z/NqkY+cHo88O4n0w/LbhPMyuaFdB3DZ5NjMiNrgbSOvd+cXKjbs1CmLh5fViTcPCmwbRmbBRfHw2wVU6Vwe7/36lnOAkI+yGqToworqV16P6mYRyLqzCd+ql8ll4q4T/EGM3L7bDF/XPZaUE7vTGsiXtzWBP303HnBn2RTIyoDiZEfj/1DPcv489NEDUvD7kwoY7jp8wKB8k1Lc+yNvHFiB1rQF9x4GW3cffzCSKjtHxxQn5KY/mGXWGe8jy1ftdBJ3sKzXqYJyoTIxrsR4VDdd8XPf5ElfzKFz8eprHn8BuBx6tHlm9wKvuqrU8Gy6iSiREZopsQkWhbve3pBFFTvnhNlfysnfxQMysmvlZvfSqlOH58jnPnT5W+oC9gAAZgID0GECN5Kka0JEuzIn/5y2fc3LlV355r5mT48ORLitJ9UGyAL2PuuTFv6zVzMjxmCdSLD5wQMRIfxZE9O947LhxMjKhcEio22JYBeVxZtTRJ92hgPebGS8N7JI4srvL24x4Z1DS8piVbds0XIz8bf24wQ7G7b1EgmiwtLYGKc+2bbv1uvPpK97uSM8OPCQOF/nk7lvCwcipU21scCTktm/Ov67hXx8vcTm9WyZ8Zsfr848hGrvt1lcuyZtzWJhAwuhYVgMvW7wwH6oNHjq+SVzRvffcFSOUA+1iwxMqWd2mDRBMMskXx03h44erwmsRH9z4DE65rmZjimhhRmlue/JrbevxjwkChnfNDCQ8/v/uHjQ7FhITOg+MnJ1zXvTfdckeCwb4/M2L1WLymwnW++dYgbr9Bw0M7ELny9fOr7lh1UnoqezqbKVaXJtfS+0NMtb0GXHape7htazeyfVv3xTz9D0m1rtxXPwzRrrQrDJxgADGSp38kJkY+/fRUt2JF1QFppiE3MaLZBe3mnUr6WmJknqj+Y/KZVZYAKY04MaL0bdCsWYdoXrL70EyM7vGvy+ZBMwVxg2qlIbFk5fEH3b4YsXz9UPfG2VPUtn5+fdK1GZHLYSubLzj8NKPHUTEisRe9x9LVsjH/mgbTGiDvPPhawnn/nuixL0YUd+GqrVXibtp7JEhXYkXLspSGllCZ62Att4pb4hQVI9G807UZWVNxICiHylmdhzA/n6gYifOCZemqHn7c6o5lG6Ny6NN/8IMpx6suTa6d+LPLRFtc3aGDW9S2lftRUSP3QYvG7lCrpu6vOmR+/6FMlJU0Mtv3tCftCQP1xwBiJE/FyJEjTcNlWn/602nu7bcvcAsXxs8iZOIB8mcV9Gb+7VEXuGSzFpaflg3ZwHlH73j7jzgxovha+qW4ymuUN/Oha7Z0SgblfhnW3tcqzE/3yEg7+jH7j4+mnBh0+2Lk42mnB3Yl/zct0R5Dbn39vFSOutTP2ihdMWLl8stvaSULfTGivVM0cxK9V44I1N4fRexitu3/RjA4TmdQ7YuRZAbv2pjQBt6anVB5/HgPTY93HZxpMSKRpXKontE2SfbdFyOb970QzJxE75XNi9KVQXr0WrLvMpa3Nhk/eVbK8ZKlx/nM/nHeffll7tlWzdz7LRq7HzZv5H5W1Cj4jhjJbDvDLe0JAw2PAcRInoqRQYPaB96zogbsH354lpNQ6dWr6oCzLg+4jMJtdsQEhkINbiVU4ga4Wnqle7ScKFneycSIvDtZPvK6ZfFlcyFhoGuKa+cVmkixeNWFEjkW1xcj/j4j025t677nLfuSrYzvTasu9bO80xEjElZWp7jZDUszGvpiJGq8b/ea3Ut0LxUbrNuyKLu/uvCEqDjmut7bK2xnP47sT2zgPWx0cXDPiWVKr8fGUfxMihHZaVgZ4mY3/PL6x74YGT52UmxZl2+stHupOPBS7HU/PTsuLV8Ulkd52HnC7P8xX3NVB3e05UXuVy0au72tm7up7S5xP2neyD3XqlnszMiXOnRw13a40n25w5X0Y57+x/LcZf+5ow8aTh8gRvL4h1J2IXv3FgUG61FR8sc/nu52746fjajtA27ucm3WwgbGCuXZKer9St6ndE1LtJLlmUyMSHTI0FzxFeq70ni6/wmREp1tsQG14mgndbO7SBaaEXsyMWJlfm3oCYPx/f2bh3WpS/0s7XTEiOxDVDd95B7Z0qgp9MVIMvfL1nZRMWLeqaK2HdXlaWLEN/qO3q/d200I3NurX1CXJ/a/FJyrbhYmk2JE9iFWBi2RipYx2XdfjAwcEu+dy4zw0xEj8jpm5RldPC3l8iQrJ+cz90fescOV7liLJm5+m1aBwOh1eXv30xgxIgGyoE1rd6hVM/etFk3c11pe5Na2aem6XBHvNps+ylwf0Za0JQzkLwOIkTwWI/6Dt3x5a/f9758feNEyYSJ7kg0bWtbLoEZv2GXUbbYbGiBr2ZT2uLByacmTzv/quNteO2/hhJvahZ6cfAN2u64ZERt8a6ZE522ZlcRG1KD8W55b4PVeOSy9ZGFNYuTBGy4NPXHJvbGlU9f6KR0TI9FZHsvDD7XhorWHDO39a9Ud10WMaL8NDZC1MV+cG964fFMRI5v2HA7S3XXwaJiuzcLI41Zcuvf1HhB6qko2U5OOzUiv/g+Eg//V21L3YFVfYkSevkyM9BowOLYN4tqFc/X/B6wZjq5XnJht7n/ZpVXEyHUdrnQHWjV1HxQ1dm8VNXbPtWoaCJhftmjsXm9xobsdQQLTBTLe4Den/n9zGlobI0YK7MdBHrTeeuuC0J5Ee5HUJ9QyCn/ruGcrDZT9wbrtoRG3P4f2BbGBuOLFiRHZipjrX83GPH7vCZsQ3xuW1U8bL9pgXbMZdr6msCYxIg9Y5sHKN3yva/1ULlv6pvrVVE6Vw2xGVJ6oZ7Jk8esiRrTZoA2QU31bX5MYGTOpLExTMyRWbtvlXTMkds5CeZcyoaHyJBMjNnOycU+8oLH0FMoTlwkgebCKeu7y7/WP60uMyOuX6qYymecxP1+Oc2cAECdGxl3axv2iqLF7qeVF7qYrLndf7NDBXXfllW7bxUXu/aLGbl6bVlW4pk9zp0/pC/oCBrLHAGIkD8WI7EHKytok/WPr2vUK9+c/nxYIkvfeS7Sr8B82eSuaMutRN3fpumoHYrIHKbutmvyuvSL0YuW/4beBtgTCqnsT/4h9AaPrv5l0Vmx9NPtiAkNG2zrWjER0x3XVS65qbbZCGyHK5sOvr3/sx69JjPjG+779SibqZxtJSmRIbPhljDv2201xU4lTFzEyfMykUDhoZ/K4MkXPVSdGZEOiDQk16NYyrhHjSsI0bRZG10ZOmBKeV/q+wbuuyxtXNF99X7llX1oDej/dlZv3pSQC6kOMDBo+Jmxn7fweVzfOZe+PMtr2cWJk8qWXuPdaNHbPtGrmrvZsRa658krX+7JL3c3MjMB1Ho43ouzzPXd+hwqpLxAjefjjsGjRxU5LsN599xy3aVNL16XLiQ38ZEdy9GiTcGbku99tlPQPwDci1oZ0yd7GLup6cbBMSTueb+rRMrTf0IOgpVL+cqrvepv0+ZvzaVmVlnbJI9XPxp0biAq52ZVokMDQ9bgHS/dr+ZcJEoV+HtE4Ws5lmxtq5mLZPa3D5VyyO9ncs6VTPXwXtr4Y0T4lMhSXkNGSM+3HYZswKvQ9amWifv5mkrLb8MXFxh4tg1knv45aMiYbGGsPueTVjJE5ECi9ta3Txob+DFVdxIjyNrsR7cMx+MGa9xoxMSI3vYOGjw1c997VrYebVDbPyYZCYkKfsnnLEvrc33xQsyQyDh8ycoLTJoC6X+lpF3gdJ7Nh8e0uZETuMz22ZEYgavz2DMTR8RkJpbu24oAbNbE09JDVe+AQp40NJXIsXqbFiJa/KV/lr49mjiwvwtz8448TI3ddfpn7XlFj9/Oixu6Flhe5R9q2dtqP5Bpc/8JzHo4z+O3Jzd+eQu0XxEge/khIjJhdiEJtfPjRR59zv/nNWU67sdu1jz8+3c2alXxGw95Q2yAomWcgiREb/CqUiJALWM1myMOUXdOshAb29rDIQNyMvO0eCyUYtNRK3qt0TsuOtHTL4vqhGbnrPuVd3YyH4vkiQXFkXC/xYaJC53zx44sRXYv7aP+S6L4emaifNmyUgb/lKRuc35acGS7HUvv6baHjcZ3bBfWxOArVnn79dGzx6ipGJBqMEYmAW+7oGqZtefihiRGLYxsf2neFi9dU3Qld+42YEbt/r46VhlzfLly9NShLso0B7+nRJxRPiidbF3Fuy7F2PPtqlbJ369kvIY7lp2EEt8cAACAASURBVJkbK4dvjJ9pMTJv2fown1SWl/ltzXF2BgxxYkR9MbR9O/f1Vk0De5Jft2js3i1q5N5oeZGb07a1+/JV7EcCr9nhlXan3XOdAcRIHooRufX99rcbu9/97sxQeJgAsfD9979Q42aI/szI9meSz4zIra+8N/lv5P2BsI5lSxG3GaIG+nL/698vYfBErxbBoPDw/Sd2RfdnHfwHRyLA4mtWxb+W7Fhufm3JlsVVKBsUucXVDI/F1RI0/x4dazbm42mfDdwIa5ZBe5jY/X6YifrJ7kaCy2Z0rCwSaFqm5udnx5NubhfMMNkmjhZH4e+nnuE0Y2L3+rY0vli06wptOVycfY+ur991MBww+7MEfhp2HBUjNqBXqP08Zj36WMKMhcVT2P+BEU57dyTEefpFN7H04aA+M+evCK9p1sSPa8eahZHtSKUIqpxtUHoSMMmWQPXoe38wA2ObLvr5b3/mFadNDC39ybMeDcuQbHNC5aM04uxfLB2F2k/Eyqm8k9XJj8Nx9gcWycSI+uZLV3Vw8rY1vd0lbk/r5u7HzRsFNiMz29XfPlAwkX0m6AP6AAZqzwBiJA/FiA98cXE7t3p1q8DF7/79zd369S1daWlyWwk/rtmMzFmyplqbET+OjKZX39vK7e1b5OTmVl6rtDTIvyd6rKVHS+++2O3v3yywHYl6wYren6nvff72sqB8zw5o5nb3LXKa4ZFdSabSt3QyVT+JPomkAwOaBcvJfLsWyysaapbE4ijUMq7oPZn4LpuGXYeOhoNwvc2vybuWrmvWQZsaDh453t125z0plU1Lq7T3iPbdkO1ITfkkq9/td3Vz4ybPdKXli4NBf00zOkpH5R1XMiOIozDZPinJ8kzn/JBRE0PvYBIuEnHpxOfe2v/x1bXt4sTIV6+4wt1y5eXuy5FlWTPaXuz+rUi2JE0Do/a65k387PU7bU/bw0D9MIAYyXMxwoNRPw8G7Vq1XbUvhy130uBZMxjF0+e4LrfdySA6jd+RB0aMc0vX7QhsYGwGRsvPYK4qc7naJnFiZP0lLdx7LZoE+4qYAfv/u6qDe7RN62BmZF+rZu6LaXCSq3WnXPnDKX1FX+ULA4gR/hwYBMFAygzobX7U1kjLi5au35FyGvny45jpco6dVJYg5iREZNMiw/1M50V69TsIkWH6u80buUMtm4Y7sEugvFPUOHDve6TlRW7TxS2CvUZkN/LDosaBPQn9Ur/9QvvSvjCQnwwgRhiIMhCCgbQY0LIpGXHLva7ZWMgtL38C1f8JlMx4JFzmJq9g2sNFBve0W/Xtlovt0+Py9u7bLS50FRe3CMWIytn98vZuX+vm7u+LmrgfNG8UhE+1bu56XVY/yydzsW0oU/7xTJ/RZ9lmADHCQJTBEAzUmoEbOndx2otE7nCz/WOW6/lrU8WJUx8O7FJyvayUr/rBiZZbffmqq5yWYcW1lfYW0caHCuOuc6769qV9aB8YaFgMIEYYiPJnCQMwAAMwAAMwAAMwAANZYQAxAnhZAY+3Hg3rrQf9TX/DAAzAAAzAAAzEMYAYQYwgRmAABmAABmAABmAABmAgKwwgRgAvK+DFKWPO8cYEBmAABmAABmAABhoWA4gRxAhiBAZgAAZgAAZgAAZgAAaywgBiBPCyAh5vPRrWWw/6m/6GARiAARiAARiIYwAxghhBjMAADMAADMAADMAADMBAVhhAjABeVsCLU8ac440JDMAADMAADMAADDQsBhAjiBHECAzAAAzAAAzAAAzAAAxkhQHECOBlBTzeejSstx70N/0NAzAAAzAAAzAQxwBiBDGCGIEBGIABGIABGIABGICBrDCAGMlD8O7rPcCNGFfiho0uzgo0cao2k+fuuPu+oH6q4/WdbizIOmayvUirdm+aBndq71Z0ax187rjmioxxdkPnLm742Elu5vwVbtqcJWG6g4aPcfOWrXcTSx929/bqF56n/2rXf7Qb7QYDMAADhcEAYiQPxcj8FRvdvhe+6fYcfrMgBzRTZi8I6qc6DhwyqiDrmA8/oIO+2t4dHdok4fPS4Avd4fubuj19i9ykm9vldd882a+5czNOCT7ld1xS57rc1a2HW7Bqi9t96PWQ37XbnwnTLZnxSHhebK/b8awbOWFKeD0fmKCMhfHHTz/SjzAAA7nEAGIEMZLWYGjWgpVuydqK4K1vfYGMGMmNH8lZt7cJB+s2aI+G332wkev4pQ5pMZQKN1974CL31sgLAuGTyv21uSeTYkRCY9fBo57YOOa2PvV1N2fJ2rBtho4udut3Pud2P39CrEiUPLZpLzOAefg7XBvmiJMbv230A/0AA7nFAGIkD/8EszkzsmHXwWDApbe69fUwI0Zy40fCFyP/NeXz7p/Hned+PuEc92HJWe7TslNDoSJBkmkWfll8dpD+LyZ+IeNpW1kzJUZKH17k9h55M3gu9h455h7btMf17Dcoabk7Xt/JzXhkudvx3KuheFlTsd9peZeVjTA3ngH6gX6AARiAgfpnADGCGElrAIQYqf+HMld++Hwx8p0RiYJjYdeL3V/KPhMIhv+Z+rm0GEqlfvkiRsaWzHASIJrhUPhQ2dyU2+LOe7oHsyeKG8yQbN6bctxU2pB7Gs6zSl/T1zAAA/nMAGIEMZLWAAgx0nB+8KoTI/rRe3f8ueHsyJRb2qbFUU0/mvkgRjrdcJPb9vSL4ezGo49tSrsNZNTu25hMmDo77TRqakuuN5xnlr6mr2EABvKRAcRIgYiRPgOHugUrt7i1FQfcio273eSZ82sc1AwYPDKw/ZDR7aLHtwWefuQBqGzessDjTxzQdREj3Xr2c9PnLnVL1m53MuxdtmGnm71glRs7qczpLbHlF7dMS8teNNjTchbVb+rsBXm7rGXarW3doYFNg0//6y8L6l3Spa375vDG7l8nnON+MPp8t7dvket+3eVhm1jbWCg7Dd3zzugLnJYy/XDM+e7rD1zkhv5d+4Q4+/o1D/JZcNfFCeefHdAsOD83Yri9pWfL4Hzxze1cTWLkOyMaB2Lk0xmnOnmmsrJFw9m3twlsP749orHTki4ZxcsIXm3wRK8WsfHqIkbGdW7nnhvYzL09srJtvj+6sm02dG+Z0D5xy7T8fvinMee7p/o1d93+Jr4f5BnLZjW0bPHa6zrG1iXaHtHvYtnSeWL/N7AfycPf5Gif8p0BIQzAAAykzgBiJA//+KI2I+WLHg88a9mAxsIVG/e4q7/y11UGSHqjK6NZW15i9/vhht2HwngTS8td8fQ5wUdGubpvy74XwnN2TeHAofHer0pmzk9YI+/npWPfM1hUjCj/3c+/EQ7YLK6Eidbf59sDHx0EV/Rq4f40/bRwlsGMxH82/tzYusnL1YeTzqpyv+L995TPueX3tA7j/a7kzOC+f/DsOiQOLA8N1P32kz2Irq3s1rpGMfLvx8ugPP007LjrtVe4H409L8G+xPK18JcPnR3GVTts7135+c/Jnw/K8duSM8Nzdk3hnIiIsjzl5euPpaeH9bN8LPxz2WfC/FLtBwnELl9JdP2r52r7M68ETG5/9pU6u+pdum57yPekGfPCMlq9CFP/U6OtaCsYgAEYyC8GECN5LkZMmGiAXnHgZbdx9/MJIqO0fHGVgc3yDbvCgY88+6zfddA9tnmv06yHefoxMaLBvg3+UwkXPf5ElfzKFz8eprHn8BuBR6FHlm9wKvuqrU8Gy1SSiREZ+poQ0eBv9banE0RN+eI1VfLL9R8hfxB86P6moRD5/dQz3L+MPzdhMK3ZDr8+GhRrJsQG1xoovzrkwmA2xYzK/3fqGU5CQPF+Oq5yKZUMzy2dI4OahvF1r51X+Mn005xmOjRjU93MiPK0MqgOfhp2rBkeu0fpflB8tvvx2POcZj30XddMjKhedm8qoS+uLD+5Hba4fy47zb1f/AX3xrAm7s1hTYJ2+GT6Z10yMVJTP7w85MKEOo6fMitkujbLs6zMFmrmz14OrN76VEJedg9hfv250l/0FwzAAAykxgBiJI/FiMRB5QDmWLDEypaJaKM1Ew5a0+4/DA8vXB1ek/jo3mdgwnUtN1FcEyNKc8uTX3Nbj39MGCi0c34o4eHnd/+w0aGYkNB5cPzkhOu696Zb7kgw/PVnRqwei9dUuM433xrE7TdoeLjOXq5S/fzy4dgXIzZ4/seRjcJlWTNua+M0cNa1d8efEBGq2zujLggH3C9GhIovMkzEaCCudD7yZi9+dlygWN5L765cwqXlYzpnAsUXI5ql0YzE7r5FgaiwuJpZiXPtq7LZPRIfWvbl9817xwWViZEbr77SaRbHPjZTpNDO+aGEh5+elptZHAkdzez413Xcq+NlbmefovB8Ov0gYeOnt2z9zvA5GjxyfMI1/750jvXMiXc9W2z2mdofWDrty720KQzAAAzkJgOIkTwXIxq8LFy1tcpgaNPeI8HARmJFy7L0AGoJlbkg1XKruCVOUTESfXDTtRlZU3EgHLSl6mkoKkY0axMth6WrekSvpfN98IPjnYROOh/N1qSTR/Te6CBYswXRezSTocG8lk3ZNdku6I2/zkcHx7pn+N+1Dz1c2XXZjOh+eb7SbImEg5Yx6fv/TatczqTZA8WX/YbuNXe6vhjR+ehHecTZU2gJlXna+o/JZ1ZZ4qS8omLE6mhhujYj1l4qoy84LL24MJ1+0LIxPw2JYD17Ow++lnDevyfdY9lumfjuP/jBjKWbbjm4Pzf/rOkX+gUGYKBQGUCM5LkYSWY4q40JbWCj2QkB7C/pemh6vAvSTIsRDdZUjm37v5Hy4MoXI5v3vRDMnEQfQNm8KF0Z/EavpfNdhv7WTqmGchKQTh7Re/1BsMSG3thH75GthQbW/iB47X2tQkGgZVIyto5+zI7joymVg2cZrpuI0LFmQfRdswya7dCx4ij/lwZXzmZos0F998XIx9NOD+xRTMBYmnLrKze/fvltNkb37Oh9YibCvyfTYsTKZfX280p2nE4/+DNLSk88i5e6imG/bHLmYAyOnzwroU39+zhmQAIDMAADMFBIDCBG8lqMHHNd7+0VO2jROnYb2AwbXRzcc2IZyOuxcQR2JsWI1sFbGeJmN5I9SL4YGT52UmxZl2+stHupOPBS7PVkaUfPZ3tmxDc298tm9ha+cbhvp2FiIFmoJUtK745rrgjsJHSfZkleOW7r8faoC9zz91fajsjWRB6otORK92m5l+L6YsTfZ0TLub7nLRf7Q+kZCd60tPRK6Wi5lF8n/ziTYkSCzNohbpbJz9c/9sVITf0Q3UvFRLYtZ/TTre1xafmi8HnRM1DbdIjHIAUGYAAGYCCfGECM5LEY8Y2+o9BpF2gTAvf26hcMbJ7Y/1Jwrrq3uZkUI7IPsTJoCUq0jMm++2Jk4JB471xmhF9XMZKsDPV53h8ElyfxCmVixB8E2zkNvLUjum9DEXdsRuzmmer1YU3cv02sXP4lt8Cy4zCjd7nClYG50l7fvWXQV8nEiLXNa0NPGIzv79887F8JKKWjJVp2bzTMpBiRfYiJEbkPjuaV7Htt+0Hp6RkS21GbrGR5pXJeXvHseRldPC3leqSSNvcwMIEBGIABGMhVBhAjBSpGNu05HAxsdh08Grr3tbe58rgVB+R9vQeEnqqSvfFNx2akV/8HwsHV6m2pewg6mWJEe61ov4h0Pqns4RLXvnautoPgbw2v3NfDFwyWZnWhbU74k7HnBYbxEiCyL1Gc3xx3zyuvW5rhUNoP3nBpcK0mMaL7TMwobSuDlnQpnV95bnvtmsIJN7ULPYaZAbt/XcdmMyLREr0W/a4NF02MJHOHHI2j77XtB8XVPjkSDtqwMM59dlx+NZ2TJzoTI70GDK6x3jWlx3UGHjAAAzAAA/nAAGKkAMXImEll4aBGMyQGou0WrRkSO2ehvPeY0NCAKJkYsZmTjXviBY2lp1CeuEwAyUNQ1HOXf69/fDLFSLZtRtKZGTFjdA28NSvht1l1x986vjmheejyjeLNvuPjaZXeu2TcbmnVJEbkAcs8WJnBvOLaTIy/xMzS1LIxExqqRzIxYu6Lf51E0Fh6ClUOsxlReaKeu/x7/eO6iBFtEmrCIVOzGPJKpzT1zJhnPL+8HDOogAEYgAEYKEQGECMFJkZkQ6INCTWo0TKuEeNKwsGlvc3VtZETpoTnBbZv8K7r8sYVB/zKLfvSGjD56a7cvC+lQdbJFCPDx0xyqlM6n7rubVLbQbB2ZLdZh9+XnuFkuxHXRzpnO7vr+MCAZuHMgQSAdkG3eLKVsFkFhVqqZddqEiO+K2Htqm7xTEgovVX3tgrP67qM4/38NDNj8fxQMy26TyJDYsO/Fnfsp6u4qcSpbT8of3Gj50SfJWu311i+uDL75wYNHxOmt2zDzjqn56fNMYMXGIABGICBXGYAMZLHYkRuegcNHxu47r2rWw83qWyekw2FDZLK5i1LGNT4mw9qlkTG4UNGTnDaZE1xlJ52k9ZxsrXw/rp2GZH7b3DHlswIRI0PfCCOjr/xVbryRDVqYmnoIav3wCFOrnIlBizeyRQjlufJDOsyCH6qX/NwaZRmIJbd0zrc50MbB27u2TLYm8T3wqV7fAGg/UL8+mqzRbv+zuhKT1q67osR7W8iQ3EJoA3dWzrti6INBBVPoe9Ry998ULYtEjy6bvubyO2vxJTi6rpfFjs2z166R7YyvrjY2KNlIGrsXoVaMia7GauHXP0+fm+r0FNZ6a1tnTY29JeT1aUflKfZjWj/HDlC8MuTzrGWeem5sOdWM5vpxOdeBhkwAAMwAAP5zABiJI/FiA1ebOND+65w8ZqqO6FrvxEzYvfv1bHSkGvRhau3BoOiZBuv3dOjTzgIUzytmddMjC3H2vHsq1UGUt169kuIY/lp5sbK4RvjI0auCgbgGlj7Buz2Q+MP9nWPllZJfJg40Dl/kK8ZFbPt0D3+rInSNC9aiveNwSd2fPfFiK7FfbTvSXRfDxnOmxF7NI7KoQ0Z5Z1L17SsSku3rG4Wjrnx0sAA3uJridlvS84Ml2PJvsXutVAewWyJmMVTfn676Njur6sYkdg3fiXeb7mja5i25ZFKKHslSyeV5Y+ppMk9DExgAAZgAAbyhQHESAGIERvIKNT+B7MefSxhxsKHsf8DI5z27kiI8/SLbmLpw8FAaub8FeE1zZr4ce1YszCyHakUQZVLVZSeBEyyJSY9+t4fzMDYpot+/tufecVpE0NLf/KsR8MyJNv8TfkojTj7F0snV0Pf9kMD/rhymkCIs7vQ/XLza0u2bOCtUO505d52U49Kj1iWtvbJ0PU4o/JdfYpCobG154lZk7Lb2oTnLY9PZ5zqZF8ikaRZBu19Ynn4oeol2xSLp1BCQRsr6r7Dx90K67w/q+KnISN7GbCbkLK0JGDUPv69djzp5nbBDIxtumhxFGoGSDMmdm8m+mH9roMhq/7snuVRU6j9ROw50rOR7JmrKR2uM+iAARiAARjIVwYQI3koRgw2Le/QrIM2NRw8cry77c57woGW3RMXammV9h7RvgayHamtN6Db7+rmxk2e6UrLFzsNqlJ5M6zyjiuZEcRRmGyflLhycy7xh7bP314WuOF9dkAzt7tvkVvU9WKnWZBcaSctrdImi/v7NwtsR7T7e23KNuir7QNxJdsXLUOLzuzEpalZEgkyxVFoHsLi7q3LOdl67Dp0NBQkmuVI9XkaMmpi6L1OwlqbktalLMRNfD5oD9oDBmAABvKDAcRIHosRHrL8eMjop8LuJ+2nY8sUJSo081g8fY7rctudseLigRHj3NJ1OwIbLZsh1PJIOClsTuhf+hcGYAAG4hlAjCBGGATBAAzUkQHNcpgXOxMYWna1dP2OsG3HTipLEC26TzZXcizBH1T8HxTtQrvAAAzAQOEzgBip4yCEh6TwHxL6mD5OhQEtz5LzBbnFNtsoudO2uCUzHgmXc8lrnfYqkUMIu04IZzAAAzAAAw2RAcQIYoTBEAzAQIYZuKFzl2AvErmxtj8Wbfo5cerDgZ2XnSNk4AEDMAADMNDQGUCMZHgQ0tCBov78qMIADMAADMAADMAADKTKAGIEMRK+uU0VGu7jBwYGYAAGYAAGYAAGYCATDCBGECOIERiAARiAARiAARiAARjICgMFK0YyodRIA8UPAzAAAzAAAzAAAzAAA/XHAGIEFZwVFcxDXX8PNW1L28IADMAADMAADOQLA4gRxAhiBAZgAAZgAAZgAAZgAAaywgBiBPCyAl6+qHXKyZslGIABGIABGIABGKg/BhAjiBHECAzAAAzAAAzAAAzAAAxkhQHECOBlBTzeMNTfGwbalraFARiAARiAARjIFwYQI4gRxAgMwAAMwAAMwAAMwAAMZIUBxAjgZQW8fFHrlJM3SzAAAzAAAzAAAzBQfwwUpBiZPneJW7J2u1u85gk3d+k6N23OEtf3/mEMuhFeMAADMAADMAADMAADMJBDDBSkGFm97Sm374VvJnz2HH7TzV+xEfhyCD7eMtTfWwbalraFARiAARiAARjIBwYKUoxoZmTxmgq3bP1Ot7bigJMQqRQnx9zICVMRJAgSGIABGIABGIABGIABGMgBBgpSjERVoJZp2UzJvGXrAS8HwIv2Ed95ewMDMAADMAADMAADDY+BBiFGuvcZGIoRlmo1PMj5YaPPYQAGYAAGYAAGYCA3GWgQYmR08bRQjEybs5iZEWZGYAAGYAAGYAAGYAAGYCAHGGgQYqR88eOhGBk4dBTg5QB4vJ3IzbcT9Av9AgMwAAMwAAMwcDIZaBBiZPnGXYEY2XXwKEIEIQIDMAADMAADMAADMAADOcJAgxAj63Y8G4iRTXsPA16OgHcyFTd58YYHBmAABmAABmAABnKTgQYhRlZtfTIQI7uff8PdeU93BAmCBAZgAAZgAAZgAAZgAAZygIEGIUZKyxeHNiMLV291117XEfhyAD7eUOTmGwr6hX6BARiAARiAARg4WQw0CDGixly6bkcoSCoOvOzWbn/GrdrypOty250IE4QJDMAADMAADMAADMAADGSBgQYjRjpe38lt2H0oFCS2CeLd9/UGvCyAd7LUNvnwZgcGYAAGYAAGYAAGcpeBBiFGru90o9uw6+BxIXLMranY7xau2urmLl3nbujcBTGCGIEBGIABGIABGIABGICBLDDQIMSIv8/IjEeWA1oWQOONRO6+kaBv6BsYgAEYgAEYgIFsMdAgxIhmQrQsa+fB11znm29FjCBGYAAGYAAGYAAGYAAGYCAHGGgQYkTG6hIjm/ceAbocgC5bypt8eesDAzAAAzAAAzAAA7nFQIMQI0vXV3rS0j4jMmQHwtyCkP6gP2AABmAABmAABmCgYTLQIMTIzPkrQi9aw0YXI0aYHYEBGIABGIABGIABGICBHGCgQYiREeNKQjGCAXvDVN28baHfYQAGYAAGYAAGYCD3GGgQYqRnv0GhGHl05WZUcA6oYH4Mcu/HgD6hT2AABmAABmAABk42Aw1CjMxfsTEUI+WL1yBGECMwAAMwAAMwAAMwAAMwkAMMFKQYkfhYv+ug27TnsNv+zMuhENlz+E03aPgYwMsB8E626iY/3vTAAAzAAAzAAAzAQO4xUJBiZPW2p0IBIpe++lQceNlNnb0AIYIQgQEYgAEYgAEYgAEYgIEcYaAgxciYSWVu+twlbtqcxW7C1Nlu8MjxrtMNNwFdjkDHW4nceytBn9AnMAADMAADMAAD2WCgIMVINhqSPHmAYQAGYAAGYAAGYAAGYCA9BhAjzBYwYwQDMAADMAADMAADMAADWWEAMQJ4WQGPtwbpvTWgvWgvGIABGIABGICBQmQAMYIYQYzAAAzAAAzAAAzAAAzAQFYYQIwAXlbAK0RlT514YwUDMAADMAADMAAD6TGAGEGMIEZgAAZgAAZgAAZgAAZgICsMIEYALyvg8dYgvbcGtBftBQMwAAMwAAMwUIgMIEYQI4gRGIABGIABGIABGIABGMgKA4gRwMsKeIWo7KkTb6xgAAZgAAZgAAZgID0GECOIEcQIDMAADMAADMAADMAADGSFAcQI4GUFPN4apPfWgPaivWAABmAABmAABgqRgVPmLl3nps1Z4vreP4xBKcIEBmAABmAABmAABmAABmDgpDFwyr4Xvun02XP4TTd/xcaTlnEhKjvqxBsLGIABGIABGIABGIABGEidgVPWVhwIhEilKDnmRk6YiiBBDcMADMAADMAADMAADMAADNQ7A4HNiJZp2QzJvGXr6z1T1GLqapG2oq1gAAZgAAZgAAZgAAYKlYFAjHTvMzAUIyzVAvZChZ16wTYMwAAMwAAMwAAM5BYDgRgZXTwtFCPT5ixmZoQpORiAARiAARiAARiAARiAgXpnIBAj5YsfD8XIwKGj6j1TFGluKVL6g/6AARiAARiAARiAARjIBgOBGFm+cVcgRnYdPIoQQQHDAAzAAAzAAAzAAAzAAAycFAYCMbJux7OBGNm09/BJyTQbqos8UfswAAMwAAMwAAMwAAMwkFsMBGJk1dYnAzGy+/k33J33dEeQoIRhAAZgAAZgAAZgAAZgAAbqnYFAjJSWLw5tRhau3uquva5jvWeMKs0tVUp/0B8wAAMwAAMwAAMwAAMnm4FAjCjTpet2hIKk4sDLbu32Z9yqLU+6LrfdiTBBFcMADMAADMAADMAADMAADGScgVCMdLy+k9uw+1AoSGwTxLvv653xTE+24iI/VD4MwAAMwAAMwAAMwAAM5B4DgRi5vtONbsOug8eFyDG3pmK/W7hqq5u7dJ27oXMXxAgqGAZgAAZgAAZgAAZgAAZgIOMMBGLE32dkxiPLM54JKjT3VCh9Qp/AAAzAAAzAAAzAAAxkm4FAjGgmRMuydh58zXW++VbECKoXBmAABmAABmAABmAABmCg3hkIxIiM1SVGNu89Uu8ZZlt9kT9vAGAABmAABmAABmAABmAgNxgIxMjS9ZWe3KTIDgAAAbFJREFUtLTPiAzZ6Zzc6Bz6gX6AARiAARiAARiAARgoZAYCMTJz/orQi9aw0cWIEabkYAAGYAAGYAAGYAAGYAAG6p2BQIyMGFcSihEM2FHfhay+qRt8wwAMwAAMwAAMwEDuMBCIkZ79BoVi5NGVm+tdAQFA7gBAX9AXMAADMAADMAADMAAD2WIgECPzV2wMxUj54jWIEabkYAAGYAAGYAAGYAAGYAAG6p2BU7Y/83IoRPYcftMNGj6m3jPNlvIiX1Q/DMAADMAADMAADMAADOQOA6fIpa8+FQdedlNnL0CIoIBhAAZgAAZgAAZgAAZgAAZOCgOnTJg62w0eOd51uuGmk5IhSjR3lCh9QV/AAAzAAAzAAAzAAAxkk4HAZiSbBSBvHgAYgAEYgAEYgAEYgAEYaJgMIEaYgmNGDAZgAAZgAAZgAAZgAAaywgBiBPCyAh5vPxrm2w/6nX6HARiAARiAARjwGTjl6quvdnxoAxiAARiAARiAARiAARiAgZPNAGIEMYYYhQEYgAEYgAEYgAEYgIGsMIAYAbysgHeyVTf58aYHBmAABmAABmAABnKPgf8PlELPtw9eUKkAAAAASUVORK5CYII=;" parent="1" vertex="1">
          <mxGeometry x="290" y="-510" width="673.32" height="270" as="geometry" />
        </mxCell>
        <mxCell id="bPniwDqRxFUgS_rV1Idj-25" value="" style="group" parent="1" vertex="1" connectable="0">
          <mxGeometry x="430" y="-220" width="350" height="160" as="geometry" />
        </mxCell>
        <mxCell id="bPniwDqRxFUgS_rV1Idj-23" value="&lt;div&gt;&lt;b style=&quot;font-size: 15px&quot;&gt;&amp;nbsp; &amp;nbsp; &amp;nbsp; &amp;nbsp; &amp;nbsp; &amp;nbsp; &amp;nbsp; &amp;nbsp; &amp;nbsp; &amp;nbsp; &amp;nbsp;&lt;/b&gt;&lt;b style=&quot;font-size: 15px&quot;&gt;&amp;nbsp;解决方案：&lt;/b&gt;&lt;/div&gt;&lt;b style=&quot;font-size: 15px&quot;&gt;&amp;nbsp; &amp;nbsp; &amp;nbsp; &amp;nbsp; &amp;nbsp; &amp;nbsp; &amp;nbsp; &amp;nbsp; &amp;nbsp; &amp;nbsp; &amp;nbsp; 1. 一把梭&lt;br&gt;&amp;nbsp; &amp;nbsp; &amp;nbsp; &amp;nbsp; &amp;nbsp; &amp;nbsp; &amp;nbsp; &amp;nbsp; &amp;nbsp; &amp;nbsp; &amp;nbsp; &amp;nbsp; &amp;nbsp; a. 去掉 batch age 的判断&lt;br&gt;&amp;nbsp; &amp;nbsp; &amp;nbsp; &amp;nbsp; &amp;nbsp; &amp;nbsp; &amp;nbsp; &amp;nbsp; &amp;nbsp; &amp;nbsp; &amp;nbsp; &amp;nbsp; &amp;nbsp; b. age 判断的时间间隔缩短&amp;nbsp;&lt;br&gt;&amp;nbsp; &amp;nbsp; &amp;nbsp; &amp;nbsp; &amp;nbsp; &amp;nbsp; &amp;nbsp; &amp;nbsp; &amp;nbsp; &amp;nbsp; &amp;nbsp; 2. 搞随机&lt;br&gt;&amp;nbsp; &amp;nbsp; &amp;nbsp; &amp;nbsp; &amp;nbsp; &amp;nbsp; &amp;nbsp; &amp;nbsp; &amp;nbsp; &amp;nbsp; &amp;nbsp; &amp;nbsp; &amp;nbsp; a. batch age 的判断时间，&lt;br&gt;&amp;nbsp; &amp;nbsp; &amp;nbsp; &amp;nbsp; &amp;nbsp; &amp;nbsp; &amp;nbsp; &amp;nbsp; &amp;nbsp; &amp;nbsp; &amp;nbsp; &amp;nbsp; &amp;nbsp; &amp;nbsp; &amp;nbsp; random 0.1 ~ 0.5s&lt;br&gt;&lt;/b&gt;" style="ellipse;whiteSpace=wrap;html=1;strokeWidth=2;fillWeight=2;hachureGap=8;fillStyle=dots;sketch=1;shadow=0;strokeColor=#b85450;fillColor=#F8ECEC;align=left;" parent="bPniwDqRxFUgS_rV1Idj-25" vertex="1">
          <mxGeometry width="350" height="160" as="geometry" />
        </mxCell>
        <mxCell id="bPniwDqRxFUgS_rV1Idj-22" value="" style="shape=image;html=1;verticalAlign=top;verticalLabelPosition=bottom;labelBackgroundColor=#ffffff;imageAspect=0;aspect=fixed;image=https://cdn2.iconfinder.com/data/icons/mobile-smart-phone/64/fix_repair_phone_wrench_tool_fixing-128.png;shadow=0;strokeWidth=8;fillColor=none;gradientColor=#ffffff;sketch=1;fontStyle=0" parent="bPniwDqRxFUgS_rV1Idj-25" vertex="1">
          <mxGeometry x="30" y="55" width="50" height="50" as="geometry" />
        </mxCell>
        <mxCell id="bPniwDqRxFUgS_rV1Idj-26" value="" style="shape=image;verticalLabelPosition=bottom;labelBackgroundColor=#ffffff;verticalAlign=top;aspect=fixed;imageAspect=0;image=data:image/png,iVBORw0KGgoAAAANSUhEUgAAAggAAAGfCAYAAAA6dyoFAAAgAElEQVR4XuxdBZhcVdI97d49Hnd3dyWBBHdd3IJtFlhk2YVlcRb/cdfF3T1A3IkLcZvIaLvL/53qfp2eySSZhAQG8mo/NjPd7913X903r86tOlWl6datWwoNTAwGA2KxWAOblTodVQM7NTDp9fGwmvWw2/SYMb8Ml90yU1XPn1ADGo0GnXv0Rdee/VBY0hgfv/kiyraX/gnv9ODfUr5ZgztGGuEOJ/Hk/Di2Bxqc6Tn4SviDXUGjAoQ/2Iqp020QGrj7771hMurww6xt+HrKNiST6suuQSzMQZyERqNFKpU8iFf48w9dZNGgKpyC+ufyx1hrFSD8MdZJnaWqAVUDqgZUDaga+E010CABwm+qAfViqgZUDagaUDWgakDVwC4aUAGC+lCoGlA1oGpA1YCqAVUDKkBQnwFVA6oGVA2oGlA1oGpg7xpQPQh715F6hKoBVQOqBlQNqBo45DSgAoRDbsnVG1Y1oGpA1YCqAVUDe9fAnw4gFDVy4JzLhmDmT2swe8q6vWtgP48476phMJkMeP2Z6QgFf9uaDW1KOsJkMGPdjlWIxsPZO7CZHGhR1BbbqjfDE6zazzvbv9NOG3oxPMFqTFr8CRLJxH4N0rZRZxQ6S2DUmeAPe1Hh3Y7Sqo0Y3e1oWEw2TFr8KaLxyH6N/VucNKLLeBQ5G2cvtXDDLKzf8csul3ZYXGjfpBtMehOSqRQisRDW7VgJX8hz0KZZ6CjByK5HYv7a6dBp9TAZzbu9VqV3B8q92w/aXJSBWxS1Q/92w7PXqfKXY/KyL2tc99hTz0OjZs2xce0qLF0wG9tLNx/0eakXUDWgaiCtgd8MIDRpnocT/9IXkz5fhlXLd+yX/tt0KMJRJ/fE5+8twqZ1lXWO0aRFHi65eiTmTF+Pbz5asl/XueCvwxGLxPHG87N2e/51tx8Jg1GPp++fBE91aL+us78n/WXkFSiwF+PDWa9ga9Wm7DDDOh+Bvu2G4vtFn2DFloX1Gn5op8PROK8ZPpz9ar2O391BF429DoGwV+YUS+wbYNLrDBjX62S0bdIJ0VgE8UQMRr0J5d5t+GDmKzh92KVwWJx4Y/LTCMeCv2qeB/Pk0d2PQbGrCXg/RY4STF76JRZvnFvjkk5LHk4ffinMBjMiMYI7jRz/9c/vYX3ZqoM2vaYFrXDy4PPx/eJP0KfNEBQ4itMvAP5Po5H8fqWSw/w10zBr1Y/1mgvHatu4Mz6e/T8kkvF6naMc1Kq4AwZ2HCW/NnI1RZlnK96d/kKNMYYediR69BkoRYpSyRQ+fPMFrF6+CMmkWo9gn5StHqxqYD808JsBhNbti3Dx1SPxwf/mYeGcnUZtX+bcpWdTnD1hCF57ejpWLat7h6PVaeDKsyDgjyIa2bcXljKXm+49Rs59+LZvdjs9u8MEjVYDn2fnDn5f7uXXHEuAwB3h4g1za+y4LhhzrRjSfQEIR/U9HS2K2uC5b+/7NVOC3ewQz0Eouu8GfEjHMejfYTg2V6yXuceTcRh0RhQ5GmN92co/DEBQFEjwdtbIyzF12de7AIQj+56Gdo0746clX2CDAII0QAhG/Iglor9qDfZ0ci5A2Fq5ETqtTg7v2XoQerYegGnLv83MBwjHQvVeR3olurbsgxe+e1CA3f7KZeP/gWp/5S4AgeNpdTq0atsRp59/JfQGPd5/7Vn8sqx+AHh/56Oep2pA1cAB9CC0aleIwmI7dHotwsEo3FVBbN5QndVxfQACz23bsRhWmxGJRBLxWBIVZX5U7PDJOHsCCIUldhQ3smevt2OrF9WVuxorh8ss1zCa9IhFE/D7wti8vgqR8E4wsTuAYDDo0LpDEXQ6jVwnHk9izYqyOp8jk1mPNh2K4XCaEY3GxcuwdVM1otG0+72gyIaWbQtlHpFwTIDGxnWVSMT3vjNSAEIg7MOrPz4qhrl94644qt9pMnYuQKCxoocAGg0qvWXY4alZJnZPAIFGullhawQjPlT5K9CyqB2sJpt4CNZsWy67fBk7I6FYCNur63YBM/zROL85rEYbeJw3WC07RovRhvMOmwitVod3pj4HuplrS64HgTvffHsRgmE/tlSu38WotihsK3NMphKIJxLitq/wbUezglaig61VG9GsoDVc1gLxeGyp2iCGzWXNF6/MdvdW6LU6uW+u8tZa4RrutpsXtgE9AQQy26o2wxva+ZzL2u4GIGg1Opw69CKZ/0vfP7hHT4vVZBd905B7Qx6UVq5HMpWU8ADnT09KhW8HWhW1l/tleIfeJN63IlwfAgP+67LlY1CH0eJBWLllUfaYQR0Ow8COI/HNgg+wauvSXXQv92rNQzKZQKWvbJfQQ30AAu+lcV5zGHQG0RmfV65DbrhoTwBBmVSPvoNw/BkXwl1Vjuf/725EI789OFeNhqqBQ0kDB8SDMHhUOxx7Wm8x6iw5q9NpEQxE8d9/fg6tVoMTzuwDm9OETt2aYv3qMlRXBkTHfm8Y3322XH525Vtw0cQRKChxIJlIituT507+diUmf/MLjjmlJ1wFVrTv3Airlm+Hz5N263vdIUz6YgXGHtMFo8Z1FiPA8z5/byFmTV5bYy15jStuGAObwyTGXctjdRq88sQ0rFtVhhPO6iPX7d63BeKxBFYu2Zo9n2ORa3DlP8bCbNZDo+U9RnDvTZ/v8rxYrAacPWEoCIo4DkWv1+GdV2ZjyfwtAg6uuHEsCCIICDgHuk8fueNbeKr3vgNPhxiKwNKv3y/8BCtKF2JMj+PRtWVvcRkrAKFlUXsc3f90aDVaAClxIc9YMQmLNsxC6+IOaNe4C5oWtITd4sSq0p3GgfHnxRvniCE7e+SV2Fi+RsZtWdwuMwrw8qRHUOJqimP6nyH3x2uUVm7Ch7Ne3kUfNKYnDj5PjCrd0LK2Gh2e+uoudGvZF3TN09C+P/OlOv/20gDBhdVbl8puN5VKCaDI9aAQaJw0+HwUOIqQovtZrqHFii2L8P2ij0Gdcae+sWwNerTqlx1jxspJmL92Gvq1HY6hXcbKrr9P26Gwmu1yzwRhb0x5SowZ5z2g/SgM6jgK8URcnh8avE/nvCG8D0X25EEY0+M4uecNO1bjm4Uf1uCQKOcXO5uIvow6g3AUtFotlmyYh6krvgaNLe9lR3WphCg6NO2WXZPP574la0UhR4W8EK4hDXJa51p8t+jjegEEHju6+7Ho2qJ39nyGIaYu/xbLNs9HI1czdGvRFyWuJsh3FGNV6RLRKYVgcsH6GfIz7+X4gWfDYrJKWIDj8kl8d9oLEkJSpD4Agcee9JeL0aPvYPzw1UeYNqkmX+FQenGr96pq4LfQwAEBCDfedRQsNhPeeG4mPFVB6I06FJfYsXj+FtidJvztlnHQaTUwmQ3iuieQoBAoPHXfD/LzhROHo02HEsz4aTUWzt4kXoTzrhyO6T+sws8zN+CyG8bIzp3EQO64ldr3FWU+PPvgT7A7zbJbLyqx47TzB+DLDxfvAhD4ea8BLfH958uwbEEptHot7HYTKst88PujuPGuo2lXZJ40qLlehQ9em4vVK8pAEiQBCEMdBqNuF4BALwg5DK3bFWHW5DWYO22D3F/TFi5UVQawaV0VLrtuNJq3KcSX7y+UMfV6LZx5FmxcW1Hjmrt7AMTYafWwmZ1Yt+MXfLPgfVww5mqaaXH1k8y33b1FDEQoGsCX89+TGPOxA86CUWfEW1OflRd/7zZDYNAbxFin4+Fp2Vy5XmLiCkCgUaehohvaaXWhb7thAhCUnTfPOXHQeaj0le8CECTmPuwSmIwWOX9T+VoxeAQvJPEN7DAKAzuMxIJ1MzFtxbe7BQglrsZigJZtXogVWxZgfO9TxAg+/939cs7RfU9HuyZdsHTjfCzZNFeM+ylDL8SabSuyAIH3Q6/AwvVzhBR4ZN9TgVQKL016OAsQwtGQuNjJH+Dum6GPuaumYPbqn9Cz1QCM6DpeduqTl30l+jmyzynYUrkRn8z5X3buewII9KScNPg8OdcdqMKsX37A6m3Latz32aOuhNVox+fz3pJ1GdvzeDTKayZx/upARRrsaPVi9KevmARfyC3eI0+gGq9PfkLW85QhFwgfgnpdvW0pSpxNMabncfX2IPRoNRCjuo3HhrI1mLHyewGjR/c7DQ5LHt6f8ZJwLIZ1GQe9Ti9zCZMsmyExbHeX4rO5b8BuduK0YZfAqDdi+orvBUQR0PRrN2y/AYLZYsU1/74fO7ZuwatP3a9yEX4LK6Fe45DVwAEBCH+/bTxc+VZ8/fESLF9YWidpb08hhmFj2uOok3th8c+b8f4rc8X42+wmXH/nUZjx42p892n6BVofDkKT5i5cfsMYfFUHQCBJsv/QNlg8fxNm/rRWQgt1SX04CNf+ZzzMFsMuAIHA5sa7jxGPxGtPTa9zfAIIekLmTFuHedPXY+tm9z49gDQQNIA0+iajFV/Me1vAAHfLXVv0wqTFn8FmsmNI57GYvPSr7K5yQPsR6NS8J96a8kzWlb+nEIMCEOjaJuj4pXQxurbog8GdxuDtqc8gGEl7gigXH369xJBrexC6NO+Fw3udiNmrfsKc1ZN3uc9hXY5A37ZD8dXP72NNLUOpHEwPAneqvD9mSVA4Zocm3fD013ejS/PeOLzXCdhSsR6fzHkj62a/bPxNWLt9ZRYg0HAv2Tgvy9s4tv+ZEi545pt7swCB9/TejBclBGLQG3HR2L/LjnvKsq9x8pALhPvx3vQXxd1Pj8QJA8+Wf3M5HHsCCJy705qPUd2OkowTApbVW5dj8vKvJJuBxL3jB56F5ZsWYt7aaXKv9PaM6DYeU5Z/JffD9SfQm/nLj/h5XfoZO3vUVRJqeP7b+9Gj5QCM6n4Ulm6aj5+WfiHf53IQ6hNiuHDstTAbLHhr6jMCZChtGnUCdUZvxk/L0uPuKcRweM8T0aVFL/yw5HMs2zRfju/esr/MbX89CBxj4j/vhVanxbMP3Y5waO8et33641IPVjWgaiCrgQMCEGjgDz+uOxijF9f80m1ioHPZ/XsCCBf9bQRaty/GrX/7MDuxgwEQSho7cM7lQ5FfaJPd1/ZSdzYjIrcb368BCP2HtcaJZ/UTL8VPX6+s81Fr2jIP50wYCvIhOI/N6yvxxfuLULrJnXXT7ukZpYHgbnpTxTr0aTNY0gFtZge+nP+u7BwJELq17Icm+c3rGC+Fd6Y9n40l1wcgbK5Yh0/mvL7HP5vdAYSxPY5H5xa98MGMl8WrUVsG0YPQcTSWb1qASUs+rfMaBAj0XDCLgR4RymHdj0WXFr0lTEGw0LlZTzzx5R01zq8NEMipeHPq04jF02TAI/ucijaNOuLpr+/JAoQfFn8uLnQKj6ehXLVtqXgULhxzrehZcaUrFyNQe+rru7Of7w0gKOcxrXN0j2MEzDHE883CD8D1aN+kS53PwcxfJmFl6WIBCOXubfg4x2tx5rAJcNkL8Ow3/8WZwy9Dsasx3p76XNaNvy8AgeGaiw+/TngN//vp8axOGS44c8SEGuGgPQEEZraYjRZZI0UOBEC4/PrbYLM78fQD/0EwkOYnqaJqQNXAgdfAAQEINHJFjezo3qc5BgxrI+7ygD+Ct1+chfWrK2TWewIIjOsXFttw5/U7DUTHbo3EiE6dtOqAeRA4D+7wmQp5+LFd0bxlgbyIp01ahW8zXgoe82sAwuBRbXHsaX32CBB4DYIDkhQPO7IzGjV1CSfiu0+XYsaP6RjynkQBCCSWkS3PuO6SjXPxS+mSLEDo1XqguJh/XPLFLsS/Kl95Nl2wPgBh/Y5V+GL+23uc0+4AwhG9TkTHZj12CxA6Nu2B8X1ORoV3h+xW65K60hxzAcLR/U5Hy+L2eObre7KnkzzJHf+qrcuyHgQS/N6e+myW2JgGCJ3EC6FwEL75+QMBBLkAgSEA7sQvHnsdYsk4Ji36WEIuubLDXZpN86svQOD59EicNeIyRONR8UIcP+BstCppjzmrp4DALFdIqiTngeu/vWozPpv3VvbrM4ZNQL69ULwhF4y9FlajFU99dXf2+87NeuHw3icIP2VvHgST3oxLxt0AX9CD1356LDsGOSdnDL8UpZUbJZ2VsieAcMWR/0IkHsFL3z+UHWNEl3Ho2WbQr/IgXH3zfeI9e/bh2xEJq0TFvb0v1O9VDeyvBn41QCDRjgQ8AgIKCXwjx3fCyCM6i7H78oM0Y7pV20JcfM0ofPbuQsydVvPFx/RHGssn7vke5Tt8KGnixCXXjBJjPuXblVnj3blHE5xz2VC89eIs4RDUJbsLMRDEuAoscOdkNnTu0RhnTxgmxMAHb/0qO9wNdx0tvID7/vVFlutQ+1q7CzHkF1px9S3jsGObF88/MjlLUlTOJ4GTZMmqip3u+d4DW+CUcweistyH/7tjZxxep9OhaYs2CAb9qCzbmdapAAQa1GP7nyXxbIYA+NJUPAgs2NO7zSAJMZBwqAhjyXRr00VOGdf7FLRr3Elc0zQ+uaKEGH4NQOjesh8O63EsVm5ZLHPMZdnzWoxfn3fY34R899Gs11BaleZs5MreAMK43iehQ9PusmOu9O0QQiPPocudxpDEPOrsVwGEJV/g9OGXSLbDe9NfEi6AIvQ05KYo7gtA4Bj0TPD+yYUgcXR0j6OxYvNC/LDksxqeBIYyyLvYG0A4a8TlKHI2wjvTXkCZp1SyKk4ecr5kjNSXpHju6Imix3emUafpTB2CjCN6n4if187E9JXp55S1N3q1GSQggNyNXLnk8OslTPPqD48iGA2gTUknjO97imRmsN5BuWffSYoFRSW44vrbsX7tSrz1wmP18rjt78tRPU/VwKGugV8NELr1booT/9IPs6aswYwf1ohBPeOigejYtQl++HI5fvhyhei4cbM0N4Bphc8++KNkBJx8Tj+8+/IcHHVyDwwb0xFVFX7MnrYWI8Z0gsVmFPc7KyIyXEFhKuWl146W4557+CeEQ3Gcdn5/vPXC7Ow6KgBh4dxNWLtyh6RbkhhIvsBVN41F2XYvvnhvEbyeMAg4zrxokIQanrh3UnaMS68dhVbtivDhG/OweN4WDB/bHhU7Ali6YKeLnACBAOazdxcIUWrVsjIhYBIAnHP5EHTo0hjl27345pMlkqo55qguWDBnEyp2+PG3W47AisVb8c3HS6Rew8DhbXD0Kb2waV0Fnnt4Z5y+W+8BOOWcCYhGInjkzhsQCadfwLkAIfcBbpLfIgsQtlVvAneV1CHj59wV8wU9uNNofDH/HdCLQBnUcbQQBbdUbBAvAY3JkE5j8dHsV7MkxfoCBNZAmLd6CsKxMDZVpD0hdMmTpEjCGjMIyEWg0ejdZjC+nP+OABV6EWjk/WGffEaDxLQ41guYsvzrOusg5HoQ+rUbjqGdx4oR+nnNDPRqMxAkA5ItTzLi1z+//6sBwo9LPheuA4l+0WgYn89/WzwzvVsPRpcWffDKD49kl0IBCDTy5EVwF72xfLXcNz0ETBElP4BCjgYBFO/5zSlPy2dnjWCWSiHmrp6GhRtmipdhZLejsLJ0kZy7N4AwvMt49Gk7WMJISzf+jMEdR8FksAg5tL4AoU1JZxzd/zRJjX1/5otoktcSR/Y7VcIu7057XlIsKT1bk8x4lIQ8PprzmgCd0d2OkefnhIHnomVxW6zb/ot4iPq2HyqkUAI18jzodVGEWQz+kBdzV0+VrIm1O9LvjVxhPYQLrrgBzVu3w6fvvoqFc9IcDVVUDagaODga+NUAoUWbAskaKCiyCzjgf9x9r1q+De+/Ng9BfzreS3Y/DeERx3cXjwOFXgfu0pkNwPLI7To1ks93bPUIN+DMiwdh2xa3pCFS9AYtho5uj8OO7iqGmMJUyftv2Znu1IRA5EZmPKS/X7uqDC8/NlWuwfHadiyR6yfiCZkT0yU/eH0+1q7cWc+gWcs8/OXSIRIqSSZSUhDpw9drFni65tbxkjFBYZ2DJ/87CZVlfvmdaY7HndEbPfq2EANNYc2Fd1+ZLcTIcy8fisbN8iS9kWmOnAezMd55aQ62l+4st9uz3xCceNZFiMdjeOK/t8DrTpPFuEMkZZzZCLmSCxBYSbHY2VgyF2ic+dJlKIJG7bO5b2bL+tJw8AXfsWl3MdZM3avwluHtac/mAIRfBFTsSRhi4I6dQlJbbuyaO1FmHTQpaJEdguz8F757IE320+oFMDA7grtkZkfQmJZWbhDm/k4PwlPZXWoaIPQSNzoNDrMJWNFPuf63Cz/CkX1PQSQawrszXsSZwydkPAjPZOsP1AwxDMPQLofXIEsqHARmATBUQ2FqH/XFNMsU6IXRoLRiQw0+gAIQ0umlEODz8qSHxbgSLDEVk2mSvHd+RkIk56twNEhiPK7/WVLtkPUH6PXxhb2YsvRLlHm3CUBgWiizHBQhGMzLcBA4t5MGnScprJQKz3Ys3jQPh3U/Jh1iKM2tgzBaqhnWroPAMfq3HY6+7YfJjj+d8ukXngRrGCjCGgtDOx8OeoroweLz7s5kU+TZCnHioHMk84GhPBbCYulpkhRnrvwB89ZOzY4zYdw/xDsifyuJqHApanM9Rh5xHEaNOxab16/FK0+ls1dUUTWgauDgaeBXAwRlas1b56OoxCHGlGmD3LXXJaxA2K5ziRi4Vct2ZPsY0Ph36NJIjOWKRduyqZB1jcH4fbtOJbJz/2Xp9nqlBirjMO2S4Q56KFiciOfvTjjPvAKrlHUu377vZCiSEZs0y4PPG5J7zZW8Qiuat8oXzwa9HHUVXNIbjOjZbzCqK8uxfvWuO6r6PBZkorN+AY1wudTY3+nWzT1fCirlN5e48+bKg9PDggV+GCcnANnu3rWgktOSj9YlHSQtrsyzDZsqatax2NP9MrWvZVFbGPQmrNuxYr/7QdRHp0zdZCElgi6m7jHNcF+EYQQaT+6mvSH3LmmOHIvpg0wFtRitqA5UgR4hGuB9EZIgCVJYwnlfyyAr15Hnp6g9IvGwPBcELHUJC08RkDALhOumzJXZFq1LOkplRha2Slfj2DfJLyhGtz4DMGrcccI5eOvFx1C6af2+DaIerWpA1cA+a+CAAYR9vrJ6gqoBVQOqBvaigRPPYmGkgeJF8Xs9ePrB2xAKpj11qqgaUDVwcDWgAoSDq191dFUDqgZ+hQYYVmBxpA1rVmLLxrUIBlRw8CvUqZ6qamCfNKAChH1Sl3qwqgFVA6oGVA2oGjg0NHDIAYTesQhsyX2Pgx4aj4N6l6oGVA2oGvh9NEA6t1unwXK9Sei/qvz+GmiQAMFgMCAW2//WsbtT66lhP84N+aDig9//wVNnoGpA1YCqgdoaSGo0uNVRgGV6o6qcBqCBQwogXOV34/BYCIkUENSmUy1VUTWgakDVgKqB31cD9B6YmdIL4GF7PmYY0ymvqvy+GjikAMKVfjeOiIXghxbXuIoQydQo+H2XQL26qgFVA6oGDm0N6JHC/3kqYE8mVYDQgB6FQxYgTMgrQUgFCA3oUVSnompA1cChqgFzKomnPeVwqAChQT0CKkBoUMuhTkbVgKoBVQOHngZUgNAw11wFCA1zXdRZqRpQNaBq4JDRgAoQGuZSqwChYa6LOitVA6oGVA0cMhpQAULDXGoVIDTMdVFnpWpA1YCqgUNGAypAaJhLrQKEhrku6qxUDagaUDVwyGhABQgNc6lVgNAw10WdlaoBVQOqBg4ZDagAoWEutQoQGua6qLNSNaBqQNXAIaMBFSA0zKVWAULDXBd1VqoGVA2oGjhkNKAChIa51CpAaJjros5K1YCqAVUDh4wGVIDQMJdaBQgNc10axKxYF704EUe5Ti/z0ad23wUzllOVslEygXbxKGYZLfXqysbrGFIpRDUaNE/E0TkWwSSzDa3jMWzX6WtUvOSx+ck4qrUszgqp3d4hHsV2rR5erVZ+PywSxBSjBfFalTJbJeMoiccw12jJ6nd4NIx1Oj22Zu5R+cKWSmJkNIwfjRaEM+MMi4WwUWvAllrH8hxeV5HaWuJ3PWMRLNEbwWY0inSNRWFNpTDPaIIWgBYpuSdFeCSr0/Mz3q0282VSg+zP1HuLRAyuVAor9Ibs8RyD3UbSZ9cUjpuEBok6njJtKoWjIkF8abIilTPX4dEg/BodFhpMu5zVOR5FpVaH8kx/k5bxGEpSCcwz7LmefstEHKU6fXYevEflfnkR6kS3h2cudyLUq3I/PGdYNIxppvTzx/sdFQ1gpd4kz0ldwmtr9tDkNff5rn2+KZXEqGgI35lsdWh759F8LmcbzQhq+Jym0C8WxRqdAW4t73RXUZ4UE9ckHMAnFnuN8f9MPWlVgFDnI/C7f6gChN99CRruBAqTCdznq8R8gwkfmGz4d8CNRCoFU8ZYpUtVpxDRaPEfZyHCGTM5JBrGX0JeXOsqQbwet9c/GsapYR9udhbh+HAQrRIxPG514aKgF90TUdxvyxdDQilIJvBfXxVmGUx41eoUA/DXgBs0Ww/a8sQQXx304nJnEfhS5wz5gqW0SURxh9+Nm+wFMl7zRAw3Bdy43Z6P8gzgUPpzdItF5H4vdhUjIC904FlvOR6yuvBLrU5zBDWnhQNI0sgAmGo0Y36OcaTxecRTjuudxTX6f3CuE4Ne/N1RKGDkhGiwhtHWQYOHrQ6s1BtxasiPXvEI8pJJzDOY0CERk58fs7rQJRFDq3gMjZHE50ZrttHNdQE3OsajSGthJ/jg3Uw1mPCa1ZldHQKVI8MBASnHhgP4wmyrAe5ocH0aLRYbjFhmMMmcKBz5bm8l3rTa4UomMdNoxshIGAPiETxgy9vt6vO86/zVKEolca8tH36NBnf6KvGe2Y4FmUY9fWIRXBTyISrrp4EdSXnGuOYOpODNQCqO9aPJgs/MdrkeAeNVQS+ucRbJ785UEi+7y/EvR/4ua6dM8B+BarSJx3YBTRw7Bg2ucxUhnnm+CaJyJQ9J3OatxLXO4poGXLMTnhUnE6Kna51FCGSA7PlBr9xL7joo4/KZOa+lbEkAACAASURBVC/glbnnJ5Ponoxjmp5/eelrV2t1ct6fBSSoAKEeL8rf4RAVIPwOSv8jXdKVTOCmoAcfGa1YbjDKC+nikA+bNTp8a7ZmXpkaBDQa8MWZn0qibyyC40N+3OEslBcgd0jnhvzIT6T3eFoN8InZhtU6g/x+ecAju88PLHbc6K/GTIMZU00W8SpcEvSiIJXA3faCrNoaJeK4LeDGtwYTfjTZ0CcWxvlBH56wu3BcOCjz+MhixyKDEQXJJP7jrxZgQ+FOO8iXvkYDvpQM0MCb2SlX6fS4w54PgoOx0RA6xGP4yGzHar0eUY0WD3rK8arVAZpceUnrdFiqN8nx/wp68L7JisHRCBbrDbLTVvaFHP4KvxvP2fKwTavDNp0evWMRuefDoiHkJxN42eKEPbXTiNNA0KA8as/DAoMJg6Jh9I+FoUNKmo1ZZQYp/GC0oG0ijrbxmBjJI6OhrGHm2tGM/z3gxjyDEVOM6bMIvDjmt6b072m9JHFO0Cteh/6xCOYYaIzSwn+7xaNy32v1BswwWvBzxpPQKxbBhJAXVzuL8IS7HBNdxRgSC2NoNIy3LXbw+yUGE9Zl1lq5njGVkmteGPTCkkoK2HvUWynAjvqh8P/pwaKRpFwY9OE7kwUerRYT/R48anfJbpxruVnLNdKA3oyjwwE0SybwmcmGX/QGMbAPBKrwlNkBX2at6RVbkQP07vBW4EOLAxtqzbMomcA/fNW4Mq84DThTKdzsd6MouRP6ElSVJJLYrtvZIZZrT7D0lsUhT8ulAY88e85kQrxGFANSsCcT4g1T5H5HPnZodTCn2LyoHJ+a016JVI7XqEkygYHRMC7PK1EBQlZz6g8HQwMqQDgYWv2TjMmXFN3523QGHB0JYmQkKHtk7vD5EuPLmQaLLt0PrQ6UanV4zlcp7bQjqRRsWg1iKeA8VzHu8FfjQ5MVW3QGXBF04x2zA7OMZglbPOspw2adQQx3zzjdrnoZm0LXsSOZkFDDi1aXGAEKm7pQGIY4K+yXcELXWASbdHoEtDqkUinc4yjIhgcIBnKFxk5x9xOIHBFNhyXoLfinrwolyYTcT9dkHF8ZrbIrbZxMoCKz+6PRobG51VkEhgqupJF0FIrx5T11SsZrhGTojanUaPGt2YaPzTZM9FdjqcEkbnDeS27zcXoxQtDgaXcZnswABM6dbuZzQj7cZc/HiFgY4yIh3OwokLDMiGgIk0xW9ItG8LjNhUROeOBeXxUmG0z42myTOdHw3OwshKeOlufU+uOecjxiy0Ms4+PmP2cHfVirN4rRz5W7fFVYp9PhJatLAMIdjgKcGfbh8GgYeg1k/e+3uTA9J6zD8+ml6JaI4SFbnjxXBDLjwwFc5yqu4bk4N+TDMSE/ghp6EJDxIKRgS6XE68DzuN5/cxbJWl/td4OhpO1anYCmD812tE9E0SUWQ4Uu7QmyJZOyA+fzoQgBwqtWlwCgXCEY5T1e6UoDBArXiqBAkbxkArf4qnGDs7BGWCaZgqwD1/55bwXusuVhKUFJbjyqxtU0iGZ+59/ek+4ypCH5TuFvnGG1VourXCpA+JO8ahvsbagAocEuze8/sS7xKG7zVeEFqxOrdAZw53JixA9DCvjQZMMlYZ8YnlV6Ezbo9Nih06EwmcSgaAijIyFwN3S934177Pm401+NR6wurNMbZGfMnREBAt3/g2NhMVztEjEMjUbwusUmsWhF+BON5myjBSWJOFol0rs3xtzdGSNHoPJi9Q484CjAslohAMbo/+OrQpkcq0GTVAIvWJyIZV72SwxGPO2txE32fOEi/MtXJR4Autn/FnDDmUigTyKGK51F2JHZ3TLmPC4cxL+dhQIQJoY8uNlegL+EfBLn/tBiy86fV33AU46bxIhpxQBODLixWG8Uo/uEtxLzdAbENYA9lUSZTo+nra4sQOBcuAM1I5WJqadQqdXDmkyKu3p8NAxDMiHcCurkO5O1hpF92FuJrVotHrLno308lg4b6Y1izL40WrHQuJNXwHV4ylMu3pdcSNUjFsUUk7UGQBgTCWFi0IOvTBZxM4yJhgRABTU6Md7P2ly42VuJt63ObNijezwqQIc7+07xOB6w54nBu99Tgf9ZHaLLd6x2cetTCIiqNFp8b7LiH/5qvGmxw6vV4T5vBa53FoE8hisCHlztKhaAMNHvxhKjET8ZrQLWnMkkOiZiYrwJ/ihdYhEcFwnifnt+DYBAkLOhFkAgUOTzmgsQ6P2gHhWxppJyrSdyQip8Xvms8y4uD7hxTDSMG+0FWK034JqAW7waNUy/RiOeHxp+CgHCg94KvJQTBlKu1zIRk2fvKtWD8Pu/JP/kM1ABwp98gX/t7XWKpeO5dzvy0SUewVmhAB6zObFab8SwSBh/Cfvld7prlRgtDUC/eETCAvd6K3CfowB3+qrwf5kdWi5AyJ3fZQEPusUjeN/igBLmpWt1vc6Q5SAMjoZl99klGce9VhcGxiJwpLgDT6FPLIqVegP8Gc/G22aHvKTp8aCBfSATprgq6MZUo0Xi9nTuvm+x40lvBf5lLxCA8E9fNTbo9fjJaMF5Ia/s5ul6ZkhhhtEs93lYJITDIzsBwl3+KmzU6lCcSoqnhOPS28EdLMMFD3sqcIOzKMtBUAAC5/e4twLnu9h+XIuOiSiOCIfwhG0nQGA4gF6Oy4NeRDQAd7U0drNNFkRTQNNkAmMjAfzDWYxr/dW411GQNT40ULw3GrVrnYVieDrFoxJrvyTkw0PWPAkdKUKA8Ki3HP9ny69hwM4I+USXdJlTaDif9pZLqGmzTo+kRovusTCucRajdzyKQbEwHrG58KinAq9ZHJiT4RWcFvKjdSKGlToDOifieNCeJyGBUbEw/uUoFF28abbJ+lBOC/sxMhISbw3vk/8GoUWTVFJAD++LnqCbHYWiWwKELXoDZhtMOCXsFz1VabWyk//GaJU1oZeK3ooHcgDCXRnPV0BXkzBoSibRJhHHZa6SrAehaSKOm4Me4dcoRp47/1z6Jr1PD9lc6BqPSYiHXovb7QVYaTCibywME90LuaIB5hrM2eeD6/S4pwwVtUIePIWAxJBKqh6EX/tyU8/fqwZUgLBXFakH0MBd63djQDyKf9oLMC4aFKIcWeqdY1HcEazGFINZiIWUc4M+OFMJPGnLk50eDRbdtHsCCLzGc+4yMWD0LDCUQS4B49lvWBz4zJzekdPg8di7vJV4z2IXr4AuBTF6E4Je3OYogEcAAiQsQdc0AcJD3koYMi5ihh/48m4Rj8nuldyHXIBwo78K/WNRAQKcyesWOz412/GUtwJfGUwSqx4bCYqXhORMJcRwvaMA5wV9qNLqMMtoElBEg+nTavYAEIx41luBzZq005pxaYYensjxIBAg2JNJPOEtF4DCkARDK3NNFqyn50arxy2+KrxvtqF7IiYeG0VomB7yVmCy0QLuPO/PgIfu8QgmBLyy8841VQQIz3jK4M3MRxmHmSmfm214OwMQGLJhvH9wLCocDgIHhhiudRVhaIx8iQietLrwFMGG1YVFGc4C+SCTjGbho3RKxAUIveAtx+MWh3iIjgv7MSoWwfWOQrk011HJZCChlBkn72bIiMrcOH/F/f9XvxsjY2FZOz3JiVaXrMWTnnK8aXHic7MVJD+SY0JSqyJ3eivwo8maBaLK5yTFXhzw4YoMB0H5nPOiBycvlcQOrVY4F/SwKM8oAR09GnmpBIoSCdzir8YDtnz8YjDgzKBvFw8CgTBJhySCUvh3QGIrn83aRMQmibhkaVypehDUl/NB1oAKEA6ygv/ow9NI3+Grwvcmi7yoqnQ6eRmu0hmFfEgXL2WpwYi1md3Ov/3V+NFoxjSjBfd7K3AnPQn+3QMEGv2LAh6JHdNgTzOY8ZXZhn7RsLiwb3QW1khPEwKfpxLvWe0CUkjyu8lfLcS5PvGoZF28b975YiVAoHfi4YzhvCLoEe/A7gACQwzcVX9jsgqBkvwIghGGXG7wu3G7Ix+d4gyHhHG7owDdanEQGN9+12LH5UGPGAeGWh7crQeBIYYK3GbPF4PSSuLlacOpcBAYt6Z7ncRGhkMsKaA4GRd90zAzvfNxd7nsjhVSo/LcjYsEMEh4CXl4yFch5FCSQB/0VeJNs13ukUKDVpBKSvrkv/2V4v2hm1/yBzTp9SGxj0CN/A0lNY/ufZIG3zLb8YSnIgsQ+sXCiECDFsmEZCnweK7TPd5K8aQw5Y9rRXO4VafDi1anfMYMkX/5qnGLoxC94lEcGwkgnkpnLTDWT5Kn8Ctkvim4mSmg0ch5z1ud4kFYZTBKJgn5C1u0Bnxhtspa3x5w42GrE7YUwJTVh3MAAjkIBBPra4cYEgnc7asZYugYj0l2xTdGs4R3brXn40lvuYQIVumN4hEZGo/gP/YC8dQwjPacp0yycTbq9TgzHIA+w6FR1onhHHJTGF5KAyOmNgYlRMLv2iaiEo5K58mQm5PC++a0N+fPIGoWQ8NcRRUgNMx1aTCzopFm6iFDDA97K/CB2YaOiThW6/Ti6mfc+LKgV1K8mPZI9+dDngqJt9NwPOQpFyIf4951cRB4o9yJ/tdfhZttBQhoNcJX+FlnQL9YBE/XQXAjQKChoRGu1mgxMeAVI8OYMnfW1wfcWGYwSmZA2ujGcIe3UgiMlFYkjVmdYL4+P6ntQSBA4I6XO+arA25s1eoFIFAYVijV6oUvQYY+iW4ECH8PevCwzSm6YnYGj29B8mAkJD9zF7+7EAP5D/fZXAhDKwChZSIhREMFIJBTQRd/j3gUX5mskurJHPqPLOlMEPIQuHtnfPt1q1MySrgTZejlWU85nrY6xWVfkozjHl+V7K63anX4rz0/S/rkPVwT9EhKoV6jEQNGlz0BQpq5QcJd2qe+wmAUwEGpCyAw46JvIorHLU4x3qMiQcl8OD7sRweGhmz5OC4ckBDHRp0e/7YXwK/V4qnqHXjMni8eCBrFVywOuTbXiM/ePD29NzZZ0xHRsBhickCY+sgdOAENAcJSoxE/Gq2SAbNNqxeAQKF3YqvOANa46BWLio4VIUB4JcORyf3jq4ukeEw4ANbP+MJkwbHRMG5yFOCSoAeWVApvmh1ok4zj4oAH/3UUyP3lAoQynQ6PeSvwkSl9HxRqmfpgyINAh6CJISh6iy5meM+eL165cp0Wr1lcQnq83V+VBSQN5mXxKyaiAoRfobyDeKoKEA6icv/oQyuxcxIKyzJu7Al5JTgr7MMsg1nctMv1BpwSCeL5TFbCSeEA+sQjuNVeIEblUXc5rncV4WHZsdqkyNC1fg/esdgllEBSI3kKk00WvGlxyMv7Bn81+sbputbiPlu+5N7nCtMP7/ZX4WujRY5fpzPiW7MlS2xjzjlDGkxZZL0DAgR6ApSYM70STA+km5vGh+mauSGGf/irxDNSrtGhdSqBz4wW4UXkyukhv2QPPGLPE4Bwe6Aay3V6Me5fmKwCXhThbpAchBvr4CAwBZC7UbL9M+UKBNwwJJCbxUBdMk7u1mglns2MChpq7jpZT+GykB/PWxyS8UGuAA0yARwzPC7P1HIYEQliQsgHSzIptQzIEWA4hEKjxHg+hWEdku6YIcF1vyDoEYIqXfQ0eDTeSjZJLkB4nB6EvGJBEQz7KAaQrnKGfqhrpvixqNKt/ir5+UZHoRxHMPNK9Q6pN0BwQ2OrFKRiwuWQSEjc6qz5UA0tmOtAzgjvNVcYYuiUiAmxkZwFpql+mQEIGXwjQKFJMonncgiABAhfm+3YrGP1ibRQG0xzvNLvzaY58nN6FOhRIyA5JhLCPx0FaR5MKiW1KrrGWOBLhy6xqITXqFfFg0CAQPLhVc5iAUWK3OutFED0i8EIczKJpzNepUd9Ffi7s0h0RpD5gsWB0yNBTMr8/ZF8mUvo/aO+c1SA0DBXTgUIDXNdGsSsmNr3iK8Kl7iKcVLYL8Qysry5m/nSbJMc7hOiIczSGaHVaKTq4P2+SjxvtYMJZdzND4xHcbWzEI95K+EHxMvAF/ij1jzJE2fRo2qtRuLKTKVkfJjX4e6daWpkm/NFOtVgxtcmK5ol4rgzUI3XzTZxudtTEJDCXbMSq1WKIy3XGyWeT4DAndhd9gIMiEVwRtgvLnES5/pGw1Jw6OKwD9c4CyWeTw8CuQssdsQ6BQv0JnyayUpgjQdmUpwUCeJboxkfWBwyT4KkR2xOmRNJdAxRkIzH7whvSM5jHFupocAdIisr/pRTi0BZdAIcGn2mTt4uAClNf7vHVymkO8anGYcm4Y0BnpJEAu+abbgw5Jfd6L8cBULePD/sx73WPCE+joxGUJhKSFiBhFJmW3AdqFeCmSzxMhaSXH+ux89Gk3zO+QyNhDEmFhKA8qolTf6kZAGCxYHnPOWYaTDBk5Niydz//vEIJjqLxd1O0HJCJIhyjVZAB++BnBCGC+jhYD0FJQ7PnTe9S40TcalrQLJgYTKOBSxClUqJR4UAZ47RhNkGsxjRv/mrEddqsURnFE/EfL0J32cAAutINEokcGo4gPfMNnmGFSGnhaWhSHDNzUKkcWcthgl5jYTnQHDFokr32AuEUHt9wCNVJ6ViYwoYHQvjE5NVwlzMdPnAbBcviAIQmOnDkNIWEiezVUQg3qbb7AUCELg2JRkA87/q7RIWYm0IJdOnXTIB8l3Ia/jGaJGKpX90UQFCw1xBFSA0zHVpELPiy5ku8hdsLtlh8iVI9z93sPfa8xABhBQ3W2+SuDCr9pG9ztgoX9TcMdLQc5d8XsiHz40WVOj0OCPkF77AKr0BI6MhTDeYQdLckZEQPjTbsEZirWmhkRgdCUrxpUfs+WgTp7EL43mbS3ZsLEzUIRGVYjviCs/sgvmSn2yySkGgZsk4Tgv65BxyFWjAH7e7xBhcFfCIAVqn1+N/VqcYRFZ2rNDpJHOB1+d9KyQ4urU5FzL3SdhTKi/WtWB0tR8b9gvLnkZZIfjx2HOCHvxiMAlzvbYwc4TFqEq1WtG9kp7HTIwpJgtC3HmKglJSL4JGknNkDL91MiE7Ue6SeX8EbaxBwUJJ3+S4tXk2wcyJ4YDE4iNaDa7yuyW9k0WqlDTD3LnRW3NmyI+5RrOkaFL+EvRJZsFnFrusZc9oRDgLirCkMw0475Mf8zlgnYuZRouQO2nw+UUspREeC1MYFSEZ8z/+SgkjkW+x0GDGaoMxW+2QQGl4LIQjwkFJvyRw6BmPoFKjE89ROsMB2eyaE0N+KfhEYutbVofoRxF6mBhqUspFK58TPDJN8UFHQbYqqPK3QFrpCeGAgA5FCFQ/ttizIIefcx70eD1rcaJSq8U//dV4ypYu8kThM3thyId3zHbhQJCrQZ24NTrJtiAQUp5r1vuYZLJgkSGdIryn569BvETqOQkVINRTUb/xYSpA+I0V/ke7nPIyVOat1KyvqzY9DQD/o7FSXr1KLr3i3pUXYk56WK4+al8r9zuaDeU1vKfjcnd/uR4Fuvlp/PkviV7KvDiWMuf6lK3Nvce9raVybNqU70yJ4++155E7Fs+j8aFxzZ1Trg52d21Ft7lucq6ZkoJa+zzOQ9nJ7kmvteenzItj8+f6url3t/a7ux+OTz3ULHNV8+jaPRz2pBtlrXfVQ/q5rf0MKGtR3/vb3bUJEpS/Gc63NgDb0z3kPtPKs7S3Z++P9r0KEBrmiqkAYT/WRcOSqxoNkrWYyDWMnVab/V6v18NkMiEQCMghnTt3hsfjwbZt21BSUoJ4PI6qqqpdZpKfn4/q6urs51qtFs2bN0dlZWV2LIfDgeLiYmzevBmx2M7iLftxW+opqgZUDaga+F00oAKE30Xte72oChD2qqJauxW9HqNHj0YkEsH06dPrBAndu3dHq1atMHXqVHi9XjRq1AgDBw7EtGnTEAwGMXbsWKxdu1b+GzZsGKxWKxYvXoytW7dKPJZC4NC/f39s2rQJy5cvl+sYDAaMGTMG5eXl+Pnnn+W4wYMHw+Vy4YcffjjgAIExT5a0VXZV3AGlGzSx8VEMrRNxcWHnCsMPxamEuOe546Vbui7hjpZxfgqPIzN/d0JXsHJdnsFqg7V3VXWdy/OUqyu1/+s6jvfHNLzd7bL38RE54IezOBQLN+V2IhwVCUm1wvmZAkR1XZRZFnSnM349OBZBhUaLNbVIfbnnHREJSqGo2pUo6xqbRabaJ+L4IZP+yvVgWONLk22XLpq5nhSOVfuJYIiHmSUsbpQrJ0QC+FlvknAOSYv0duQKf6Obnv+Sm8JQTF2dEfm8cKxPTLYaYQWO1TYehTOV2qVLJft/6FPIVN884EuqDlhLAypAaJiPhAoQ9nFd+vbti8aNG4uxp/GvLXUZ8V69eqFZs2b45ptvYLfbMWLECMyfP188CDy+T58+KCoqwqJFi1BaWipD0kNBkNGtWzfs2LFDAAFBQocOHdCxY0fMnj1bPA8EGEuWLBEgcaCFBubqQLpiHF/dzC1n2WXGfu/3lqMomRJ2OrkEinSNR3Gj3y3FhWicbgl6Ecu82AkBlAjzQr0x21SIhLvH/JVYrdHt4qpmpgDTBBVCGePSTHmz5iAEzi/dLnmn8Odr7AXZ0shsbnNtyIs1mtyuB+nwQotkXO6DFRsborDrIbMSyKdgV0eaROqZjai4JuR6LDCasFBPQmZcmjqxgiPLRLPrJQsQ3eGrxOsWh+Tp1yVcg4d9FZIaWrv1NY8nGMltZHRuyCtEwf9limOxu+SEAGtWFO3ipifRk9UQOW/+P2s1KICPYw+LhHBMNCTkylw5K+STbBamEf4zk52Q+32AXRadhVKB8pKAB70TMalJUFGrxwSrPr7iqcCFrjQJNVfIKSH58cmclEeC3/8E3PjCYMZ7tbJXGuLz8WeYkwoQGuYqqgBhH9YlLy8PQ4cOFXc+jXJtYQiAO3qn0yneBZ/PJ4fQYxAKhbBs2TJwjJ49e2LhwoVZgMHwA40+ww7r16+H30++f1oIEvgfAQWBBI+1WCwynk6nk9/pleB/M2fO3Ie72fuhjIuyYuAKvQnDoyEEkSZg8aXKlLOpJjOOljQv1rnfabGZicA2xv+250kXRGXf929flRDimLfPNDmmMVJYupb9CF622KWUsCI8j8ViyPRnqiWFX7NgTrqFMXPkk7g06BOvAqsPclzlW+4mFb8Ed+GXhrx4J4e5rlzntFAA99rzd0mZ27uGDu4R1D9TKAkKyPafZLRIainJiEyDJGGNDZuYesjCUCT5DY2GpMTwDc5iyaUnQFinN+JRT7mQIhmEol6NGuA5i0PqBFD+FvBINUqSM2t7Z+hF4tr/21EgIIyehuPDASzTp0tgTzJaQcDA+hg/GdNkRP5HJv8mnQHnBb2SEsq8fqaHEiCwMqMiHWJRKc/MktcEOSTeseETaz6QRPq6xSlpg9zRK8L0w1v86SZK9BRxXuwMyTLKX7CMdjKefe7ofRgTDUvxLtbC+CSniBbLgrNuwVPWdH2B8ZGg6JiZCZ+abFnewMFdaXV0FSA0zGdABQj1XBca/+HDh8Nms2Hy5MlikGsLvQT0MDAkwPABhYCA5ylCzwBFCSXUHoMggaGJuqRt27Ygn4HStGlT8TIoHgfyDwguDqSQJf1y9Xbc6SyUssKsW8B87yuDXimFSwN8bcCNOLSSU0/jzLAEhRkGZNvTtc89O3eMLJrEbn+1uwgqAOEro7nGC5maGhiN4CvzToCg3B8NAs9jnXuGOr41WtAhHsEWnREvWR27XIMZBewpQSNRm4hGd/2djl1z6nktGheF5Kfk9fMzdjrkvXGOdHNzPsykoPtccXsr3/N6zOVnCCN3DIIhUypNWGSxn9rET4Zn7vVUoDCVlO/YYGqR0SRtkZ+0OqT+w2O+Ctxry8NKfbq50pBoCCeH2ZehSAAC0w6Z889GSi9ZHFLKmdkKbD3NhkzcfRNwsET0tXlFkuGhCOfNNWU7abaC5tpRF894KrBUp5fGU6xIyBLCtzJTQm+Uz3hez0QU75ls0kGSAIGZHPRgsLImwQ3nqQjbObN50Sa9Hs9b86SGwZueMlyR6ThZnEjU6J7IEtpcA9YTUACCPHMAGiXjaBFPN/RS1pl6ZLYGa0ZsZTMrY7oqKIUAoXUyLq2hH/BVYKPOIEBTqcFwIP+e1LF2rwEVIDTMp0MFCPVcF+7iyS3gzl8xyrVPPeyww0AgMWXKlCwfwGg0CsdAEXoYCAJWrFhR55UTiYR4Htq0aSNghEJyY23jz2sRpDDUcLCEKV6vyIu6CBcHvJhiMuO8kB9r9fpsahcr5YWlBLMBX5nMuDrok5fvi2Y7ZhvNGBcOSC47K+RJVUUHqyXWdPMzfvyMrxILtXrpaJgrrNf/ttkmvRAUYc446wr0SETxqckqjYN4TbaQPj3ixxCmQVqcUmchq/doCDcEvViio4nbKbwci+/8015Yw4PAz48MB3BaNAh9IglotXjOYpfaCA96ymXnzFbQNKdfGsxSUphuf+rjdbMd35qsks/Oe3chJUWZEhotnrM6pP4BwySM9bOcMIEYqzU+aHft4gJnCWQJFZgswiFgoaPG8ZjwN7hzZlojq1qu0RkkjXNwDkD4awYgnB8OyH0/a8uTmgb3+iqlLgFBG0MLj/jY7VEHG1JSallEA2zQ6qWvA7sfsgDW3RmAwHbQzNlnZ0veB1MD6Q9gKet04W3g+kA1FutNogcCBMIy1gSgF0meAQKJDFhmEaSjoyHxUPDyBKGvu8twlbNQakmcFfRLeiO/ZDrsqxaneFQUgMCMALa/1iZTcOu0klLJegtM12TdBj4fL3nKcbGrWNqU58pRkQBaJ9jd0yF1GdgmWikCdbD+rtRxd9WAChAa5lOhAoR6rAt5AiNHjkQ0GsWMGTNAI54r3MmTK9CyZUvMmzcPZWVldY6qeBho7N1ud41j6FHYvn17duzevXsL+dBsNgtgWLVqFbp27Zo9h1wGchDCYZrntNBrsTvwUo/b3OUQuoVZyt32GgAAIABJREFUYfBvzkJc53fjMZtLmtP8ojNiUCyElXqTNOoZFQ1ji04nn7PCHwsRzTGYMMlklR0aDSdbDdPNXZmpxDfDYMIPJqu4dRkeYPvc3aXAkWTH/gbkNPSJhnFFyCsFcNgXgAS2C4JesHLCc5l4+PBISIoM0bixWBJ3lWx2pLSJru1B4O8s/EOjpeTBs0jUQ2x1bXZguskMchi4M7/FWSitibnbfdbqkv4M9KiwLj+LJtG9zzK+1ziLBCAwBPOEzSnzOCISkFoP7FpI40Zj9VgmHn9dwI0dGp1Ue6w9PzbKcms1Uv6ZfQTYKJjtflkBkj4MJkMyXMOiULkA4aqAWwr7sMgQ/U5spNQ7GsHZIb/E7hmiIFxiZUp6UWgY6dan0KieHfThJmdhuvthJIj77PlyPHsuvGxxSGEido9kDQTWQuB4LFhEuTHgxgK9UVpPnx30YmwkJMc3TsYx0VUs3zPvn/c0NMNBYOVGCj0KCkBoF49J34tXrU55Pq73V0vZaBaiUgACz7ko6BOiInXBMt/sw8BQ1y2OAiHavigAoSgLwMjr4D26kkl5dqQVeAryc64nJ8Jqnva8bC2K/fk7Us/ZuwZUgLB3Hf0eR6gAoR5aZzYBMxFmzZolKYa1hZyAUaNGoaKiQgDC7oSZDByHYCA3RZJeB4KOH3/8sYbB5ziDBg0SrgE9DgwxUAhYmNrI1EhmUyjhCoIDgowDJYxJ3+uvlhdzPJVChVaLdTqDGGUW2SEAYMEcurkvcxbDndmdTQx4pLphbYDwsKdceiCQg8AGQywE85C/Gu3ZfjiVbgrEazFMITUAcomIWi0usxeIkWGXPjk4Y0lPDvulWuHbipch4/6n+5xFZ172V4m+eQ1dZkxegwYt12HB+PTETBfBY0MB8UZMcJVkwwJsnMM5PV1djmdtTtmh0mC+UF2Gm1zphlID2PI46MVlziLxcvSOhnFdXrGEF1ha+CVvOZ4z23FpwItn7C5xt1MY1z87EsDFzqIsUZNhCRpu9mEgMGC1RJ0mhaJEEoNiEXxqsmTj/TRkrDRJgiKBDMmC9DywqBEzAUjym5+p7kg+AQsw5cqVAY+0RSa5kcLiPxODbtzkKJTSy6xA+X+2PLnfpz0VMGXCKXT1X+8skjW7018lTadY6IqdF+fojQIC6UGgrllK+wFvBW6350vVzIGJKG6wF0oZZZIU6wIIJAxe7vdIKISSp0nhUYurhgdBKXhEsiOzFRheoeeF4YxpJosAitoAgYCR4ZYjoiEBFq+w7DLvwVclz6jSt4OPGENitUHbgfobU8dJa0AFCA3zSVABwl7WhYRDZh0wS6AuYiJPHzJkiHANmNmgEBNrD8txyEUgV4AGn6EBpS4CzydAoHeidm0FBSDwO0XIc2jSpIkAEpIVmSJ5MIS7TsZvGUtnWhtr8r9udeG0cABfmyzoHo/ie6MFZJvf4izKpq/tDiAwxMBsAV+Om5fj8zrX+KqlJO5yvUl6M9CYkJmfKzQEfFHznHv81dJul6IUO1L8Oozz35Cp8c/v5Bop7j6rpAU1wQevwVbN1Tn18EluVFIvTwn5MT4SwFV5JTWK2rAZ1fPV5XjC7pIQBo3Mc9VluNFVJN4HVmG8JuzF5Y4iIeQR/Ci6YfbHC74KvG6y4vyADw/Z8zAvEwYhifKvIR8ucBVl0y2p8zPDfjAG/4nFJtkFDJ/QCH5ltArIIn+gXKvHHIMZ35osAhBOD/vFDX9+yCugaQ6rFsajwhMg14GGmCGSXGG3S3of2GBLdJoC3Do93rDYBeiwo+WrVocABIYYWGqYu27G7clBIGg8IezHkcwWcRSCHhFmWEwxWmpwEBieYQdM2Zn7KiVExK6PuwMILFXdOxbFh5neFhOCHiFF5noQFIDAqp/HZQACnxOmziqNptIhhp0eBOXeGWJok0jgqUxfBvagIIHyfntevYs/HYy/vUNtTBUgNMwVVwHCHtaFhlzJSiCvQDHouaewcBHDAStXrsSaNWvqHI07fqYjMhTBdEUCAgKJpUuXol27duJVYJZCXaGJXICQG8rg9eh5YNojPQnkRtCbcCCFRmtkLIzm8ZiU+KUr+HZnIf7rrZC+BuxgR5Y647wf5TQn+mvAI2WCSUyjQSKQYIhhTyRFchD+mWmXy26Q3CkrL352KXwhEz7g/TEkwfbGtzkLswZduW+6mG/zVeF6Z3GN7wbQcIfSO3vWzH/KUyatdSVmnkphstkqOfyKcDd6XdCDq5xFUkeA6ZUMH3xhtuH/3BX1Agg0rNTftY6ibGvsh3yVuMfmwo0+t4QI6DonzCEDn+2PGZqoXSeAIQYSRAlI6FHgsQ/a86Vs713SRjtP2kBTWIvgjHBAAICL3hOLQ9IcaSwf81TAp9VKOiFDNrnCngrsgcAOkYpwHuQ80HPypckinQYJvggQbrcXgGTBx6TNcRogEDycFApI74B/BtgnwCrzPpdZDMkEphjNErb4h7NQQGK6b4VGGiLtDiAwxHB4JCTNvLhux0UD+MBkw3KDaReSIgHC8ZG094QAgVCneSImAOvOoBsXOuvgIORkMfC+2Ub7Xl8V3jA75JnffXWOA/mXpo6lAoSG+QyoAGEP60KXPuP+9Bxs3LixziNZuEghJpKjUJfQiLN6Ir0GBAHkD9CbwIwEGn16AHY3vgIQmCI5YMAASXEk14CZEhQWVOIxJCzSg3EgQQJ7DpBpv1pvlDj1WUGv7IZpKL8zWaQ98WOeMmnnLDHcjDA1jS7zT81WbNHqBSCwj8IDngrc6shHqJbLlq5w1lxgnj13biS+/c/i3Fk4J6cRUy5A+GteyS4Agd8/7uaOfidAYBjhAW+l1P2nu5mu+kelu2JhtpshQxa5bmQBIZ5y2elOM5gxJhpEqc6Ae+x5eKGeHgQCBNbSpyFlrJ06IdihcX+uegdYdWGu0QQfa+5HQ3jeYsfnOWRMRZ+5AIFGeHQ0hHOCDDskZdy77WlyH4WfKQWEmMVALsgSg1m6J6aSKSS1Gsmo+Je9sAYZjyEGekCUtta5zzH1d6uvSooJsXXyU54KCTkxVs84Pg0yAUKusLEUGz7xHGZAMC22VKtDh0Qcf2XHxpznhcDz2Jw6CLkcBHqvWEeB4IDCVfrWbJNMkdwsBsIjdmRkwaVrHIVCoGT443lvOSzJhPRyuDXjVcqd51GRIFrF43jO5kTreFSyMMhZeMhfhVfNNgm5qOGFg2+8VIBw8HW8P1dQAcIetMb6BTT6u6uYSGJi69athXfAYkZ1SYsWLdCjRw/hLvA4AgJmKPA/Zjjwd/IGSFxkyCBXOHaXLl3ko3Xr1kmBJnoOal+LJZl53IIFCyTkcCCFL2vuWhmHJlOeBoFudgoNDYHDSp1RXL5MY6OwGQ25Cex6OCgehT2VwkadDu0TMQEB3LW72fbWmifGY3gsIrHuYyMBjIiGUJRMYrbeKI1rGLvnTjChgezwmSNP4804OGsv1FWnkSz4y1xp8EAjwfbRTLtk/v1lIa+kwfE+2AmPqZoMOdAIssDOT6adlSGZxTEsGkLjVAJlmvR3ZP4fGQ5Ksym6/Dk3goD0d1ohafaPRfCNia51n2QJ8DvWCNih0cqulPK8u0yK8zC9rySVxEKdAQuM5ho7VjboGR8N4rhwQGLkNLCDohFJISSBdKbejLaJKFh54GOzFdNz0vd4jasD7kxRpZjs/p+0OoWrMdHvRqNUEvfZmM6XLg7Fbpc9YhHxUtTO8mB45thoUNIpuc7PeBkmsaFCq8d5Ia9wE6gL6vqYsF+6Y9JzwjbF1OnhkaCsE/kIDJHMM7IeA8mtIbgSCXSPxyTLgdkNlFyAwNBGbekeiwgB8YhICGw/zrFZE4FNq5g5Q85DqVYv12ZQivdDDkQyBcS0GgGf/IxrfkXAjaHxKFh0iX85bKjFMZh9cnnQg7hGh//Y83apwHgg/8bUsVQOQkN9BlSAsJuVoeeA4QO67uty/TO7gEWTmI2glD2uPRR3+yzLzH4KHIdggemSLG7Ecsk0+jTu/IzjcSx+xpLL5DQwvMHwAfkJ9BTwZ86lrhoMSm+I3WVQ7O8DyLg5i+CQUMjOjDQiuZQt5UVLY8HdMYX1ALgTY7e+/FQi3Qq31gRo6JkyOC4SxHqdPlvhj62ZO8eiKEglhbikkzoBEGIjWe/ScjeVwqVBj6TNKe2TleHJXWRhoRetTgETJKuR0c6MByVDgZkHdF3TBU+Qo1yDZYi/r6P98v7q7tKgN+2yztnhcywCmBfdZbjLvrOVc13XoM54n/z3DYtD9HlENCjFhOi6J2GTBpAZAswGecfiqGHcWdCKKZTkFdA4K0Ky5ISgV9oSE4RRCDiOjASEb1KXsD4AaxpwLRmuWWxI1zzI7ShIPgY9G1y3nw1mMbR7khPDfmkJzjGnZjpv8nh6QW7xu/GwzbVLd0V+T8BBXsJso0k8QpzDJSGvtPAmSCDBsnc8IkCF60+vg/L8+bU6fGRmQmdaxkSCAtLo6aAucgGnK5UE62ewe+Kvbda0v8/QoXKe6kFomCutAoTdrAvDBpS9NWRiBsHuih6Rw8AMiDlz5khNA2Y6kHtAQEE+g3Ier8UUyU6dOokHgHwHVlskeODPFAIEfk8gwXGV+fE7pfgSKzyyXPOhILtLiRR97KZb5G+tF1ahdKVSNQwS50CAc2XQg/fMNuFw7Ivsy739EXSkGO7asGRv91n7+70dvy86Vo/97TWgAoTfXuf1uaIKEOqjpQN0DDMZ6urfoAxPw8+wgxImIBjIrXNwgKahDqNqQNWAqoEGpQEVIDSo5chORgUIDXNd1FmpGlA1oGrgkNGAChAa5lKrAKFhros6K1UDqgZUDRwyGlABQsNcahUgNMx1UWelakDVgKqBQ0YDKkBomEutAoSGuS7qrFQNqBpQNXDIaICZKM94yqQgGZt+sTW4Kr+/Bg5JgMDqbWzpypxoVVQNqBpQNaBq4PfVANNRrwx4JUVaBQi/71rkXv2QBAhs2rNvyWUNZ8HUmagaUDWgauDPpgEpZpW5KZZlz23V/me71z/S/RxSAGFUJIgrwn6pva+KqgFVA6oGVA00LA2wENot9gJsrFW6u2HN8tCZzSEFEBhQYHU1tXnrofOAq3d68DQwvH8xClwmfDppS50XadSkBbr07Iv1q1dg47pVB28iDXDkvoNHScXUpQvmwOd1N8AZNswpsbQ6K3+qW7iGsT6HFEBoGCpXZ6Fq4MBqoHM7F26d2AvtWjlhNuoQisRRuj2AU6786cBeqNZobzwyErx2v+M/q/FNq7YdMXLccWjdtiPiiQS+/OB1LJq3s135QZ1UAxn8hDMvQo++AxGPx/HL0gX47rP34fd5Gsjs1GmoGqifBlSAUD89qUepGmiwGvjs+bFo0dSO2QvLMGdhOdq2dKCowIzLbp55UOdcF0Bo1rINzrviOmmxtXTBbHz18VuI7abL6UGdXAMY3OZw4eSzL0Hrdp3gcVfilSfuh9dT3QBmpk5B1UD9NKAChPrpST1K1UCD1ECrZlZ89vwRWPJLFc6/fhriZOD+RlIbIJgtNky49hbkFRThq4/exNzpP/5GM2m4l9EbDDj2lHPRs/8QLFs4Fx+8/lzDnaw6M1UDtTSgAoQ9PBLRdm2w/YxTUTB7LpLJFKpGj0DcbofR60XL2++RM1MmEzyjR8I9fAgSFjOMlVUo+uxLWJYuT4+s06H6iDHwyPcWaKMx6KvdKP7wE5jXrIXn+GPg7dYFzR59EpUnHAdfrx7QJBIo/O4HOKdMY7coGcN9+GHwDB6IuMMBg9cL17QZcE6fBU0kAt+4saju3xeNPv4M3j694OvRHdpYDHkzZyPvy2+y86g8/hj4+vdB3GyBLhyGsaoKJa+9CUN5us100mZD1VHj5JiUTgfzllIUffwZjBs3p8fQ61Fx0vHw9e4p96oLhWCsqETjF16Fzuc7YH9cNrsThx15Atp16i6NqLZsWoefvvkEFTu2yTX6DRmN3gOGYsZP36JV2w7o0LUn9Ho9qirK8OpTD8CVV4CTz52AzevXonTTOgwbcyScrnxEwmG88uT9CPi99Z5rtz4Dcdj4E1C2rRQfvPEcEnGFa13vIfZ6YKRjB1QeeQTCzZqAwVfq1DFvPlw/Td3ruYV5Rnz9yjiEwgmcdMUPqKyO1HlO1/YuXH9pd7Rp7kA4msDk2dvw3NurUOWO4rSjW+KU8a3x5P9WYGDvYowf0QyJZApfTy7Fo6+syI7XtJEVl53VAT07F8Cg16Iw3wyjQZsNMYw84jiMGnecGMJP3n4ZicROXfXtcDyaFHbEmtLZ6N3+KOyoXosVGydjeI9zkEjGMXnRy6j2lcJosKJXuyPRrukAaLV6VHu3Yt4vH6Pcs17modXq0L/jiWjdpC+MeguisRB8oUpMWfQyAuH07rxZUVf06XAsnNYidjJDMOyR681c9lb2XhoXdED3Nkcg39FEmqbFEhE57rt5T2SP6dl2PNo06Q+TwYJ4IoZ4Moqpi1+TebJBeKvGfdC7/dGwWwoQiviwYtNkLN9AUFQTpFltDlxw1Q3ILyzGG88/ig1rVu51XdUDVA00BA2oAGEPqxDq2R3rJl4B17r18LZuBUtVtXQKDOe50PmKq+XMquOPwbZjj4K9dCss5eWopHFOJtH+ljugq66G5+jx2HLS8TD7fHCsWYe41Ypg40Zo/Na7sM9fgPJLL0T5gH5wbtwIb4sWsFZUIFRYiKRej9bPvggbjzn/bJQNHQxrVTVsGzbC37IFQsVFaPLFVyj4+HNUnX0Gto0eibxVa+Bp1wb2bdsRLshHzGpFm8efhnXxUlSecya2jxoBS3U1HGvXI5qXh1BRIVo89hRMm7fwzYvtl12Mqj694Fy3AfpAANXdukAfi6HdP/4NbTCIiksvxI6B/WGtrIR93XpECwrlOq3uewj6yqoD8jwbDEacf+UNaNysJTZvWCPu6bYdu6KybDuef/RuxGNRjD3mVAw7bLwAAld+Icq2bZFdK+WBW69BYUljXHH97aiuLEdBUQkCPh9CwQAKSxrh0btvgm8f3LwnnHEheg0YimQygSfv+7eMeSAl1KUz1v19InTRmDwDBo9X1le/bTtaPPFMvS718v3DMKBnMbaXB3H9PXOxaGV1jUSdRoVmvPvEaDgdRsyYvwNF+WZ07ZCP59/+BY+9ugJXX9AZl57ZGdPn78Cg3iXYVOpDYZ4ZLqcRtz78Mz78dpMAgXcfH4W2LZ0o3RFERVUYndq6oNNpsgDhsuv+A4czD0/892aEQ8Eacz+sz6Vo1bg3ksk4UmzlbbTB7d8Bk8EGs9GO+as+wcLVX+L/2TsL8CqrP45/b9e6uzdg1IDRMBoUREQUuwu7UEBAQgQVFBQRRGxEBYOU7o5RG+vurru6uf9zzriXASvYcJP/7zwPj2731Ps57935vr8479Aez8DfrQ/ySpJRrS2Hp2NnGIw6/Lp3BjS6coR1exIdvAZCXVmEvJIkWMhtYaG0x7YTn6K0PAdyqSXuH/oBxCIJcouToWevfbZ0gVZfhY2HF/A5SUQyPDTiY4jFMpSU58Bg0MHB2hOVGjV+3fsuF6WDuj6Bjl4DoNFWolidBZWidpzNRz9CXnESHKx9MH7AO1ygZBbEws0+EAqZFTYeWYTCstTr1o3dw4889wZiIs5hw08rm7WuVIkItDUBEgjNEAisiuumrbDdvQ+FD09GQZ9QLhCM1laIXzgP8pxceH38GQRaLdTDhiDt4clwY/W3bkfeow8hP2wQvDf8CYvd+2pHY1G6QiEEej0XCHl9QiHSaOG9cjUU0bGo6NoZqS89D4d9B2G/fScSPpgDWVERvJZ8DmFFBYwWKiQtmAODSAz/BR+hbOQwLhBYHz5frIA8MRmVnYOR8vLz8Fj7K6wOH0PmW6+htGMQfH74GcpjJ2vnIRbVpnwajNC5uyFh9nTYnjoDl+9+4h/nPzQZecOHwPeLr6CMuIT02dOh9vSA7+rvoDhzltepEYshYFYO9q8VSofOIZj85Es4vGcbtxqwcv8TLyKwU1es/mw+CvJyzAKBbUJrVy9FTmY6nntzFrcS1BUI7JXYURfDse2Pn9E5pA/uuOfBGxYITHgMGn4n4qIjEHfpvPkK+w8dAwtLq3qv2Ggw4tjBnaiqKG+SSOqc91Du4Q7fr1ZDea72Vd01EgmMlhYQFTXPX21rLcUn03qhXw9nVGv02H88Gx+vjjRbEz6ZFoqRA93w5LuHcTGmGI52Mmz+ZiQqq/QY8ehOs0DQ6Y1496MzOHgyB4G+Vlj7aRi++T0OX/8aiyUzQjFigBs++foi/tiRhmqNAde6GN794HPkZqXjp1WfcRFQtzCBEODeBzGph3EpZR/uDZuNYnU2dp7+AveGzUFUygHEpR/FfUPnISXnHPadrTXF9+00Gd38R2HPmZVIzjmLuwdMh5OtH/af+xaJWbX3sUgohrHGyMdUym3wwLCFyC9Jwdbjn/DP2dM+s0xodBVQyKwxcdBMyKQq7Di1HNmFsfyJ/+GRn/CvAhMInk7dMTp0CjLyo3Do4k+o0pQiwL0fhvZ4mgsEZtV4aORH3FDw1+H5KK8qgotdEO7qPxVFZRn8d/WVN99fzAXv6qXzodXUb+lp8oahCkTgXyRAAqER2CYLglVaOjw+WcrN+VUh3VDt4c43/7I7RyP93gmwSkqGLDXN/Me9qH9f2B88Aqdf16Oydy+kPfkYasQiWEXFwObgYSgSkiAsr908TAKBWwM2beMbtt7BHglzZ8IiIQlOG/5CwvvvwWXrNtht2W6ebeETjyBn0AB4//gLtN6eXCC47N4L+w1/8z403l5InDEVbr9u4GOqhw9Bxv33QlBTA+uIKFgfPcZdHMLKKt5n4WMPIydsIGwuRUGSV/uUrLOzQ0n3rvBa/R0sT4ej7I5RyJwwHkKDHlYRl2B99AQUiYkQVFW32i17/+Mv8tS4mMhzUJfWpoc5ubrDyzcQq5d+wDcgkwXh4K4tOLhrM68TOmAoZHI5ju7bYbYglBYXYc3nC7j1wM3TB4GduuHEoV3c1dDS8uTL78LOwbnebpgb4seVi1FSVOu6aagYLS0Ru3ghFCXF8Jn+foumJBYL8OBdvnh8YgCYKyA8ogDTPglHTn4Vtn07EvY2MvxzMN2s49hmb20pQc/xW8wCYfOeVMxZdgFMKDjZy3m7tRuT8N2GePzz3UgUFFdj4pQrcQXXCoSZH69E7KUL+OOn6y0fTCD4u4Vi89GPUakpwQPDF+Fk1AYuCh4YvhDRqYcgFSvR2XcoMvKjuTWAFZXcBj6uITh44Udet4vPKPQJvpeLgbTcCMRlHEVuUQK3ELDC3A4TBs6AtYULtw5Epe5HTmE8itS1qZhu9h0xrv9buJRyAMci15mZ1xUI4/pNhZtDB/xzYikyC2pdhXUFglAgwvgB76KsIh/peZHmPoI8B6AGNfhxx6v1ruWL78yHUqXCqiVzUVHeei65Ft041JgINEKABEIjcEwCwW3vftj+9sd1NfOYe6BPKBRlah43ULdYRETC8edan6c2wB/ZTz+Ocgd77hOVaDTwXrYCsoREs4sh+PlXzM11jo5InDsTVhcjYBkTh7RHH4TH+j9hbbJAAFDfOQZp994N97+3wGhrzQWC/7IvIb9U6zM2C4TfNsDmsi+7qkcIch68D5W2NnwesrIy+Hz8GcR5+ciYNR2l3p5QlJbVWgTqFPt/dsDqch+V/fog594JqLKx5n0oCovgvWgxRKXN9+s39o188d35cHRy5bnjNcarfblb//gZCTERZoHw+/crEFvnqd7Ur8nFkBATid++W35L/gAw6wR7Nq2/1MDYDItKVa8eSJryLOyjYuCytHXmaWMlwc+fhsHX0xKr1sVgxc8xOLJ+LBRyMYpLq6/2jtcAj711CJPH+XAXw1sLTmLXkdo4DyYQtq4ZiV83J+H7PxOw5+cx2LI3DfO+qLVysLJuWRh3M5jSHGcs+gqJsZFY/8NX12HhLgbn7vhhxyvcZ88Ewu7TXyGnKM4sEDwcguFo64NKTSlqruF3MWk3IpN38379XHujb/D9XDwwd0BFVQk2H1vEn+RZYS6EoT2ehbdzNwgEQu4eupS8Hyei18PbhVkHXsae8K+RnH3m8jwFly0INdyCwNwPSpk1vv1nivk66goEldwWI3tNgUZXyV0YdQu7Y/84+D50+utF6MvTFkAqk3OBUFXZtHXplty41CkRuAECJBAagdWUQCieOAFZY0fDbdde2G74q0nsGj8flA3oj/ywgVBlZcN77of1CoTS0SOQed9EuP65ERbh55GwYA4c9u6HY50xcl96HgU9usP3m+9RHejfLIHAJshcAhofb5QMG4LCPr14fIXHoiXIe/4Z5PfuCe+f1sHi8NFGr6VGKuF9FI8czmMWWOyD++KlTV5/cyowP61/h85Yt+YLLgbqKyYLQlsKBBYnYd+ABUFv0OOnrxajpLiw0Us22Nsh7sO5kFRVw2/WPO4+ao3i5qTgm/vhM7l4Y/4p7PxxNIRCAcY+vRta3fWuIFMMQmMCYe/PY7DrSCZmLK51LXUJssFPn4bxAD+TQHh77mc8AHTNsg+h1+uuupTmCAQLhT0CPfriaMQ6/uTfWBEJJXC08UFnnxHwc+uFnMIEbDn+8VVNrFUuPGAxJPBOKGVW2HLsE8hlltcJhK6+o9A3+D5UVJdeFgif8Po/7XwDOkPtRs9dG3Z+3MUgFsq4FSIzPxr/nPys2UvGXDClJcyq9eEtCXZt9kSoIhFoJgESCC0QCEZrayTOeQ+CGiM8V34DWVIK+Obp5cVdCoqYOJTcMQry+ATIUtN5jILBzhbx89+HpLIS/u/ONAuEDtNnQ6DVoapTB2Q+/jCE1dXwXvolfzJPmvMen6X35ysgycyCJtAfyW+9BolaDd/5H6FkwrhGBYLVydMovmM0LC5EQJqeAYFOB52rCxJotURTAAAgAElEQVTmzoKisBA+783hMQiJM96BIicH7qu/gzi/gMc6VHt6QFJcApG6nGc4sOh6aXomj5/QeXogYdZ0KPPy4T17nplkJ3shnuomRpa6BivO6lDPntQgdRZr8MCTLyMlMRZbNvyE0uJCHvjm4uGFrLRkbpr9NwWCh7cfht95L9KS48FcGibfeqMxCEYjjh1oXgxC5luvoqRTR7hu2wGrI8cgLiiEzs2VB6nK0i5nj7Cn5qBgDB55F6IvhuP00X18Y2bF01UJJ3sFYhJLUVGl59kF/Xs6YvmcfvhtaxIWrYzAnNe64947fLBuUwJWrYuDukIPHw8VugbZYtOedLOLoSGBsGZ9PLZ/PwparQEvzDwGuVyEj97tBU9XC+6OMAmEh555Dd7+QTyTJDvj6kC95ggE5kJgsQnqygLsCV+Fsoo8HsRob+3JswRYlkI3/zuQknOW+/pZ8KKtpTsmhb2PssoCrN8/E15OIZcDFBNRUV3ELQj9gx9AsO8w7jJgNp+x/d5EdmECDl38ERaKWmsAc01UayuwdvdbuKv/u3C1D8SJS+uRlncRoR0mws+tJ49R2HysNgZh4uBZPGiRiZn4jGPcmmZn6QEXuwBEJu+56v5mVo7BI8dh6JgJOHFoN3ZtXt/MP89UjQi0LQESCC0QCKxpRWhPpLzwDDfLSysroZfJYBCL4bT3ABz++BvJs6ejys0VIr0BMrUaOpUSOpkMTkeOwfHHX8wxCAKDkQsNo0gEEcscmL8Iktw8PrsyZlGYdA83D0srKqFVKfkfJN+ly3lQoymLoSEXg9XZ84ifNwt6lQpirQ7SinJoLSxgkEjg+s9O2G6sPQmv5O5xyBw/ll+LrLwcWqWSz8fr6++gSE1F/PzZ3AIh0mohLS+HxsqKb2Qef22G1Y5dZpL3dRBjfJCI//z5KR3O5t5IAKMA4yc/jh59BvE0ORY/oFCq+B/6b1gMQnbGvyoQJj70DLr26seFwVefvI/C/NxW/cYywZgyazqqLS3A7gGhwQCjWASLqBh4fb7CPNYzr70HdggRc72s+nSeOQDyqfv88dYzXVBRZUBWbgVUCjHcnFX8NMUHXz2ApPRybj34ZelgdO1gh6pqPU+JZBkKbMPvfc/WJgXC0u+jeBDk2GGePN2XlVK1Fhk5FQjyveJiCOkzCHdPfgKV5Wqs/HQuKtRX3E7NEQhnYv/maYO9O07kvFkWAwsuFAlFOHD+B2QVRPMgRolIDoNBiypdORRSSzBrQnjsZpxL2AqWTtmrw13cxcPas/tGIbOAVl+NPw/O44GKDw5fxDMnuNgTCFBQksYDGe2s3PHzrjdhoXTAxMEz+WFPLBKR9ZFTlAhnWz8uEFgWAxMUk4ct4FkTLJOBuZzEIhnvn/VRtzg6u+LZN2ZxqwELojWJu1a9kagzInALCJBAaASqwdYG6k4doczKhjTl+tQlU9Oqrp1R2q83DNbWELNUxMgoHojI0hw1vj6o8vZCVccgGFVKfl4Acxsoo2MgrKg0WxAc9h+EUamEPDkVyqRkSFnQY52XSlUH+EPdMwQ6d1dI0zJgcTEC8vhEPgXmuqhycYFlVDREJbXHuRosVPw8BGVyCqT5BagO8EOVjw+qA3xhVCghKimB5emzfB7MsmEq5X1CUdanFz/fQZKTB1XkJSgSEiHQaFEdGIAqX29+TUalgl8rC15URMVwi4KpOCkFeKSzGCEuQnx/QY8DaVfHZzTnPg7pMxAdu/aCRCxGbnYmkuIuITUxDjqdFq4e3nBycUdyQgzKSq5Pr5TJFejYJQRlJcW8TkuKl18Qht95DzJSk7D3n7+u8423pG9TW+ZqKOsTiqqgQMBggDIqBvK0dB5EaiqBwd15NgUL3jxxcNdVFoQxYe4Y0d8VFiox1OV6JKSW4ZdNSYhNvrJBs0yH+8d6o293R/7UfyG6CKcvFuJMRCE6BVjzjf7UhXxk59UG+8llIowc6MoFRlR8CWytpBg/whPDB7jgfFQRNu1Oh6eriguNLXuvWDpYBkrHLj0Qyc9C+M5sSmfnDrDYA3YOAttIfV17IqsgBlXaMvi69EJpRQ4KSmsDfdnZAwHufSERy7kVIT0/ojYQUVcF1o+jjS+cbPwglSi4VSEp6zQyC6K5RYHFB7AsB0/HrmAuC/Y7lg6Zkn0WxeVZvH8rpSOCfYbD1tINydnhPGvC3toLKpk1UnNZkGY13B2D0dErjJ9/EJd+BJZKBwzq+gg2HV3EMyRYsbfyRKDHADhYe6Naq+bXw85bKCyrvQ5WHJxceVaOg5ML9mz7E8f272iNW4b6IAL/CgESCP8K5oYHMZ2DUDdIsY2n1OLhJULgia5i9PMQYe4hLTLU/97pfi2ePHXQIgLskCu2ITJrBxNop4/tq31h0eWMlBZ1/i817uo7Ghn5kSitzOUBjkxojOj5PLcw/HVoARczTRWWeRPSexC6h/aHVCpD+MlD2PH3lYOammpPnxOB9kCABEIbr8LtKBBY/EGYlwh/xuixNeHGrQdtvCQ0fAsJiMUSfrTw8DsnQqmywLY/f0H48Vv74qgWTvmq5g+PXAK5VMnjHjTaClipHCERyxCffoKf+MhSGZsqLI6mQ5cQfm7H9o3rkBIfQ66FpqDR5+2OAAmENl6SigH9UOHnA6e1v7XxTFpv+J7OQrBXAkQVGG8oQLH1ZkA9tQcCzC/PTOyVlRUo/w+98pidleDl3J27DljKZHl1EQ9EZK6I5hZ23SyTo6mzMJrbH9UjAm1BgARCW1CnMYkAESACRIAItHMCJBDa+QLR9IgAESACRIAItAUBEghtQZ3GJAJEgAgQASLQzgmQQGjnC0TTIwJEgAgQASLQFgRIILQFdRqTCBABIkAEiEA7J0ACoZ0vEE2PCBABIkAEiEBbECCB0BbUaUwiQASIABEgAu2cAAmEdr5AND0iQASIABEgAm1BgARCW1CnMYkAESACRIAItHMCJBDa+QLR9IgAESACRIAItAUBEghtQZ3GJAJEgAgQASLQzgmQQGjnC0TTIwJEgAgQASLQFgRIILQFdRqTCBABIkAEiEA7J0ACoZ0vEE2PCBABIkAEiEBbECCB0BbUaUwiQASIABEgAu2cAAmEdr5AND0iQASIABEgAm1BgARCW1CnMYkAESACRIAItHMCJBDa+QLR9IgAESACRIAItAUBEghtQZ3GJAJEgAgQASLQzgmQQGjnC0TTIwJEgAgQASLQFgRIILQFdRqTCBABIkAEiEA7J0ACoZ0vEE2PCBABIkAEiEBbECCB0BbUaUwiQASIABEgAu2cAAmEdr5AND0iQASIABEgAm1BgARCW1CnMYkAESACRIAItHMCJBDa+QLR9IgAESACRIAItAUBEghtQZ3GJAJEgAgQASLQzgmQQGiHCyQUCvmsjEZjq8xOLBZDr9e3Sl+mTmQyGTQaTav2SZ0RASJABIhA+yFAAuEm1sLb25u3SktLQ01NzXU92NnZgf1LT09v9iYaHByMkpISZGVlwcHBAX379sXhw4d5371790ZsbCwyMjLMYwkEAnTo0AFMTERFRZl/3717d6hUKpw8eRIGgwFKpRJhYWGIjo5GamoqrycSicA2+LqlsrLyuutwcnJCSEgIjh49ioqKCvPnlpaWGDx4MGJiYpCUlMSvlY1TXykrKwP7R4UIEAEiQAT+WwRIINzgerm7u6NHjx6Ij4/nm/a1hW2+bPNkG/j+/fub1btUKsWoUaN4n3FxcXxTdnZ2xs6dO/lmzsSCra0tIiMjrxIlTCAEBAQgPz8fZ86c4RYHtln369ePi4FLly4hKCgIfn5+fC6mJ343Nzf06tXLLG7YXHfv3o3q6uqr5uvi4sLFCWtbXl5+lTjp378/rKys+GcdO3YE67M+Fux62D8qRIAIEAEi8N8iQALhBtaLPXWzzZ9ttOypuj4XgL+/Pzp16oQLFy5wC0JziqenJ7p27co326qqKgwZMoS7BNgYrEgkEnTr1g3siZ5ZFepu1kyw9OzZkz/JM1Hg4+MDtrEzy0ZeXh4XGszKkJ2dzefDrBRsM2ci5Pjx47z/gQMHcouDvb39VdNllghWNzk5mY/J+mfjsXps02ftCgoKuAWDCZm6hbk1TEKFBEJz7gKqQwSIABFoXwRIINzAerAn9sDAQJw+fRq5ubnXtTSZ3gsLC/mG29zSpUsXeHl58Q2dbexsU2cmf7Vabe6CbfIWFhbcXM827KKiIvNnTGCwMZmAYUKCFbZhsw2e9WOKP2AWj5ycHL7pM1fE9u3bed277rqLWyeYuKlbTK4IJlrYuOy6GQMmEg4ePMiFQn2xDcwdwX4/dOhQbvEggdDcO4HqEQEiQATaDwESCM1cC2biHzBgAN/E2UZZX2FP8uzpnT3l193cmxqCmfuZuZ4VZi1gLge2sdcX38DqsHgCttHXfWpn1oy69W1sbPgT/qlTp7gLom6pTyDs2bOnWS4G5k4wCQTmumCCoe64zF0RERHB4yVIIDS18vQ5ESACRKD9EiCB0My16dOnD48DOHToEHcDXFvYU39oaCh/YmZP4w1t7k0Nx+IbWJAie0LXarUNVmfiYPjw4dx9wAoTAszCYAo+lMvl3N3A3AKm+bIYA7ZxM4HAxIxJODDXBRMIjo6O3G1iCoasLwbhWoHALB9nz57lAZFM3DCxYwqoJIHQ1GrT50SACBCB9kuABEIz1sbV1ZVvqAkJCfUGJjJ/+6BBg24oMLG+YdkGO2zYML7R1me6Z/7+8PBw3pQ9qbONnrkR2FM8i1dgmzf72WSJYOKhbioiiyNgcQesHRMiJiHANnkmEJirg1kemAhi7ZojEFhGx8WLF80CgbkuWHYDWRCacWNRFSJABIhAOyZAAqGJxWFP5OxJmD19s6f6+goztXfu3JkHJjILws0WFj/ANlz2NM7M9KbNnW307Mk8MTGRb751C8taYK4EJhDqxiWMHj0apaWlPDCRpU7WLQ25GJjVg1klWLtjx441SyAwcXJtIRfDzd4B1I4IEAEi0H4IkEBoYi3YBshSBVncAfP7X1tYYCKzHrDsABaYeLOHGykUCp69wIIf2VM826zZmEyYsGwA5jLYt2/fda6L+gQCs3Ywlwd7smeigwUwMjeAySrRWAyCKQvjyJEjfMxr0xzrczEwq4bJxcDcLORiaD9fcJoJESACROBmCZBAaISctbU1fzpvLCuBpQsyFwQzy9c9TOhGFoTFEzALAcsKYBszsxiwmAedTsfjB9jvz507x1MVry11BQKrzywZ7HemQ4xYhgP7HQt6ZGclsP+a0hxPnDjBu2PBl6YgRSZU2CbPxmMxDU0JBHIx3MhKU10iQASIwH+HAAmERtaKPbkzkcDOJ6gvYJAF97ENlJnw2YZ6s4UddsSezNl5Auw8A1ZMBzKxWIPMzExuAaivsA2aWQmY9YIJAXaiIbM8sGwLUzGlXxYXF5tjEBo7KImNySwYzYlBIBfDza46tSMCRIAItG8CJBAaWB+2ObJNlG3YLK3w2mIKTGRP+8x6cLPvOmCZBuyYZea+OH/+PLdGsKd+ZjVgZw8w1wX7mQkUJhSYGGExAqyw2AcmLNjPTASwrATWD7M0XOvqYG4L5gZg6ZcmCwKLM2CFnYp44MCB67Iz2LjMQlL3JMW6LgbWlgVUXluYJYOJDBa7wbIo6ByE9v1HgGZHBIgAEaiPAAmEBu4LtvmyAMX6xAFrws4qMB1zfO05A8291ZjIYO9JYEKABTiaji9mbgUWXGjaWFl6JTugibkOWBvTkcsjR47k7g8WA8A2bpaNYNqwmQXAlGrJNmuTVWDXrl187sxCwY52vrYwYcQsEqytKZti7969XFywUlcgNCSKmLBic2b8mGXl2iDJ5vKhekSACBABItB2BEggtB17PjLbhNnmy574WYAgS0Vkm/61my/b4Fld5lJISUnh8QnM+sCEhGnzZp+bzkVo6LKaegMjc1EwKwYrbAxmjWD/NRXTUctMpDQUkMlcL0wgMGHArudmz4Ro46Wh4YkAESAC/9cESCD8Xy8/XTwRIAJEgAgQgfoJkECgO4MIEAEiQASIABG4jgAJBLopiAARIAJEgAgQgesFQs+ePWvaGxfmR7/ZA4fa27XQfIgAEWg/BBTe7i2eTFVqZov7oA6IwH+BgIAEwn9hmWiORIAItAaBlgqEpyfeBy9XN0ybNq01pkN9EIF2TYAEQrteHpocESACrUmABEJr0qS+bncCJBBu9xWm6yMCRMBMgAQC3QxEoPkESCA0n9VN1ayRSQGjEQKd/qba121klMkAoRDCqqoW99VQBzUiIYwKBR9DYDDesnH+Kx2LJUJIJCJUVV45C+K/MveWzFMoEkEqlfHzOPQ6HeQKBYwGA7RaTUu6bbW2KoUYAgFQXnlj36v6BIJQCCikRvbVgrpSCKXcCKEAqNIIce1XgFwMrbaE1NF/gAAJhFu4SDViMRLffAWqpGS4/rmpxSMlTnsLOpUSgZ8th6ik9rjl5pTSoYOhs7ZqsKoiMQWqyEv8c3WXzkh9/CF4bNwKm2O1L3P6fy6j7wlG5xB3/PL1CeRlq/91FM894I/8Ig027s4wjz2gpwNCu9ph3eZUFBS3/obdOaQPevUPg6W1HU4d2Yvzp47g0Rfe5idwZqYl4eCuzVCXltwQC2tLCR6Z4I1zl0pw/FyBue2dQ1wR6GOJH/5MRll580XY+i8GQi4X48l3j6OoRNvsuVwrEALcdXhmYiECvapRVi7G0/M9MP2JAvTtVo60bCk27LbFkQsKc/8kEJqNmireBgRIINzCRayRiBE1fzYsYuLg/eMvLR4p5Y1XoLVQwf+LlRCVlV3XX8rbr0Gk1cJz+aqrPkt55w2UudWejlgjEMIgFkGk10NQU5vA4njoKFz/3sz/vzy4I9IefQjuG7fA+tSZFs+5PXdw94Pd4ehigW+XHW1wmsPHdUTnEDes++YkCvMq/vXL2bd2BD8me9JLh1BUWrsRvv5kEB6f6I9nph/H+egb26gbuwCJVIo7Jz6Cjl17oFxdhvioC4i6EI6czFT07DcE3v4d4BvYEdVVVfjnz7VIjI1sNg9PVyXWfzEYazclY8XaOHO7JdNDMKy/Kya/cgiJ6c3n++PifpDLRJgy6xSKy5ovLOoKhLsGq/HWo3nQG4DTkSqERyvx134rDA6pxIDu5RjcowIWKgPWbrXHz//YQKMTgARCs5ecKt4GBEgg3MJFbG2B0NRUoxfNg1ijQeDchQ1WLRo9Eil3j4X/ut9hfexkU13e1p8/OqUfXNytsGT2rnZ7nUwgWFtKsedoFqYvvgCm6W6FQGAi5I57Hka30P5IT0nEum+W1svE2y8Ikx6fwo/3XvHRe9z90JzS2gKhOWPWV8ckEEb0rsTcKZkwGAV4aaEnopJl11V3tjNg9aw02NvoseJ3R/y604YEws2Cp3b/SQIkEJpYNoOlBUrCBkFnaQGhVgdZYSFUkdEQFxaiOtAf1R4esNl/0NxLjUSCsgH9IEtPhyw94yoLQsmQQah2cYYiKwfWh49yX39Zn1AoExKhc3RApY837A4ehsFCheJ+fWF99hxkqelQ9w0Fjz8AINTpYHW49i2M15aWCITqAH9Ue3mYu7S4EAFxYZH558ounaG3tYEiLh4l/fvCIjoWsowMFA0Lg7iiEtaHjkJw+YVOGm8vlIb2QI1QxN0rFuE3/ipsSysb9OgXhuLCfESEH78lX67GBEKHrs6wsVPycY2GGpw+knLVHLr2ckd1lQ6aaj2Cgp1x8WwGqit16DPYF9kZJYg6n803c+Yn79TNFV5+djAYahB3KQepiVe4NnVhJoGg1xvxwqyT3GJQn0AYOdAZXYNsIBYLkZiqxpZ9mdDpazB5rCfU5XpsP5TNh3p0gg/ORxUhMr4MXYKsEeRria37suDu0xH3PfYCqqursPbrTzn3+goTEoNH3oX+Q8cgNzsDa1d9Cr2+aZHQHIFgbytDkJ8Vdh7KhruzHKMGuaGiSo+tezORll0JC6UYdw1349fISnW1Hn/suOJ6YZ/fM9oDDPyWfVkoVdfOy9tdhcG9HXEhqhgJGgv+ux/npcPTRYM5K91w+HztOtdXOvlosOydTGh1Ajw2yxv3jppMaY5N3bT0+W1DgARCI0updXNBwqsvQqtSQVpeAaNIBL1CDq8Nf8Pu8FHkTb4XGYMHouerb5t7MahUuLTgfbjsPwjH7bu4QFBkZgMKOdQe7hAYa6CXiOH5z07YnDmLqOlTYZOSipIAPxiEQjifPI3Szp2gUamgys1DwGdfIP6dN6C1soJBIoG0uhrB7866MmuhEGnPP813opLAAIiMBlgmJps/d9q5G/KkK5tbQxaEgkkTkD2gH2qEQujFYgSt/AYWUTHmftJfeBZlgX6QFhWjwsUZEq0W1pFRKOgZAqNQiKA1P4CJirK+oUh54D4IdXouGPRKBVyOnYTzhr94sGZzS++BwzF87L08MO6bZQtQUlT/htXc/urW69nPCx26usDF3RpyhRgpCYXmj1MTC3BsXxIeeDoUPgEOEImFqDHWYNH07VcN9eK7QyAQCmBpLYdEIkZOZgkPZrR3suCiYdXig6go12DImCAMGBaA6kotr8/q7twYgbMn0ps1dSYQtFojbG1k2HssG+8tuXCdQHjtiSA8do8fyit0MBhrYGMlw/4T2fjgy0isWzqQC5MJUw7hiYk+eO3JTti8NwPzvojAK48FYdQgVzz0xhEMufNBdA7pjY2/foeE6ItNzu3Bp1/lLoe1qz9DZmpSk/WbIxAenuCDe0Z5Yd3mJDxwly+0WgNkUhEKizV49O1jkMmE+P7j/lDIRNy9UKrWYuTj+64a+5NpIRje3xV/70rDh19dgoOtDF/ODYWXmwrPzDiBFJ0luvhrsWJGGg6HW+L9r52bvC2fuqsEz9ybj7/22qGk8gUSCE2uNlW4XQiQQGhkJfPGj0Xm6JHw/WuT2UpglMtgVCohLiputkDQWloCxhp0WP0tRMUliHr3TUj0enT4+DMuEAxSCTwPHkF+ty6otrWBbUoqpOXlKPXxQfD02eYZJs6aBo2V5VUCgQVCxs+ZCaMQqLa05HEFsvJycxvPXzdAFRll/rkpF4O6WxfEP/dUvQIhv2swrNMzYHfiNJLvn8jFis+v65H42MPw+nMjFxTRM9+FvKgYQQs+5mMmvvMG1O7u6LR4KWSZWc3+3nTq1gvjJz/BfeFffXxFELEn2MZKc94cOWxsB3QP9YRcKYFIJESF+kqgX3xUDrb9ccW3fue9XRDSx7NegeDgbInYyGy+AQd3d+P9nD+dhr5h/lj1yQFuNbj7wRAkxeXhl69PQa6Q4KVpQ6HV6vHlwv3NYsEEQlxSGRzt5fBwVeKZaccxYqCLOQbB1UmBD97sjuT0cjz73kn+1LxsVk8M7u2M1b/Fo2uQNUKC7TDogd34aUl/dA60QXpWBR584yiWzOgBkVCAF98/jZemLYAAAny3fCGqKpuOBQjo2BWTHnsBe7b+gfDjB5q8lhsRCKyz8MgCvL3wHJ653w+PTfTH9MXnsPtIjnmcjavCuEXhWoHAshvWLu0PDxcVln4XhV6d7TGkrws+/z4aP29KAXMxrJyeha5BFZi2zBNHL8qbnDursH15Eio1Quw+9TZcHNzpoKRmUaNK/3UCJBAaWcHiYWFInnQPLDOz4Lz/EKxOnLqqdnMtCHq5HAHf/QxVRO3Gk/rmqyj090Xg2t+QNHkSFEVFCFy4GAnvvolqRwd0WrgERaOGIb9HCDpPu7I51icQ6k6oJS4GUz9NCYSgVd9CWFmJ2Ddfgcc/O2Edfg7R09+G18YtqFHIkTJ+HLz/2Wm2PpT0CkHW0DAEfbESqviEG/q+2Ng7orJcDa2m2txu0mNT4ObpU38/NTXY9Pv3SEu6EgTX2IDNiUFoTCAoLWT46qP9GDA8AH3DfLH26xOwc1Dhznu7coEwcnwn+Hd0wsZ156AureLBhiPvCuaWi49mXG2RaGieTCBcjCnGL5tSsHxub0QnlCImsRSTx/nwIMWn7gtAn272mPzaIaRn16a/yqRCbFszDHmFVdzq8NIjHTHtk3DMfSOEWxnYxjru2QP49qN+iIwtwdwvIvDmnE+Rl52BX1bXH3tw7fw8vP3xyPNvIvpiODb//n2T63ojAiE8shAvzDrFXTQ9O9vi6wV9+Ry37b9yxHFDAoFNxM/TAt8s7AueCikUYOehLLy/rNYqwgTCX0tSYanSY9SL/k3O21Th5/npcLTT4cDZtyGXe5JAaDY5qvhfJkACoZHVM1hZImvyJBR36gi9TAplSSkcDx2GzfFTEKnLm21BUKZlwHflN+aRMl58FnmdgxHw1yYk3zUW7tu2w2HvASRMfwsCvRH+S5Yh74H7kN+zfQmE0qAALliqvDwQ++ar6Pjl19ySEjWjViCU9erJhQ/LkLi2+K35AZZ1LBk3+6XpHjoA1rb2DTaPOHuiQf/5tY1aKhBKiqvw25pTGD6uE7qFumPVJwfRoYsL7pxUKxAefr4PbB0sYNBf7VphVo5P398FndbQJAaTQHhjwVksnxOK0K72OHUhH4NCnfHS7JOY+lwwbK2lVz1JS8RC/P7FQCjkYjz29lFs/244FwojBrhi8550bsZf9n0UnrgvAL9sSsL3fyRj6vxlSE9OxO/fL29yTqyCq4cPHn9xKhLjovDHj1812YZZPzbUk8Xw2Xs9+BP+/a8cwiOXXQyvzz+NI+G1qZAhnWz5Zj9/eQSPqzCVxgQCq/PcZD9MeaQDdHojnp52HFEJtVk/TCD8s7zWJTL2Vb8m522q8O3sDHi6anDo3NsQS7xIIDSbHFX8LxMggdDU6gkEqBGJkPPYg8gL6Q6DSAT76Fh4r/gaefdNRMbQwQiZOgPC6lozdQUz0T/7JNz27DPHIFyb5pgwazoqHO3R8dPPEfPGq/D8ezOPaWACQVSlgajMGG8AACAASURBVO/nK1ogELQInPthg1fVEheDOtAPwVPfQ6WfDxcInZZ9CVFZuVkglIb2RJGfLzqu/AaKuKutBTyA8QZiEBq6gIEjxsHByaX+j2uAYwd2ID+neS/TqRUI1lgye2eDvBqzIBTmV2D992cw4q5O6NLDDauWHESnrq51BEJfKJRSrFl2GOWlV6wgbDCDwcifkJsqdQVCWG9HLJ0VisoqPZQKMZ6bcRyvP9WJ+9eHPbLH3JVEIsSfKwbznye8cBAH1o1CcakGHi5KjHt2P9YtHYSiEg083VS8j4i4Mrw26xOoS4rww4pPUFPTdKyIl18QHnrmNYQfP4g9Wzc0dRlwd2FpjoOw83AW5i+/4sL5an5vbgEZ+sgevPlUBy5epsw+idMXawM5zQLhywhs2dt8gfD3yjDOhZVDp3Px5oKzZoHwy4I0eDhrMeZlf1RrG3dZmS7s94/SYKHUY+/pqbCy9CCB0OSKU4XbgQAJhEZWUefuCgkLMLxcdC7OiH39ZX7KWvD091EwYRzSRo1AJ7YhXopGtbcX4l97ETqZDB679tQrENQ9Q5Dw5KOwTUyC+68beAxCawmE2PmzYZDLEDxjDtuB6r2yWykQIBQhZdIEuO0/BOe/6hwMxUSWWAxBM1Pi2MTFEgk6dumJosJ8ZKVdCYK75+Fn4erh3YBAqMHWDT8hPaV5rgwWiOgX5IhP5+yCVlM/r5YIhCF3BPHYhE2/nsOlc1fuI6lMDK3maisLSx9UWloh5mI46sZR1BUI7KKXz+mFAT2d+PUzF8PEMZ4YO8QdC7+KwN+7azfQAG8L/Lh4AC5EF+HlOWewdc1QODvIkZCi5rEHLJBvWD8XVFUbEPbQbt7m8RffgZ2DE777YiHKSoub/Ns2YNidGDxyHP5etwZxl86b6wuFIgQGd4NOp0NSnXMSXBzlWL98MM+weGpa7QFcKoUIG74czAMRRzy2F7Nf6dxigSCVCLFoancM6u2MlWtjMaSvM4IDbbBqXRy+/yOJWxBem1yMyXcUYNUGJ6zdbt3ktXb01mLVrDRcSlDiXPxr8HChlzU1CY0q3BYESCA0soyJb78GSKWw33sA0qIiaFyckXrfRFjk5CLgo09R0b0r4p95Aqr8AlhfiED+gH48SFCrUl5lQRBVVsFl5x5U+fsiv08oBHo9gpat4CmLNyoQKm1t4bJvPx/H9ugJiEqvHJiU8fzTyOvWBe6798HiUjTUvXtCkZAE69Ph5qtslkB4/mk4nQ6HrKAAyswsqM5HgGUxNGVBsD5zDomvv4RKZye4HD4Ki4hLqPL2QlHYQLj//CtU11gVGvsG9ewXhlHjJ0On0+LrJXNRUX79wVAt/QYOGumPIWM6IjO1GAd2xMLRxRJBnZ3xy9dXzodgAqFHPy8c3RvPh0uIyUdmaglYFkNTFgSlSooHn+0NsViEQ7vjkJ1eyl0QLO1x2fwrT/wsNuGV9xZBLlfyFMPsjFTzpV0rEJgV4LfPB0EhF3GBwE5S/P6T/tyd8NHKS9AbjHjnuWD++bsfn8ORM/n4cXF/dAmywcpfYrFmfRJCgm3xzYd9kZlbiXumHOJjhQ4YhhHjJiHi7Ens3PQrDPW4iUyTsnd04fEH7GClNcsWoLT4ShaIs5snHpsylR3JhW8/X4jiwjzeTKkQ4dtF/RDgbYl1m5Ox93guBvZyxDP3B2D9thR88k30DQsEexsZftmczLMdNmxPh7pCj4mjPTBjShccOJmDdz8+j0AfC3w5tzdsrWR4Y8EZnCusTRfe+WUSStQiTFnogWK1qMFbSSatwWdvZaNLQCXmfOUGP+/HKYuhpV88av+fIUACoZGlyr93AvL694FGoeAbMrMIq0pL4fXTuloTukCA7EceQHa/PrwXm7R0eH77I6JnTYPLvoNw3FGb5qhhWQyXi2VePny++QGS7GzonBwvC4RNsDt8DAnT3oKouhq+n3+FvAcmXY5BuJLFkDTzXZS41prXBUYjOn32BeQpaea+9TbWSHn1RaidHPnvhEYjfH/+FVZnas2rrBSPGo7kCXfB/5ffYX38+oOSeJAiS5u8XFwuRsJt9XdIf+EZqAP9r3YxLP0SIrUaUTOm8hgE20NH+XkNSVNfR5mrC2fGDLjWGZnw+GEtJLm1m0VzSvc+g3DHhAf52f8si0FT3frvnxCJBBh9T2f06l9rkWDrmxSbj1+/uRKMygRC6MArQZF7t0Xj2L5ELhAK8iqw4Yc6LobFB9GpG4tB6MZjEIoLK2HvqMITrwyAykLGLQPMrZAYm4ff1pw2Y2AC4eXpC6FQKrHm8w9RXHCFExMIF2KKzSZylsSxbFYvDAp1wpPvHENEXCm6d7LBkhk9+SbIikajxxsLwnE6otZMP+e1rhgz2BWjn9jH313g467CumUDefDjlNm18xCJxZjy9nyoLC2xc9NvuHC6/tMl2TsannjxXTi5uuHAzs04eajWAmEqTq4ePDaBXeuqJXNQob4i7FjQ4C+f9YenmwVPx2SWuHNRRXhl7hlotEbMejkYE0d744WZJ3AmstaK0VgMgqdrrQuBnZXw4OtH4GQnw9cf9uNpkRNfPMj7ZGVoXyd8+l4v5BZUYdL8WqH35iMFmDSiGJHxSkxZ5N7gLfnq/UWYfEchzsco8epidzooqTlfXqpz2xAggdDEUrKDj7SuLmDpjSzOQJqZZT4QyNRU5+oCg1zOD0Zi1oFri1Ehh97GBkKt9qrDh27VXaR1c+WHLUlz8yEqbf47G1prPjVSKTTubtytICkpgTj/ytn7zR1DJBLDw8cf5WWlKMy/kt7W3PY3Us/KRs6zD8rVGhTkXkkRvZE+GqvL0hudXGtFYnFBBdRl178/wcnFHTKFAhkpiVe5GJo7B6FQgA6+lhCLBYhJUkOnazqO4Nq+2bkGEx58GgKhEOHHDiDq4hkU5eeaqwV26obeg4aDZTDERp7Dpt++u256rK27py8/PCkn84p4NVVklo0OfpawsZQiI6cSCamtz7sxZqaTFJ1sDZg3JQddAytx4IwlNu6zwdk4uTlMpoOXFuOHlGJ8WCkKSsSYutQNyVlSEgjNvSGp3m1BgATCbbGMdBFEoHUI+AZ2wpAxE+Dg5AqhUIj9O/7G+VNH8eTL02Br78hTTmMvXcD2v9a2zoD/ci9138Vgb23AO4/no2enCihkRiSkKfDUvNqXNY0LK4ZOJ0RcmgyzvnJFQUmtG4LexfAvLxgN16YESCC0KX4anAi0PwISiRQqSyt06NIDhXk5SE6IxsDhY5GenIC8nAxUVpSjphUyUtriyq99myNz2TCh0M1fgw7eGqz8yxZ3DyqHWFyDIxcVPE6BHbNsKiQQ2mLVaMy2IkACoa3I07hEgAj86wSuFQg3OoHuHTpCqa/Bvn1XH/F8o/1QfSLwXyAg6NGjRzOysf/dSxGJRPxtcVSIABEgAq1JQOZWmyLakqLJan6wbUvGobZEoK0JCDp37tzuBIJEIuF51FSIABEgAkSACBCBtiFAAqFtuNOoRIAIEAEiQATaNQESCO16eWhyRIAIEAEiQATahgAJhLbhTqMSASJABIgAEWjXBEggtOvlockRASJABIgAEWgbAiQQ2oY7jUoEiAARIAJEoF0TIIHQrpeHJkcEiAARIAJEoG0IkEBoG+40KhEgAkSACBCBdk2ABEK7Xh6aHBEgAkSACBCBtiFAAqFtuNOoRIAIEAEiQATaNQESCO16eWhyRIAIEAEiQATahgAJhLbhTqMSASJABIgAEWjXBEggtOvlockRASJABIgAEWgbAiQQ2oY7jUoEiAARIAJEoF0TIIHQrpeHJkcEiAARIAJEoG0IkEBoG+40KhEgAkSACBCBdk2ABEK7Xh6aHBEgAkSACBCBtiFAAqFtuNOoRIAIEAEiQATaNQESCO16eWhyRIAIEAEiQATahgAJhLbhTqMSASJABIgAEWjXBEggtOvlockRASJABIgAEWgbAiQQ2oY7jUoEiAARIAJEoF0TIIHQrpeHJkcEiAARIAJEoG0IkEBoG+40KhEgAkSACBCBdk2ABEK7Xh6aHBEgAkSACBCBtiFAAqFtuLdoVIFAgJqamhb1QY2JABEgAkSACDRGgATCTdwfQqGQtzIajQ22FolEMBgMV33u4uICW1tbxMTE3NQGz8YNDg4G6/vChQs3MXNqQgSIABEgAkSgeQRIIDSPk7mWQqHA4MGDUVZWhlOnTl0nEtjTfUhICJgYOHjwICorK81tAwMDwf5lZ2fj4sWL1wmIa6diZWUFCwuLq37t6ekJBwcHnDt37rqZV1VVobi4+AaviKoTASJABIgAEbieAAmEG7wr+vXrx60Ae/fuhVarva61TCbDiBEjkJ6ejoiIiOs+9/X1RZcuXRAeHo6srKxGR+/UqRMCAgKabW3IyMjA+fPnb/CKqDoRIAJEgAgQARIILboH2JN73759ER8fj7i4uOv6EovFGDRoEKRSKbceaDSa6+ow98CAAQMgkUiwb9++JgUCsxicOHGCWxuYi4FZJ5j1IiEh4bq2er2+3jFbdNHUmAgQASJABP4vCZAFoZnLzjZ0tvkzEXD48GFUV1df19LHx4dbB1h8ALMgNFSYFcLR0RFRUVFITExssB6zIHh4ePA6crmcCwQvLy+UlJTwf3ULExCxsbHNvBqqRgSIABEgAkSgcQIkEJp5hzBTf4cOHXD8+HEUFRXV22rUqFFgT/GHDh1qML6AbfTMBcFiFcrLy7nYuDaY0dS5SSAUFhbC2toaLP6Btasb12Cqq9PpcOTIkWZeDVUjAkSACBABIkACocX3AIsrGDJkSKOBiT169ICzszPfpNVqdYNjsjq9e/dGUlISWDwCcx8wAVBf6dq1K5ycnLgrws7ODszywKwELHaB/T+zVDTUtsUXTR0QASJABIjA/zUBsiA0sfzMrN+nTx/Y2Njg2LFjXCRcW9jTPYsrYBt3Y+mHLP6AuSmYFeDAgQNcdLDzDI4ePVqvFaFXr16wtLTkdZkgYCLh7NmzfHgmMiIjI81ZCyxgsj7Lwv/13U0XTwSIABEgAjdNgARCE+iYMGCbOgtMbMjHP3ToUG7+379/f72xCaYh/Pz8wNwGJjeFvb09+vfvz1MWMzMzr5sJ+8wU88DcF8w9YTog6drDkpg4MYmHm74bqCERIAJEgAgQgcsESCA0cis0JyvBFJjI0gtZmmFDhVkZWAYEO6fgzJkzfKM3ZTSwrAdmnWDnGNQtTHhUVFTg9OnT3ILB6rPChELPnj0RHR1ttiCwjAkW00CFCBABIkAEiEBrECCB0AhFFpTIghPZkzk73Ojawjb2sLAwHpjIYg/Yf+sr7LCjgQMH8kOVTp48eZWbwvQZEwIsHsHUB7MQjBkzxnxWAvvZVJhQcHd3R35+/lWigvVRX/pja9wo1AcRIAJEgAj8fxEggdDIeo8ePZo/lTOXQH3vPmBP8a6urjwTob7YBNY1O1SJ1WMuCNZPfUGF7KwDdr5BQUEBty6wjAQ3NzfejvXdvXt3nuJYt7DYBGZxqCtKWOoji4Gg9zT8f32J6WqJABEgAreCAAmEBqh27tyZZxCwEw/r2/yZmZ+5DNimfunSpXp7YW4BVoelMbKjlfPy8hpcQ+aqYO9ZYIKEuRtCQ0OhUqn4iY3XFmZ1GDZsGLdGNNbnrbhhqE8iQASIABH4/yBAAuEWrjN76meZCCxWoDnxASwFklkkmBWACRRmHWAvdrq2MOHA3gfBxAtzM1AhAkSACBABItDaBEggtDbRa/q70Vczm+qz/zKBUd8hSuwzdjYDS21s7I2St/jSqHsiQASIABG4jQmQQLiNF5cujQgQASJABIjAzRIggXCz5KgdESACRIAIEIHbmAAJhNt4cenSiAARIAJEgAjcLAESCDdLjtoRASJABIgAEbiNCZBAuI0Xly6NCBABIkAEiMDNEiCBcLPkqB0RIAJEgAgQgduYAAmE23hx6dKIABEgAkSACNwsARIIN0uuHbcTicXw9gtC99ABuBh+HImx9Z/02I4vgaZGBK4jYFQqUR42ENKsbMgvRrZrQuUjhsKoUNTOUa+H5b6DEGi1V+YsEKBGLK7/GoxGCAyGej/T+vuhukMgLHfvg0CnaxcMtEEBqA4MgNW2HS2eD2NW8NSjsDxyHIobWePGeF6eVV1eZXeOht7WBna/bgBqalo877od9B08Eo4ubjh36ghyMlLrPcumVQe8hZ2RQGgFuM8FlvJ7bE2CdSv01rIuQnoPxMDhd8LOwQlajQabf/8B0RHhLeuUWhOBdkBA5+yEhPdnwOZiBFy//q4dzKjhKaQsmo9qa2vUCIUQ6PUIfO99iMrU5gZ6N1ckv/16vR3YXroEh+9+rvezkrvuQPb4cQh6cxpElZXtgkHxpHuQPWYkgp9/pcXz0dnbIeHDebA5dx6uX397XX86VxeoB/SD5dHjkOTkmj/Xergj7bWXUHP5jbfXNhTU1CBg6gzzrxOWLYZOLkfgvA8hzs5p8bzrdjD0jnvQf8go/vbdwvxcbPtjLdKS41t1jH+rMxIIrUB67+hk1AhqMHKnXyv0dvNddA7pg4kPPY3KynIc278Tp4/u+0+r15snQS1vRwL/JYFg4l8waQIKhg29TiAYrSxRMnI4r1bWrQsqXV3gePQEROXlkGVlQ3Xi1P+lQKiRSVE6fCiU0bGQpqRex6Cie1ekvDIFPstXQlXHwqC3t0PRmFGAUIgaiRhFvXtBpNfD5pTp4agGTmt/M/dXGdoDBpUKlgeP3JKvikyu4A9q/cJGQafVYMNPq5CScP2x+bdk8FbslARCK8BsDwLBwtIaL09bAJlcjnVrvkBCTEQrXBl1QQTaD4HbSSDUpZr9/NMo6dEd/h9+AmlGZqPAb3cLQlN3W0MCoW47o6UF4ufNhrS6Gr7vzWmqy1v6ee9Bw3HHhAe5JWHl4vf/c2/aJYHQyO0hFQIzu+VhiEsZ5CIj9DUCqHVCfH7JGTuyLDDUuQpWkhpM7ZrNe1kS4WruLbJEiqRyMVgf73TJx3DXUqjERlTohTiRZ4WlUQ4o0NS+wnlp72y4KHRYn2KPR/zy4a7SwlgjwOpYR/yYaMPrjHMvxyud8mAr00NrFOBcoQU+uOCEAo2Ifz5mwoPoM2gYjuzdjoO7Nl/1job+wQ/BzaED0nIvoqPXIBSpMxGVegj9O0+G0WjA/nNrkFucAKXcFoO6PgJnW38IBEKUVxXhTMxGpOVd4GOIhVIM7/U8nGz8IBZJoDfoUKUpw/ZTy1BZXQIBBOjsOwLBPsMgl1rwNlpdFXKLk7D/3Gozmw6egxDsMxxKuTX3/xmMelRUFWPL8Y/NdYZ0fwqu9h0gFkn550ajHjtPL0dJeTaEAhFCAsaig9cgyCRKaPXVSMw8hZPRG1rty65zc0Xaqy9yc7awvAKFgwfAKFdApNHAb8b73GxcI5Wi4N4JKO0VAoNMDlF1FRwOHoGNyRcrEqHg/ntR0jMERrkMMBohqqyCw+59sN5/EOqRw5A/fCj8Zs5FznNPQd2pAyAQwPJSNFy+/5n7rsHMlPeMR0nvXjAoFRBqtLCIj4fjHxshKipGedgg5N45Gm5//o3SHiFQB3cEIIBlXDxcVn5Ty0MsRu6jD0LdpTOMUin3bzPztPP6v6C6cJFXMVpYIO+h+6Hu2IE/gYnV5XDavhMWR46b+8h54lGUB3eEQSKB0KDnfbj+uA6KuNY1nxaPH4uiAX1hUKo4Z3F5ORz/3AhZbp7ZxaBKTEH+qOEwyGWQFhXDfc0PkGRmXb4WFfImT0JFUCCMEgkEBj2/ZvfvfoaoogJpr0yB7ZlwCKuqUTB8CGciy8uH52fLIayqQuHDD6Cka2e4/rUJBSOGodrVmXO3O3EKdn9tquUhFKL4jlEoChsEvUoJUbUGNuFn4fD7n1f5tBuyINS9URsVCAIB2OeVvj4wSiU8bsEgk7Wqi0Hr5YmsJx6Bzs4ORrGIX4usoBCeH3/Kp5kx9Q1Ao4HH8pXmaRc8+hAq/H3hPW8hTC6GTi++zu/j8g6B/D62uhgJ55/WoWz0SBT16w27fQeQN34spEUlcPnlN2Q89xRn7/bbHzCqFMi9c4y5f/u9B2CzZ98VTCIRKnv3QpWnB3JGj4Drzj2QXxZTwsoqyC9eeSBqSCAYlQpkvPEKdJaWvF9JZRW8PlhkHkPn5oa0V6fA/tAR/n3T2djAbd3vKOvbG+oOgbA5fRZOP6/j9dWDBiB/7BjoLCwg0mlhERMLp1/WQ3iN24e9N2fiw8+AWXd3bPyNW3X/S4UEQiOr9aR/KaZ2zUB0iSWO5FpykeChqsaWdGvsy7bAhmFJ8LbQQiIwsr/J0BlrN3xWPr/kip8SrbGgRy7GexXiTIE1zhYq0dG6CkNci/FPmgOmnXXmdX8ZnIYONpUQogZpFXJEFltgrGcB1sQ54qsYB4TaV+PLfmko04mwJc0OAVbVGOFWhK9jXLE8xo738cr0DyGWSPDlopnQ668OXhrR8wV4uXSHTlcFdVUhnGx8oK4sQkV1EZxs/XE65i9EJu/FHX1eh7OtH2LTj0Knr0ZHrzAuBNbvn4WK6mKM7PUSfF17ICM/GjlF8VDKLKFS2OHIxZ9RqSmFhcIO9w2Zx9smZp2BwaiDpcIexhojDpyv9ScycTG231u8TlpeBGpqDAj06IdqbQV+3TuNCwI2jrtjJ+QXJyO/NBX2Vh5wsQvE34c/QGFZOoI8BmJQt0dRUJKC9PxL8HbuDntrL+w6tQLp+bUbXksL+6MZP3s6FAWF0NhYwyougW+0Zf6+6PjqWxDo9CgeOwbZ94yH9aVoqJKTUdynN6od7OH32XLI4uJR3rc3Up99EqqsLFhdiOT+UY2DPSyiY2B14DBK7h6HzLvuhFVaOiqdHGF1KRqVPt68D7dtO2C7cQsKJ92D3DEjYZmUzP8IaZycUNSrB6wjo+C+fCXK7hyF9HvvgXVCIird3XgfWns7qH194PHnRljv2I2SsWOQOfFuWKakcvFhlMn4GLaHj0J52Uyb++RjKGR/xE+fhaywEIWDBkCvVMD/w48hycxG0X3MzzwKVmweUTEwKBS8D/ude6CIT2gp7tr2AgEKHpiE3OHDoMrKhlVEJARGIyp8vGB19AQUqWlcIMhKSqG1s4UqMQniyioUh3SDVUoqPBYu5hto9ovPoqRzZ1gkJUOZnoFqVxeUdgyC7+cruNiInzkNypzc2rWIT4BQp0dJty6wiYuD25IvkPvisyjo2QOK/AIYJWJYRVziwktrZQX/BR/zIEm2tulPPgplWgZsIiJQ2rULyn284btqDRTnagU1Ky0RCGxDy3rjFai9PGGRkARFRgYq/f1Q4eXZqgIh7f0ZKPfwgP3pM5Dl5kJrawu9hQXcVnzNryHpw7lcIPjNv7KZZr/0PNQdgxD02lSzQLBMz0ClgwOsoqJQ6eeLajs7uG/cAqgskDMsDOLqKsiyc6AO8IcyO5dvppXeXrA9dwHWx46jrFcPLrqLQnvCafsu2G/aauaoZ/Enc2eiRiCAUSSC0GAAiytgRZmbB6+5H5rrNiQQmPui6O5x/N4t6xnChXTAG++Y22m9vRA/axqkVVU8XqTawQHykhIuiPnL83Q6+E2bhargjkh76XlIiktgdzocFT7eKO0SDPc//ob1rr3XfRccnFzw/FtzUF5Wgi8/mvmfesEeCYRG/rS9EVyIZ4Ny8HW0B5bH1gYgCi7XZ7emXFQDAWqwbWQK2M937fEx96arEUAkAA7eEY+sSgnuP+ALQw0gFABbR6TAXVWFJw/541yxlAuE7vZqJJRa4v6DnnCUG/D38ET8mGCP1bEO+CUsFd4WGoRtD+TWA2e5AbvHxKFQI8OwHbVxD9M/XI6k+Gis/+Gr666ICQQ/t1CEx25Gck44JoXNQW5RIvae/Rr3D/0AF5N2IiMvChMGzUBk8h6ciFrP++gVdA96Bo3DrtMrkJp7HhMHz4a9lSf2nV2DpGyTj5QRqf2iWikdcd/Q+bzvbSeWmOfBrBE1NUZYKZ1w39B5MBj02HDwfVRWF/M6D49czD9nAiHIczDCuj2G6NRDOH5pHRcXzOIwuNvjXCAwq8Yjo5ZAc1lQGGsMsLfyxsTBM1FSnoM/Dr7fyIo2/yOTQGAtXP/ZAbtNW1F6x2hk3T2OC4QapRJxHy+AvKQUPsyMaTRCGxSIhKmvw/ZiJFy/XIXSYWHIePgBuOw9APvf6lg3BAL+lMkFwvixfFJ+y76E4lI03+DiPl8MeWoavJd8jvhPFzEzDPznL4KwooJvohlTX0dZQAD8ly6HxteLCwSBwQi/T5dBnpDErRXxixfC7thJOK77HQUP3IfckcPguXHL1ZHml+dhcHRA3II5sI6OhdvnK/jcKvr3RcpTj8Nt0xbYbtuB3KcfR0G/vvBe/ycs6j7ZXe6j+WQbrsmv/bOPIVar4TdnAbce1H7pBPyfztGBCwT21Olw6gycv/2RzzVl0Tzo5Qr+x75s1Ahk3D8RDoeOwGnder4u5T1DkDrl2asEAuvP6cBhOP76O/9WJ300n1tr/N6eYRYIsrIy+E9/n2cLlIUNQsYjD8DvoyWQ5uYj7tOPIKmsgN+7s7h1QufpwQWlKr8A3jPnmi+yJQKheNwdyLpnPNy2boftln/4tdwKF0PikkXQWFkicN5CsxWGM7+8ATdHIGTdMYqLOb9Pv4A8Lh41Uglily2GMi4BVtk5yBw5DDYXIuG+cjWiVyyFpLQUfvM/QgoT4ekZcL0sRlhmQcKCOXDctfcqgcDmwywolV27IPWFZ+C9ag2UkbXZWUwoCLRXHoqa42JImz+bC776BIKkWoPAabOQNH8WNFZW8P5hLSq6d0FZYAD8p81G8txZMFgoEfD2DH6PGhwcEPfhXMhLS+D77qx6b/ApU+fCycUdXyx8DyVF+a3xdflX+iCB0Ajm3vYafNEvFRZiPZLUCuzOtsa2/yyQjQAAIABJREFUNCskV1ydntRQDIK3So8tI+OwNtEJn0Q6mEd6J7gETwRlYmmkJ75NsOICwc+qCg8f9ENyuYQLj/6OVUitkKBII8LmEQmQiWoQUaQ099HdvhIiQQ16bmYmZWDmx6sQee4kNv32fb0CwcelB/44OIf/ob1/yDwcuvAT0vMjuECISNoFa5UrAj36oqgsE5WaMt6HXKqCg7UX9p1djcSs0wh0H4BB3R7harqwNAPJ2eGIzziOKm1tfalEibv6TYW9tQcqqku4SyM5+xwyC2q/yOxJf3TvV3Aq+k9cSLySElVXIEwYOBNOtj7YeGQh8kuSebu6AkEhs8adfV/nc2RzNRVX+0AYDDr8uPO1VvnimAQCfzJdvIynqOlcnKF1dYHq/EWUD+iH1Ccfhby4GNI60dTlQYFQss190RKwPlLffBU6lRLy3DxYnzsPq9PhkKTXztskENy3bIPN1h18A2AlYfFCCKqr4fP5CsR+OBf24efgvPpK1D5L0Uq/dwLcd+ziT2FMILgcOAS73/7gmxV7CmMCwfrMWTj/vA7VnTogbcpz0CvkUGRlw/rseVidOAlxXkHtPCbdg8w7RkGRmwdJURH/nVEsRoW/Pxx274XTH3+jqlsXpD33FAxSKZSZWbV9HDvB3RytVTT+fkic9hac9h6Aw+9/XNetKQZBmZ0Dz0+/4O4AVtLmzoLG3haBr76NtHmzUe7ijKCZcyAuKOSf1ycQrBKT4PH5V5wzK6kfvA+dlSUCXn/HLBB81nwP1ckz/HN1/75If+oxLhAglSLx7dchVavNZm5WpyIgAML/sXcd0FUVXXff9npLryQhgdA7SAcREAtFFMUK6m8XAcEGiAgooIiCXbH3hlhpCiJIkSpN6QlppOf1Xv418/JSgLQPoonOrOVS8+bOnbtn7p095+xzJuBH+v0PVvT9fAjCqSdnwRYXi9ZznqpQ7DcGQSgZPw75Qy+G5HRCdfwk9H/sh2bHTnBOF32O+hKEhG++g2H1T8F5zHE49txCiGYzDEePI//igUh75nnITmbg8GvLEP3LJoR/sQInF86FMievboJQjuiF0iDURhBi1vyEyBXf4OSzT0FwOJE85ykU3nkbzO3aIGXBYhyfMxOcPwDVqUoRpS0tlX4X29w39Zyvw8R7H0ZyWjqWL30ap3MyL9Qr0+jtMIJQB8Qpai/uaVuCvlFmhCs88Ph4LNifgK9OBf1YpBCCAC6AoWdEMVwc7cTL/U7gzSNxePGvoCuAlNvTLJjWKQtvHYnH0r/CKEGIV7tw1fo0mDyVbgpSl1gTfhh2nLovdhUH/fpVy5N7Y2H0cJix8BUcPbQfKz4KmgWrFmJBaBHdEe+teQB6TSwlCGt+fwkllqwKgpAU3QXRYS2p68DpqgzHIu0czdmOUwV7aZMJkR3QMXUo1SnIJSXsTgvW7XwJRabgpBd5Cd3TR1OLhVoZRndnRB/w24EPQUjKkG53YM2OF5FdGPQZSqIC44csoO4IYkEgZIHoF95ZdW/FI3RIGYq+HcZTC4JBE49Lut8Bk60QZeacas/phx8b974Ln79KvPlZaNTvDyGCELlrN2LOEVJnvOIy5I4dBU3e6WoEgWJgNCLqi68Bnw9+vR7FV42EqWMHePQ6ahqN++Z76Nf+TAlC3sjLzwoPO7p0MWSFhYj7+jscnzYZ0Vu3Ieq9jyo6bhvYH5kTbkTM5i2QFRVRgtDyrfeg+n0nrUN2b5QgEGLxQdBn6o2LQ8nIy2Bq2wZerQa814vEDz+FZtvvKLjnThT36ErN9OIZC77q6DHo12+kbXiSWqDkihEwp7eGV6OmKvHEt96Des8f9QO1jlqWEcOQNW4s4r9fhbDvfjyrdk0ixaw5M6m7gBCEYy8toSSp1dRHKq439++L7Ik3VbMgRG7Zhpj3P66oc4rsKA16tJ78UAVBSJ+/CFJWNq1j7XMRsm6fgNRFS+Az6JF5753U/aQs/71qZ2Pffr8i58H5EITjzz9Dd83pk6ZVNF969WgUjBh+QV0MRE9hHTwQJX0vgiM+Hj65DNpTWUh4+XUIRhMlCAGXi1qxaOE45E2+D9a0ltVcDNXCHDmOWsLk2bnQZeegcGA/tCknToQgJH7+FTQbNzdJgpD0+lvQ7t5LCYIiNw/xy16tIAhJi5fixOzHqH6BuLjOLLHvfwTOHiSuVcsdUx5HfItkvLr4CRQXBDVrzaEwglDPUdJKflyVaMODnXJQ6pRj2LrKkMZ1l2ZAzgcwuNzcH2pSJfjx25VH8VOuHo/urhQwLutViKEJRZi1KwXf5qhrJQgGmR/fDj0Ou1fE5T/VHEY5/cnnYbdZ8ebz86gJv2qpD0HQKWOQntQXWw58gj9P/VIrKsRlIBOV6JE+Bh1aDkGxKRsrN8+rdo0kyhGlT8OgLhOgVhrw/ZZnoVVF4pLud1KxIbEukNKn/Xh0Sh0Kq6OMEoQbhj4DtcKAD9ZOhdsbfNHGD1kIrSqCEgSFTIcr+kzF6ZKj+GHb4nqOXsOr1UUQqAXhtlsQSYRYVcRbNd2JJIBxdOuCnBuuheD2oNX0x85JECzDhyDr2msQvXkLoj76DEdefh6qjEwqoAtZGEpuup7uyJI+/QLEr1ofghDqF0021L8vcq4ZQ90jqY/NhnHsaOReMQJxP29AOBHZ1VFIG+Yhg5F71UioC4uQUsWkXte1tf3ujY7G0fmzoTtyFInkec8o9SEIx5ctprkHCFkghYQTZsx6FM4wwwUjCJAknHhoCgzHTyKhXMhX03OdD0Egpn+PSoU2Dz4CzhXczRPrErF0NEYeBCqADA9H4YQbUdamdXAOfvAJMuY/AR8HpM1dQLU37sREnHxsGni/v0aCYL5sGJ2XMes3QgwABYP7XxiC0LkTMh+4Bykvv1EhsD0T+/N1MdRGEEIWBEVpGVLmPFXv6f7wvKUQZTI898RUeKomzKp3C/9MRUYQasF9RsdiZNpkWJurQambR4LSi8+HnITbJ+CStWkVV348MBcdw82YvD0FvxYo0cnghkr0YXepAp8PPoV4lQtz9rTAutMqXBJrx+JeWShwyDF+YwosXq5WgkA0C092KcJVyUX4MTsSSw5FwuTh0D/KiT5RNiwqd11cd+t9SGvTAZ+/8wpOHvuzwQTheM7vGDvwcTg9Nmza9z6NatAqI5ES1x35JUepuHFAx5uphuFU/h/w+JyIj2iHK/o+iDJzHlZsehLpiQOhVYUj4/QelFqyIfAihnS7E8mxXfH91mcgE1XUPVBiysbWQ58j2pCM7m1GQ+BEuLx2fLRuGq7oPY0KFPceW4W84r/Qs+1YRBta0uchBIHoDEb2fQiR+mTsOfYj9p9YQyMukmO6grgZfjtQudMemixgTLqAAlsAi7d74A5a8OtV6iIIAbkcWY89BEdcDOK/WAHdpi1U/W/t0Q2esDCEf78KpVeNgmC1QbN7D4QyI/xqNTJmPkwz7LWe9mgFQWj1zPMQjEbYOndE/tVjIFptSFr6MsSCQmQ/NBW2lslI+PRLaH/bCmfbdGTfdTsV1rWcuwDWwf3rJAhFN15HY+s1O/dQHYM3OqpiF0REV2TBz5gzk+5WEz78FKp9B+DTqGHt0R2CxQL13n0ovGk8VCczod69B0Q17kmMx7HZM6EsLUXLGZW6jwQth+kXSXB4gQVb3LBV56q1Yk9EnFkzH4Y9Pg4xa36GdudOiGUm2Du1h5SXT7UA50qUVNWCkDPjYZhSUxC3ei3Ufx5GwVWjKX5+jqOx85LZTEWK52NBkGfnIHf6FFhSkhC7eh0Mq9ZScZG9S2fY2qYjutxqQx6WEoRLLkbKi6/RCAriEgq5ZTyJCRSPoqtGwdShHZKXvwupsAi8zQ6hrAzZMx6GuWUyEld8C1luLgquvRr22BiqgzqTIMwZIMGg4LB0hwenzPXPDOhOTUHpxYOoO0rx52FqfbEMGYTs669DVLnlioyJIzYGKa+8SedF3g3XUv+96HRWIwitFi2BYDLD1rUTTo8dA8lsQtLSV2C9eHCDCUL4tt8RtnEzeKcTQrmriGBF5j9x74Tv2I3Y9z6kc8Latze1hIVKfQmCS69DyuKl9DLyrpHIJSJSrI0gtHp4JgruuA2l3bsicvNWRKz8DpzbBWfH9rC2bYMokpnxjNLv4hEYNnIc9u3ehm8/bdoJvs7sOyMItXyy3uqXg15RZhCjv9kjg1L0gYMfX2ZEYcGBSk3BJTEOzO+RDa3kg8UjQSu58fHJKDxzIArDYh14vGsuIhUu2L0SlIIXFq+Aqb8nYUdxMBVrbS6GUPde65OLATEmeAM8vH4eCsGLfIcCw8stGe06dcfVN98Fj8eN5S/MR1lJpRDmXBaE1b+/SBfxkAZh77Ef0SZpIPp1uJ5GEpDQQUmQU9P/+j1v0kWdEAhi/ieCQpfXQV0MxO+/9eBnOJqzBV1bXYnu6SMh8ALcHidduEkURJklDz9ufx5enxtj+s9AmDae+uuIADHz9B5oVVFU/Pjxz9OhUhgwqt+jkIkK+ugujx35JceQFNMJX2+ej1JzDrVejBkwE3pNDL0/z/HU7Gm05FOiEip3dRXRv0UwDJQsVkdKG/DhLI9iqMnFQNokO9rMRx6EW6uF5HbDR1LnBgDDgUOIe/UNnL77/2Ds1hUBnoPMbqf+ez/P049bzDvvVxMphhTZRJWf9MobUJRHBpAPYu5tE+AMC6P38MokCE4nEj74BJpde2C+bDiyryEuhnehKveXn+liyH74QVhapdIwVMlhp2FyhCsRX3/EVyspPo6O7ZF19//Bq1BAcrnglWQ0lDGaCOR+2oBTj06DvUVisA27jdYjaMauWhsU0JWXnrE8JvWS6CL2xZ9e/Hji3CmDa3rtvHGxyL7/btijo6kAmJZAAPEffgL1sRN1EgSiRM+YPhne8jTHktWGiD17kT9oABK+WAHVkWN0EYjasg3RNbkY7rkDxT26oSYXg+JkBnXjZM58BI74OAgeD7Va+Dke6qIiJM+utKaRMFgShhoqYfsOIP7l16mo8egTlZn9quIRuW8/Yl5+A/YO7ZB1/z3wSWReBSDZ7NBlZKKsQ7tqBMEg47BkuAwiD2zP8eG1vfVnZa52bZBB7iGXQXS76bO4VCrILVYkvbYcsuMnYBwxjC74foGngkBFUTFkdgfsMVEVBIGIFEmpnMd2JC97FfKMTBivuwYFgwdUtyB89iU0v/5Wo4uBvCukGE6cRMKiYLglKSQcN++Be2BOSaYuLvLeE1KTXm4xonXqkQeBaBAscbHBPvv9SFu0hP67GkEgIuS86i6GVtMeo9dQoXB6a+qqI8/sEyUoS0rRcmZ1kbQhPBJ3TJlFv3fPzXmQ5UGo6cVvyN8lSYKnCeQZD5P5kaDy4PJ4G2KUPhQ6BazI0iDHJsHlD8UzBCMbohVeXJFgQ8cwF7YXqbAuT1WhJwiX+TA4xoFekU7sLZFjY6EKRc7gwkVKrNILkQsgzyHBX8MaphQCGBxjx9A4GyweARvzVThkkqGkPA8CaWf0+FtBUi1nnjhCkyV5PUFfvEqup4u+2V4EnhegUUbQvAUkvwAJQySLsMtjo3XDtYk0vJEIDotNp5CZv5vmOiCLuVKuQ6QuCYlRHSlRILv5I9m/we4yUtIgCnIo5VqkxfWGQRsHj9eFnKIDOF16FG5PMC0sWdxbJfRFpCEZhzJ+pnkNFDItJRIWRylth5CELqmX0z4dyd6ElNju6N1+HL7eNB9llqDAj9y/ZVwvxEe0oZENmad3w2jLr3gOUkctAbd1ltArnqcWhINF9TchEHMriQsXXE66K6qp+HQ6WPv1his5CVJxMdS79lDxHxHQ+dUqeA0G2Hr3Asn0xlss0GzfARnZDbvdFRaEFh99Cp/BAPnxE5Dl5gVT8lbJD+/XqGlolaN9O8iycqDauw9iWVAcSHb/JCSN7NZCojLy0XRHRtCcDaQtn1YDb1QUbCR7nF5PrRnEGiGWlFCTcah4oyJhGdQfJN0t6SN9lrIycC43fDotFWnau3WFT6+j15IPvGg0VUYbEE0JD4xME3BVWxHfH/XiqyMNIwj0mdRq2Lp3hTO9FdVEqLduh2gy0b6SMeHdLohVxsQbHo6AwEMqKg5GO8THwTx4IB0D3cZNNI8FseqQPBXU+hFO/ttZPfVxRDhd5Ekb5PlIXgsi2AxFUvgVCnh1WhraFsrpT/vZqzscbdvQfqr2/AFZfj69X6iQHTfJ5xAqtO9GE41WIc9yrkLHzWSiuRZIX01XjIBUXALNlm20P161GjLyrFXmSO94Hvf1kLC/wI8lO+p/RgOx2pDndXTqAFdyMrWCEQuJevtOCObgvCd9dcfHwjLsEshPnIR6114qYiUkieBF5qdHq4O7dRrVZ8iPHYcs9zS1PpE+kkWdhMzKCoObFnd0FM2zQcbHExFB81QQTOi9yDNHRAQjV0i6CY8bYpmxGkxEhOsk4Z4X9QTn99FsiLKqWhCep6G+REgolQSFqmcW8j76hZDYPEDHlfSV4E3mFu9ywRMZEczDYTRRjPySjL7jdI4qFHB06QQimiTZL1V/7IcsOzf4zOWFpLufeN/D0OoM+G39KmxYHSTjzakwC0JzGq06+qpUqXHluFvQpkNXOOw2mk1x+68/oTC/9uxsTQmCfh1uRE7RIeSW/AWfz42YsFYY3OVWSghWbJpL8zHUt2gkYEovCQk6Ho9tcMF8/trF+t66XvVqEinW6+ImWokQhImdRPROEDBnkxt51vpbbZroIzWLbhF32s2dRLyyy4Nd+fUnws3i4ZpZJ4mrlxyUR/4tlyvw2y+rsXFNeYKtZvYsjCA0swGrT3fbduoO4vcKC4/E2u8+x8G9587rXp+2/u46RJCoU0fA43VTkSKxfpCohD+OrcXe4983qDuP9ZXQQsfh9T1eHGiA9aBBNzmPyv9GgnBtWwHDU0WsPu7FyqMNtx6cB5z/2UsviuVxR3cJx0v9WLrTAzeD/R+dCyPGjEf7Lr1QVJCHjeu+Q07GBUok9g88FSMI/wDof8ctic9LqdLA43E1K9UscX+0iOpEU0NLopK6IEhUhdlW2GDYUvQ8LO4ASh2BkDe7wW005gXulCQ4WqVB/3PtUSON2YcL3XaUKpggrMQRgIdtZC80vOdsTyNxiFRxKLD5qTiUlX8WAYVSRTUHxIrb3AsjCM19BFn/GQIMAYYAQ4Ah0AgIMILQCKCyJhkCDAGGAEOAIdDcEWAEobmPIOs/Q4AhwBBgCDAEGgEBRhAaAVTWJEOAIcAQYAgwBJo7AowgNPcRZP1nCDAEGAIMAYZAIyDACEIjgMqaZAgwBBgCDAGGQHNHgBGE5j6CrP8MAYYAQ4AhwBBoBAQYQWgEUFmTDAGGAEOAIcAQaO4IMILQ3EeQ9Z8hwBBgCDAEGAKNgAAjCI0AKmuSIcAQYAgwBBgCzR0BRhCa+wiy/jMEGAIMAYYAQ6AREGAEoRFAZU0yBBgCDAGGAEOguSPACEJzH0HWf4YAQ4AhwBBgCDQCAowgNAKorEmGAEOAIcAQYAg0dwQYQWjuI8j6zxBgCDAEGAIMgUZAgBGERgCVNckQYAgwBBgCDIHmjgAjCM19BFn/GQIMAYYAQ4Ah0AgIMILQCKCyJhkCDAGGwD+FQCePC39JMnjB0S4IAHp7nDgkyGDi+XN2SwoEkObz4LAogywQQHuvG39I8rPqkhY5BM76e6DKXyP9PkT7vPiz/Poonw82noed42hfhMDZ15MG3Vywv9qAHy5w1f6/lddD+0Nq9HA7cVSSwcSd+1lCnYv3exHv82KPpIC/lsEgbXb3uFDCC8gUxBprkudK9HmxX5LT9ghmPbwu7BdlsNfRlzMbVQQCSPJ5cFSUVfwkDwTQy+PCTkkOVzkW/9QcCt2XEYR/egTY/RkCDAGGwAVE4GVTEZ7UhsPC8Yjz++iCPMNmxAZJgS1yJciyepoX4OQ4JPo8KORF6P0+PGQz4lFdJNK9btxjt2CaLuKsXt1tMyHV5wEfAAIc6EJJltSVCg2OCSKMvIB+HieudlgxWR9F7zXVWoYWPi/eU+kQ6/dhvMMCZzl5ITcgCzShDLN1EfT6Ry1lcPDAayoDBATQxuvBfFsZHtBEQEIAL1lL8Yg6DMdECTbyjD4vVAE/baeEFykJIv89zm5BF68Lc3QRIL+Se4SIQpjfD1k50SF1J9jMCIMfL6gNlT0LBGh/Qov1GKcVvd1OzNZFwgcgxu/FMnMJ7tdFUnJRtST7PEj2+eAvv8deUU5JUqgkej2YajfhIV1kxd90AT9etpTgE7kKm2VK3G83Qe6vJFPk6kxRwgdK7Tko2gWcQFWaYgShcXBlrTIEGAIMgb8VAbLQiQjgOVMxFmrD6CIyyWpCmN+HYl6gi3Vbn4fukl9W6ZEtSnjBXIQX1GF0dz/VZsQsbQTusJvQ1ePBVpkcCATAc8AJUYZtkoIuisQiMNtWhudUBiT4vTgkylAkiJhnLsYragOi/T5c5bBiuj4KmoAfnT0uumj3cTtRxIt00V4nU9H+hEqOICJXEOkCTiwIU6wm6AI+OMBRcqEOBOCmC38Akj9A+5shSXhKE44Z1jJE+HxQB3zYKFchxeuhfYgOkNYCKOKCi/cJQcSrGgN84DDbUopWPi+c5R3gEYAADp4qfSLE51WVDntlCiR7PZjotCCLF7FZpkC2IOEijxNjHFa8rKkkFYQoEMvGjQ4LLvK4sFuUYYTHiadVBmSJldaJWJ8Pd9mNmKuNoGRJhQDSPW5YeB4zrEY8rIuAnpCeKsaWzl4X+rudeEQXWatF5EJOOkYQLiSarC2GAEOAIfAPIUBcC7c5zIjz+ZAviHhaE4Zonw/T7EZM1UVSc/sCWxnu1UaiiCfLIbDUXITnqxCEhZowvGIuxgFBoot6B4+HWgp+kKuwXq6iLoK7bCZ4OA7vK7WYbS2lJvdvFWosNRbhRU11gkB295MdZhgDwPPaMFzmtGO4244Dgqxip97O68a3Sg02ypQVyBn8fvTzOLBdUlCLBXF73O2wYJ2kwEmRuE+AY6IMRp7Hk9Yy+vdOPjds4Kg7ZYVCA2sVsz9xmXTyujBDF0ldL3MtpdggU+I3mYLeM4q6NQBz+TUSQO/h4zgQd8ByUxHyeR4Ojkd7rwdPa/S40WGl1xILA8GS4Pu9XI0VSg1uclig8fuxXK3H8+YS7BRl6Olx0YWdrPnEehHh9yGPF/GaWk8tJbPsJtyjjUQHrwunBQn+clcMqV8sCLjI7cI1TisjCJIkweOpyuX+oTeO3ZYhwBBgCDQjBMhCs8RUjAXaMET4/WjvcWGc04Z1ciWSfEGf/GqFGvtFOTJEqRpBmGwz4lu5Go/ZjLhTH40ynsdkaxmyRAnfKDQUhUtcdtznsOBFlQ6RPh/I4t7D68YsbTgmWY1nEYQQdL08TgxzOajGYajLjqOiVOFaSPN6sEKhxiZ50Kqg8wcdAR4OVIvwhrkIbqJJIBYSatHgqEvhTkM0/fuZBIH48RdowzHcZafEwspxOC2I1KrxqL6SIPwsU+KEKNHfplqNKOR5fKzS0Xs/YDNhpyTDdpkSykAA75mKMEsThlOCiNfNRdgtyNDD78ED2ogK/cEDNiPyeRFflhMEvd+Pd1Q6LLaW4CWFDsclWcXOP8HnxSSbkRIWUlp73ZhpN1HydrfdhIvcTnjKKZSSA6ZqI5Di8zKCQMBiBKEZfZFYVxkCDIEmhcALpiK8rtZB5w8gze+B6A8g1efFYZF48AGBA/4Q5TgiyqoRhFmWUsgRQKzfjwUaA62z1FyMj5RabCvfaU+2m6Dw+1HE87DxAg4KMgzyOOjCRywYL5/hYiDAJPu8mGUtwwaZgi6m7X0ufC8LEg5SSJ/I4lwqiFAH/NT8T8zrObyAhZpw2oetZwgmB7odmFILQXhWE4YpViO+V6pxg92Cz5VajHZWEoR5llKskSsx0mnHKxo9iAhyhMuBmdpwKj5cYi7CU9pwqs8IEYTZGgNOCRJeNRdhjyDDEVGiGBJXDbEgPGg1IksQ8ZVSgxscFoxx2VHM8Yj3+/C4JgyjnXZ8ptIgU5BQG0Eg2gPimtgtU4BYMhaaijFXG05xZBYERhCa1MeGdYYhwBBoHggQ330brxv320xwczzeUWnprrut14POHje+UAYXZbKYlfI8XeyquhimW8uwVq6mi3RPrwvLlTo8bynBg7oIagoPFbLL15JFz1qKR3VR1FwuBIBnTWe7GIjVYpG5BF8r1dTsP8jtoIucK0CiFCpxJQ6HpWo91SEQK0hflxNXOm1UuEh0EpulSvcDuWqIx4Ep+qgaLQiEINxhN+MltR5PmkuwogpBIBqERaZifKbSop3PDY3PT90C8ywluF8fjdZeDx6xGXGfLpK6UghBWG4qRBHHU3dCus+LJzRhdPGeZDdjnproCyQQ/E6KEr5WBF0MJOKBiDen2014QaVDP5cD8QEfFmnCEOPz1WhBuNduou6JfEGAGAAVfT6qjWAEITRdmAWheXyQWC8ZAgyBpoPABIcFlzrtlACQCITxTit6ul3QIYACngcfCCA6EICJ46i//12VjhKEpWoDXeCJfoGIFAkBWGYqolaBQk7A07rwioe8xO3A5U7i6Q8g0eulqnoS4kjU/3MsJWe5GEjoXqrXQxdQInj0cxyucVjoLv0zla5KLAMJcyR+/yBr6O9yYGQ5QXjJXETrV5ocAgDH4b46LAiEILys1mPOGQSBPp+xCMvUBkpuSPTG3fpozDcXY6EuAkOdNrQjkRPacIpByIIwR6NHliBRjcYSlR6HJDkVdBLrzOPacDxsNeKwIMM3SjUlCIREvak2YJmlmLoYSGjmcnMR3lMErQg1uRjus5tQwvHBkFME8H92M2YyglA5/owgNJ2PDusJQ4Ah0DwQIDt/Up42l9DFjYTo3WMzIdbnxdPaMCT4fFhiLcV92ggqYiThj8S/TxZlX8APoyBihjbqNexiAAAgAElEQVQY2niV04rbHVY8rg2jeoVQIdEBJFRR4/fhFrsZr2nC6E8kQoBoH5ZqDIiqEsXQ1eOiJn6yvBOxYzwJLyxf7Il1I08QqFJf5IBPlFrsKXcl9HM7MdJhxRO6CDxnLsJrVcIPSVsPWI2YZqi0IKyXFOjodcPCcTSXALEgPGEtxV+ChPYeDz5WVboYSETEW6ZCTNNGwkHEluYiKg7s5nFih6Skos41MiU2yFX02UIE4fFyF8MblCDocFCSgxCgO+0mql24z2rEPkmOHxRBgkCw+lCpw3xrKV5QBgnCZS4bfAEOf0qyWgkCwXO/pKDE6GFrKeYwgsAIQvP4DLFeMgQYAk0ZgaWmoP+chDYOdtkx1O2gCxlJyUNCHF9SG+jOmOzVRzttNJ9AKcdjkt2E2doIENHgdJsRBbyARL8X86k4jxjUKwvJm0BM8o/pIulC6ACP3h4HtsmUVLgYCnMkV3CBAMIDfioa7OV2IVcIhh2SMMSjgoTVchW9F7EukEIIxG12M7p5XXhEF4H7bGYY/CTzQGUhWgYixCTk5nFLKUhSJGKWX6tQU4EfIUjtPW6qqSCRB8R6MbZcg0D0Bk9Zy3CHLoqGFRLR5HaZgkYwEIHkIksxjRQIRUEQgvC2qRDrZEpKuohl5mm1gRKEUCFPNM9cgo1yJX6Sq2iY45UuB418aOn3YYY6DEekyqRItWkQiFaii4fQp2AJ8BxeUOmR7vUwDQIBpKlZEMi8JVO3Ss6Kc34faJax8ro0Kce5E4Y15W9Lk+kbwZLEX/vOwDCEccXLQ16g88SZI2FK9OMU/ED5z/gYNRlQWEcYArUgQBYpYkUgojay8y7jBWo9GOa2Y7TLAXMgAH0AVJuwRq6iIXyhQnb9D9rK8LuowF0uK95WaPCtQoMpNiO6kSgFdRh1E5CFjSjuSagfiWggREPNc1iu0OBHuZqSEPJ3Qkwe0kch3O/DGKcNV7odNCpgidqAG+0WmvDobZUed9uMuNLtwhZJhi8VamSKMmr1IPkajgkS1QOQxEAnSGRbuaCR9JlEM5BIhnxBwtPWMqySKdDS56VhjoPdDirqKy3P/UDCFC9z2tDH48QMXQRN4tTD46ILeQevm35jQlAQzUSYP4A/JIlqDD5VailxeMdUhK2iHGaBxxi3A3NUehwoJwgkwRFJvPSMtRSLlToqLrzJbqa5G95S62l+iS8VGmQLIpR+PwSiY/C4cL3LhkfKLTZVoxhIAqszC6EiI5w2DHA7KCmrLTPkhXxJWB6EeqA5qacW8VoBz283o9hx7qFpHSbisjQlEnUCJIGDxeXHnE2merTOqpwLgSHJClzRWol39lrxV0llyGv3WBnGpFcKlk6ZvHhnn+1/BjEiOhbDR16LmPhESkwddjveWvY0XE7H/9wmu5Ah8E8gQBbvB+xGajkguoI7bGa09Hmor3ybJKfJfVr4PDR+n+QA2CyvfI/IQk7CHMmO/BulBn+JEk0oRBbicU4rJRovacKoP5wkY8rnBeTwIr0XyZdA/iF6B+KaID5+YmbfJFOCuBgGu51YK1fSvAXEDkAU/sR0/oFKR+uSbI6D3E4cFGXU7z7TVoa3lFrkChL6uB3o5PVQlwbRSfBcoCJ5UIkgYLlKT60LJKMiERQS68MsSwmWaIiLhacE5SGrkVoSSK4G0ifSx2xehIvnaehn5Rc9EHSFkM0Jgmmht0gK2DiuIlSUkA6iqcgTROqeIEv5/TYjzVh5RJBotAQRMhLyQp6NWCFCmSLJnJjgMKOt202zT5Kwzh8UQTdGmteNBx0WTNeEn5VmmeBNiBpJrrRSrsbWKuPW2POMEYR6IPzgRVrEaUUs2W5Cge1sgqCWOMweqIda4rHztAs+P0D+9ubeYCINVhqOwNAUBa5srcS7f1hxoKiSILSJkDAoKWja6xkvR0aZB4u2mht+g/IrBl86GoOGj8SRQ/tQUngaTqcDv2/6CV4vSZPCCkOgeSFQdTEiizuxEtTXwFb12jOfmmQaDCYzrr2EatR2T+pgKO/buVojLonAeZxFQLQVVa0jpD1iIqgvDnU94/n+fi6MaBbMQICSnHNiUsV6cr73b8j13Lhx4wKHDx9G4HzttA25ax11m5qLgZi6SanJZdAjRoZ7emnxxSEbfsoIJe+8gID8B5uqycVQFYqXLgtHrtl7XgThqutvR7vOPfDG83NRWlz4H0SaPTJDgCHAEDg3Alzfvn0DFouFEYRz4NM9VoJGCmYM9/qBrbkkGefZ5bp2KlyapsSLO8zYX/i/ZYDU6g3o3KMvZDI5SooKcGjfTvjKd7Fh4VFIad0WuVkZcDntaN+lF1QqNSxmE3b8tp52qE3HbhAEAX/t34M2HbsgLiEZPpIc5eAfKDyd0yTmv1bGoVuMDDkWL/JtfgxIlEMpccgo81IrAWH4bcJFxKiDIiZiq9l12g2n99zc/0IQhD6DL8WwK67Gmy/MR2F+bpPAiXWCIcAQYAg0BQQYQahlFGYP0CNOK0DkObi9AUxaW1qtNtEdDE9VIFotIFEn4lChG65yVd36DCeOlNbPTJ2Umo4bbpsEXhTg9XigUChxaP9ufPvp2/D5fOjSsx/GXH8bdm37FW3ad4FSrSkXTfqxcMb9tE93T3sCcqUKp3NO0Tpen5eSjdUrP8HOLb80hbmGNIOIGQP02JbtpJi1DAvmGyeWmSXbzThR5sUdXTToHi+jAkXi4Xt8oxFF9uoK5tDDXAiC0Kl7b4y98Q6s/ORtHNizvUngxDrBEPgvIkDEhORgKXLgUejo5/8iDk3pmRlBqGU0FCJHF6opvbRI0IpnEYSesTLc1EkNmcBBLnKweQLwl/shPjtkw+95laEqtQ365JkLoVCq8NayBbBZzbh2wr1Ibd0WX374Bv7av7uCIBB1vbGkBF9++DouHXUdElNSqxGE6LhEqsbfsPobnDpxBBPumY5133/R5AgC4VAOjx+v7bRQQecDvbUotPow+1cT5AIHgQcuSVFgVGtVoxOEbr0HYtS1E7Dq60+xa+uGpvRusr4wBP71CCgDfpq/oJ/LiY5eFxVJklMgyWmNrPzzCDCCUI8xeKSvDkm6swlC6NKJndUYmKTAc9tMOFxSP6tB6Nq2nbrjuon34MCeHdj261r654SkVFw+9kZsXPstflu/qoIgWC1mqrA3G0vprjchqSVeXjSrwoIQFZuA9T+uwLZf1yEyOg43/N8D2PTT99i3a1utT5mQnIrrJt5bYx2bxYyCvByktmlfY50Nq1Zi366ttd4nZEFw+wJ4Y7cF+8rdMYsuMVCC9eC6sorrR6QqcHVbdaMRhB59B4O6dbr3hSCKeOfFBTAZq1uI6jE1WBWGAEOgngiQrIChMEmSi4Act0yOjg4p/onVYJ4mjEZdsNI0EGAEoR7j0JgE4eqb7kTHbhfB7/OdpbLdtnEtNqxeWUEQNq9fhV9Wrzxnj6mLQaHEq8/ObrACPywiGn0GD68RCZfDDmNZKQ0FrKkc+mMHsk4eqxdB2JLlxLv7K0MTn7pYD71cwANVXDiNTRDumPo4IqJiqBuGELGtv6ylmg1WGAIMgQuHAAln7Olx0uyG5MhlQghEjoOXRCpUuQ1Req2XK/GK2nDhbs5aOm8EGEGoB4SNSRDGTbgH7Tv3wE8/rsChPb9X643b7YLTYa8gCL+s/gab1/9YI0GQZHK89tycCnFjPR6NVgmPjEb/S66osbrTYUNZSTHiEpNrrHNg9zZknjhSL4LwS4YDHx+yV9T9JwiCUqWmos5ho65Dhy49sPyFp5hIsb4ThtVjCNQTARIeea/NhOEuB2qj3yS8b6o+EgVVDoWq5y1YtUZEgBs0aFDAZDI1eNfZiH1qcpkUG5MgtO/SE9fcfBeO/rkPX33wRrVdLLEIkIQ9IZFiYxEE4tK47tb7ahzSoIshG6ltOtRYZ8Oqr+vtYmgKBCH0IB26XoRrbr4T61d9jS0bVjfmtGZtMwT+kwiQrIlPWUrRyuM+dy4CDnhNpcf68rMP/pMgNdGH5oYOHRrIz89vUt1rankQCEFIMYj45nBw17u3wI0ie2XCpPPRIJD2brl7OpLT0rF3x2/Yve1XhEVE0eQ9f+7bhc0//9joBOHvGvyQBqG+BOGadmqsPman4s8MoxfHyqrvQUgUg8npx6ZTTnh9AWzIOncYam3PR0SKI8fdgg/fWILM47VbQP4unNh9GAL/NgQ6e1x40lJ6VopgIkU8JYiYqYvEuVIM/9twaG7Pw3Xq1Cng9/9dmZ3rB09TJAjpEZWHlby2y4Ld+ZURChM7qTAwWYnFW031Dm2sigSJYLj5rgfLTfjEM8ehrLQYP333BY4c+gOde/TDVTfcBiIE/G3DqnOCeNe0J6g//X9xMdRvVM6/VqpBxMwBemzIcOCTOlwMl6YqcF17dcVNzyQV5IeXRoTTPAqkkFwJk9Y0XGQ4eMRo9B9yGc2DUFxw+vwfkrXAEGAIVEMg1u/Fo1YjkrzBXCdVC8l4OFMbjhNi5UFGDL6mgwBLtdxExoL4wxOS06BUqmA2GalJnx0a1PiDM3r8bVQk+slby5B5/HDj35DdgSHwH0GAnCFATkqcYLfQI5MJGThNvnNeLyUKJB3ajwo13lLp/iOINL/HZASh+Y0Z6/EFRKDbRQNw5TU304Mc7VYrzUPx3qvPwuVkKbMvIMysqf8YAiR0kZzKOMjjpKclujkeH6s09BTJpaYSxPk89LCkybpIeuATK00TAUYQmua4sF79TQhIkgyxCS3QoVtv6PRh8Hpc+P6LD+Cpch7739QVdhuGwL8CARLOONVqRISfnAcJevLhC2oDTohBN20XjwtPkKOR1QZsl1WeKPmvePh/2UMwgvAvG1D2OAwBhgBD4J9AgLgURjltuNZhhbzcpUCOlX5fpaNHI1ct5BjnPZKCpVT+JwaqAfdkBKEWsEja4qZ0ymUDxpVVZQgwBBgCfxsC4X4fplmN6OB100iFAM9jiUqPbTLF39YHdqMLjwAjCLVgKpfL4XI1PHTuwg8Ta5EhwBBgCDQ9BIhdoLfbidsdZkT6fOA5DgdEiWZELOCFc+c9aHqPwXpUAwKMIDCCwF4OhgBDgCHQYAQ0AT9GOa0Y67RDCATg5Tj8oFDhS4WW5TRoMJpN8wJGEBhBaJozk/WKIcAQaLIIGPw+PG4tQ5rXQ10KVp7H05pwHC0XIjbZjrOONQgBRhAYQWjQhGGVGQIMgf8uAsSlMMRlx80OCwx+P4j2cKukwPsqLQrZOQr/uonBCEIzJAgxah4GhQCPL4Ayp5/+wwpDgCHAEGhMBPQBP8Y7LLjCaadWAxvH41uFCt8qNCCHLYWKRquHITwSoijC6XQgPzerMbvF2m5EBBhBaEYEQSZweLiPFikGiSb2IYWkLf60StriRpwrrGmGAEPgP4pAtN+HheYShPmDx9KbeR7ztOHIECpT0BNo2nbqjjHjb4NMLqfWheyME3jv1cUIBNgmpjlOHUYQmhFBmNxTi04xMmw85cSBQjfkIge3N4B9hZ7mOPdYnxkCDIFmgMBopw3XOa1Qlp/Z84tciY+VWpSdkQGRhIXfeMdUpKSlY+Unb8PlcsJhtyEvO6MZPCXr4rkQ4EaNGhXIyMhoUvH+TeWwpqYU5hih5LHokjBkGj14eouZzWaGAEOAIdCoCET6fbjNYUZfl5NaDWw8j4+VGqyVVx6iVrUDHMdjwr3TEREVi+fnTm/UvrHG/x4EuL59+wYsFgsjCOfAuykRhNBJiNuyXXh7n/Wcs+PKNAU6RMvg8wewr8CNDadc8Jcfn5ZmENAvUY7fc91w+wIYla6CXsHjtMWLt/fZ/p7ZVo+7+FVKGEddAam4BJrftqHs6jGwpyRDtNsQ+eFnEEuDJzYGZDKU3DQejoR4KIqKEPbNDxALCqvdoWTCDXDGxwN+PxSn86Heuw+Kg3/CndYSlr69YfhuFQIaNUrGXQWfXIGwdT9Due9ARRsBUUTZtWPhSE6CZLFC//MvkB85Sn/3pCTDPKAvtNt3gHO6UDJ2NPxyOcJ+3Qzlzt0VbZDnKb1xPJxRkeA9Xijy8qDZvhOyk5W7qoBSiaKJN8EdHgZFfj7Cv/oGvNlSD7QqqwiCiOGjr4NSpcLKj99q0LX1qZykEzA4SY49+R4YnX5c1UaJcKWAAqsXb/5ROX/0cg4jWwV/IydsOr1+7MhzI8vsw6hWShTafdia68b4diok6AQcKfZg1QknXCRhf3kxyHmMbKVAWJU2tua4ccIYPO5b4jmMb6ekrjaiv/nhmB2nzL76PAat426bDkvP7tD9tg0QRJSMHAGvWg1l3mlEvPdRRTuOLp1gHH4JTfqj3bsP2p82VLuHo1sXmAYPgEerhay0DIpTWdD/uAYIBGC5bDg84eEI/+RzWIcMgrFPbygKCxH59vvV2+jZHebeveDR66DKzILhm+/A2x20jnXoxXDFxiBs5few9bkIpj69oMjLR9h3P0Iofw9IPdvAfjD37AGvWgV5SSkUGRnQrfm58j4cB+uQwTD37AbO74d+0xaoduyq1g9yL0uXTvAplZCVlKLXjh2Yv+EnqP1+8OXpkudow1FSR26DUddNRKfuvbHgsfvqPR6sYtNFgBGEWsamKRAEucDh3h4aRKoExGoEmJx+WNxBf97JMi8+OBD8OE/vo0ObCAnFdh8EnkOYgsfhIg/e2GuBzRPAxUly3NxZgz15riCJCAA8F/znvtUNPya5saa0LzwMx+Y+DmVRMXwyGdwR4RAdTrg1aqTNXwR5dg68kRE4NX0KPDotlEVFcERFQbLZ0HL+M+AtFnijopD52HR41CooyspAtj9uvQ66/QcR98bbsA7oh1MTb0LcD6tRPGQwApIIvyCA8/mQ9P7H9OPpTmqB7El304+/oriELiBehRxR639BxNff0Q925u0TELdhI0p69kBALkOA4xFAAElvvQfV3n1wpyQj88FJlDiQDzd4Hi69HlE/rUfEyu8ohI626ciadC+9t8xkhD02FqrT+Uh+Zgm48oWiPlir1BpMmfUMREnClx+8gcMHKklKfa6vq07veBnu7K7Fztzg/AlJ0kQeuLd8/nSPlXBrFy0UIgeLyw9J4KCSOHxy0IY9p92YO1iPApsPZE7HaES4vH6oZDzWHHdgxWE77ULHKAl3dtNAJfEwufwguhvSxnv7rPgt2wWVyNG5nqgTUWDzUrEuKc9vNyPTFCQQdRXzFSOQPXY0IvYfQFn7dpBcLvhECRwCSJ80jY5T6ZiRKBgxDDKzBbzXA2dEBML2/oHY5e8BPh/MI4Yhd+xoiG43XVC9Oh18Mgmtpz5CxzJ71qOwJiVCv+8ATF06QXQ64VapoM7OQdLipeAdDpSMG4vCoRdDcjggWq1wREfTudbi5dch5hcgd/pkmNqkw3DoL5jat4XMYoFLq4Um8xRaLF4KzutF6bixyL90KCS7HTKTCR6dDsT532rqIxSGgCShcMKNKLmoJ5SlZQjwHJ2DMavXIvzbH2md4hvHo2DIIMitVuiKi3HL5k24ed06qOzBMfleqcZXCg2sHKEKtZcBQ6/AJZePxcdvLsOJowfrqs5+b+IIMIJQywA1BYJAPpDXd1AhVi0gPUJCkd2H3PLdUo7Zi2+OOnBNGyUub63Cb1kufHDASq0Gd3RVo0+iAh8esOLXU64KghAIALtOu/DpQRvu7qFFS4PYJAmCT6GAoqQULZa/C3dkBLL+b2KQIOSdxqknZ8EeGYGU15ZDuf8grIP649QtNyJy337EvPwG7B3aIWPK/Yjc9jti3v0wOMKiCF9EBISCggqCwAUC0B0+goTX3oKtWxdkTbwJysIitHxiPnKn3A9TuzZI+uATaLZsox/djDkz4Q4PR6vZ8+Bs35YSBFL0fx1G/DsfwBMdjYwHJ0F/6E/EvfwGTEMGIefG8Yhbsw7hK76t+GD7tVq6AyQWioyn5wbJz4JnIeXmwXjNVci9bDjiV62hO8f6FplMjhvvmAyZXIk3X5hXcZlWZ4BKo62xGafDDlNZSZ23CREEUnF/gRsf7rdiYhcNJaWEIOjkPJ4YqKfCtHf+sOJQkQeJOgGzBxjw+Z+VBEEtCy78r+2yoMzhx9yLDXB4/Hh4vREaicOcQQYIPPDhPiv2FnrQKkzEI/30+GC/FVtzXJjeW4dW4RI+PmjFpiwXOkVJmNxbh+MlHjyzrX6utxBBILtpMkciv/gaeVPvhz0+jhIEV1ILnJzxELTHTiDx+RcpNtmPPAhrSjJaPfUMpLzTyFwwl87BtOdfgvzwEVrHr9cFLT+BACUI5pQkCC434ld8A93GTcieNhmW9FZoNW8hrXty6iSo804j8cXX6HywDOqP7Juuhy7jFBIWv0D7ZGzbBrzHg4QV30K3YSPy7r8L5nZtkf7QTEoyTj77FFx6A1o9vQhSVg7thy88vMLCYB7YH9m33ICorb8j+r0PKWE4OfdxSopbPTyL1j+xeAHcOh0GPj4H9508hm4eF41SMPIClqt02F7PdMlEgzB6/K3o3KMP3lq2EKdzMuucV6xC00aAEYQmThBC3WsdLuLRfnpsynTig4PVXQIvDA+nH9XpP5fR0EdS4rUCZg/U41iJB8//bqkgCNkmLxZtNVOT7m2d1UjQiXjqN1OTmaUhCwLH80hd9Byk7Fw4OndE8dVjEPv6WwgoFTg28xHoT2Yg8oc15Yu/gOxbb4HgcSP1oZlwpbbEicemQ3C7EfH7LkR8+gXdbYVKyIKgLDMiZf5C8Jagy+bkovlwKxVInz0fxxc8SXdkKbPnUxcFKeZLhyL72quRsHodpNP5lCAorFakzFsIocxI6xxfsgiK06eR+Nwy2Ht0Q8Y9d9AdYuTmrQj/8utqODu6d8XJe+9E5IGD0P+ymf5GPtyn/m8i9AcOIe71hrkKiPWAA1ftJMoRY65Hz76DaxzfP/fvxspP6r5PiCAYHX7M2WSkVqmbO6jQMkzC/N9MuKubBhclyPHFIRvWZQSPyj4XQRAFDs9vM1e4C54cpEeEUsADa0txUwcVhrRUYuVfNvx4IthGVYLwZ5GHEgqjw0fvQ4rAcZjYVQuBD2Dy2rJ6zeMQQSA784QXX6XjW3TnrXBHRSNhwbMouf5a5A+9GInf/wh5RjBEz9q5IwoHD0DqwuegyMhEwaR7UNylE13go9f8DNW27dXuHSIICV+thGFt0NxvGjIYOTdeh8Svv6EWvPyxo5H6zBIoTlYupFmzH4MtLhat5y5Awc3XU4KQsPJbGFato22UjrkSBZeNQJvpj4G325H30FSUtWkNbWYWon5cDeUf+6v1I++Be2Fq1xYtPvsCYpmJRj+VDh0Cc3ortL13Cq2b89hD6GYswbNLl0Jnt0PggH2inJ7AaOTrthqQNq6++U5ERMYiOi4BOZkn8P5ri+s1FqxS00aAEYRaxqcpWBBC3auJIOhkHJYMD0eJ3YfHfgkuUqQQUePcwQaUOnx44ldTBUH46k8b1pwMfnybYgkRBE1WNhIXLz2ri7ZePZB51+0QPB7wvuqhU8QUnEZ2RRwHS/++KL5sOBzEReF2Q3P4KCLXrIP82IkKC0LqkmVQHg5qCkg5uXAe3ColWi5/F8en3I/wI8cQ91xlHxzduuLkfWRBPwTNzt2UILQgu8M1P1W0cfy5BZAXFqHFsy8goFDAOGQQ/SA79TpKFLSH/kLEqrWQZeegbOxo5F0xAqLLDWLNqFrUx44h4aXX6W70fEpsQhIVjdVUzMYSZGeeqPMWIYKw6pgdXx8J+sirloVDDDAo+Ap3A/ntXAQh0+jFCzsq9RVPDNBRd8P9a0oxf7CButEe/rkMRldwbKsShFMmL2YN0NO/e8+ImiMwPfRzWTUtQ43PXO5iSPngY6g3bz2rWs6sR2FKSaKuhzMPE0h84y2oDv5J3VxF466GuVN7eGUyKEtKYdj2O8K/+7HCgmBJaoF2Ux4C5wy+b+aLByH7pvFI/Oob2ONjYezVg1oTpPyCij7k3X83jJ06oNXC51A07iqY0lsj/fF5EIuKaJ2ykZcjf+TlSJ/2GAS7He7EBBRddzUsrVrBLwrUNRe26bcKUpLx9JOwR0VCcrvPeJYAWs2YA73FjLEqGUadzoXg98OhVGD5qNH4ycdB+mVTnfMiVGHCvQ8hLCKKHpn+++b1WPfd5/W+llVsuggwglDL2DQHgkDY/osjwumHkXwgQ6JE4pJ4YpAexGKwcKu5giB8ftCGnzKbAUHIPIXEJUHzbtVi794VGWTXvWMXYpa/W+ebZR5+CUr794U9Nob6cFPnPA3SBtEgtJ49D7Lyj7Nfo8axhfMgM5qQ8tQzOLx0MdR5eUh66pmKRdo6sD9OTbgRsZu3QnHsOCUISZ9/Be3Pv1T0oypBqNo545WXo6xPLziio6DKy0fK3KdhHHkFcsdciYS1P8Hw1Td1Psv/UqFX/0vQvkvPGi/NOPYnNv30Q51NhwjCd4ft+O742QTh+eFhEDlg8rrgLp5oW8amK3FZaxV1Z4U0CEQ3s2znuQnC4mFh0Mg4TFpdSnfYpBBh4+i2Kry/z4oMoxePD9TjRKkXz22vnzvhXA8WsiCkvPsB1Ft/P6tK7iPTYGydhrQXXoLiz8O1YuONikTp6Cth6tAebq0GcRt+RfinX1RoENrd/UDF9cXjrkLh8KFoNX8RzN27oeiKS5H69LNUVxMqOY88CEvLFFqn8IZrgwRh1pMQi4NuoDMJQug6d3ISSi+/lLrFvCoVEr/5ngomM+fOhjMiDK3mLoBYVFxxH6IhIbkNHraUIs3vpd+NIlHC09dci59HjaR6mxZfrICuytyua5KQKIbxt9+PtPT2WPLkNDgdZ8+TutpgvzctBLghQ4YEysrK4PE0nVh6FuZ49iSpzcXwSF8dWodLeH9/UMhFSv9EGRWMrTvhwJeH7X8rQYhVc7imjYBTpgB+OFF/dTnpd4UFoQaC4Asz4PjTc8G7XVHGyq4AACAASURBVGi5eCnE3LwKsLwJ8fT/iThQdiqrYmEnEQ+n/28izB07oPXMJ+Do1LEaQSB+2dP33wVj+3ZI/PpbahEgOy9nmIF+qIk7gZTT994JY5fOSH1+GbwREXUSBHerVMiOn6zoH4lWODV9MtzRUUif/BC88XE4/sQMyKxWJD/1DARjpavHFxkJobjyg17XZ4P4f7teNAAKpQrbNq6tqD7gkivQuWefGi8/9tdB/PT9F3U1j7oIAnEVJGhFvLzTTPNykIgZolEgBPbTQzbszguKFGsjCLMG6NDSIOGtPRZsz3Ojb0KwDSKEJCLF3afdmH+xgYogl/1uxrGySrdRjIpHgb1+yXjqIgjE+pQ98SZEbd6KqA8/qcRGEBAQyT8i3C1bQnHwUMVvnsQEHJ89A6qiIiQ/PvcsguBJSULG1Ek0kiV17gLYunRC1q03I3r7DkSVRzb4oqPofBCcLqQ+MY/Ot9oIAieJVJArO15uAeI4OvePz3gIhr+OIP6Fl1B0/bUoGjIYiStWQrduPe0vIQfD3A7cYTdB9AdolMJ2uQJvKnUoEyW4W6bg+KPTEL5rD2LffKfOuVG1Qr8hl2HYlddgxUfLceiPHQ26llVueghwgwYNCpSU1C1S+ju7zghCwwhCuILHrIF6iByHnzIc0Ml49E+S0yRKC7eYUGj3/60E4co0Ade1F+muZO5mNzJN9TeT10UQCDLWPhch55Yb6G5fv30HAoIAa5dOIOK/1IdmoPDWm6lyXLv/IOS5eTSKoHjYEIhOF1rOXVBhQdAdOUotCM6WKbC1SETEth2IefcDCj5ZJHIm3EjdBYYt2+FKSoSxe9egqPHFV2HrHYxiqM2CkDv5PjhbJEDzxwHIiorg02pRfMlgKAsKkTxvIb0P2RHmjRkJ9aksGkpHwsyIYJLsKuMboEFQqtSYMmsRREmGj958AZnHa9/5NvR9rosgDGoRjJIxu/zUatUmkkTU+BGjFmgY4uYsV50EoWuMDPf20MLq8SOjzIt2kRKsbj8NmXxvvxVbsl3oECnhru4aamEg/+/xB2jkQ7RawNRy60Vdz1YXQfArlciddA+saS2h338QipMZcCUmwEYI5MuvQXB7cOyJGVBn5UB94CBEux3WTh1gbtsGsb9sqrAgWJJbIHzrdhqSa+nUgWodkl5bDsXho6D3mP4ArC1awLBzN2SnT8M4sD+Nmkl+420qvqVRDLVYELxJiUGhY2YWVIf+hOBywdyrB2xJSUj47gdqQSAWjuwp98MVHgbDrj30fXC0TsOkHb/jljWrYZHL8fL48fi6XUco/zpMBZGmvhfBHhePxC8bZkEguF9+9U3o3nsgFj8xBW7iomGlWSPAMinWMnxNycWQrBdwV3ctduS48O2xs013aWEibuqopoIvEmqXb/Vh6Q4LjUUn5aJ4Gca0UeHHo3Yah97QQuKoncktarxMs20HFOU5ArrH8rijiwi1jMOHB7z4ObP+VgSfXo9Tk++FKicPseWL9bluSgSDhUOHwKtU0rAyEh4Wvn0HtOt/gb1nD5QMGwJHdCTd7dE8CCVliP7uB5rnICRSFC0WupviXW4Y/jqMiM9XgKvyUbP164P8Ky+DV6MG5/VBf/hIhVvD3rUzcq8di/gfVkO9rXKnlPXodEilpYhb/i4sgweibEA/OCLDAUGg/VAVFCL6q5VUCxEqJbdcj9IuXeCXSTSETp2Xj4j1v0C55496D5NcocRdU2dDplDg1cWz4bBd2NwWXaIlXNdBjfUnHTS/xrnKhE5qdI+T03DBPflufH/MgQd6aZFZ5sXXR+yYfJGOkodQaC5p4/6eJIRXxNxNRhoBcUN7FRU7ErElyRa6OdtFwxrf3WfFtpzgfXvEyTCunQoaiYc/EIDJFcCOXBd+OIfr41z9tA0agLwRQ6kWQLl3X40Y502dBEtKMvWX8E4XdCdOIJLMEZ8fJdddA3NaS2rOJ78TEWzYgUOIInkUqkQxSGbiCuEgNxoR/e0PdOEPFaJRyb99AixpqdQyIVqsiF35HdS799IqBeS3lilo+fyLFSJY85DBKBoyCC0XLgaxSBVfezXMqS3hV8ip9obzeBCxcw8iPvuy4j6EjOQ8+AAcMVG0L4LDgeTde/DiW8uxLDkVO28YD1NqSwTI/CtvI3LbDoR/tbLe849UDGZSnIK4xGQ8N+fBBl3LKjdNBBhBaCYEoT7Th5hztXKe6tpIroSQHqE+19ZVp+iOW2Hq2KHGajFffQ0tSTxTXsa1ETAqXcSz29w4VFx/C0Jd/aj6u1+lojsxzusBb7VRolDtd62WLrrk77zNBs4TNEmHCELa089CVlICjogEiYjrHIXs/vxqNf3wkjYaLBrkOGo5INEJpB8CiZg4o5/ktn6tBn6ZjO7gyLOEIicaggc5JIfneZhN9VPzN6Tt+tQlugNivSKFhDI2dNQ7Rko4WOyBXs5TskCsEePaqnBpmhKv7LRgb0HlGBE3g1riQHSqJKKCWBIudCGWKb9OS/Nb8E4njRqoWgJyOZ1/AYEH73ZXRMOQOqE8CG2mPUZt+rzNXuPc8Ws0dHEmIZJVo23q+zwkssevUNCETrzLFZw/ZxTiRiP3oX2xO6hwUgoEKg5ZIgm9AnIF/Z28D3SuN7CQyKOJ9z6MuIQWePeVZ9khTQ3ErylWZwShllFpShaEpjh5aupTn3geEzuLOFwSwLKdTUfbEupviCBUFSk2J3z/rX195hID7J4Adue7abbG9HCJWhPKHD4s2GKCxX3hSUBjYRkiCFVFio11r6bUbu9BwzDksqsgihI9i4GEPH72zktNKlNvU8KrqfeFEQRGEC74HL29s0iFT5/95YW16fED2Pr0Qs7116HlgmchKwyGj7HyzyNwVboSfRMV0Mg5On+IzuBkmQcv7rScFdb4z/e29h7kTZ8Ca2I80h98tKl39YL3T6sPQ/vOPaEzGGAsLcaurRsZQbjgKP89DTKCwAjCBZ9pxNTcCBbfC9ZPoksg/l9qMi5PgnTBGmcNnRcCxHVAznMQeY7qZ0oc9YtMOK+bNsLFxOxPXBTnMvc3wu1YkwyBRkGAEYRmQBBEUYS3SibARpkJrFGGwAVAoIfHhQ4epl6/AFCyJpo5Ak6Ox1q5CqZ6ZqNsio/LCEIzIAhKpRIOlnSkKb4/rE9VEFAFAnjLWABZIFBxmBMDiCHwX0WAHCO2Rq7C6+pg9s/mWBhBYAShOc5b1ucqCAiCAGJlImFm/2TR+n14sSCbEoQyQYCND560WHsJ0FBFVhgC/xYEyFsY4/NBHgjgV5kSyzSGZvtojCAwgtBsJy/reBABEm3zT5MD0g+t348XC7KgCASw3BCJDaqaT5GsOnZutxt+pgVh0/lfgoCIAJ4zlyDJ62EEoTHGlGVSrI4qczE0xiz797SpUCiaxMMwgtAkhoF14h9GgBGERh4ARhCaHkFQqWVokRpe4Vt2OjzIPN60UnT/L9Ny7KUtUFTqxG+7Lny444AeUZCkYOIgt8ePLbvP/x68ICA5NR0RkTHYtW0jbfvfRBC4RAkwCECeB5BxQKQIFHkRKKg8d+F/GWd2TRUEYkRwkSICh5ruoW3NebwYQWjk0WMEoekRhJato3DrpAHUlM3zHArzzXjxqcpjjht5SlQ0HxUux8tPVh4+5Pb6UFTixBerMrF9b/0PNwo1uOvbUSguc+Kae3+BzdHwRahNqg4yiceBI5VHbYfa3vz55dBpZBQvo9mFgeNXnxdM7Tr3oEloIqNiYDYbsXT+I/86giBMCAffSwXfyjJwBhH8EC38Gy3wrag8yOq8QGQXQxirBz9YA8/UXIZGIyDACEIjgFq1SUYQmh5B4HgOkhQUnT08/3JYzM5/hCAkxamw6t1L6WJeWOyAXitDmF4Gnz+Atz8/gpc+ONKg2bn4sR44lWvFKx8eaXBqYHKjL14ajOhIJS6+Yc1Z91UqBHqmwItzLkKbVP15EYTBl47GwGFXwOf1YcPqldizfRM8nmDq4X+TBUEYZwguXvNOQ+ihBn+lDt73ixHYxXa7DZrYtVRmBOFCIXnudhhBaFx8wQhC0yMIVXs085lRsFr+WYJw/JQZV929gebs79ouHC8+2RtKuYhht6yF0dzww6j+1yn91SsXIyZSWevi/8ZTfdG+teF/JghJLVvj5rsehMvpwEfLX0BBXk617jZ1gkDeZ2J5ImLEc5WqIkX+Mi2EETp4puWCH6CGMC4Mnpl5gK15Jkz6X+dVY17HCEJjogswgtC4+DKCcAa+TU2kWBtBiIjWYNjI9ohvEQaPx4sjB/OxdcNx2KyVyXPCItToe3EaklIjqKbB4fTA5fTi0+Xb65xZIQtCiCCELnhvcX907xiJG6f8SjUF86Z2xf4jpdi6uxiTJrZFUpwGJosbd83cisRYFR6Y2K7iXscyzXj2zUPV7v3QHe3RsoUWy979EzddlYp+3WOQfdqKlz84jD2HShFhkEOtEvHSnN6ICFP8P3vXAV5FlbbfKbffm9z0BkkIEHpHioCgiL2jrmXdtbuWtWBBBRuo2Ouuruu61l1dXUWxFyyIhd5bCOm95+bm1in/832TBgRISHCV/34+PCaZM2fOfDNnznu+9uKCG79rO9/bHEZdY/tiuC+AMH1CIn5/Rn+89HYOUhLs+MNZAyCbRHz4VRH+/tZO7o8W1itvuhsJyan48O1XsWH1j3vpqCNASEpKwrBhw7Bhwwa00rjTAj116lR4vV6sWrXqgDo+2AadBSlSCuaUKVOYROrnn39GILC3JWA3gDDRBvFUN5S7yiEMt0K6IAbKvRVAsEMqpFOEOMMJcZgVsArQa1ToO4PsU5dOj4b6uQfiNAeEBBOU1+ogjrdBPMIB7aNG6KVhiGe6oX3VBKrnLJ4cDcEpQt/sh7rEA4R1iGdGQUw2QXmjHuIsF8QRNqBJhfqfBugUG9FhKCKZ60dYob5RDz2vm8CUSkof19K/jdipNOhlIaj/6uCusgmQTohiXRCTkr7JD5XG7tUg9DfzMW2ZF7okQDrexXEb+jo/1I+IRbJFJAHiZDvEcTbAJvI/IVrquouBCJwGWyGe6OLzSEeoUaAua4a+NQBxotG38lyHmCQBkC6Pg74jAG1ZC/GTWYB4JLW1A1ESUKdCyw9CI723CMWgkE6ENGI2BfTyMLQfm6HvML4fQrzELhKkmYGADu1nL7SffG3vhxArQTw1CkK6GSD2ugYVekEQ6vst16BnPsHOVio4RMCvQ68OQ/vQ02txLhGAcLBfkC6eF7Eg/DYtCNExNlwzdyasVhNKi+ths5kQnxSF2uomvPDYt/D7QhAlATfedRxi4pzwevwIhRS4Yx1QwhoW3vLBAd+QfQGEL149DskJNpz5p6+57vviF2Yir8iD9FQnV1OmGAByBRz3hy/Qr48DC28ay9dKiLdh0/Y6XHTz97td+9XHpmLk4FiUlDejb4oDpRU+9El1oKzCh1Ov+AoLbhqDWVNTYTFLvIgHgu3xC0u+KsLCv2xs629fAOH8UzMx79rRWPxFAU45Jh0ELKwWift87O+b8Nr7ecjKHoYLr7gBpUV5eOWvj3SaDtgRILhcLkyaNAkVFRXYtGkTjyEzMxMDBw7EunXrUFPT/TiNAz6UlgadAQRKwSRwQkIAobkTlsDd0hxlAbAIhsWAPFpWEfBpuy3K8m2JEPqYoTeq0KvCoEVBiDVBea4a8rUJ0OsUCDEyAwAtJwCxv4UpmfXKMNS36iHfkAg9Pwghw2wsdoRSzSK0H71Q32qAdFMCxEwLL9ZCmhm6RzUWRp8G5ZFK6LXtrKHyQ6kQHC3nvrl3HMr+dCddGgtxtB3wqNAqwhw4KNhEhOeWGaeZBcg3xENIt0AvMcAHj2eTH8o/aiGOtUG6OA7aGh/EUTaAyKzoXqwigyTtY2NRlC6JhTjGDoQ0HrsQI3HfXY1BEEbbIF8Sy+QYekkYMAkQEk1Qv/BA+7yJF2TpuCiE/9zBsiUApkfToK1qZmDF4/hTHMShNug+je9HiBIhJJoRvtE4TxhmhXxZHD93AgbUTuxjhrbWz8+NFnT5lgQI8SboeUEGGUKcDPW9emjfGiBEviMJQoqJ3wsCUUiUGWgQ4CQh8CGdEg0ENWjFYQgukfWu/K2mDYR09X3fV7sIQOipBg9wfgQg/DYBwkXXHIlBQ1Ow5K21WLk8n2/i5HNGYdJR/fHeG6uxZX0ZLrt+GlL6xuCTdzfg52W7+MN/w/xZiHLbDwogJMZZcNuVI3DctDR8t6Icf75vJbL6OhkgSKKAn9dVYf4Ta3H0pBTcfvVIBgiVNf42BS976wQUljZ3ChDGDY9nd8WNC1dgzaZaPHrHeEyflIIpZ3+MccPj0DfVgSt/lw2Xy4zH/7G5rc+84ias3ti+mzoQQKAT//GfHP6XGG/F288ejS+Xl+GOR9dgyjEn4pgTz8SbLz2L3O3Ggr+n7OlimDhxIsjqtHz5ci7RPWbMGBBwoN8PZb2BfaU5JiYmMoiqrq7u9PrdqYMgneuGONUJbXUz1H83AIrOQIB3jMThcF0CL/oMFq5J4MVMfb8Bwigbgwb1lVoGCLSQamQ1eK2OF3/5liTuhxZn6bp4iFkW6M0at6fdK8dGTHNC/VsNtK3tVhBxugPCCBs0si5Udy/IVb4vmcekPF0FfVeL9YEsCX7DREG7fumCWKifeqB9Yiz28s2JEJJkhO8uZwsKAQQSbbkX6pJGBivy7UnQCsNQn62GeJThptHW+qC93wi9Qe12kKI40wnpDLcBCD5s2YkTeKMsE7/eJYAgHumAdF4MAzMCN2gyXEZCigy93NCbPJfuzcTPRFvfMkdtAgSXxLrlANbRNigv1ULfHIAQJ0Gen8z3pNxXwX2YHkllYKE8VMkWBgZMUSLQaFyPQdkYO9S36qD90ELfbWopMEZgsRckAhB6QYn76yICEH57AIEsA/MfOQ3BQBgPz/uk7QayshNw6fVHYevGUnY1XH7jdORur8Qrf1ne1uZgAEIwrKG5OcRZAjStv1tRgRsXruQ+WwFCfUMQ51z3Darrgpg8NgGnH9sXi57fhMamdorJ/QGEMUPjcPsjq/HJt0a095zLhuKiMwZg4lkfcdoiSU9iEFotCNt2NeDiW5ej2Wd8KJe/fRJWbazGTfevwsyTZ2PSUbPw7KI74Wmo63Ta7AkQEhISMGrUKGzfvh0lJSWYPn066uvrsXFju1XjUEzhQ14HQQRM96QAdgHhW1t22R1uRBhkYYCg/dwM9V/1xmLRrPHiIV0bByHZ3AYQ9IowlCeqjEWEFqfbE3l3TguLSCAky7LbIkImdN6tf+2BuriD+b4HipR+74Y4wWm4L37wQl/lZ+sH7Xh5MWvZcavfNrGVgUQYYoPY34zwneUQh1h4TLTbVp6qAnwt93J/CpvWlceqjEU30QTl4UroVcb71d0YBHJv8M6eLDKbAgxW9HqlHch0wYIgXRgDcbwd4fnlnceTWAWYHk6DXhSC8njV3lqVBch3JrFLSfu6qe24ON0FwS4ifLMxR+VbEyH0NbO1iKwb+q4gA4hWt5B4tAPS6W7+XVvtg7a0ybAI9RI44DFECiX1YFZ04dQIQPjtAYT4JCduvOt4VJY14tkHv2q7gZQ+0bj29mNRWlSP7z7fjguumIy3X16JjWuKewQQ6hqCWLmhGhU1Pny0tAQFpc0IBI2PaCtA+HFNJa6+a/9xDfsDCMOzY3DK5V+hvMrYzdx4yRBcPHsgJpzZuwBhwTNr8fYnRW36oPRIinO4YcEKHHPSWZg8/bhuAQTy95NZ3+PxoLy8HCNHjmR3A7kdDqUccoDglmCalwS9SYOyYO97YYBwbQIvlhQPQABB2x6A+s+6vQCC+u96BhKtIs9P4t2rsqAc4u9jIfazIHxTSdtiTX5r6aJYqB81QPvc2ztqtAqQTnRBPNJpuFJCOvvslb8b1if57iSOoyCQs5uPRQfUv1RDSDYxQFA/aID2VfuY5IXJvENXHqmCvCgVQlhDmOI4WuI8uwsQyOQv9LdAOs/N42FXQz3FZNRD3x7skgVBviURQoJsjKMThk5xog3S7+N40VZf7QQImwSYCPhYBOiBPQJWSR+LKqF7NCBGgnSOG+Iwm2E98GsGYFzckiYrCxwvIZ4ezZYJskCRdUL9R20bgOrpw40AhJ5q8ADnRwDCbw8gUK7/vEdPQzik4LG7P+WYApL+gxNxyXXTsGV9CTauLsH5l0/Cf19bhfUrjQVx6KhUnHvxBKiqflAuhs5epVaA8MPqClxz94r9vm37BQgDWwBC9b4Bwtt/mY60JAemnNNuNdnzggdyMdz71Fr897POAcLkGcdj1imz8f6bL2Pjmp86vZfOshhGjBiBmJgYBINBmM1mfP/97jEW1FFUVBSSk5PR0NCAqqpOdm0A0tPTmeehuLgY4XC75aV1IG63G2SxoD4ClZWdllqmwEkCLZWVlT1zMdAu865kw39OJuQOsQA0njaA8EQV9IIWgLA1APWVTgDC63XQVhkmZiFR5p027cDD95RDusGIQQjf0O5Tb3UxsDugu8GIB/peRksc6EhZG2TFoMA7ClSUb06AkGGB8mgl9OK9dd9q1SAXirZ0HwCBYiRCGsJkgif8TDtx2mWTm+Ig6iCQNYEX2NF2tnYoCys5FZWCJcP3lAF1RuwIg5CjXNB+8HIMgnQFxR9YoTxdzc9mL0mVYZqbDL00BOXJ6r139CYB8t3JhvuoE3C4Z39CXxOEEVZIBL6iJbYcaWvaXYs0RorboABLgeIi8oLGdXtBIgChF5S4vy4iAOHXDxCam4L422MUEAgGBfT/P1x9JLKHpWDJf9Zi5ff5MJklnHjWSBwxpR/+++oqdglcfO1UFOXX4o2//QizWcaVN8+AK9qGUDCMhbcsabvxKHcsjjv1XJSVFOCnbz/nwEOSfQUpdtRYdwFCSbkPV8z7EZqmwx8wrBAUpDi8CwDhH4uOxPgRCZh9zVLsKvKCah847SbOpGgVAgjDst04/mKjsBS5J8JhDa0uhv0BhLT0LFz657moqijHS08/AEXZe6HoDCCQ358sByRFRUXIycnZa8rRcVq8KU7hm2++2es4AYgJEyZw/MDq1avZTbGnjB07FnFxcQwe1nz99V4AgcDJtGnT+LSffvoJPl+L37dDR92KQSBT9UQHtK1+kBWAA9EsIgTy3SfIhgWhKwDhP/XQVvgAyhI4P4aD53gn/o23LUgxfGsp70KFwRbIf4iD3qQa5u8W/zndAi8wR9i7HYNAgYIUlKdt8Bv3QO7yNAIqSdCLwuweoPgGjh/4yWsUiqJMDspAiJWgVygQRxsxCPsFCHcnQ3BLUJ6thl6jQPpjLMRsK6DpXQYIlAVCoIh36BTzQcGTZBGgTIi5ZRCPcUI60w31wwbOWKCsD4oXIOHYiP80GLEQs2Og14ShPF8D1KsMVsg9QNYIEnIhEFhTXq8zqjzS/TrJrwEOEJUvjYMw0grl/Qbo3/vYkkGBi0KyDD03BCHDxPoh/XFgqwCIR9ggXRQH9b0GaN83Q5xkg7Y5aLhsqEmUCHlhCt9bayAjjYWsHdLFsQyCCGC2un26svRFAEJXtNSDNhGA8OsHCGaLjKZGP1RFwz+f/R6eBj9iExy4as7RoGPlJQ2w2U2IS3Txzy8++R3XLJhzz/FwRlnh9QRhscpt6Y82hxn3dwAIU485CcecdCZ0XcOLTz2AilJjh30oAILDbuJqimWVPlxy2w/dAggnTk/BA7ccAZ9fwY68Rq6JUFXrx6VzjX5ICCBMGpuIimpjcXxzST5eeTe3SwCB2v/x6luRnjUQ33z2AZYv/XivmdUZQKBF/cgjj4Tdbt/n4p6VlYX+/fvzwk8AYE9pTVGk+bhy5Uo0NbX7flvbZmdnIyMjg1Mqd65evRdAIMsBAYTWNMfOaMu7AxDIxEwfbjIh616VUwNhF3mhUV6s6TJAoAWEFnwK6oNTMqLt/1XPiwZnMVCQIgUdEkCg0s9+w2TP/uwOIi9KgUDnL/NCfafrWQxCpgnynCTozSpbQnS/BiHVxH2p/62DRgugWTDiEPpbodcqAPn9KdPBKSF8V3sMwv4Agnisi1M/ecHkBVUysjNSTF0GCPJ18RD6WYz4CAr2swtGNkVuAMqzNZwpYLo1kdMKWafRErRdQbbCaCtbshhMAsRTXJCOjmJdUgYKZ0M4xbZ4EqGfGdI18RBMgqFnnw4hRjSyGEi3ThHy9Qls/SCABHI1kD5MAsK3lXEKpXRuDLugQPoi0NXXTEEBUJ6p5hRVznIgUEI6p7ESUEsyGRksHbJQCPTJBHJ0QHm1FnpH68MB1rYIQOjB4t+VUyMA4dcNEI45eSjMLVUVadf9/Vc5nMJIkpwWjXGTM9E3M5ZTGHO3V2HZF+3VDROSXJhxwmAkJLtQXFCH77/MwZVzZoAqNT58Z/viR3wDJ5x5Puprq/HuG3+HqhgBVtEuEy7/XTYv6K++u6vT1yk22oKLzx6A/OImLP6i3XTfWeOrLxwEu03mQ5Sx8NLbRv2B352SieR4O/75zk40NRu79mlHJGL8iHg88+o2dom0ynHTUnHSjDROqSyv8uHjb0raAhupzezjM5DZ19nWfsX6aixfXYXRQ2Mx88gUfL6sFJtz2heXa34/GKUVzfjgKyNOIzYhCVfcMI+KIuCdV55Hfu62NosKHe9JoSSHw8G7+lYLzZ46orlIQKGz+gWtbakPSl/cVwwCWREIIOyrj24BBLpolAhxigPiIKuR918R5kh4fb0fFC3PdQHqVUgnRxnBaqvp73aAouFzg0aaY1HIWKiaNQ5kY2sCpQlSEB8BhH4WaFv8EGjRKwlD2+iDXrC39YayKsi1ob5Zz7vYLotN4KA9IcvCuf20WNIuVqdsg587WFmonsBp0RAGUqomGLRQVoW2opljEKgsNWVjdLy2SPUQgjq0b70Mnmj3Trt6Tgtd0cy7wlsIVgAAIABJREFUYbouZT10RciCImRbIWYaO3TuOzcIfYWvLXODrCHSUQ7ALkHb5If2ZRPrn1IJdbKSkFDdB7K4jLQxMCPQQ64TCiZsFbICULYIARiODygIQdsehL7NsMhRWiPdH7kQ+HiFwscIRCBGhDjWDmGAxUhL1cFWE22lz7BIULbLaArytIA5PyiegYDi1iC0n5p3C56kDAmyLAmDrEbKaMe6EgdQWgQgdOWt6kGbCEDYXXm/tkJJB/to45NcCPrD8PtDbTEKI8f35RiEPTMbDvYah+t5I8dNxolnXQCTyYytG9fgx68/RUWZASB6AhB6U1+HPEgRgDPRiSFnjYJkklC6qgjFKwp4IbDHOzD0rFGQzRIqNpah4HsjhdYWa8ew2aMgW2RUb69EXkEh70JNS/wYkjEQJpsJdbtqkfPZNpCfzBJlhX1uGppdIfRf6sb2JZsZPJmdZgw7ezQsLit+fnZZb6ot0tevUQPknphl1EyglFkKxuyqRABCVzV1kO0iAOHwBAjDxqThnD8egdoqL2qqvTDJEjIGxENTNTz/yNeoq2mPKj/IV+ewPi05tS+OPeUcZPTPRsDvw+P3zjE2ZhYLxwn8r+VQAwRavEddMA7lG0rRVNqIQacNR+5n2+ApbcTIC8ejdmc1andUYciZI5D/3S7U5lRh1IXj4SlrRPnaYgybPRolNeWomRFGv4pEYEMAxT8WYNjskSjfWIbSlUUYfu4YlI7ywOsMYsT6NNTkVKPoxzwMPWMkRJOEvKU58NVG3tP/9bt2qK8vznBAOtUNbb0P6ut7x97s7/oRgHCIn04EIByeAMEda2f3A2U2OJwWJh4qKazH2p8LUZB76Cr8HeLX9Rfv3u5wIqVPBnbtMMpDkwuAMg3+1yChuwCBduZUuKmz7IjOlDr6ovEI+8LY9v4mDijtOzEDyaPTEPIEoCkatry3gcFm6pi+SJuQjkCDn+NeNv93A7SwiuQRqUg6pi/KUxvh2imh4NXtUMMqEgYnIXPGAG4vm2VsbNrBfvXorwT0nzUIQY8fssWEDf9eA7VDxcxf/MFHLviLaYBcNxTzwJkuFETaDYkAhG4o62CaRgDC4QkQDuZdiJzz29GAS9fw94YqWHUdzzui8YXF3quDTxyazG4CXWuP/7C6bYjuE4Pq7RUMElqFrA0x/eJQva0Caqg9sNDkMCM+O5H/rgTaKx/KVhnxg5JQu7OKQUiriGYJiYOTUJdXi1AHPpFevbFIZ4eVBiIA4RA/TgpoOpQlYbs6/F/LOGiHqKq7R0939R4i7SIa+KU0cKgBwi91H5HrRDTQEw1EAEJPtBc5N6KBiAYOSw1EAMJh+VgjN9VNDUQAQjcVFmke0UBEA4e/BjoChOcc0fiyl10Mh78GI3d4OGggAhAOh6cYuYeIBiIa6FUNtAIEi67jA6sD60yWXu0/0llEA78FDRDR5ZW+RiSpKr4z2/C00/1bGHanYxSGDRvWOxyXv1kVRAYe0UBEA72hgVaAYNJ1qknDXDkRiWjg/6MGKFyW3v8IQOjC0xcn2KBTuXEqV/krhiPE2Ma1v1tE3+iHXtMLwYExEsQxNuibAl3mjBfH2gC3BH2rH4iTuRwolTbVi7rHOd+Fx7PPJoHRIxBOSIRz2XIIwa4XCunJNQ/m3OCQQQj16dN2qrmgAJadnVdZ7E7/uiTBN20K5MpKWLa1V4PsTh+dtaUa+yRUvY+Ib2AWudobmLXv1yVU/pfIeLR3G6DX7X8uSLqOpxtrkKmrv+Zp/utScGQ0h60GCCA8a3fhc4sx3w9GYqb6oCtAw8+9mxHU1bH8IhYEolKlGudUy5zJPn6lIs9LghAvc0lbYvsiClAmU2kVuwj5z/FMELKn6KVhqC8YNK17CpO9XJsA9aVaaOs79LcfPXDN8YEWrgMuDrdBHGffi9b1UKux7KbrUD90CAbNuxdyVe8wnR2KMVf//nzUTpnEXauyjKQvlyL+7fd2u1TFFZegeUD/vS5vqatDn4ef6HRYmsWC3EfuR9SadUh+7d+9NnTTo6lctz58fwXkOYkQoiQoiyq4XPCvTaiksXReDNTFDdC+PjDNsVvTkKT1/n2I050g0Kx+4uFSwwcS+TIiCxKgvNT5nNxrjqaYIP3ODS3HKCEsXRjDtfvV/3adX+FAY4oc310Dggnoc0EFLAlBCBLtIAVoYREl/0pBsMr0i6ur/5wiCJKOguf6Qmne+xvf3QGFBQH5konBctLp9Yg7cm8aa9UvIfeRdKi+zq839OE8aEEB2+/u193L90r7CEDobEEfYoV8dbyxoHcECEQUc1IU1/CmWuFUz1zPMawCVFdc+7LzD+jBAATp0limVA3fWQbpxCiIRzmhPFEJPX/vevC98iZ00slvBSC0Dp12/DuefRzx3y7bCyB4Zs5AMCUFaqwbtSOGw1VSCtuufMheL2Le//AXBQjyghQIFgHheeVMM0zWIXrO3S3Icqiee8d+iRiHQAKBgz2Jin6J67deg2v0j7ZB/bSpjTNhf9eX701mnB++p6JLwyRSH6JXVj9vgr7Gx6yK2hqfwRgZkUOigYwrKxEzvhZNO6LRsCYaolmDNTmIyk9iEKox+FF+SYmf6YGuCaj9xtXrl40e74NrcDNklwb32BqE6uzwbHJCC4mo+CCWQUBnEgEIvf4oet6hsC+A0KFr6QQnxJPdUP9dB+2nvSlsd/vIHoQFQZodDfFIJ8I3lzI5CfOtzyn9RV00hxNAaH0e/vFjkXfVZUhethxxr7+535flUFkQCBQQRTHx2ss3xENINTNtbkR6TwPdBggpMuRbk5gWWN8aYNY/9YsmJh2KSO9rQLToGLIwly1pW2/rD139/xGx4sgOYeCtO9GUE4tdj6YcULGHDUAgX6p4tBNCrGywaHlUZlHTljah1cWgftTICx21oePq+408GVnMAsSZLoijbEwnyvzbqg5teTP/k/8UB92rQVvr41284JahNyhM0akXhiAe44A42Qn1w0b29xP7GHGe65sDzEfeKsIIKxNwENuXHtKh7wjwODr6f3sDIIinRkEcaQOsxBcr8PX2dDFIf4yBONjKY9Z+3B1kiFPshtVgURUE4n0n0pD7Kw/4QnW3QXBQNqpPOQGBlGToogiTpwmWklKk/OMVtAKEfn//J2qnT0OgTyqkZh/iln6L6G++Y3IbSBI8UyajfupkKNHREHQNQliBo6gYiS++jKrL/gh/SgoSP/oU1cfPRDAlGXKTFwmffAbnTyvhHz0SFWedjqSPPoU/vQ8aJhwBsgQ4c3KR/MI/2m4nlN4Xleedg0ByEl/DkZePhHc/gFzRrpP9WRC6ChAaZ81Ew8TxUFwuvr9gjBuxP/zUqy4G6eIYBgjkkhLPjWaaX/Wp9lLTwnBryzsuAWIL41xZCOo/2k2UxErH84De46AOfZsf6gceg9YX4DkgHucyqIqFlj5KQlD/2dKHSYB0vhvCQCsEYkQkJsNGld9RYkIUT3axBYtFB9TX65h5bzehPs5zG+x5VpHpc4kVj1kEVYBArtDyfjNDHzHoBXSjzRddW3ils6OZUY9FBZRnqzuN1RDG2iAd5QRiDRY/ctvAo+5mQRAn2yGeFM1UwMpzNbtZIoRYCdJ18dA+9EDbGWRXovaNd3dmxe5Org7th2Ycg0HpU7E+9xNMHDIbvkAjvtvwMo4ZeyUsJgd+3vI2CirXwiRbMTb7VPRLHsc/B0JebMj9FDklBn24KEg4YvBZ6JcyDmbZClVTuM2qHYtRVLmB26TEZmPCkLPhssdBECSEwj7Ue8vxxapn20aU6M7CuEGnI9qRCEEQoaghBEPNWPLjQ21tRg84GVmp42Ex2aHpGjQ1jM35S7Gt6Dtuk5E0GuMHnQGH1Y2wGkJpzVas3PZfHs+BRJCAgXcUwdbXi6KXM1D/c+d+ejlaRdo51XAO9rL5P1hlQfniJHi3GxkygklH+sWVcGQ3QzKrUIMSwg0m5P8lDYqH3n0gdkoTEo6thSkqzL8rzTK8OU6UvJYAa58wMq8saRuu0mRG7qNpuw9fAGImeZEwqxbmmBC7QXz5dpS/n4BguQz7gCDS/1CG6u/iIFlUxE+vg2jS4Su0Ie/p3fs6EECg68RNr4c5NsQuF1N0EMFq62/bxSCOt0H6YxxAH4htAabQFPuYoFepTINKAEFwSAa9Zr0CvVKBOMTK/OLKQuMDz7vkk6MNClCiYrWI3Eb9ygPtsxaQIQkQXCL0KoU51GkhJ25z5eEqSGdEQZwZBT0/yDsyonBFggwhQYb6Wh3X1BbSTZCvS4Ae1qGv80NIkRlIqEsadnMP9AggiIB0jhviFCdTjRJ4Yc7x/pa9AIK8IBlCjMzUreobv7wpM5yagrzbb2ZfbfSWrTDXNyCQlMALev8772kDCNb6euiCCNfOXDQOHcztB8y7F2JzM3zDh6Hw2ishe5vh3JXHkbsNo0bAWViMPg89hpLbboInqx/MzT5AUeDKzUPDiKGQQiEMuG0+midNQMElFyFm23Z4+mfBmV8A1WaDN70vUpZ+g9i3/gslPg6Ft98CxWxC7Oq10Mxm1I4fi5h1G5Dywkttk7mnAMEzYxqKLzwPlvoGOPPyoEsyGoYPQ8xPP/cqQDjQx1NemALBJkDbFDAW/DiDDlh91gARQqYZ8rXx0AM69PU+CGkmCAOsUBfXQ/ummdvK9yVDkKkPP9PzUqArZLT1QSBFHOeAXhiEtivEQIPeU/W1ep6D4lQHL8wEMIQMM5Snq4051Sp0jZsTIKSYoe8MQCsLM9glCmLahRNIkC6PhTjKDr0qDIFogHODELPMgFWE8kglfwcOJOKxTggZFgiJMv8L310ONO0ezCn0M/O8RtigIaaNgTjMBnh3Bwg8LwlEKDqU+yug1/ZCAPKBbqDl+PjsMzBywAkIK34GB7FRqahpKIYkmRDliEdZzXZ8tvIZXnDHDDwJpdXbUe8tQ//UiTDLFixe/gDqm0oxvN8sTB52Lhq8FSit2QaTZEGUIwFbCr5BXtkqvtq5Mx6A0x6LwsqN8AXq4bLHQ5as+OTnx/i43erGGVPuhNXiRHntTgRCTUhPHAlNV/H6FzdxmzEDT8H4QaehyVeHqvo8BglpCUOwJmcJ1u38GPHRmThp0k1Q1TDyytcgxpnCx1dsfRcb8z7rklbiZjQh7dwSdgVVfJaM2qXRULztvnhB1pH15zI4sz1oWBsL8tfHTKxlzpGtdw6A4hGReU0V3GOq0ZwXBW+uA2Z3GObYIAr+loZwowRznIJB9+ZCD0to3OSGFhZgTQhCDUgoeD4Z5kQFqbONeRU1zAM1IGPLLVm7jd813I+s6/IRbrDAs8kNya4gekwd/57zQCbsmSH0v3EXj8HWtxm+QgcEEXD0a0LDungUPJ/Y1t/+AIJzUABZN+RDC0rw7nQBqoCoEY0I1Zl/2wCBzXluyfiI5LdwotNzNgn8cWKAQFH4lWEoj1UxcpdvSADSTFBuKYMw1AL5inhe+JVnWnYIThGmBSlQv2lqAwhseSgLQ3miij8G8u1JQLQEZW5ZG0CgvpUnq7gdfTjlmxOh0q7g2ybINyUY/t77KtjfS7sG+d4U9q0q9OFpkZ4ABCHbDPmaBOg5QSj/rOUd075iEGhHJRB//aeevT56XZphPWxUfPcd8PTtg4xX3oDzh5+M3kQBms3Oi3+rBcFa34DMBYsgeb2oPet0VM2aiYFz50OPjkLe3JshqQoyFz4EucYICNv55COwVVa1AYTGgQNgq63jNtRv1UUXoG7yBAz6883wTTyCAQJJ39ffRNQPP0GXZex85AE48/OR+tRfUX3OWaiZOQOZTzwDW04udJMJBfPmQomJxsAbbm3TQk8AgpqchNz5cyEFAui36HFItbU4VC6GAz02CmLUPRqUhyr5PWehuUQ/ywLkWxPYChe+t4J300K8BPnuFAbfCvnczQJMi1J4AebA4FZp7QMwFvcMC9TXatnSZzx7w1rQMQVBHG+H9IfYvQCCMMjCi7K20Q/15Toj+NgqGsDEJCC8sIItCAQQaOMQXlTJc46CDaUz3fwd0ItbvhUHUggN7QQXpOOj9gYI0SJMdyTz5kN5qgp6oWHl6NTFYBMhznSCs5OKfrlYHhoPAYQx2Sejsm4XPl35FP5w3JMIKwEs/v4BnDRpDpoD9fh67Ys4b+YieJqrsPj7hWwdyEwai1lH/Amb87/GT1vewoQhszGq/wlYvX0J1uUasTMC/ScIvMsnuei4p6DrGt5ddi/8QQ//TRJl7o8sEKdMvgXx7kx8+OMjqGks5Lazp98HuyWKAUKMqw/OmHoHPM3V+OTnJ+APeRDlSMTso+5hC8iG3M9w6pS5DAre+vpOBhhOWxzOO+ZBNAca8ObSuV14okaT2Cle9L2oGIKoI1RrQcl/0uBZb1iM7P2CGHj7LtR8k4DStxL4bynn1CLpuArkPdMPnk12DLqnCLY0L/L/3g+Nq22GPkTDuEnvsSUpjMH35vKCu+uJlkwnMurKOvTw7m4NMueTZWNPgDBoQSFsKV7sfHQAmnMMy0XyGbVIPqkSRW/0RbjWxACBpPKTZFQsiWNrx9CHdkENmLDtzow2fewLIMgxGgbfswuSWUPOw/3gLzTzOb99F0OcBBN9nFp28p29GexisIlQn6hqQ+3yVXG8QyG/unSZsdPgCZ7X8tHoBCBQ3wwwWnYQvOCnmRC+pR0gqF81QfuwkbMmyHpAvkTtMw/UH5vBWQq0AOa0uDXowzPExh9G9u+3SE8AgnxdPN+X8vcaTmvkF/YgYhC6PMMOsqHmdGLHYw/C0tSErFvnddpLm4vhL8/DvmEzt2k48XiUn34yA4TmI8aj5NzZSH/lNbh+XNHWx54AwdOvH7KeehbWHTu5Te3ZZ6Jq5gwMvm5OG0CIW78RSS++DCFkPP/cxxfBUl6Bvo89jcL5c+FLS4Nr23YIYePDHsjMQCg6CkP+dH3bdXsCEGrPOwcVM2cg/Z334PpiKff5vwIIre8QmfwpSFbb4jf46On775ZguiOJP37azn28x5JgxDZkWthtoK3zQdsSYNDauviLR9ohnR3D96kXBKGt8RsBuXsw1+0LIIhHOiCdHwPlhRp247WKdEUsxJF2KH+phjjNwfOa3BOcxknzbaId0oWxBkAgS2EXZV8AgVj3CMBoy727uRK7G4PQxWEcdDMCCKMHnohPVzyD0potuOTE53jHT26Gc2Ys5IWcdvyThp7N1oH6ptaYFAEZySORV7YG36x7EWnxQ3HsuD+x+4EW99zSFSioWA+vv91FdezYq9EvdWxLnxtQVLkJxdXEgKnAJFtwwcxHUdWQj09XPNl2Px0BwjFjrkT/tCPw3fpXkVOynNt0BAjbCpfh7On3QRQltny0Sp+EoQxA/vnpNd3Sky0zhKQTaxE9qoHN98Wv90HDSgf6XlaDuEmVaM53IVxP5YcAOUqBc4AXBS+ko2G1C3EzvEg7t5jN8c27HGhY5UbDOgfUFkuE5NQw8LZCWJP9CNZY0bAqCp5NLjTn7l3EqzOAIFp1jHhyB0INVmy7I7PtvqJG+pH15zzUr41H3bJoBghNO9zI/0sqtIABPIYsymcgsvXWdovEvgBC7LQmpP+hCFVfJ6Pszbi26/zmAQL5/uRL4qBt9u8zza+zNEf5yjj2T9LCLN+SCCFZ5oW+VYQ4CfK85N0sCORTVB5vT7eTb4yH0NfCgXytLgb1hRpoLR+sNoDwuYdzzlvHoZXuvXvQyPfa8nHsEUCgHVS0hPCNHQDHcCvkq1qyIrqY5titGXYQjUP9MrDzztsQVVSMvgvb/Y4du+osSLHhhFkoP+M0DJw7Dw1HT0f1CbMwYP4CmGqMD5RuMSP34Qdgq6hssyA0pacj+677INUbsSB1s89A5axjMPjam9oAQvpb78C19Nu2y+cSeKmsQt9Hn8KuRx5AyOWCs7AIwh6kVakvvQKxznDP9AQglF97FRpGDseQq/7cNgbN6UDug/chavXaX9TFQNYC6RQXhHEOCFSXg+IQNvqgvFbP7xaBXjanl+39HlNqLsfTUB+nR0EYa4fAabmCwW1PrqwWq4QwzMK7ciHNzFYHnl/P1YBSdltlnwDhtChIs6KgPFcNfVu764HiGii4VnmxBlRXhIH/w5XQS4w+2wDC47Tb7wWAcHSLReKhSrYaGquIAPluilXpehbDQUyhbp3CLob+x7UtngQQVm1bjM0FX7YBBAIFQzNnMEAItOz8Wy9S1ViIFVvf4W1xjDMVE4eeg6SY/jCbrFBUBd+tfxl55YaLQRRljB14KgakTeD4AFrIi6u2YOnaF9jacNHxT4IW+R83G6m7tKjPnn4vrGYnWxDOmDYfcVF98dLHV7XdY4wrDWdOnYd1uR8jp/hHHjO5JOo97f57noMAvlr9PALhA8ch7KnA+GMb0efcEgSqnNg+PwMD55XAkdkIf7ELqn/3NMCab2PQsMqIW4ga40fSCdWwpfkgWlSE663IfTIdwXIjVVIw60j7XS3cY+ogORQGE7XLySoRB11ptyJ0BhAsqWEMuTcHvuJo5Cxsr7XiGBjEwNvIMuFG5cdxDBAqPk1BxXuUXmsIAQTRpGHLLe3p1fsCCEkn1SPljHJsmz8AwSrDekDgYuiiPL73326ao1uE6d4U9pWGH6jsNIDogABhDlkCzLzQs1gEyH8mE6gZ6hcdYhB6ABDUH5phmpcE3adDWbj/1KceAYR7kg3z752lQLNhHpZvTYSQbu5WHYRufX0OorFmt2Pn44sATUP/BYsgV3YwRbf0d0CAMOMoVJ90PAbMvw+m6hoOWKy85CLUTBiP6LyCXgMIhXfdDn9iAgbc92CbG6OzW+4JQKi45krUjR6JwXPnQ2wBMuU3XIO6YUMRt/zHXxYgtN6cQ+S4Gdrpk/+dYml0CqC7I4mDfBWabwcSp8gxC9JsN9f4UP5WA31L+46f6n1QHIw4y8kLO+3qlUfb34V9uhhG2SBfHsdpgBR02CoyzeV+FiiPV4HiBw45QJjh5HtTn6uG1gJUpNOiIB4bBdQrXU5zPJAae3q8KwCBdvoTh87GjqIfsGzjKwe8pNMWiwFpkzEu+xR4Aw34z9d37HaO2WRHnKsvjhx+PmKj0vDz1newvWgZ/nDcU9hevBw/bHqD25MbY+b4qziYkQHC1HmIj07Hv768Df5QI7c5edItSI0fhNU73sd2siDMWMBBjW9/O/+A4+xqA8Msnw9TVACbbx2M1HNrETuxCkWvp6Nu2f5TD+lcU6yCpJPrETelGs350dj5YPuCzt/hKBWO7CDSzi2HKSqEnEVZ8Be2WxI6dTEIwIindkLXBWyd278tHTFmohcZlxei+rskeNY5ewwQEk+sR+qZ5dj5WBaacwwXS+p5tUg8phKBCttvGCCQf+uqOA4K0r73QvvBC71M4SI/FLFGZs0DAQSO5h/vgPZzM/dBAX7i5JZqc183Qf3YY/TRE4DwZROki2KNYivLvdA+aTLiA7LMEAeYjfzqFmkDCO/UQ6OiLORfba0iF29ElksUEX1slBHguCFgREQ3qGDXyXAbtO+aOAJaPKElm4ESM/YolCSe6II4hgogNe7+0e7qjAIwZ4IJmW4B/1yvYH1V9yrx1VzwO1RNn4bozVuQ8PGnMBWVINy3D4LJSXD9tKItBqFjoaSOFoTmcWNQcv65cG/djoTFS9A8OBsVp51CDk84SkqRvvAhDlLsqQWh8dhjUHruWYhZvwkJb/8Xcm0dKKvBNzgb7s+/atNWK0CIW7EKMZ9/xdYGiYALuQuiXCBQFBw0EAW/Px+JP69CzMefQlAUSDW1qJ99BspOmIWYLVsRv/hDeCaMQ+Vxx0LQdcTuARAuHiFjdLKIH4s1vLNd6dWqgbSrF9It0Df5jZ081eyijBh61/5lmOqlS+IgjrRCXeY14leCgNC/5T3+pAniKCuQaIJOrokyhYt+0SJKmQTqi7XQ8oKQzohmlwIXHQrp4EC/mxKNOKEOwKMVIHCsAvnt/Rq7+CjAV74tieN3OPOhJAxxkh3S+bGGu/HJakh/iOldgHBClBELQRYSrwr4dK5EKV0cB700BPWtBgh9TZDOcBsxG3sABHL1SadGs17Vt+oNl0035ZQBEo7NlLCzTsff1oUp0apL0hWA8OXq53DmtPm8k/92/SsoqlwPWTKjT+IISKKEnSU/YfygszhYsaR6M4LhZjitsTjzqLs4vuDfX92KlNjBIFN/YeV6VDcW8NhG9DuOgceq7YuxJX8pzj/2EY5/+Gr13+CwxWDqiAs5CFHRwnj1s+tx1MiLMSh9CnaVrsSGXZ9jSMYMDMmYylYoAgjrcz/FjFGXIivtCGwr+A5rcj7g/pJiBiIlLhtrdy5p04k7Jg5nXHA5/L5mvPv6C1AUw8oj2TREj22Gr8CKQKmx07dnBTHwlnyEm8zYOjcLluQwsu/MQ6jegqJ/psJfZIYpVkXUUDrPgrBHRuo51ew28G6zQQsJ4J39rbvgL3dixz3pcE9uhskRhmezE8EKmWMM0i8rh3tsPXY+3B++/D0Agqwj99EM6CqMWgw60PfiKgYdFR+momJJDMwJCtIvLYM9vRm5j2dBsukHBAjkqjC5Vc6a6HdVHry5MSh+NZErDNN1KHsh45JC+IpcKHkjGfYsP1Jnl7EVIbgHQDghSwL9y2/Q8dc14UNae7B3CiWR2ZN8nvEmowB1SyFqbR0FMNUeECAIbhHy7cntFQrJfLqimc2j+rYA1H8ZmRA9AgifGwBAvjGBCxyxVjWdy9xyENW8vYMUW4vJc7YFBX9RXMS85N3KMbfOBK0oBJV2XnYRpnuS+f8slDGRE4AwzLZ3FsODKRBcEvuI29LPuvS5MRq5TAKenGWGSQI2VWl4bEX3Aq8o2K/86ivQMGwIpziKmgaNUh39fmRff8sBAYKkqMi7504EYgwyElqQ49esRXNGBlSzGf3n34crGLEvAAAgAElEQVTSG6/tIkB4G66lRvoUSUcXA/1eecUlnLlAC7YcDCJss0GmcXYSpKiajA+OpcmLAXOMgKniOdfDM2TQXtq11dQi6467+e+7Hl6IQKxhIhQVFXEbNqBhyGBErV6H5NcNcyy9Lk/NssBhBmr9Ou74JoRgLwbDc2zAuTGcH46AZswlm8gLIi+OLZH/vFOnGINO3mNxhsNYJKkPWtBJrMZ7TgG+9PEzzU0y5hsVsPOpEOh9pXTG9xugfdduEWCA8Md2symlGXNQIn3kCeDSTl2mYGSNr9Fm2fBrRmzR6P24GCrCxhj3JZR90bICcwzCydFtLdWvm6AtNna38p1JXLiMhe6HYowog2mPQkkUM0GxE3SfnMVA2VDdEFEAbp9swqA4EWENuPu7EMq8XUMIXQEIH/30KJJjs3HixBshSyZedAkg6NCxo2g5lm96A6dMvg3JsQPYmB8M+ziLQRAlbC/8Hj9sfgNZKRNw9JhL2a1A55MbgNIoKfXwk5+fRF1TMWaMvhz9U4/gwEZd1znegYIL+yQMwVtL74Q3UIsLZz0Gu8XQN4EPsm70TRzGGQwUqEhyyuRbkRI3EKqqcICkSTbDF/TgX1/e0qbV/tnDcMEVN/Dv/3n5r8jZaqRicnbB3bsgWjWEG63QwyLMcT6uh1D4SjoaVxkptvHHepA2uxSCrEH1myFawxzdn/+3dPhLrRh8dy4kqwJNlaD6zJAdQS52VPKfPqj7zomk0xuQfFIZvwuK38QBjJIljGCVDTsfyeBMiFYhC4I51gjYDXvM2Hb7AM56MMcrGHBzEcxxAWghGaJJ5YW99ocElLwRD9ewwAEBQtoF1Ug4em8rreKjIMYBUJtFDFpQAFtys7Gx1gQ0bY2BNdW/WyVFuo9bJpgwPFHk5evuZSEUe7r2DnbjVW9r2jsAgbpzihCHWSEMMT5a2roAUGFUGCRUz7URaEfUci9UoY0W0dasBwo2FKfa+WOjLWvmtlTdjBfY8pafFb3dz0gLUqqJfad6QYgzEpi7oEJpywWnXQTnXter7VXg7CJXZKOdGvw69O0B6AVhTklsE5vIO6Q2IbcVBVSRObaPmf+/l1AuesuOj6vPHe3kB61938x8DtQff9w71NsXyEc72Q7tfU+3/LEdrz0uWcSfjzAhv07DfT90DyBQP7rNBn/2AHjHjSHnJWybtsBcVg5LcQlCqSlQ7DbYCovbggOVGDdCsbGwFRQyIFDi4uCZPg3hWDeiv/selvwChFJSoMkyrMXFCCUlcbCftaiYd+skSlwswm43bHn5UJ1OBJMSYKmugdRoRFyTUBAiBSRaSo24FMps8I0eCe/Y0fy7bcdO/meq6OAuEgT4szKh0yyiRV5VYc0v5J+DqSlQ7UaUc0cRwwqshUVt4yJrhep0cDaFNScX/ox0TuE0VbfHvvRxCbhunAl2M3Db1yEEurfOdPLydPiTVeDgWqrXQSmDXMsjP2xE3td3QCIO0aj3QfON3mNKLy5seY9tArsThFE28DyjebMrZMTmNKgclEvXQLoZYrYZcEhGSu4KH3RatDsCHnJRJHaYC15tt4WVK4qOtvJcpGBFshi2jpOv7RCN+AOysJG4RL42zRXpohgD5OxDuPZCS1llSsEE/WuVBrWdG8Il8sLPY1jjY1cD644+tB0DIVNNIPeDnhuEttR7UEXHEh0CLh8lo3+MiPu+D6Goix9ncgfYrTGoqjei3RNjsuD11cEXbGBzvqapqGsyXKzk78/ucySiHElo8lWjoGIdGrzlnC3gssUj2pnMNQhoAfcFG5Fb+jPqmkpaAIWFaxukJ41CjNPIwa/xFCG/fBWafIY1zSzbkJk8FhnJY1BQsRYlVZtgMtlgs0ShoamcLRNR9kQM73csB0OSW4L+RlkMK7e/h015X3A/BDwyk8ehb+JwvjZZNaob8uHxtc8Vu8OJk866EN4mD75Y8h9omgFYaWdsTQsi4VgPLEkhBgaBcjNqlkYjWGFmENsqjuwAYqd4eKfuKzajab0DwUoTn2NJDMOWGQClCMpOFYEqE+p/dCFYZuZFXHJosMSHET2+mduSlaFpqw1NW+1QGnf/kNszAhBMxvh0RYSv0Nr2jlAFRMcgH6JH+xD2SGhY6YS/wHh3JbsGa2oA4XozQrXtc8VG/QlgK4k5IQxT9N7fZ7oHf5GV74VcIHFHeWBNDaF+hQtNW2ywpQU5I4PatEqCXcBlI2UMihexcHkIeQ2/BYCw/89e5Ogh0sDIBBFzJpmweLuCD3b24lb2EI33cOjWbQHmTTGjzq/jkZ+7bmY+HO69N++BrCVcn2Efoq/0dalWQm+O6UB9uUzAnIkmxNgEzPs2hObuY/IDXeJ/fvyIwbNRWbcT5XU5vPBTCuO0EX9An8Qh+HzVc+z6iMj/TgNOE3DjBBNSnALmfhOCt+uxvt0edO9ZELp96cgJPdXAkDgBN080wxvScc/3YTSSSTYih1QDcTYBD0w3Q9V1PPJTGIVd3EEe0kFFOv9FNGCRgLunmhFnA55aqWB73UEEMfwiI+3ZRU6fMg8JMRls1fAHGmGzRkMURE7D/HL1X3vWeeTsHmlAFoH5U8xIdgJPr1SwrfbQvoMRgNCjx/W/PdllFtDfLSC/UY+Ag1/oUZglYHSihIJGDVW+CCD7hdT+q7gMxSCMSBD5uZd3MfbgVzHwbg6Cah5QLER64ghYzS54/XXYXvQtqhsKOB4hIv87DZDLYni8yPFPXY1/6cloIwChJ9qLnBvRQEQDEQ1ENBDRwGGqgQhAOEwfbOS2IhqIaCCigYgGIhroiQYiAKEn2oucG9FARAMRDUQ0ENHAYaqBCEA4TB9s5LYiGohoIKKBiAYiGuiJBiIAoSfai5wb0UBEAxENRDQQ0cBhqoEIQDhMH2zktiIaiGggooGIBiIa6IkGegUgMJ/BJDtXKKPa7+JRDq6eRhURI7JvDUi/p5K6gPqvBqNk7n6EqlGKUx1cAa6rJWKlU6KAKBHaj81cXpoYM6lUrr79EFbWiDzwfWrAnKhAsmoIVct7sdPZ+ob4b1z/vYdC1eOolG1nEqyWoe3BjNfaLvGURpiiFJT+u51utodDAfGNUBVEInQiwjKqmKqt90Pf2s4Aub9rEGU0vfvqEs9eVNQ9HVt3z5fOiWaOB5qDxEpJ1WO15c3QiaMiIr2uAapQSGWOW4WqDSpNIhRPC/WzW0XyqXXw5trQ8JOz168f6RDoFYBAtK5EhKQubWKQQNTG2qpmqK8ZNLwR6VwDpkdT+YMTXlDRTga1D2VRWV0i6VGerWZGv66IPDeJS00rz1dDPMrJhFrqv+ug/eTryumRNr2sgaybKuDKrkPpO31Q83VUW+/OYQFkXZePhtVuFL2U0uOrxkxrRvoFRonpPSXvr/3QtHnvktPUbtA9xbAk+LHxuuwej6G1A3lOIhNBKS/U8CaC2B3V/9TzwtoVka+OgzDUZnAntPBQdOW8Q9FGfiAFQpQE5bFKSL+P5XLOe7FjHooL/z/t0z2hmQmM2kWAFhJR/kkqaj53MfHRoPk7UbcyFsX/TP5/qqVDe9u9AxBG2yBdFgeFuOgDGuTrEqC+1wDtm+5zgh/a2/119U4MfFSsm0DVgeSgAMLV8RAGWRG+rRTSOW6IEx0ILygHaiIlmQ+k70NxPOvmckQNrkPjBjfy/2LUyScZeGcpHP0aUL8yFoUv9hwgmONV2Pv5QfXj+5xfjFCtDWXvJvK1vDm2vWrQt47jUAAE6fI4iCNsxjt4RjQztYYXlgPVXXsHf1UA4fYkBgXhW0sh/ykOwkArwneVAY2HtprdoXgXfwt9uic1I/OyAtStiEfTZjvMiWHETamH2R3ErqczEfaYIgDhED/IXgEIRKMqX5MA5S/VTMoi35wI9e810DYFmKxFsIlMlsQEMUGNyVyITIbM62wub51fRK7U8ncQ+VFth2OkCLMAgWq3k4WJzglp0GlyhtvN80zaROx3xNdDRE/EZufZYwJHiQZ7HZWlIrY4la7V4YMlCQb5E7HUEWUWMcQRvay/lWkKxjgtdD5AbI803i5Ja9+tjYmMp+O1O3ZC+iCCGjqHqGrPdO9tQYiWILhEQ4+thDgtfUjnuZkRU7mtDOLJLkjHRCF8s0EI01uiOZ1QHXbIdfXQLWYobjeTJUn+AOQagxyGRHVHQ3W5QMwjsscD0dNOr9123Ok0WCXDCsSAH1J9A59L5E4kRPNMP6sOB6RgEHLl7uxofA2Hg0mnxEAAcm2t8fyoD2JpFMDjpJ9Vhw1SIMh9Qm1/9mpsDFS7vWUcYYh+P6QGgzWQRRCMMdhsEDQNcn0DRF/XLDKtAEHxmrHlloFMSGNJVjBkQQ4g6LsBBHIRkImV/k67JnI/7EkuQwCACGqoDZlfiQGO3BetQrS0Qx/cAX8ZUd9mdPrI5SgNssPoI/NPFTDHBnrVgiCdHQ1hogPKrWUQj3dBOj4K4Tkt7yDN52gJeiNNopY5RaSSHpUppfmZd7Qg+DXewfO8pjnT0S1HpFIumivEzLXHt8MtQTAJxvckSoLgFHmu6ETh3rGPVhIrooru5BpEay9kmqHcUQ7pQjczVYZvNcjEeirErEicB8R9IAgibGYXmny1zOQY5UhAINjExEwtLyFctliYTXbousZMjESm1FGIHIqOCxChamGEwn4mhmoVYol02eMhijJ0TUNYDcIXaOC2rSIKEpz2OEjURtf5Wv5QE0Lh9vedqKmp2iKNn0ozU5uOZE1E9kQEU3ScxtDkr2Umyq5IK0Aoey8NVZ8ajLHOwX4MuDkPdT/Fo+qL2DaAUPJqEsiFJ8oalGYZ4XpaXNqvQq4KyUYsjOSmkNrcFIJJhzlWgdIsQQsY5E9ECU1twg27kznJTg0mt8Lfkc6Od+WefmttegcgpMqQLo6F+no9dJ8G+U/xUN+sh54XgnR6FMTJDmg/NEM82sVc7uobdZAvi+MFmOllKVYhWoR8dYLBHEcMnGEd6rdeaB+3MPyZBcg3JBi0rnScHr6qQ3mtnpnuSJjmlihhaWEngNCyeO/Gbz/ZDul0N4MNFmKZJBrce9tZAaVr4yH2MwNUW5VEA9R3G9iPytc5JQrSDBdA32ICD2VhNqG2ftT29xJQHACZXVv7JuDR8dodz5VvSjDYI1sZSSVhL4Ag35bILHbq4t1penmck+0Qj7BDeaYGwkgLpJlRUJ5sZ1rrjZe19nezUT1tClI+/wrVR01B2EkslgLspWXIWPgQXyKYPRBFV10KxW5QuJo9TUh79Q1Yt27n3wMDB6DomiugWq0GaNM0WDweZN1u0DAX3nMndFVFzNr1qDj+WGaHJGbI1MUfImrpN0Yfgweh6KrLoFos3AcdT/7sC7g//oyPF827DaosI27lapSfMKutj7R/vw3Xjz9zG++E8Sj5/XkgGmwDPGqw1tej3/z72lTVNG0KSs85C7rZYFqk433++gJMZe104fvSaytAoOMl/+2Lms+jED3ai37XGmbUVgtCwvENSD65AqKJVk3w4h+sse22yEePaUaf35cx1a1BsU7mVxmb5xAVsCEHAggxk71IO7scYksfgqRDD8u9ChDEiTaIkxxQnq6BMNwC6bgoKE8Y76AwzAqZ3GbkfjjWBXGghd912kAoj1QyIG8FCOp79Xwug38VHEtD3xjeKCRKvEFh8EBzRQHUlc3Q3jYWRO6jnwXqp40MUJj6mvr4zgt1ScuiaxEgXREHsZ/FABl0nGjY32h3k4rHOSH0t0B9vhbCkXaI4+xQn20HwT2ZT8SweMa0+aj3lCIpNosX922F3yM+OgMJ7gxmWVy8/H5egAekTcaU4edBliwMIJoD9fhy1fNM5UxCTJCTh50HSTJBgMCUz1Qu+Z1v7zL0IZpxypG3ItaVxmCE+tA0Bd+sewmFLURMFpMTs8ZdjXh3BvMwUBsCCau2v4ctBV9zP30TRuCoUX+E2WTj6+jQoKhhvP7FTXzcZUvACROvZyBCx8NqAGt2fIQtBV91SVWdAQR7/yCyb8+FN8eNkjcT2wACvftxk2sgiDoUn4y8pzLgLyYLLZB8Rj1TLYsmjZkRFY8ZRW/0gXezBfasIAbMyUf1d/EgABBzRK1BE95kwvb5/Zn9kcTaN4ys64pgijLit5RmE0reSkXjauObdrhKrwCE/SlHmh3N/m8CDvoGP5sY9XqFaVzJbK5tCTC/vHRlHMQhVqifeoBaBeLxUQwWlL/WsM9dPCMa0kwXtDXN0DcGjAWedh/bg21UyfL9KRAkAeonjQbls5MooEVoHxggQxhihXxpLPSQbrg/mjWIp0Xzrla50/jAS5cQh72NqXGJvpasHuJMF9R3DL8pBQpKZ7mZYlpd7oU4wAJxqhPaUg/Uluvs92VpoZumF5eCCPmFbbl223lWgeM4yHerrfMzhS7tXAho7RmDIM9PgpBEQVyN0L7cfVf+S7y0NReeh8oZ0yD7/bDUNyD222WoPul4iP4A+t29EKH0vii4+QZIPh8Sl3zMu/uy382GtbIKGQ8+yrovvG8+mlOSkfLhJzCXV0BxOKDGxCD2/SV8C/kP3ItAbAyDuejNW2DblYfKU06CFApi4M13IJyagvzb5vDETlzyCSSvF7UnHsd9pr/+JpzLf0T+ffMQjI9ny0D05q1w7MhB5aknQfYHkHW78eHMW7QAoSgXkj/4CKb6BihkHYlxI/a9D/g40U0XX34xLLV1iP/4M4QTE1B+6kmIXb0WyS++fEB1E0CwpfogWRSE6i3YcV8G+v25DI6sZl7oPJtd7GIY9vhOvteKJUlQAxJkVxgmt4bydw1LCtHf9ru6CLouovrLON7NJJ9SC9kVwsZrB7WNY38AwTU0gMyrCqGGZFR/GQvNLyHp1BrIdqVXAcL+lEKU1vKV8WxBEMwC1K+bOIiRduZ6fpCBRCtAoLlKlNQE0sXpTgixMsL3V0AQAfmWRMAsQv3SA71aYepnMZu+JY3QPm2CfH08hAFWdn8SmNdW+CDOckFwiAjfVc7WBHbBTXNCW+6FtjMIiYIjCQy8XgdttbEBOZRCi+zZ0xcwhXJjcwXMsh1Ws4MX5QZvBdzOJLz+5RykxQ/FzLFX8YK/bufHIEvB+EGno7ByA75a8zwP8fyZD/OivWbHErY60C7fYY3hxZ1kwpCzMar/8cgtXYXCynUMGBw2N4qrtqCmsYDbzBz7J2SmjEZB+TqU1GyF0xqD0QNPxspt7zLdc3LMQBw7/moGDxvzvoQ/2IgxA09myuiXP72WvrY47ci5iIlK43PIekDjdNhi8P73DzA99YGkM4CQdFodUk4tR9niFHg2uhggKE1mSHYVNd/HQg+LSDquCr4SJ3IW9gXHMVxaCF+BEzXfxDKdc8qZlQwWcu7PghSlIXtuLkJ1FqOPb+PYgpA4swrevGjkPpwGU6yC7NsLAVFH+eIkBuyp55RDDwvch+Jt3cEd6I5+e8d/GYAww2UELb5eD9MTaTzRlceqIN+ZZGQ7fOqBfFsStO0EFsgERYu5BfLF8VC/bIL2YSMoglg8ygXt6yaoxOVOZsg9RH4oBSA6+xdqjICmDq4H2nnItycBVoEDntpMmPcks6uAFmna4chXJkDb7If6Yq1h9swwg3by6n8boK3ywTQ/CTrt5BcaFgcykVK/ZBlR5h14F9lxyPK9yQx09gQI4lQ7pHNjoX3vhfqOsQvaVwyCQObT0VZoy30HzIQ4FK9nK0BwlJYh894H+BJFtOPXdWQsWISas89E1axj0O/p52DJL+Cdeek1V8LXLwPZ198CQVWRv2gB/HGxyHzu77Du2Mlm/Y5CAMGXEI+4DZuQ/NcX+FDFVZehdvxYDLrvQdQdMx01U49E5suvw/7TirZTc555HOaaGgYiBXfNhS8lBTHbtiP1yb9wm/Lrr0ZT9kBkXzeHf9/12IMIW6zIfOY5WIqKIQQ7xIYIAopvvA6+rEwMvPMeQFGh22zIm387L1IDbrztgOolgGBN8jPfvTPbg9wnstD/hkLUr4lD9Ih6NG11MkAY8VQO1ICIvGfSEaw28YeoVUSrjkF35TO3fM5D/REoMVwK2fNLYE1p7hJAkJwaBi/YxRaKnEVZCJYZfRyKGIT9KaUVIJAlkAMXW4Jn5QdT2Q0Qvr0M8h9jOEhRLwlBedhwKZG1QTo1CsqCSlAf0mw31I8aoX3eDpDlB1MgmESOd5AvjuV4Ab0wCOUxw3ohnRYN8WgnwneUMVCQ70mGXq1yACLP61QT5OsTOT6IQPmhllaAYJIs+PdXt2L66EuRmTwayza8BoctFqP6H4fXvrgJx477E1LjBuOdb+9GWPGDTPinT7kDsmzBa5/fwMO8cNbjkAQJn616FnWeEijq7jFORw6/AMMyj8bGXV9iU97nHVwXxl0OzTgaU0acj/zydVi69gW2WridyTjrqP9r7zrgq6iy9zfl9ZfeCySkECB06QjSBNvaK67lb0FdsS82FAV1xb6uFbvrimvXVcCCYgPpRTrpvfe85LWZ+f/umeQlgQCJhpDEe3/6I8nMu/fON/fN/eac75zzADbt+xR7c37A2ScuJMvA/355DBV1ufQ5VgUy2D+aCEJ4YCLOPPEu7M3+CZv2fayvr35TMSH1fPy4/U0cyF93VEibCULpN5GoXOuH4Cl1CJtRCk+1ERlPx4G5BxhBYC9bJasiUfyZTqAHP5pF7oRdtyZh8NJsGIMacOCRJDTmGul40MQ6xF2Vi+KVUajdaSOCwFwPhZ9Eo+xr3ZUx5LFMCDKw+44EhEyrQb9L85H3Tj9Ub9KjJaIvKUXwuCrsX5wIZ5Heb19s3UMQpjBhUjFQocDwTAyU1bVQV9SBbZBagYd8g9J0P6BRheZschwxf6C/5NskhTgDpOtDIdgksg6o6S6oK2qgFbWEwUiXBUEcZ9P9h2VeqJsdUNc4aONkvnz5/kioGxxQ3m/li2tFEMikn2CC94UyskzQg6IVQWBWDyIZzAza5COlcwKYv0uD59bO+fcPRxDku8LJtcAeVlqO7hP8PSLF7liwzQRhwMuvwbplGw3pZW/7zJRZWYXc++9CXb9+MNTWERlgjfn4VaMRg/92C/2t5pTZKDj3TPrZWFWNoB07EfjlKogO3aXDCILXaETikkch1umbQMWF56H45BmIX/4BKkaPhLN/Pwy85e9tLjnrwYXw2m1IWvggsu9dAK/FioSHl0Jq0j+UXHcNqkcMRcrfbtX7vOh8FM+aThoIU3k5grdtR8DKb3SiIIpIX8osDAEw1Nb4/Jtefz8iPYOvv/mocDcThKJPwhB3dS4acv1hjnRg94KBGPxIho8gxM0rJlOn6pbgKjWjcn0wylf70ZuLKcyDlAczULfPjqznYn1jdoYgWONcSL4nA9Vbg5DzSoso8ngRBHoesDDGpq++fA9zmxmJyEvnBuhRDM+UksuSvgvT7ZDODoR3STHEGXayGHgfLWkT/ivND4WYaIL3iVKQDiLRDO8TJfRCwpp0mh/E2f7w3F0EcbQF0iVBunaBWR6bGiPf5D5cqpOGY9maCUJR+X6s2f4aZp5wPcIC4vHf7+/GyKTTMTLpFCIIF057iAgDK8PMzP6sWUxMAyDh9RXX0e+TUi9F6oBpUBQP6QEyC7fgt8yv4FV0/MICBpDpn1konG4HiivSsGn/56iu159fZ02+l9wa73xzu0/b0JogZBZuwgXTHkJJVQZWbXjGB0trgjBj9HVIjB4Dl9tB+gbCXJTJwrB213LsydZdg0dqzQSBbd56E1CfFoCclyPprb05iqFubwCyXoiG5tXPS1mcA2OQG3vuTcTQp/bDVWHFvntbNDjWJBeRgrp9QSj6PIR+rt4ajJxXIuk7xtqgh7Mh+3mx65YkJP69EH4pVfDWGaA2kXUWrsxIyP4liWjMNx3tUnrt8e4hCEy53CRMIoLA3sbXOnwEgQkXxbE2qL81+twFzYhqxR7dpcCWR4gEYZSVwqWEcANpEJQvaqB+3xQtwVyQwy0Qxlvp4QCTCK3ATdEVzAcmL4qE8lUtWSz0b5YAw31R0ATdxSAvjqTNvvVGL6TqVgXmYqAQzjsjSHCprj8oTItpGX+sP0QoeKSVcViCwFwlzPx5WwvhYPHg0gVBnQpz7I5V2UwQkp56FqZ9Bw4Zkm3uzDoQvnoNREdrMZ+GwF9+1Td8QYAzdQiqx45G3bChcPvZYSkrR+yy12DMySOCoCoKEhc95Ou/5JorUDFuLJKXPIrCuRfBHR2J5IPe4rMX3QtPgD+S7n0A2ff+HYpsIJLRbBkoue5qVI0YhkFNBIGRgIYRw1E9fgzqB6fAY7XCVliEmJdehaG0DGlPPUq6g5DvfiBC2NI0BP3wM4SDLB8Hg9FMENKf7I/BS9IgSCoacm048HA8hj6d5iMIzMQZMNqB4ElVsCU5IJkUNOTakfViDCSjQgShZEUYir8IpSFEo4aUB3JhCHR2yIJgS3IiaUEmCv4bhfI1Opkjy8QDOTAwN0UXhjkeaQ02WxC8z5dD269/x1kjV6GfSG/38hXBh4Q5itPsumCXEYTZdnp2sE28dX4Qck0MNJOlkrk5ifgvKdaFiQcThElW6o+5MpkVs01jLyPrdBfQsWzNBIFtvuv3fEAEIdAWiY9/erANQZg78zHSDezO+o60Ba3bnuwf4fY2kNm/f8RIJMVMQHRoCkwGK1kSvt3yMmodOtlhwsGE6DEY2G8yAmwR1NfGvZ9gV9a3uHjmUphkK97+uoX0xoYNw5xxN9I5WUVbcOH0h7Er6zts3PuRjqdoxLlTF8FuCSILwhkT70RUSDLS8zegqol4NM+1uDIDxZWHPisOxreZIFSsC0P1Zj+4yw1wFbWIcA8X5piyOBfGIBf2LkrA0Mf2w1liw75FrQhCghsD70lDfVogCj8JJYJQtiYcBcvDfFNgBIHlBNl5cxJ9tyyxdXQOiR9btZqtfnCVGI7l0jiuffcIgqBlOCGdE19xN/sAACAASURBVKS/3b9b1Vbkytw77MvJNAetVPriOAukS0Og1XjhXVSsC4uYrYlFJbAWLEG+NIgeErS573ISQSBh0qe6MIlU1WcEUIQCUybLC3V/vvehIjI3MncEsxiwyAlmAtV2O1vcCeytonXUgNRq7A7e0sMShAciaUzvokJo1SpgFWFYGAH4SYcSBKa4ZsItFmXxOx9idiNgEAXUujQffB28BByNIBTcOh81gwYi4alnYU7LaOmWCQbYJiuJ0EQJgkd/s9PMZpTPvQilE8chdNMWRLzyxiEEQfH3R+b9dxHpS1pwL0quuhyV48Yg6eHHYMjXSZVmkJG+9CFIDgcGLFlKLoYjEQRNknziRvZ51d8fpZfPRcWIYYha+TWCP/sCmYvvh2K3IvH+JW3JjsREb23Bt1is0CDA2dhCJJsJwp47E5B4RxGs8TUo+zYcxV8E+whC7puRunC26U3GEKog7spi2FOqkft2fzjSzBj0YDoq1wch72099jt0Wg1iL80nkWJHNAjWBCeS78pE6eowFH2oPxQjTqtC1DmFUF2GNgRBFgE/owCPqqG+i/NrtUcQRLZZXxIMLcMF7z9bNAit8yC0JgjCCLNuTXijAtr2JteUJEBeGK7nLPgHy1kQdGSCMNAI6ZpQqBkuKM+XtzxDaOfr/Pfan0VnCKDvU8f0+iDNANMgHI0gMNO+zRyIj358kPz+zY3EhpoKFnnABmeiQ9aspkBMGX45+kcMw6b9n2F72gqwCIZmawI7h4kep428Eg5nDd777k6yDrCIiv98eztFVdjMwThnykJ6+1+/50NkFW3GBdMeRnbRVrJ2sJbS70QSLLJ+GUEYm3IeRiafQjqJzfs/a/M4aZ5r8x8lWYbZYoWzwQGlVURRexqE1h0djSDsvDkZqU9mQjJ7sGdhki8KKHBsPeLn5aDsh3BUbfA/KkHof20JgseVI/vVeFRvtLV6hjX92Oom/5FnaUefud15Xo8gCMpblZAXhOsb8ZfVUH92UDiSdLKfLkz6wQF5Xgi0Ug+Ub+pIP8BcDvJt4fRGQG8SYywk4lPW1kPb7iQ3AEtmQkrj96pIdMj0AxSR8FEVuQ6YYJI2KRYpuaAQ0txAiBPt0A44iUiQULKfroQlH+laB6QLA+lz6t5GKMurSGktTrZBHGqGt5OKZkYQBKaJeL1Cj7jIcdO/8tXBEEZa9ayHvzVCPC1AD6tk4TUHJUpioVciezv6bxW0bb9PTLV0uhFBZgGvbvNgc3HnWMbRCAJ7I8++cR4sJaWI/ve7MKVloHHkcFRPnojIl16FOykBRReeh9B162H7ZR0Er4Kqs85A4WlzEL52PcLeeocIAotAiH/mOXgiI1F65qmoj41F7MefIeDr1RQlkXXbTTDU1aH/U8+SILL42v9D1aAURK9YhaDPV5BI8UgEwTlyOErnzELIz+tg3bCJAgPKL70IJVMmI/rzFQj6ciVqTjkZBeeeBXtuHqJffxtSWTkaJoxFzZjRiP7nC77vrX9AEC6/4e/0pvfKP5fA1WRZaE0QWIiiaFah1IukN2i2INTsDkDI+EqU/xiCmm0WEkzFXVOMwBMqkPNGHOr3WYggsAkWfBQLU5iLFNrsPEYqfpufQpoI60AXmNYg4bpMOIttyHtXdyU4cw2QAxSk3J8OzS2h4KMYmGOcCJ1apvfhFdsQhHFRIq4eaUCDR8N9P7rh6MKkgc0EgYmKtS0NEIZZIM3yh8aik54sBaqVtmGOTYmSWhMEmJhIMYLCp9n3SMv2gIX3MlcjczGyKAR5fugRCQJzSTafo/yguz9ZAjNxpp1ck8rbnUv49swsI0wS8PAvHhQ6OkYROkoQBvefhompF6KiJg8/7HgDNfXFSIwej8SYsfhq47OIjxiNoQkzsS/nZ2QWbaJ7fuKwy5HSfxI27PkIu7JXY/aY+aipL8G29JVwumsRFjgAZ06+i8IqP1izkESQzLqQV7oL+3PX0UYf4s/ydojYtP9THMj9BeeftJiiJNbv+YhCLlMHzIQkSlA1lQgCi7C4YNoS+vfX3e8js3AjAmyRGJE0hwSVzArR3M6Zew2SBg3Fz9+txPofv/H9vSsIQujsGsSeX4CaHUHIeiEKljgP4q7NhynEibTHE+jF8mgWBEucG8l3ZpKLIe/dGNTtMsOe4kLotCoUfRICV2mLBaH5WfrKVg+2lHTuWdqdG39Hxzr2BOHcAFL5t3UxsM22wediYIJAlvFPmheqx/0zcSELVXSqukvgx3rSH7CIAWL0LpW+wBQKydT7PztAbxJzg/X8Buzz7HspC9ByXVBer6TYaukcfS7Ut1eDuqUB8BMhDrbA+2gx6RnkeyJIoERvodVeaJsa9CiGD3S3CL1UXB4E8QSbTi7YOOxlOM9NERfsOg7bPE0koOkEIggsrwNrDSqpskk8GSiRMJIptWke5V5oexohTvE7NIphSSSEIBnq6joon7eK1+/gCrDKwFOzjLAaBOwuU/H4+s7tALSJTpuKw7kY2DRqp09F0blnQzEaIXncUAxGWMrLEX//Enji45B74zy4/P0heb0QvV54TCbYiooRs+x1Ch8kkWJ4mI63IEB2uRD60zqEfKCbN1mrPnU2Sk4/FaosQ9BUilYIWfsrwv+9nI4zPYJqkJFALgb9Vbi1i4G5OPKuvoLcG5LHA5HFhhuN8MvNR/Sy1yCX6eFsFeedTaJLdtNFVYEiybAVFiJu8T98cwkNj8S82xdBFCX855VnkJ2uh3MSQQhvxJ67EtreHQE+glC9LRD9/poP2eYmiwBrgqzAkemP7GVR8FZLiDyrEuFzWNiWAk0RUb01EOYoL4yhTuy8KRlBU+sRd1n7mRQz/pWAup0WRF9UgdBppRQ3zvpgOgdrnPuQTIqzB0i4dKg+j9e3e/BTXtc99HwixVZosAgn5oJsditSQqLUtpkUWxMEpl+icN6/BOj6JGZBlIQWoTF7DNwUShEJh3MxsOcMeyGR/xaqf/dZbgT2nPGoUHc0kri6o81uEPDMyUYYJWBDvoIXt7Wf8vrg/liY4/nTWlkQRl+HQHvUIS4GZhkYk3I2hifOIQLKfme+/aq6IjqXuQKmj7qKIheYBoFt2MxiUF6Tg9VblqHBWYU5425GVMhAsjYwfYAsGujNf+O+T0iAyEIcGWFgugPWGHHYmbkaYwedRVENjJiwiIZRSadR38w9kVO8Hf7WcPjbwvHWV/Ppc1EhKZgx6lpYzQHUvyQaSNPw82/vILt4qw+C+Xc/guDQcOzathGfvPuq7++B4x2IvyYbhR/HoPQrXTzYuvksCBtCkPdmhO9Qs4uBWRAki4rYy0oROIrdQwGCqMLbKFOEUPn3AWgOmyz7PhwF77XvYmAds2iI2EsLIFu8pA0SDAo8NSakP9Ef7jL9md/mWVqq4vENnXuWdnSNded5x5wgdOpiZAEsbpqFFmpFHqjbnG3N+AESxNFmPblKhaJv2Ac9rxhREPsZoLH8BOluChFs3YQEA+kUFOZXLD0oEqKJdIgn2cilQcSDiRRvDIPybiWFRzU3qj8xwkxiRRa+yVwSQrIR8k16xrr2Ggvn8rKwqg429gbDyI667vARCmxMlhde+aIOYAlnfkeL9xew+CQjdpWqeOIYLWolNBT1k8YBkgTLrj0wtnY3sFwJQwbBlZgA1WiAKScPls0tDxCyIEgSoj/5DKLLA/OO39q/SkGAY+pkSpbkt+ano2oC2uvEOWIYXPFxRERMmdkw/7bzkNO8MTGoH38CRLcH1m07IBe0TZYjShImTj2ZRGTr1nz9O+4IEHBCIyz93ZRMiVkNHAealNJNei1zjAdBExyo3myDM8+AIY9nkBJ7z4KDyMcRRrcMcCNwdAMqN9jhaoqGaO/0cwdKOCtFxmvbPPg5v+sJgvJ5NVCnkCBQy+vYhtrePAVmRYyQoaxvIEH072nCKAvEAQb6PrMQY9R3/npHhIm4fYIB6/MUvLT991/PkeYfaI9GUsx4KIqXchc050Bo/kxcxEjKocA2xZKqdOSX7WrTndUciITIsWD/1jWUY1/ej+SiaG4smmJg/ymUaGlvzvdQmlwW+nHm3AMC7JEYGHsiWQMqarNx8czH6ejy1S1iYYNswaB+U2A2+aO8OhvZJVvbjMPOj4iKxbgTZ2DdD1+jouzYCEINwQqCJjngqZVQ/au1TWRQR9eJHKggeLIDoklF/X4L6ncfKk7sjmdpR+fbFef1LILQFVf0B/qQbgrVC0797IBWr0JIMkK6NFjXAzzVElFw2CEsIsVxH7Z5Ncqf0NPayfH6W+ILWzzYVNT5B+Kxvp72RIrHesye2r8xzIPo88pR/lMQ6veYaZoxc8sRNr0E5b+EI//tlregrrgGuwG4fbwBETYBd35/bFwMB4sUu2Lex7OPiwfLmJUgYdGPbhTWd8zFcDzn29mxGamYOORi7M/9BfnlOvGYMOQiDEuYhQN5v+LHHW90tss+c37zs/T5zZ131/ZEEDhBaHVXpFvC9AyKzKzfqEGwMjeHBuWbWqrg1hfbqHAR144yYHeZgtd/88J5bF54/hB0nCC0wMcIQvLderSB4jRQ5jjmgmjMsyLrxdhDVNZ/CHgA80bKGBQi4t1d3i73qR4uiuGPzvl4fn5qrIgLhxiwNl/B+3u9zZm+j+eUunxslnSJiSWZaNHjdVEaZaZHqKorwLebXmhKp9zlw/b4Dts8S3d44fx9RqwedZ2cIBx0O4RYGcIYq+7GYG6Ob/omMWh92VZZQMNRyk0fz1XrHphEUg/TgfTjOY0eNXbwVAdYNAJLolS10YaGtGMTi22WcOwedKx+QpyBhIUsU2JfaUx/4O4Dm8PR7sfA2CmIDE6k9MpZxZtRVLH/aB/p88d7+rO0szeAE4TOIsbP5whwBDgCHAGOwJ8AAU4Q/gQ3mV8iR4AjwBHgCHAEOosAJwidRYyfzxHgCHAEOAIcgT8BApwg/AluMr9EjgBHgCPAEeAIdBYBThA6ixg/nyPAEeAIcAQ4An8CBDhB+BPcZH6JHAGOAEeAI8AR6CwCXUIQWB0CVvhI3dUILcMD6Sx/KraifNZUNbGzs/qTnC/dGgZBFihFMyt1faQmDDRBOsMfyofV0PI8lC6apZBlqWaVf1fpPzeoUN6qalts5k+CZXdepqW/B9aERjgLTHAco/DC7rye9sZimRptye3V9hBQs9UKb23bqnbNffS/phQGfw8yno7BqefORf8BySjIzcKOzeuQl8XDVI/3feXjcwQ6g0DXEISxVkiXB0NZVQMtxwP5+lCov9ZDWV7dmbn0mnNZamNxqh3KaxXQqn5/wDOrLinIgIcVpqk9MkEQR1kg/V9ISy0GgwDD0mi9BsQ/y2B4LBqUyvmxUk4QjvFKGnBLMQKGVqB2ZwAyn4ttW330GI/dld0HT61D6JQaZD4XdciGHzKjDjHnshTSGkSTQmmcNY9EKcwz/hmPhsz28y4MWpILQ7ATO+cPxOgJJ2HYqLGIio2HJElY9dl/sWPTL20q9nXl9fC+OAIcga5FoGsIwnALpGtD4H2pnGoHyDeHQVleCfXXltoFXTvt49sbK97E3ua9j7atQd/pWbEyzawdxXrATjmEIMgCDI9EUZVK5Z1KyA9FAUUe/R70veyunYb2WH2AVWEcsvQARKMCT60RexcmQnU23cdjNegx6jfijEpEnFaKvQuT4KlqKhrWNJZo1KjapCnCi+Q709FQ4IfMp1lFP0BxiL5y1AdPrTVBYMcEUURkdD9cdt3tMJrMWPHRO9i28ZdjdEW8W44AR6ArEegSgsDM3/L8MHq7ZZUW5QUR8C4rh7bL2WaurNIh1Spg1RRdKjSPBm1Hq3MkAcIQk17hUNHo7ZxqF7QqmCJEyhBYOmS2ubJCSUUeaPktVbOEQSYIEU3VGIs90NJcekEnVr51iJlM8m3OTzVTaWhtp5MqMQrhMtQDLgh+IoSBZiI82l5nG0vBHyIIZgHiYDNVgKTGqkr+1hYnH2h2EWKKia5ViDJAnGJvsSAwF8OiCJo3czvI90VAy/VA+Xdll6wPuyUUYYHxVIglIWoMFS9ideCjglMQ6BeJ9Pz1cHt1EzSrJpcQNZZSrza665BbsoOqtjU3VjUuIZod94Omamhw1VB1udqGUt85EUHJCAnoB1kywOV2UAGZwgq9CmJzYwVq2JxYVTiv4qQMbq2rwjFQY8NSYbcEU0EYVkGuvrGSitXQZiUIiAlNRZA9iorPFFUcQFV9QafwsiU7kbwgE6pHgiCrSHss4ZC3acGgwS/VCVOoG5pXgKvSQOew0s7NzRztgTXRCcmiwFtrQGOBkYouNTd7qhPmSBegCXAWGlG/30zEj23cfkMb4SoxwFnQcr7f8EZ2i1C7wwJznAfmcDfq9lpgCFTgl9IAxS2idqcN3uqWORyJIDTPwxTtxeDF+9GQ648DD/VrFytrghvmaBet6cgzyiHZPGRBaN1YOd8LLr8eDQ4Hlj29GM7Gvvny0KnFxE/mCPRwBLqGIIRKEM8IgLqyFppLhXRuINRv6qAVtGzcrEKidG4QmSzBrPKsFHOjCu9dTZXwLCLky4OotCuVa1Y1wChCXeeA8r5ebpVVT5QuD6Ea3nQOK8kqCfDckq8f/4s/pJP99WO0cwHKmnqoK2oBqwjDfRFQ1zdA+aTF9cFKLjPy4F1YBOkiVg7aD6w+vTTbv6kPAVqlF96lJZR+mWktECFDjDVB3dUAuPSxWElmdWXdUW83IzhUv55dgyRAq1fgvbedCo+s5PPtYRACZb38LHuui0ILQRAB6ewAaDluqFsa6drB5tBFVptB/aZi8rC52JH+DUYmz6EN9+uNL2DmmOtglM3IKNiM77ctg8Xoj9Mn3oEAewRtyAbJjJLKdKzY8DSVojUZbDj7xHvhZw2j42wTYxv8npyfsG7Xu4RXcsxEnDTySipNyzZuRjhYjvd3vrnVhyereT91xBVUc775HNbfW1/dROcYZDNOH38HQgPjqPws3X5RQnbxdny7+UUqjTsi8VSMSTmTiAX7XYOK7zYvQ17ZoRUbD3cj2aYadVYRaneHwD+1AjU7Q5H1r5ZSs5JNRf9rShAwpAqqVyTTPLM2lK0OQeGH+nmBYx3o/3/5VHpWdYsQZA2CpGHHdYPpeNQFFQifVapXnGP/SRpKvo5EyReBtOGnPJCO8tXBKPq8pXLokKXZECQVuxckIPaKCoSeWIyiL2MReWohfeVYH65yK/Yv6Q9jqBdhc2pgiW6EJcaB6h3BNA/WXKVGlH4R4Lv8oxGE6IvKETajjMaga5VVKG75EILAOpxz1kUYP2UWVe1b/WVLqe6jfmn4CRwBjsBxQaBLCMLRZi6OsVBVRM2hQnm7EqhUIP1fMBAm+wiCdFkQxHE2qJscUL+shcYeauEyhECJyiwLiUaq1842Ve/L5dCKvRAkQJxghbKiDuIJFkiXBZN1gN6ivRqkq0Ig9DfS78wq0FGCALcGrdQDZXkVxMk2iJPtNG/NoUC6IpiEhTCJJAqkiTKCUOCB8lz50aCg+bNrYg9+6eZQIkqHEAS7CPmOcCIkyooaaNudEIaaIZ0X2EIQjj7SHzqDEYQpI/5Km/bWA1/ihIFnQlHd2J+7Dv0jhtPPH/6wCKeNvx0xYYOwdtd7VBN+VNLpGBw/FVsPrMSWA58hMXosZoyeh/1567D1wP9oTkaDBQbJgpKqNPr94hlLYbcEYdWGf6G6vpAIgr8twleiNjZsKGaPvRFuTwN+3P4Wqh1FmJh6MaJDUnwEYfrIa5AUOx5peeuxJe1/ZKBhBWWKKg8QQUjpNwUnDr8UJZUZ+GH767CZg3Hq+FtRVVeIz9f+o8NYpSzOgTmyAfsWJyFlYSZ9bvedyWR2Zy1uXjGCxlSgYl04Sr4IouVhivJAtimo3miHLcWFxJuzyDKQ+Xx/sgSwzTt4Sj2KPw1C4IQGxF2ZDUeWP9W41xQBcTcUwda/DlnL4tCYY+owQWCbvrPQD7n/DkfYzGqETC5D1ovxtJn3u6IYokGBaPTC22Ck+bDWkGtF5jNRHSII4afWIuqsfDTk+yH3tQiyliTeVgA5wN0uQTAYTbh90ROor6vFy08+SKWKeeMIcAR6LgLdQhDkeyMAf4newlGtv93Jt4QB0QYfQTA8GQ2tToX38dJ2ffJMBCmeYIWyrBzqnkNN8vJdERAiZHifLKW68qwJYTLkuyOgsoiK/1R1mCBo+W54nywjN4cQb4R8WzhZMZg1g7U/5GJotRbIemE8lCCIp/tBOiWALBnqKt0qcYgG4RivKZ0gXIbiinR8uf4JXHnKc/Tm/tEPizB77E0wGSz4ZvNLOO+kRaioyceara/SjKzmIJwybj4q6wrw2S+PID5yFE4e8zeUVWdjW/pK5BRvO2Tm5019EEF+0dievhLpBRtQXd/WonLmpLvJ/fC/tY+hojaXPj9j9LXoHz6cCEK/8OGYM/ZGVNTm44t1j8OruOicv578NLkXGEGYM+5mRAUnY9WGZ8mFIYoyZo6+FlZLEN5uskIcDVJzrAcp96XDkeOH9EdjkXh7IfwGVyHzXwmo3Wmhjw9/fj/clUYceCQeqqvZj9TSc/wNRQgYWY2MZwf4yjW3HnfQwzkwBjdi/8OJcBXqLgRzjBsp92WgZncACv8b3mGC0JBtx4FH4qgPe0ojku7IQs7r/VC1wY/+9kdcDMZwLwYvSYOnxkTX6q3VCdLBGoSDMf3bnUtgs/sTQair7Zsi5qOtI36cI9BbEOgWgmB4KgbaASe8yyp8uLQmCEKqCfL1YVB3NFJkwCFNAuS/h0MIkuG5u8kl0fokswDD4ihobhXe+4tbjviLkO+JoEpx3n+Vd5ggeF8pJ98+a0IcIwhh5OdX13YPQWB6Aqaj8DxcDJTob1nHgyBMHn4pln+7AI3uWlx5yvOkR/hxx5s4a/K9MBtt2J7+FaaOuJzcDwe3uoYKvL9mIcxGO2aNvg7hwQnkWmh01ZJ1Ib1gnU/DwNwHk4ZeApPBSn0Vlu/Dhr0fobJOdx1dMedfqG+swMc/LfYN05ogTEq9BKkDZmDV+md99enZia0JArNS+FmZNqGtgpP9/uaqG31uiSN9cSPPrkTkaUXIeTseNZut8B/hQPw1OSj6gpn/Q+A30onEGzNQuSEMua+1mP+b+2TahJT7MyHbVey6PfmQoUSrhmFP7oOnzoQ9dyX4jhuCFAx6MB3uahOynovtMEHI+Fci6naaqR/bQCeS78hEzluxqPpVd5/9EYLgl9qAxFuzUPJVBIo+DvXN9WgE4Zpb70NIWASWPbUY1ZUdsLj1licpnydHoA8i0D0E4dlYqFscFK9PzSyQkBF2kSwIwjAT5HlhUHc2QnnlMARhQRNBaNYstL4ZLORvSSSY69l7X8vbJzPRM4Kg1SrwPt9EEDY10GZPzS7CcH8kNK/WRoPgfb4M2n79LdRHED6qhvpLNxGEf0RBMAvw3N5ChsST7ZD+0r0uBqZBeGPV32jTZgRhb/ZP2LDvAx9B+C3jG5w4/K9Iz9+I3zK/avP1YDqA6roiaCxMTpDgbwsnNwWzKDD/PysNu3LD000btgCbOZAsAsMT58DfFgaPtxE/bH8b2cVbcPVpL6G4MhMr1j9BYzAXxGkT7kCIfyxZEKaNvAqJMePx+orrfHPwt0bgvJPuR37ZHrIgzJ35OI27esvLPgtD88lV9UWklzhiE4CkBTmwJ9XDVa6H+DHtgDHQDWeRHfseiIP/6EYk3JCJqk2hyHmlRZfQ3K9o0DCQEQQ/FbtuO5QgMAIx7OkDUBoN2H1nC0EwhniJFLjKLch+IQYpD6aj/IdgFH2skxA5QMWgJZnQ3GIbDULaU0lw7NPn2kwQct+KRWUXEISAEQ4MmJ+N7GX9Ub1Zt0jI/ipSHswizcXBIsVmDObf/Q+YLRa8+MQiNNQfXbPTB5+5/JI4Ar0Gge4hCMyCkOvWoxxUQDzTH9Isf2hOFd47CwET2+CjyDfqeaoUKDv0Yc30BeJYK5TVtaRRoMiEVo0lHRLjjRTm59vcE4yQb2oiHh9Ww7AwEmqmy0dCpIsDSV9ABKKVSPGoBGG6nQSC3idK20REdPauH87F0GxB8D5WQv0L7DquDwXMYqc1CIEmYHCoiIoGDQeqOh7/2CxSPBJBWLPtdZw5+S5U15fgy3WPw+mp90FgNvrB6a4jX7/D2RJZEWCLxMljboDNEox3vr4VkmSAUbb6zmFWhiFx0zEh9XxkFm3Fd1texhWnPIcGZw0+/XkJCR1JbDjoLPJhv/XVfEwaOhep8dPw3ZbXkFm0EVZTAM6cfA/8rCHILt5GBIERivDAAVi14Z++qAY2WYNkgqfJJUGbviBQ3L5skJGbqWsk6O8ikMo273oJtXtsvr8Hjq6HbPdg3wPJ8FRLSH0iDapbQNqjA+CuaBs6yIQR8fOKEHhCFYpWRKP0i0DKK9C6DbwvD5bYeqQ/kwDHfn1ztw92IvGWLFRtCkLRp6EY9GAGanf7IWdZNB3vd2UJQiaXw1Nt6RRBCD+tClFnFmPfg0lwFbdERLSez+FEis0WhLI14ShYHkYfiZtXhKCxlVBchnYJArMcXH/HgygqyMGbLzwOTT1y7o/Ofp/4+RwBjkDXItAtBIESAgVLUNbUkfBQHGbVdQYGAZ6/F+ik4Sx/SDP9oVV7oX5bC22PG+JsO7RqhfzwQpQM6cYwEu6RkPGneiDGCGmcFd5nyiDEypBvi6B+iYj4i5RYSLCJeshllgfy3eEQrCK8H1dBOsGmhzEynWFD5wiCMMoC+f9CSMjIBJOCJEC6IJCsFJ1pjCAIFhHez6v1cMrtTvpXuigQ4ol2CvHU9jRCnOGvRz0wQeNzZXroZgfbOQMlnJ0iw6sCt3/rRo27YyShIwSBuRCmDr8SA/tNQl7pLvy6+z3IkgljUs6B3RqMT35ajJmjr0eQXxQ27v0EZTVZFNVwxsQFZJVYYlZmQgAACw9JREFU/t2diA4ZTIQhLe9X/Jb1DRTVg4lDLkZC9AnYlfU99XnulPsR7B+LvTk/wyhbkBgzltwTLCTyzVXzkRg1DtNGXUXCSeb2YFERbHwBAnJKdmD1lpcQFzESM0fPowgG5iZhYZaD+p2Egf0n4b3v7vShabHZcdPdj4AJ6p5fei9qqnRyEzC2AQPmZaF4RTSKP2PROHqLvrgK4TMLUbo6CoXvByP64nKEzyiFu8qC4pWhcOw1I+y0GriLZJR+HQhTrAdJt+XA4OdGxfowlH/vD0u8B8ETapC+NAaWOA+S78qAt86A9CdZxIGC+Hn5kCxuZDybAGe+ESmLMiCaNOR/EI3gCbWwJ1UDmghvvbFTBCFoggNxV+WgsciOrOeiIZpUxFxcgYynosjK4TeyAZJVRez5eXCW2FDydSiR+LodVsj+ClIWpQGqiJLVEbAnN8AWXwNNkaBpwiEEgSVKuuTqmzEgeTBWfPwfbF3/UwdXMD+NI8AROF4IdAtBYP5zcW4QBLNIG6DyUz0EiwBxkh3el8qg7XHpeQpO9YM0zY9+psZyBHxfD+WLGvqVCQalK4P1PAnNrU6BpylMkDIcnheoj8MaIwvvVOr5GFi42FgL5IuCSRhI8/i6FuJEm77x3lcE6cIAiFP84H2+FNp+tz5mOxoE9nlxll0PhaSpCtAqPJTRUBih+3zbbS4N2saW9LVEEJqvpUHVNQd1KmATId8YCqEfU5cDWpYL6vZGSOd03sXwl2QJ5w/S8Xpxswcbijr21kaq/2GXtnIxPIc92T9h474PfS4GRhDYJj1t1LWIixjRlNpBoBwIB/LWYcPeDzE6+UwMS5gJo8EKVVXoDd3tacSWA//D7uzvEeQXi1mj51FuBaYHYMSBCQiZa2DNtlfhdNdT7oJZJ1xH0Q9MKMn69nidGJ44G99uXobs4s2YPOwyDImbStdZ11iJ1Ztfwmnjb0VB+V58t3UZ/T0uYhSmj7qKSAwLcWS3rrDiAFauf9p3u6yMINzzDxiMRix7+iGUFet5EpLvKYA1rhb7FifDVdSy/lhYY+rjaXAWmpD2WBxZGiLOqkLY9FKKEmD3T/XKKFkZhpIvg6kvW5ILcdcUwhjc4MuH4ak1Y/cdiXScZTiMOb8IkslLx70OA3JejUHdHiv9HjS5Hv0uKaAIBNUjo/jzCIROr24Jc7y8AqFTipH2ZJLPCkH5G/7eVoPAciqEn1GFiNkl+vULGlxlVuy7Lx6hJ9ci9sK8Q5YxC2VMezwRDRkmULbF89g8FKhuGQXvRyF0ZjWMLJPiTW3zIJw483RMm3MmCvOy8cZzjx7+O8KPcAQ4Aj0GgW4hCHS1QRLEJKP+Vlx2hPTEYRKEWCPgUaEdcIOFHB7chBQTJTJi5ncW7timGQSw4yyPgnbABRx0WPAX6bia6QYqfn+aZP2aRAgDTJQLgbk1hHgD5L/p5tb2GqVCXtxKRHmUZcBCGylhFLuOPzDVv6bKODlBwhO/erCrvGMEobMrNCxgAALskSRCLKvO9AkQad8RREqwxBIpsY2dhTe6PG0T5TCiEGALJ31BbUM59dG6WYx+iAodjKq6Avq/dbOaAtHgqkZk8EASRRaW74XdEoKzpyzE/ry1WLvzP77TraYgRAYnERFhVoS6xrZWH0ZgElNSIRuM2Ldza2dh8J3PMhCa+7spy2L9PpOe06B1EwH7ICdku4LGPFMb0sFOYxYCdpyFOdbvM0M7eJkHKaQrcKSZ4alsvy5CRydvCFFgS3BBaRRRv9d02CyJ7fVnivLC0s9NiZy8NYdmlAwODUfqyHGYevLpcDY24oO3XkBedkZHp8bP4whwBI4jAt1HEI7jRf6Zh462C7h7ogFOBbjze90q0tfaSSOuQoAtAmt3LUeNowhBfjGU48Agm7By/bMoqtjb1y65V1zPGRdcjlHjTqS51tdW443nlqKmumsyffYKAPgkOQK9HAFOEHr5DTza9O8YZ4BRAt78zYtiR8f0B0frs6cdH554KkYmngKT0UIaA2aFcHud2LDnI+zP+7mnTfdPM5+JJ80G03RkHtiNksJ8NDa0pN/+04DAL5Qj0IsR4AShF9+8jkzdJAGuP+Ce6MgYPeEcJn6MCUsFc0Ww6InMwk0UYskbR4AjwBHgCPw+BDhB+H248U9xBDgCHAGOAEegTyPQIwmCwWCAx9NS6Ol43QGTyQSXq+MhhcdrnnxcjgBHgCPAEeAIdDUCnCAcAVFOELp6ufH+OAIcAY4AR6C3IMAJAicIvWWt8nlyBDgCHAGOQDciwAkCJwjduNz4UBwBjgBHgCPQWxDgBKGHEwRRkhAWoefc93o8VAGP1SDgjSPAEeAIcAQ4AscSAU4QejhB8PMPxA0LloAJN1VVRU5WGpa/+s9juSZ43xwBjgBHgCPAEQAnCD2cIMgGA5IHDaPUv+OnzkJ0bBw++++b+G3zOr58OQIcAY4AR4AjcMwQEIYNG6axN9Oe1HiYY/t3Y/TEk3DGeX/FV5+9h42/fN+TbhmfC0eAI8AR4Aj0MQSE6dOna6WlpT3qsjhBaP92XHDFDRg8bDTeefkpZKXv61H3jE+GI8AR4AhwBPoWAsLkyZO1uro6KErPycfLCUL7i4xpEfwDg/DYwpv61irkV8MR4AhwBDgCPQ4BYeLEiUQQNK3n5K3nBKH9dXLtbfcjIioWbzz3KArzsnvcYuIT4ghwBDgCHIG+gwAnCEe4lz0tk2J4ZAyuuuluNDY0oKggl4SK+3Zt6zurkV8JR4AjwBHgCPQYBDhB6EUEweYXgLnX3IywiCg46uqwds1X2LxuTY9ZTHwiHAGOAEeAI9B3EOAEoRcRhLnX3oqklCH4dPkb2Ll1fd9ZhfxKOAIcAY4AR6DHIcAJQi8iCPPvfgRWmx1PLb4DipdnU+xx3yY+IY4AR4Aj0IcQ4AShFxGEy66/A/GJKXjx8UWoKCvuQ8uQXwpHgCPAEeAI9DQEhEmTJmm1tbU8iqGdO9PTRIonzT4TJ83+C7748N/YtuHnnraW+Hw4AhwBjgBHoA8hIIwfP16rr6/vUZfEwxzbvx1nX3I1hp8wAas+fQ+b1vJMij1q0fLJcAQ4AhyBPoYAr8XQw10Mdr8AXH3zvTBbLDCZLaipqsC7rz6L8tKiPrYU+eVwBDgCHAGOQE9CgBOEHk4QzBYrZpx6DlVyLC0uwM4t6+HxuHvSGuJz4QhwBDgCHIE+iAAnCD2cIPTBNccviSPAEeAIcAR6AQKcIHCC0AuWKZ8iR4AjwBHgCHQ3ApwgcILQ3WuOj8cR4AhwBDgCvQABThA4QegFy5RPkSPAEeAIcAS6GwFOEDhB6O41x8fjCHAEOAIcgV6AACcInCD0gmXKp8gR4AhwBDgC3Y0AJwicIHT3muPjcQQ4AhwBjkAvQIATBE4QesEy5VPkCHAEOAIcge5GgBMEThC6e83x8TgCHAGOAEegFyDACQInCL1gmfIpcgQ4AhwBjkB3I8AJAicI3b3m+HgcAY4AR4Aj0AsQ4ASBE4ResEz5FDkCHAGOAEeguxHgBIEThO5ec3w8jgBHgCPAEegFCHCCwAlCL1imfIocAY4AR4Aj0N0IcILACUJ3rzk+HkeAI8AR4Aj0AgQ4QeAEoRcsUz5FjgBHgCPAEehuBDhB4AShu9ccH48jwBHgCHAEegECnCBwgtALlimfIkeAI8AR4Ah0NwKcIHCC0N1rjo/HEeAIcAQ4Ar0AAU4QOEHoBcuUT5EjwBHgCHAEuhsBThA4QejuNcfH4whwBDgCHIFegMD/A6TljzuoEOkpAAAAAElFTkSuQmCC;" parent="1" vertex="1">
          <mxGeometry x="1210" y="-530" width="520" height="415" as="geometry" />
        </mxCell>
        <mxCell id="njifUeXzZiw9oMGgmkFQ-2" value="&lt;span style=&quot;font-size: 25px&quot;&gt;下发至渠道商后，接收到渠道商返回的时间&lt;/span&gt;" style="rounded=1;whiteSpace=wrap;html=1;strokeWidth=2;fillWeight=4;hachureGap=8;hachureAngle=45;sketch=1;fillColor=#dae8fc;strokeColor=#6c8ebf;" vertex="1" parent="1">
          <mxGeometry x="1280" y="-1015" width="310" height="100" as="geometry" />
        </mxCell>
        <mxCell id="njifUeXzZiw9oMGgmkFQ-3" value="&lt;span style=&quot;font-size: 20px&quot;&gt;&lt;b&gt;13:59:45.297&lt;/b&gt;&lt;/span&gt;" style="ellipse;whiteSpace=wrap;html=1;strokeWidth=2;fillWeight=2;hachureGap=8;fillStyle=auto;sketch=1;strokeColor=#b85450;shadow=0;" vertex="1" parent="1">
          <mxGeometry x="1325" y="-930" width="220" height="50" as="geometry" />
        </mxCell>
        <mxCell id="njifUeXzZiw9oMGgmkFQ-4" value="" style="shape=singleArrow;direction=south;whiteSpace=wrap;html=1;shadow=0;strokeColor=#b85450;gradientColor=#ffffff;fillColor=none;strokeWidth=3;" vertex="1" parent="1">
          <mxGeometry x="1405" y="-860" width="60" height="100" as="geometry" />
        </mxCell>
        <mxCell id="njifUeXzZiw9oMGgmkFQ-5" value="&lt;span style=&quot;font-size: 14px&quot;&gt;问题：&lt;br&gt;为什么收到渠道返回的时间间隔是秒级&lt;br&gt;&lt;/span&gt;" style="ellipse;shape=doubleEllipse;whiteSpace=wrap;html=1;shadow=0;fillColor=#ffffff;" vertex="1" parent="1">
          <mxGeometry x="1300" y="-740" width="270" height="70" as="geometry" />
        </mxCell>
        <mxCell id="njifUeXzZiw9oMGgmkFQ-6" value="" style="shape=singleArrow;direction=south;whiteSpace=wrap;html=1;shadow=0;strokeColor=#b85450;gradientColor=#ffffff;fillColor=none;strokeWidth=3;" vertex="1" parent="1">
          <mxGeometry x="1405" y="-650" width="60" height="100" as="geometry" />
        </mxCell>
        <mxCell id="njifUeXzZiw9oMGgmkFQ-10" value="&lt;font style=&quot;font-size: 25px&quot;&gt;收到回执请求，扔到 kafka&lt;/font&gt;" style="rounded=1;whiteSpace=wrap;html=1;strokeWidth=2;fillWeight=4;hachureGap=8;hachureAngle=45;sketch=1;fillColor=#dae8fc;strokeColor=#6c8ebf;" vertex="1" parent="1">
          <mxGeometry x="75" y="414" width="315" height="100" as="geometry" />
        </mxCell>
        <mxCell id="njifUeXzZiw9oMGgmkFQ-11" style="edgeStyle=orthogonalEdgeStyle;rounded=1;orthogonalLoop=1;jettySize=auto;html=1;exitX=0.5;exitY=1;exitDx=0;exitDy=0;entryX=0.5;entryY=0;entryDx=0;entryDy=0;strokeWidth=2;" edge="1" parent="1" source="njifUeXzZiw9oMGgmkFQ-12" target="njifUeXzZiw9oMGgmkFQ-13">
          <mxGeometry relative="1" as="geometry" />
        </mxCell>
        <mxCell id="njifUeXzZiw9oMGgmkFQ-12" value="&lt;span style=&quot;font-size: 20px&quot;&gt;&lt;b&gt;13:59:50.635&lt;/b&gt;&lt;/span&gt;" style="ellipse;whiteSpace=wrap;html=1;strokeWidth=2;fillWeight=2;hachureGap=8;fillStyle=auto;sketch=1;strokeColor=#b85450;shadow=0;" vertex="1" parent="1">
          <mxGeometry x="122.5" y="490" width="220" height="50" as="geometry" />
        </mxCell>
        <mxCell id="njifUeXzZiw9oMGgmkFQ-13" value="&lt;span style=&quot;font-size: 25px&quot;&gt;PushMsg -&amp;gt; Controller&lt;/span&gt;" style="rounded=1;whiteSpace=wrap;html=1;strokeWidth=2;fillWeight=4;hachureGap=8;hachureAngle=45;sketch=1;fillColor=#dae8fc;strokeColor=#6c8ebf;" vertex="1" parent="1">
          <mxGeometry x="77.5" y="614" width="310" height="100" as="geometry" />
        </mxCell>
        <mxCell id="njifUeXzZiw9oMGgmkFQ-14" style="edgeStyle=orthogonalEdgeStyle;rounded=1;orthogonalLoop=1;jettySize=auto;html=1;exitX=0.5;exitY=1;exitDx=0;exitDy=0;entryX=0.5;entryY=0;entryDx=0;entryDy=0;strokeWidth=2;" edge="1" parent="1" source="njifUeXzZiw9oMGgmkFQ-15" target="njifUeXzZiw9oMGgmkFQ-16">
          <mxGeometry relative="1" as="geometry" />
        </mxCell>
        <mxCell id="njifUeXzZiw9oMGgmkFQ-15" value="&lt;span style=&quot;font-size: 20px&quot;&gt;&lt;b&gt;13:59:53.751&lt;/b&gt;&lt;/span&gt;" style="ellipse;whiteSpace=wrap;html=1;strokeWidth=2;fillWeight=2;hachureGap=8;fillStyle=auto;sketch=1;strokeColor=#b85450;shadow=0;" vertex="1" parent="1">
          <mxGeometry x="122.5" y="704" width="220" height="50" as="geometry" />
        </mxCell>
        <mxCell id="njifUeXzZiw9oMGgmkFQ-16" value="&lt;span style=&quot;font-size: 25px&quot;&gt;Controller 服务写入 t_sms_record 表&lt;/span&gt;" style="rounded=1;whiteSpace=wrap;html=1;strokeWidth=2;fillWeight=4;hachureGap=8;hachureAngle=45;sketch=1;fillColor=#dae8fc;strokeColor=#6c8ebf;" vertex="1" parent="1">
          <mxGeometry x="77.5" y="824" width="310" height="110" as="geometry" />
        </mxCell>
        <mxCell id="njifUeXzZiw9oMGgmkFQ-17" style="edgeStyle=orthogonalEdgeStyle;rounded=1;orthogonalLoop=1;jettySize=auto;html=1;exitX=0.5;exitY=1;exitDx=0;exitDy=0;entryX=0;entryY=0.5;entryDx=0;entryDy=0;strokeWidth=3;strokeColor=#FF3333;" edge="1" parent="1" source="njifUeXzZiw9oMGgmkFQ-18" target="njifUeXzZiw9oMGgmkFQ-19">
          <mxGeometry relative="1" as="geometry" />
        </mxCell>
        <mxCell id="njifUeXzZiw9oMGgmkFQ-18" value="&lt;span style=&quot;font-size: 20px&quot;&gt;&lt;b&gt;13:59:43&lt;/b&gt;&lt;/span&gt;" style="ellipse;whiteSpace=wrap;html=1;strokeWidth=2;fillWeight=2;hachureGap=8;fillStyle=auto;sketch=1;strokeColor=#b85450;shadow=0;" vertex="1" parent="1">
          <mxGeometry x="122.5" y="916" width="220" height="50" as="geometry" />
        </mxCell>
        <mxCell id="njifUeXzZiw9oMGgmkFQ-19" value="&lt;font style=&quot;font-size: 14px&quot;&gt;&amp;nbsp; &amp;nbsp; &amp;nbsp; t_sms_record.create_time 是服务&amp;nbsp; &amp;nbsp; 处理时间，而非落库时间&lt;/font&gt;" style="ellipse;shape=doubleEllipse;whiteSpace=wrap;html=1;shadow=0;fillColor=#ffffff;" vertex="1" parent="1">
          <mxGeometry x="455" y="1034" width="270" height="70" as="geometry" />
        </mxCell>
      </root>
    </mxGraphModel>
  </diagram>
</mxfile>
